<?xml version="1.0" encoding="UTF-8"?>
<svg version="1.1" xmlns="http://www.w3.org/2000/svg" width="707" height="353">
<path d="M0 0 C7.15505972 -0.14272061 7.15505972 -0.14272061 10.5625 2.12890625 C10.96122742 4.11575317 10.96122742 4.11575317 10.99487305 6.57861328 C11.02456429 7.95981857 11.02456429 7.95981857 11.05485535 9.368927 C11.06124527 10.36479828 11.06763519 11.36066956 11.07421875 12.38671875 C11.09216995 13.40490692 11.11012115 14.42309509 11.12861633 15.47213745 C11.18291347 18.73268457 11.21667738 21.99308373 11.25 25.25390625 C11.28315592 27.46095818 11.31764394 29.66799054 11.35351562 31.875 C11.43865075 37.29283606 11.50691804 42.71069082 11.5625 48.12890625 C15.13971054 49.32130976 16.93129466 48.8523851 20.625 48.19140625 C36.22600359 45.83592898 52.48111499 45.2542919 65.84375 54.75 C73.77612804 61.24393625 77.18791334 69.0644984 78.5625 79.12890625 C78.65816616 81.85794085 78.7094336 84.5612438 78.70776367 87.28979492 C78.71112228 88.08564499 78.7144809 88.88149506 78.71794128 89.70146179 C78.72739547 92.31661564 78.72939109 94.93170516 78.73046875 97.546875 C78.73368338 99.36957322 78.73704761 101.19227119 78.74055481 103.01496887 C78.74653091 106.82696125 78.74839609 110.638931 78.74780273 114.45092773 C78.74770078 119.34033396 78.76139351 124.22959604 78.77857494 129.11896801 C78.78967553 132.8789792 78.7917226 136.63895519 78.79119301 140.39898109 C78.7923745 142.20233981 78.7968057 144.0056994 78.80452538 145.80904198 C78.81429323 148.32486599 78.81146085 150.84037234 78.80541992 153.35620117 C78.81103943 154.10274963 78.81665894 154.8492981 78.82244873 155.61846924 C78.79965432 159.34326265 78.68476048 160.94551552 76.5625 164.12890625 C74.20141602 164.63623047 74.20141602 164.63623047 71.25390625 164.80859375 C70.17512207 164.87272461 69.09633789 164.93685547 67.98486328 165.00292969 C62.48742729 165.20528929 57.00087313 165.27363443 51.5 165.25390625 C50.38689453 165.25777344 49.27378906 165.26164063 48.12695312 165.265625 C46.53077148 165.26369141 46.53077148 165.26369141 44.90234375 165.26171875 C43.94706787 165.26059082 42.99179199 165.25946289 42.00756836 165.25830078 C39.5625 165.12890625 39.5625 165.12890625 36.5625 164.12890625 C34.65537561 159.83780209 34.32477546 156.09611036 34.3671875 151.44018555 C34.37379395 150.12829758 34.38040039 148.81640961 34.38720703 147.46476746 C34.39544495 146.77068472 34.40368286 146.07660198 34.41217041 145.36148643 C34.43788906 143.16997262 34.45077785 140.97870347 34.46044922 138.7870636 C34.48707742 133.34318404 34.53539625 127.89953746 34.58325195 122.45581055 C34.62291232 117.85234152 34.65411424 113.24896126 34.67437744 108.64536476 C34.68721917 106.5000409 34.71223537 104.35508889 34.73779297 102.20988464 C34.79090589 95.25187299 34.63496858 88.81596889 32.5625 82.12890625 C29.75346379 80.72438815 27.38135492 80.99681371 24.25 81.00390625 C23.11949219 81.00132812 21.98898437 80.99875 20.82421875 80.99609375 C17.94096404 81.11349574 15.3634145 81.46677637 12.5625 82.12890625 C11.68270588 86.69274694 11.41191472 91.05000005 11.35717773 95.69482422 C11.34727814 96.42721817 11.33737854 97.15961212 11.32717896 97.91419983 C11.29578573 100.31646579 11.27089502 102.71875147 11.24609375 105.12109375 C11.22550503 106.79404186 11.20450807 108.466985 11.18312073 110.1399231 C11.12809808 114.5292557 11.07860199 118.9186337 11.03027344 123.30804443 C10.97991321 127.79264332 10.92430316 132.27717681 10.86914062 136.76171875 C10.76180155 145.55072585 10.66030339 154.33978789 10.5625 163.12890625 C6.68062927 165.25892197 3.80094004 165.38673069 -0.65234375 165.39453125 C-1.34509903 165.3964447 -2.03785431 165.39835815 -2.75160217 165.40032959 C-4.21323002 165.4016873 -5.6748701 165.39801978 -7.13647461 165.38964844 C-9.36404773 165.37895881 -11.59081148 165.38954882 -13.81835938 165.40234375 C-15.24218927 165.40102176 -16.66601866 165.39845856 -18.08984375 165.39453125 C-20.02331665 165.39114746 -20.02331665 165.39114746 -21.99584961 165.38769531 C-25.29157226 165.13987904 -27.52748282 164.66244983 -30.4375 163.12890625 C-31.81617341 160.37155944 -31.56662866 158.15608051 -31.57121277 155.06887817 C-31.57547775 153.77612976 -31.57974274 152.48338135 -31.58413696 151.15145874 C-31.58378742 149.71051022 -31.58332587 148.26956173 -31.58276367 146.82861328 C-31.58575443 145.31758541 -31.58915676 143.80655831 -31.59294128 142.29553223 C-31.60179448 138.18393889 -31.60411996 134.07236635 -31.60475707 129.96076441 C-31.60570526 126.53128586 -31.60938256 123.10181218 -31.61292917 119.67233551 C-31.62107891 111.58217299 -31.62351295 103.49202161 -31.62280273 95.40185547 C-31.62220195 87.05058296 -31.63275277 78.69937506 -31.6485464 70.3481189 C-31.66161369 63.18374105 -31.66698697 56.01938433 -31.66634732 48.85499465 C-31.66609208 44.57359606 -31.66895789 40.29225483 -31.67952538 36.01086807 C-31.68919261 31.98406673 -31.68929502 27.95737776 -31.68200874 23.93057251 C-31.68096115 22.45192171 -31.68333611 20.97326396 -31.6893692 19.49462509 C-31.69706717 17.47739803 -31.6912549 15.46013284 -31.68473816 13.44290161 C-31.68528293 12.31353746 -31.68582769 11.18417332 -31.68638897 10.02058601 C-31.43753707 7.1293369 -31.12532917 5.47719877 -29.4375 3.12890625 C-20.10449614 0.01790496 -9.75383183 0.36576869 0 0 Z " fill="#FC7F33" transform="translate(346.4375,100.87109375)"/>
<path d="M0 0 C11.48036727 14.61137652 12.2213314 29.34233759 12.23046875 47.30078125 C12.23368889 48.79908784 12.23705351 50.29739412 12.24055481 51.79570007 C12.24650419 54.91629771 12.24839871 58.0368678 12.24780273 61.1574707 C12.24770056 65.14977551 12.26142771 69.14190466 12.27857494 73.13416767 C12.28969748 76.21999421 12.29172198 79.30577801 12.29119301 82.39162254 C12.29236984 83.86398113 12.29677495 85.33634093 12.30452538 86.80867958 C12.31434425 88.8638717 12.31144156 90.91867838 12.30541992 92.97387695 C12.30684494 94.14062454 12.30826996 95.30737213 12.30973816 96.50947571 C12.06012417 99.65493859 11.51527573 101.83421131 10.0625 104.625 C-10.28010081 115.95772917 -45.33812905 115.97304913 -67.40283203 110.39306641 C-76.83668425 107.70651417 -84.96987814 103.06484825 -90.22265625 94.5390625 C-95.15606753 85.02588949 -95.25353941 73.73328929 -93.32421875 63.3125 C-90.54126299 54.68165922 -85.09413287 47.9931268 -77.0625 43.75 C-61.5033163 36.87170233 -47.45854525 37.5339472 -30.9375 39.625 C-31.13888301 37.51799274 -31.37462773 35.4142489 -31.625 33.3125 C-31.75261719 32.14074219 -31.88023437 30.96898437 -32.01171875 29.76171875 C-32.65155665 26.48800335 -32.65155665 26.48800335 -35.26953125 24.76953125 C-45.24220813 20.49135508 -56.33430777 23.05307903 -66.6015625 25.17578125 C-69.80052615 25.79096657 -72.6900541 25.86555155 -75.9375 25.625 C-81.18009541 22.06055548 -81.70781751 13.46300718 -82.9375 7.625 C-83.44320779 4.23216044 -83.45426208 2.07008052 -82.9375 -1.375 C-78.78989857 -4.71129417 -73.75871966 -5.70678095 -68.6875 -6.9375 C-67.80650635 -7.15365967 -66.9255127 -7.36981934 -66.01782227 -7.5925293 C-44.08442536 -12.77384842 -18.68245256 -15.10496165 0 0 Z M-50.9375 65.625 C-53.34487101 69.4184331 -54.18793862 72.39018322 -53.875 76.8125 C-52.87068188 80.89672703 -52.36640673 82.27890592 -48.9375 84.625 C-43.18965949 87.03909302 -37.95332351 86.76593204 -31.9375 85.625 C-30.70965191 84.61940206 -30.70965191 84.61940206 -30.82397461 82.58374023 C-30.83182983 81.27191772 -30.83182983 81.27191772 -30.83984375 79.93359375 C-30.84467773 78.51723633 -30.84467773 78.51723633 -30.84960938 77.07226562 C-30.85798828 76.07904297 -30.86636719 75.08582031 -30.875 74.0625 C-30.87951172 73.06541016 -30.88402344 72.06832031 -30.88867188 71.04101562 C-30.90049993 68.56895151 -30.91698151 66.09700482 -30.9375 63.625 C-38.2220867 60.52253548 -44.5431432 60.75379336 -50.9375 65.625 Z " fill="#FD7F32" transform="translate(296.9375,132.375)"/>
<path d="M0 0 C8.53572832 7.61562494 11.54781305 19.11355227 12.35546875 30.1015625 C12.51092214 35.5246289 12.52081386 40.94630732 12.5234375 46.37109375 C12.52665596 47.94048594 12.53002047 49.50987783 12.53352356 51.07926941 C12.53948006 54.35127459 12.54136674 57.62325346 12.54077148 60.89526367 C12.54066933 65.08610989 12.55439131 69.27678871 12.57154369 73.4675951 C12.58265456 76.70093055 12.58469108 79.93422515 12.58416176 83.16757774 C12.58534056 84.7133308 12.58975675 86.25908496 12.59749413 87.80481911 C12.6072882 89.96090212 12.60441994 92.11661617 12.59838867 94.27270508 C12.59981369 95.49798416 12.60123871 96.72326324 12.60270691 97.985672 C12.36368916 100.99796245 12.10651264 102.66520878 10.35546875 105.1015625 C4.53558939 107.79366312 -1.43080871 109.04415433 -7.70703125 110.2265625 C-8.99577148 110.47986328 -8.99577148 110.47986328 -10.31054688 110.73828125 C-12.7520755 111.21203852 -15.19678622 111.66121069 -17.64453125 112.1015625 C-19.25134766 112.39933594 -19.25134766 112.39933594 -20.890625 112.703125 C-40.62766922 114.79800378 -66.15014305 115.7066232 -82.98828125 103.38671875 C-89.67861708 97.2830355 -93.4533437 90.37030846 -94.0859375 81.30078125 C-94.52631451 69.56143115 -93.55501821 60.65503212 -86.01953125 51.2890625 C-81.76226352 46.83542633 -77.38564884 44.2544816 -71.64453125 42.1015625 C-70.80921875 41.78316406 -69.97390625 41.46476562 -69.11328125 41.13671875 C-57.21649618 37.42751996 -42.86019087 38.01226348 -30.64453125 40.1015625 C-30.45060924 34.57478517 -30.89658095 30.34541339 -32.64453125 25.1015625 C-44.01802786 22.72446514 -55.34163734 22.69307907 -66.66162109 25.6237793 C-69.7337721 26.36401563 -72.50352926 26.32999901 -75.64453125 26.1015625 C-79.58322521 23.05898593 -79.91075242 18.98724758 -80.89453125 14.3515625 C-81.08015625 13.56523437 -81.26578125 12.77890625 -81.45703125 11.96875 C-82.55168073 6.97648497 -82.68899235 3.10961959 -81.64453125 -1.8984375 C-71.06384818 -5.79496271 -60.78589073 -8.26437144 -49.64453125 -9.8984375 C-48.76925781 -10.03121094 -47.89398438 -10.16398437 -46.9921875 -10.30078125 C-30.23480608 -12.51287681 -13.94582573 -10.01133132 0 0 Z M-50.64453125 66.1015625 C-53.1224232 69.89127961 -53.8883344 72.84352764 -53.58203125 77.2890625 C-52.57771313 81.37328953 -52.07343798 82.75546842 -48.64453125 85.1015625 C-43.24538976 87.13897438 -37.85181364 88.19879069 -32.26953125 86.2890625 C-30.32507501 85.10882519 -30.32507501 85.10882519 -29.64453125 82.1015625 C-29.52248994 79.42233004 -29.45941469 76.78054954 -29.45703125 74.1015625 C-29.43866211 73.01488281 -29.43866211 73.01488281 -29.41992188 71.90625 C-29.40937292 68.09455952 -29.48028485 66.3479321 -31.64453125 63.1015625 C-38.50462928 60.81486316 -44.73417799 62.11030801 -50.64453125 66.1015625 Z " fill="#FC7F33" transform="translate(525.64453125,131.8984375)"/>
<path d="M0 0 C5.16189578 2.27730696 9.6322575 6.52377945 13 11 C13.25 14.375 13.25 14.375 12 17 C9.9375 18.375 9.9375 18.375 8 19 C8 19.66 8 20.32 8 21 C7.34 21 6.68 21 6 21 C6 21.66 6 22.32 6 23 C4.42578125 24.55078125 4.42578125 24.55078125 2.3125 26.3125 C-1.5229436 29.5749863 -5.08813674 32.99754971 -8.56640625 36.640625 C-10.00918133 38.12859545 -11.50153207 39.56813064 -13 41 C-13.66 41 -14.32 41 -15 41 C-15.226875 41.556875 -15.45375 42.11375 -15.6875 42.6875 C-17.3703574 45.65253447 -19.53621374 47.65353689 -22 50 C-22.5775 50.763125 -23.155 51.52625 -23.75 52.3125 C-26.75419855 54.56564891 -28.91859328 54.74662497 -32.625 54.58203125 C-39.40706961 52.91997801 -43.7601704 46.08779552 -48 41 C-49.29517178 39.83461579 -50.6091722 38.68994647 -51.9375 37.5625 C-55.73549631 34.33384279 -58.84981756 30.85897349 -62 27 C-60.58295703 23.89367428 -58.89166189 21.4174186 -56.6875 18.8125 C-56.11386719 18.11769531 -55.54023438 17.42289063 -54.94921875 16.70703125 C-52.60858565 14.6572183 -51.08705479 14.19012655 -48 14 C-46.0158576 15.59833694 -44.63944969 17.07542863 -43 19 C-41.88818359 20.18142578 -41.88818359 20.18142578 -40.75390625 21.38671875 C-33.68538181 28.95286731 -33.68538181 28.95286731 -32 34 C-23.8413613 25.92940417 -16.20253917 17.46251611 -9.0703125 8.47265625 C-3.39945652 1.69972826 -3.39945652 1.69972826 0 0 Z " fill="#F97F33" transform="translate(426,87)"/>
<path d="M0 0 C0 0.66 0 1.32 0 2 C-1.25296875 2.04898438 -2.5059375 2.09796875 -3.796875 2.1484375 C-5.44793821 2.22348583 -7.09897881 2.29903277 -8.75 2.375 C-9.9875 2.42140625 -9.9875 2.42140625 -11.25 2.46875 C-12.04921875 2.50742188 -12.8484375 2.54609375 -13.671875 2.5859375 C-14.77160645 2.63306885 -14.77160645 2.63306885 -15.89355469 2.68115234 C-18.38401459 3.05812738 -19.9442203 3.52398379 -22 5 C-23.03979682 8.76589664 -23.12353219 12.36729123 -23.12025452 16.25788879 C-23.12162918 17.51847107 -23.12300385 18.77905334 -23.12442017 20.07783508 C-23.12088149 21.46701074 -23.11724669 22.85618615 -23.11352539 24.24536133 C-23.1132432 25.71406045 -23.11340188 27.1827597 -23.1139679 28.65145874 C-23.11425461 32.63245304 -23.1083782 36.61341717 -23.10139394 40.59440446 C-23.09513947 44.75708249 -23.09455494 48.91976123 -23.09336853 53.08244324 C-23.09026139 60.96233611 -23.08205632 68.8422151 -23.07201904 76.72210187 C-23.06083874 85.69423384 -23.05534262 94.66636647 -23.05032361 103.63850367 C-23.0398732 122.09234525 -23.02153538 140.5461678 -23 159 C-11.12 159.33 0.76 159.66 13 160 C13 132.94 13 105.88 13 78 C21.44459688 77.39681451 29.58179341 76.84537988 38 77 C38.33 77.99 38.66 78.98 39 80 C38.01 80.495 38.01 80.495 37 81 C36.01 80.505 36.01 80.505 35 80 C32.89768123 79.90248453 30.79207377 79.87023313 28.6875 79.875 C27.55699219 79.87242187 26.42648437 79.86984375 25.26171875 79.8671875 C22.37846404 79.98458949 19.8009145 80.33787012 17 81 C16.12020588 85.56384069 15.84941472 89.9210938 15.79467773 94.56591797 C15.78477814 95.29831192 15.77487854 96.03070587 15.76467896 96.78529358 C15.73328573 99.18755954 15.70839502 101.58984522 15.68359375 103.9921875 C15.66300503 105.66513561 15.64200807 107.33807875 15.62062073 109.01101685 C15.56559808 113.40034945 15.51610199 117.78972745 15.46777344 122.17913818 C15.41741321 126.66373707 15.36180316 131.14827056 15.30664062 135.6328125 C15.19930155 144.4218196 15.09780339 153.21088164 15 162 C11.11812927 164.13001572 8.23844004 164.25782444 3.78515625 164.265625 C3.09240097 164.26753845 2.39964569 164.2694519 1.68589783 164.27142334 C0.22426998 164.27278105 -1.2373701 164.26911353 -2.69897461 164.26074219 C-4.92654773 164.25005256 -7.15331148 164.26064257 -9.38085938 164.2734375 C-10.80468927 164.27211551 -12.22851866 164.26955231 -13.65234375 164.265625 C-15.58581665 164.26224121 -15.58581665 164.26224121 -17.55834961 164.25878906 C-20.85407226 164.01097279 -23.08998282 163.53354358 -26 162 C-27.37867341 159.24265319 -27.12912866 157.02717426 -27.13371277 153.93997192 C-27.13797775 152.64722351 -27.14224274 151.3544751 -27.14663696 150.02255249 C-27.14628742 148.58160397 -27.14582587 147.14065548 -27.14526367 145.69970703 C-27.14825443 144.18867916 -27.15165676 142.67765206 -27.15544128 141.16662598 C-27.16429448 137.05503264 -27.16661996 132.9434601 -27.16725707 128.83185816 C-27.16820526 125.40237961 -27.17188256 121.97290593 -27.17542917 118.54342926 C-27.18357891 110.45326674 -27.18601295 102.36311536 -27.18530273 94.27294922 C-27.18470195 85.92167671 -27.19525277 77.57046881 -27.2110464 69.21921265 C-27.22411369 62.0548348 -27.22948697 54.89047808 -27.22884732 47.7260884 C-27.22859208 43.44468981 -27.23145789 39.16334858 -27.24202538 34.88196182 C-27.25169261 30.85516048 -27.25179502 26.82847151 -27.24450874 22.80166626 C-27.24346115 21.32301546 -27.24583611 19.84435771 -27.2518692 18.36571884 C-27.25956717 16.34849178 -27.2537549 14.33122659 -27.24723816 12.31399536 C-27.24778293 11.18463121 -27.24832769 10.05526707 -27.24888897 8.89167976 C-26.99984163 5.99816003 -26.69008034 4.34929154 -25 2 C-16.91411672 -0.78823561 -8.4455352 -0.18652716 0 0 Z " fill="#E5AA81" transform="translate(342,102)"/>
<path d="M0 0 C6 7.5 6 7.5 6 10.5 C5.34 10.5 4.68 10.5 4 10.5 C3.505 8.52 3.505 8.52 3 6.5 C2.34 6.5 1.68 6.5 1 6.5 C0.505 5.015 0.505 5.015 0 3.5 C-1.6916144 2.3694647 -1.6916144 2.3694647 -3.75 1.5 C-4.82507813 0.99339844 -4.82507813 0.99339844 -5.921875 0.4765625 C-6.60765625 0.15429688 -7.2934375 -0.16796875 -8 -0.5 C-11 -2.125 -11 -2.125 -13 -3.5 C-13 -4.16 -13 -4.82 -13 -5.5 C-17.39534927 -5.70018063 -21.79127178 -5.88274509 -26.1875 -6.0625 C-27.41404297 -6.11857422 -28.64058594 -6.17464844 -29.90429688 -6.23242188 C-40.91948392 -6.66837915 -51.33472405 -6.34407359 -62 -3.5 C-64.37146351 -3.22371299 -66.73557007 -3.00971637 -69.1171875 -2.84375 C-71.23817963 -2.64089335 -71.23817963 -2.64089335 -73 -0.5 C-74.98821313 -0.10235737 -76.98944339 0.23775349 -79 0.5 C-77.90550067 11.65858089 -77.90550067 11.65858089 -73 21.5 C-71.47814087 21.25552124 -71.47814087 21.25552124 -69.92553711 21.00610352 C-66.28623091 20.53690259 -62.85623489 20.38545514 -59.19140625 20.40234375 C-57.95068359 20.40556641 -56.70996094 20.40878906 -55.43164062 20.41210938 C-54.15482422 20.42048828 -52.87800781 20.42886719 -51.5625 20.4375 C-49.60666992 20.44426758 -49.60666992 20.44426758 -47.61132812 20.45117188 C-44.40750448 20.46290749 -41.20377637 20.47932637 -38 20.5 C-38 21.16 -38 21.82 -38 22.5 C-39.18142578 22.46519531 -39.18142578 22.46519531 -40.38671875 22.4296875 C-49.37411871 22.28078383 -57.85560584 23.22218352 -66.6484375 25.05078125 C-69.85303328 25.66295486 -72.74732908 25.74093859 -76 25.5 C-81.24259541 21.93555548 -81.77031751 13.33800718 -83 7.5 C-83.50570779 4.10716044 -83.51676208 1.94508052 -83 -1.5 C-78.85239857 -4.83629417 -73.82121966 -5.83178095 -68.75 -7.0625 C-67.86900635 -7.27865967 -66.9880127 -7.49481934 -66.08032227 -7.7175293 C-44.24296166 -12.87616179 -18.44537597 -15.37114664 0 0 Z " fill="#EB8345" transform="translate(297,132.5)"/>
<path d="M0 0 C0.33 0 0.66 0 1 0 C1.93499435 4.74227808 2.14821147 9.34438427 2.14526367 14.16088867 C2.14862228 14.95673874 2.1519809 15.75258881 2.15544128 16.57255554 C2.16489547 19.18770939 2.16689109 21.80279891 2.16796875 24.41796875 C2.17118338 26.24066697 2.17454761 28.06336494 2.17805481 29.88606262 C2.18403091 33.698055 2.18589609 37.51002475 2.18530273 41.32202148 C2.18520078 46.21142771 2.19889351 51.10068979 2.21607494 55.99006176 C2.22717553 59.75007295 2.2292226 63.51004894 2.22869301 67.27007484 C2.2298745 69.07343356 2.2343057 70.87679315 2.24202538 72.68013573 C2.25179323 75.19595974 2.24896085 77.71146609 2.24291992 80.22729492 C2.24853943 80.97384338 2.25415894 81.72039185 2.25994873 82.48956299 C2.23715432 86.2143564 2.12226048 87.81660927 0 91 C-2.36108398 91.50732422 -2.36108398 91.50732422 -5.30859375 91.6796875 C-6.92677002 91.77588379 -6.92677002 91.77588379 -8.57763672 91.87402344 C-14.07507271 92.07638304 -19.56162687 92.14472818 -25.0625 92.125 C-26.7321582 92.13080078 -26.7321582 92.13080078 -28.43554688 92.13671875 C-29.49966797 92.13542969 -30.56378906 92.13414062 -31.66015625 92.1328125 C-33.09307007 92.13112061 -33.09307007 92.13112061 -34.55493164 92.12939453 C-37 92 -37 92 -40 91 C-41.90388008 86.71257753 -42.24135289 82.96305108 -42.21118164 78.3112793 C-42.20780289 76.99939133 -42.20442413 75.68750336 -42.20094299 74.33586121 C-42.18740255 72.91531319 -42.17380557 71.49476572 -42.16015625 70.07421875 C-42.15387593 68.6022023 -42.14863915 67.13018107 -42.14439392 65.65815735 C-42.13112698 61.79001033 -42.10672384 57.92202291 -42.07904053 54.05395508 C-42.03585109 47.8748375 -42.00602242 41.69568094 -41.9829998 35.51645851 C-41.97287809 33.37123524 -41.95581431 31.22614971 -41.93800354 29.08097839 C-41.8965844 22.30723575 -42.05537299 15.71513638 -43 9 C-42.34 9 -41.68 9 -41 9 C-39.20702737 13.61716956 -38.75585408 17.44182896 -38.77294922 22.38232422 C-38.77265717 23.09521103 -38.77236511 23.80809784 -38.77206421 24.54258728 C-38.77344862 26.88008132 -38.7889674 29.21724969 -38.8046875 31.5546875 C-38.8084208 33.18278835 -38.81126628 34.81089146 -38.81326294 36.43899536 C-38.82087444 40.71006548 -38.84050144 44.98099811 -38.8626709 49.25201416 C-38.88679368 54.38407551 -38.89592214 59.51618301 -38.90757751 64.64828491 C-38.92692742 72.43228536 -38.96526716 80.21598455 -39 88 C-26.46 88 -13.92 88 -1 88 C-0.67 58.96 -0.34 29.92 0 0 Z " fill="#E5AF8F" transform="translate(423,174)"/>
<path d="M0 0 C8.53572832 7.61562494 11.54781305 19.11355227 12.35546875 30.1015625 C12.51092214 35.5246289 12.52081386 40.94630732 12.5234375 46.37109375 C12.52665596 47.94048594 12.53002047 49.50987783 12.53352356 51.07926941 C12.53948006 54.35127459 12.54136674 57.62325346 12.54077148 60.89526367 C12.54066933 65.08610989 12.55439131 69.27678871 12.57154369 73.4675951 C12.58265456 76.70093055 12.58469108 79.93422515 12.58416176 83.16757774 C12.58534056 84.7133308 12.58975675 86.25908496 12.59749413 87.80481911 C12.6072882 89.96090212 12.60441994 92.11661617 12.59838867 94.27270508 C12.59981369 95.49798416 12.60123871 96.72326324 12.60270691 97.985672 C12.36360004 100.9990856 12.11102486 102.66661663 10.35546875 105.1015625 C3.58638411 108.18921514 -4.12986576 110.58637963 -11.64453125 110.1015625 C-10.31119792 109.43489583 -8.97786458 108.76822917 -7.64453125 108.1015625 C-7.02578125 107.7509375 -6.40703125 107.4003125 -5.76953125 107.0390625 C-3.64453125 106.1015625 -3.64453125 106.1015625 -0.45703125 105.6015625 C0.47109375 105.4365625 1.39921875 105.2715625 2.35546875 105.1015625 C2.68546875 104.4415625 3.01546875 103.7815625 3.35546875 103.1015625 C5.33069721 102.05348209 7.33028384 101.0495214 9.35546875 100.1015625 C9.42533368 90.92121552 9.47846371 81.74096168 9.51090527 72.56040573 C9.52648462 68.29635906 9.54757943 64.03249583 9.58178711 59.76855469 C9.61465916 55.64474972 9.63237971 51.52111991 9.64010048 47.39719391 C9.6455945 45.83291115 9.65632119 44.26863672 9.67265892 42.70442963 C9.75658283 34.32743971 9.44577861 26.62881679 7.00141907 18.52227783 C6.35546875 16.1015625 6.35546875 16.1015625 6.35546875 12.1015625 C5.69546875 12.1015625 5.03546875 12.1015625 4.35546875 12.1015625 C4.35546875 11.4415625 4.35546875 10.7815625 4.35546875 10.1015625 C3.59234375 10.1840625 2.82921875 10.2665625 2.04296875 10.3515625 C-0.64453125 10.1015625 -0.64453125 10.1015625 -2.33203125 8.4140625 C-3.64453125 6.1015625 -3.64453125 6.1015625 -4.39453125 3.6640625 C-6.91238929 -1.49754647 -11.89890907 -3.80126114 -17.14453125 -5.6484375 C-24.42596261 -7.98501622 -32.00569205 -8.14504092 -39.58203125 -8.4609375 C-40.55205078 -8.50412109 -41.52207031 -8.54730469 -42.52148438 -8.59179688 C-44.89571726 -8.69705843 -47.27004046 -8.79919457 -49.64453125 -8.8984375 C-49.64453125 -9.2284375 -49.64453125 -9.5584375 -49.64453125 -9.8984375 C-31.83632412 -12.27286512 -15.00846355 -10.77417029 0 0 Z " fill="#E39B72" transform="translate(525.64453125,131.8984375)"/>
<path d="M0 0 C3.92420027 3.92420027 3.13573206 9.97445371 3.17700195 15.24291992 C3.18357315 15.94123428 3.19014435 16.63954865 3.19691467 17.35902405 C3.21648742 19.64950693 3.22826712 21.93992513 3.23828125 24.23046875 C3.24235678 25.01556635 3.2464323 25.80066395 3.25063133 26.60955238 C3.27141227 30.75621903 3.28575459 34.90285325 3.29516602 39.04956055 C3.30628225 43.33379705 3.34076368 47.61752158 3.38033772 51.90157604 C3.40642724 55.19835906 3.41485041 58.49501773 3.41844749 61.79189491 C3.42332448 63.37199723 3.43497009 64.95209359 3.45348549 66.53209496 C3.47774074 68.73690694 3.47693927 70.94036016 3.4699707 73.14526367 C3.47583694 74.39957687 3.48170319 75.65389008 3.48774719 76.94621277 C3 80 3 80 1.15812683 81.92842102 C-1 83 -1 83 -4 83 C-4.495 84.485 -4.495 84.485 -5 86 C-6.890625 86.6953125 -6.890625 86.6953125 -9.25 87.125 C-10.05824219 87.2796875 -10.86648438 87.434375 -11.69921875 87.59375 C-12.45847656 87.7278125 -13.21773437 87.861875 -14 88 C-15.010625 88.20625 -16.02125 88.4125 -17.0625 88.625 C-17.701875 88.74875 -18.34125 88.8725 -19 89 C-19 89.66 -19 90.32 -19 91 C-28.17529596 92.67354793 -37.05396237 93.35453957 -46.375 93.3125 C-48.28309448 93.30621582 -48.28309448 93.30621582 -50.22973633 93.29980469 C-63.00214812 93.14606799 -74.31303382 91.41725256 -86 86 C-86 85.67 -86 85.34 -86 85 C-82.50907734 84.75064838 -80.43666103 84.76643713 -77.3125 86.4375 C-73.29760135 88.33132012 -69.87829778 88.53404079 -65.48828125 88.7890625 C-63 89 -63 89 -60 90 C-55.94152072 90.23501656 -51.87705832 90.18518401 -47.8125 90.1875 C-46.70068359 90.19974609 -45.58886719 90.21199219 -44.44335938 90.22460938 C-38.24972623 90.2356105 -32.92223326 89.82902497 -27 88 C-21.53204881 86.31755348 -16.24363309 85.42647617 -10.57421875 84.7578125 C-7.84933997 84.25770697 -7.84933997 84.25770697 -6.64453125 81.9296875 C-6.32548828 80.97449219 -6.32548828 80.97449219 -6 80 C-4.02 80.33 -2.04 80.66 0 81 C0 54.27 0 27.54 0 0 Z " fill="#EB8248" transform="translate(533,152)"/>
<path d="M0 0 C2.17578125 1.09375 2.17578125 1.09375 3.17578125 3.09375 C3.32576036 4.42020016 3.42413828 5.75277094 3.4921875 7.0859375 C3.53408203 7.87355469 3.57597656 8.66117188 3.61914062 9.47265625 C3.65845703 10.29636719 3.69777344 11.12007812 3.73828125 11.96875 C3.78146484 12.78472656 3.82464844 13.60070312 3.86914062 14.44140625 C4.05211563 18.00215797 4.17578125 21.52608784 4.17578125 25.09375 C1.39135184 28.14746659 -0.35843956 29.02120652 -4.4609375 29.66015625 C-5.81089332 29.68886459 -7.16179477 29.68641857 -8.51171875 29.65625 C-9.21562744 29.64166748 -9.91953613 29.62708496 -10.64477539 29.61206055 C-15.85495392 29.37645431 -20.50994492 28.72325385 -25.0859375 26.046875 C-28.15074349 22.60327277 -28.04719996 18.80049577 -28.15234375 14.34765625 C-27.70221388 9.88386836 -27.17069118 6.42110416 -23.8984375 3.1953125 C-16.33844498 -1.48173688 -8.60559479 -2.76140801 0 0 Z M-20.82421875 6.09375 C-23.23158976 9.8871831 -24.07465737 12.85893322 -23.76171875 17.28125 C-22.75740063 21.36547703 -22.25312548 22.74765592 -18.82421875 25.09375 C-13.07637824 27.50784302 -7.84004226 27.23468204 -1.82421875 26.09375 C-0.59637066 25.08815206 -0.59637066 25.08815206 -0.71069336 23.05249023 C-0.71854858 21.74066772 -0.71854858 21.74066772 -0.7265625 20.40234375 C-0.73139648 18.98598633 -0.73139648 18.98598633 -0.73632812 17.54101562 C-0.74470703 16.54779297 -0.75308594 15.55457031 -0.76171875 14.53125 C-0.76623047 13.53416016 -0.77074219 12.53707031 -0.77539062 11.50976562 C-0.78721868 9.03770151 -0.80370026 6.56575482 -0.82421875 4.09375 C-8.10880545 0.99128548 -14.42986195 1.22254336 -20.82421875 6.09375 Z " fill="#E78242" transform="translate(266.82421875,191.90625)"/>
<path d="M0 0 C1.77049689 -0.05410687 3.54146849 -0.09284119 5.3125 -0.125 C6.29863281 -0.14820312 7.28476562 -0.17140625 8.30078125 -0.1953125 C11 0 11 0 14 2 C14.39872742 3.98684692 14.39872742 3.98684692 14.43237305 6.44970703 C14.46206429 7.83091232 14.46206429 7.83091232 14.49235535 9.24002075 C14.49874527 10.23589203 14.50513519 11.23176331 14.51171875 12.2578125 C14.52966995 13.27600067 14.54762115 14.29418884 14.56611633 15.3432312 C14.62041347 18.60377832 14.65417738 21.86417748 14.6875 25.125 C14.72065592 27.33205193 14.75514394 29.53908429 14.79101562 31.74609375 C14.87615075 37.16392981 14.94441804 42.58178457 15 48 C18.57721054 49.19240351 20.36879466 48.72347885 24.0625 48.0625 C38.24756486 45.92080458 54.52276427 44.78086853 67 53 C73.087806 57.53762269 78.29899463 62.33106053 80 70 C79.5859375 72.265625 79.5859375 72.265625 79 74 C78.01 74 77.02 74 76 74 C75.34 70.7 74.68 67.4 74 64 C72.515 63.505 72.515 63.505 71 63 C70.67 62.01 70.34 61.02 70 60 C65.36622635 55.35412772 60.28888744 53.12620829 54.00390625 51.54296875 C52 51 52 51 51 50 C48.11332826 49.86988796 45.26249006 49.81055836 42.375 49.8125 C41.52212402 49.81113037 40.66924805 49.80976074 39.79052734 49.80834961 C33.09077654 49.85894441 26.71243842 50.53879925 20.1015625 51.66015625 C17.05488724 51.99398591 14.95592442 51.66810276 12 51 C11.98969254 50.41784225 11.97938507 49.83568451 11.96876526 49.23588562 C11.86071434 43.18521866 11.74611508 37.13470105 11.62768555 31.08422852 C11.5843322 28.82514567 11.54265742 26.56602997 11.50268555 24.30688477 C11.44499287 21.06256196 11.38129531 17.8184046 11.31640625 14.57421875 C11.29969376 13.56163498 11.28298126 12.54905121 11.26576233 11.50578308 C11.24581711 10.56503433 11.22587189 9.62428558 11.20532227 8.6550293 C11.18977798 7.82674118 11.1742337 6.99845306 11.15821838 6.14506531 C11.07459277 3.81446753 11.07459277 3.81446753 10 1 C6.7 1 3.4 1 0 1 C0 0.67 0 0.34 0 0 Z " fill="#E3AC87" transform="translate(343,101)"/>
<path d="M0 0 C0.495 1.485 0.495 1.485 1 3 C0.34 3.33 -0.32 3.66 -1 4 C-1.66 3.67 -2.32 3.34 -3 3 C-5.10231877 2.90248453 -7.20792623 2.87023313 -9.3125 2.875 C-10.44300781 2.87242187 -11.57351563 2.86984375 -12.73828125 2.8671875 C-15.62153596 2.98458949 -18.1990855 3.33787012 -21 4 C-21.87979412 8.56384069 -22.15058528 12.9210938 -22.20532227 17.56591797 C-22.22017166 18.6645089 -22.22017166 18.6645089 -22.23532104 19.78529358 C-22.26671427 22.18755954 -22.29160498 24.58984522 -22.31640625 26.9921875 C-22.33699497 28.66513561 -22.35799193 30.33807875 -22.37937927 32.01101685 C-22.43440192 36.40034945 -22.48389801 40.78972745 -22.53222656 45.17913818 C-22.58258679 49.66373707 -22.63819684 54.14827056 -22.69335938 58.6328125 C-22.80069845 67.4218196 -22.90219661 76.21088164 -23 85 C-26.79039366 87.12999997 -29.65736138 87.16702456 -34 87 C-34.33 86.34 -34.66 85.68 -35 85 C-33.3603125 84.7834375 -33.3603125 84.7834375 -31.6875 84.5625 C-28.06877013 84.11711896 -28.06877013 84.11711896 -25 83 C-25 55.94 -25 28.88 -25 1 C-16.55540312 0.39681451 -8.41820659 -0.15462012 0 0 Z " fill="#E1A27C" transform="translate(380,179)"/>
<path d="M0 0 C2.97 0.495 2.97 0.495 6 1 C6 1.66 6 2.32 6 3 C7.03060547 2.96519531 7.03060547 2.96519531 8.08203125 2.9296875 C9.43361328 2.90261719 9.43361328 2.90261719 10.8125 2.875 C11.70582031 2.85179687 12.59914062 2.82859375 13.51953125 2.8046875 C16 3 16 3 19 5 C19 5.66 19 6.32 19 7 C19.84304687 7.13277344 20.68609375 7.26554688 21.5546875 7.40234375 C22.65039062 7.57894531 23.74609375 7.75554687 24.875 7.9375 C25.96554688 8.11152344 27.05609375 8.28554687 28.1796875 8.46484375 C31 9 31 9 33 10 C35.30042747 10.09788267 37.60374193 10.13077643 39.90625 10.1328125 C40.58675415 10.13376923 41.2672583 10.13472595 41.96838379 10.13571167 C43.40747164 10.13639231 44.84656257 10.13454607 46.28564453 10.13037109 C48.49128093 10.12502115 50.6967137 10.13031991 52.90234375 10.13671875 C54.29947962 10.13605795 55.69661536 10.13477674 57.09375 10.1328125 C58.36927734 10.13168457 59.64480469 10.13055664 60.95898438 10.12939453 C63.91860306 10.21102599 63.91860306 10.21102599 66 9 C67.68496 8.84446523 69.37332131 8.72478271 71.0625 8.625 C75.73282779 8.25210734 79.61282274 7.25248834 83.984375 5.6328125 C86.69590755 4.7815174 89.18409004 4.78339154 92 5 C92 4.34 92 3.68 92 3 C92.99 3 93.98 3 95 3 C95 3.66 95 4.32 95 5 C69.34811117 14.57087519 34.91742187 18.5338881 9.0234375 7.76171875 C4.98860958 5.69306888 2.59773756 3.74963954 0 0 Z " fill="#D5986B" transform="translate(212,232)"/>
<path d="M0 0 C1.31355469 0.00386719 2.62710937 0.00773438 3.98046875 0.01171875 C5.00358154 0.03032959 5.00358154 0.03032959 6.04736328 0.04931641 C8.11931946 0.08570056 10.18947713 0.09033632 12.26171875 0.08984375 C18.38388318 0.14380994 23.48678793 0.2556956 29.2578125 2.4609375 C30.26707729 6.61720118 30.36020829 10.50458844 30.3203125 14.7734375 C30.31128906 16.02769531 30.30226563 17.28195313 30.29296875 18.57421875 C30.28136719 19.52683594 30.26976562 20.47945312 30.2578125 21.4609375 C29.21326904 21.45046387 28.16872559 21.43999023 27.0925293 21.42919922 C23.21805243 21.39300578 19.34359051 21.37003945 15.46899414 21.35107422 C13.79188525 21.34101513 12.11479389 21.32736628 10.43774414 21.31005859 C8.02746248 21.28580598 5.61741264 21.2744536 3.20703125 21.265625 C2.45693283 21.25530243 1.70683441 21.24497986 0.93400574 21.23434448 C-2.84519529 21.2335295 -4.51633149 21.31036683 -7.7421875 23.4609375 C-9.08965407 23.70893748 -10.44551328 23.91326564 -11.8046875 24.0859375 C-17.23629881 25.1544512 -20.59419233 28.19149574 -24.67578125 31.78125 C-26.7421875 33.4609375 -26.7421875 33.4609375 -28.7421875 33.4609375 C-26.2589298 27.72844212 -21.57088029 24.72924813 -15.98046875 22.22265625 C-7.46393443 19.02750354 0.16186011 18.29982776 9.1953125 18.3359375 C10.15888672 18.33207031 11.12246094 18.32820313 12.11523438 18.32421875 C17.27128626 18.33126735 22.17747568 18.57064203 27.2578125 19.4609375 C27.45173451 13.93416017 27.0057628 9.70478839 25.2578125 4.4609375 C13.01585859 1.74514568 1.58469008 2.98412332 -10.7421875 4.4609375 C-7.42844754 0.32311868 -5.21014594 -0.03574834 0 0 Z " fill="#D4996E" transform="translate(467.7421875,152.5390625)"/>
<path d="M0 0 C-2 2 -2 2 -3.9453125 2.1953125 C-5.96354167 2.13020833 -7.98177083 2.06510417 -10 2 C-10 2.66 -10 3.32 -10 4 C-11.98 4.33 -13.96 4.66 -16 5 C-15.7697175 7.52401744 -15.51645793 10.04225203 -15.25 12.5625 C-15.188125 13.26697266 -15.12625 13.97144531 -15.0625 14.69726562 C-14.47451943 20.01358995 -12.90439755 23.507629 -10 28 C-8.47814087 27.75552124 -8.47814087 27.75552124 -6.92553711 27.50610352 C-3.28623091 27.03690259 0.14376511 26.88545514 3.80859375 26.90234375 C5.04931641 26.90556641 6.29003906 26.90878906 7.56835938 26.91210938 C8.84517578 26.92048828 10.12199219 26.92886719 11.4375 26.9375 C13.39333008 26.94426758 13.39333008 26.94426758 15.38867188 26.95117188 C18.59249552 26.96290749 21.79622363 26.97932637 25 27 C25 27.66 25 28.32 25 29 C24.21238281 28.97679687 23.42476563 28.95359375 22.61328125 28.9296875 C13.62588129 28.78078383 5.14439416 29.72218352 -3.6484375 31.55078125 C-6.85303328 32.16295486 -9.74732908 32.24093859 -13 32 C-18.24259541 28.43555548 -18.77031751 19.83800718 -20 14 C-20.50570779 10.60716044 -20.51676208 8.44508052 -20 5 C-15.80723921 0.66266126 -5.77702955 -2.01176558 0 0 Z " fill="#E3925F" transform="translate(234,126)"/>
<path d="M0 0 C1.8984375 1.1640625 1.8984375 1.1640625 3 3 C3.51171875 5.78515625 3.51171875 5.78515625 3.6875 9.0625 C3.75066406 10.21492187 3.81382812 11.36734375 3.87890625 12.5546875 C4.32838983 25.34322034 4.32838983 25.34322034 3 28 C1.02 27.67 -0.96 27.34 -3 27 C-2.01 26.34 -1.02 25.68 0 25 C1.24078003 21.2776599 1.14555459 17.81203967 1.125 13.9375 C1.12886719 13.20466797 1.13273437 12.47183594 1.13671875 11.71679688 C1.21095757 7.72879812 1.21095757 7.72879812 0 4 C-5.60892529 2.13035824 -10.86306909 2.65511512 -16.26171875 4.8984375 C-19.49668766 6.94846274 -20.11538078 9.40254852 -21 13 C-21.08244943 16.45653388 -20.90305189 19.70593595 -18.86328125 22.62890625 C-16.18424186 24.60027486 -13.55128775 25.01408869 -10.3125 25.6875 C-9.13300781 25.93886719 -7.95351563 26.19023437 -6.73828125 26.44921875 C-5.83464844 26.63097656 -4.93101562 26.81273437 -4 27 C-4 27.33 -4 27.66 -4 28 C-8.29 28 -12.58 28 -17 28 C-17 27.34 -17 26.68 -17 26 C-17.763125 25.896875 -18.52625 25.79375 -19.3125 25.6875 C-22.34642629 24.91137932 -23.16446152 24.48886574 -25 22 C-26.21583995 16.20081187 -26.53930635 10.42844906 -23.2890625 5.30078125 C-16.56976097 -0.91624691 -8.73227662 -1.55593293 0 0 Z " fill="#DF7F46" transform="translate(494,192)"/>
<path d="M0 0 C2.83660152 2.83660152 2.25371006 4.70780066 2.25878906 8.68115234 C2.2622937 9.36752274 2.26579834 10.05389313 2.26940918 10.76106262 C2.27823063 13.03612302 2.27237476 15.31087378 2.265625 17.5859375 C2.26697185 19.16533467 2.26891254 20.74473144 2.27142334 22.3241272 C2.27437541 25.63799986 2.2700755 28.95176484 2.26074219 32.265625 C2.24936618 36.51162004 2.25589475 40.75736173 2.26788712 45.0033474 C2.27511942 48.26673282 2.27281117 51.53005835 2.26763153 54.79344559 C2.26629786 56.35873062 2.26793288 57.9240211 2.27259064 59.48929977 C2.27767634 61.67969876 2.26991637 63.86968993 2.25878906 66.06005859 C2.25640228 67.92964737 2.25640228 67.92964737 2.25396729 69.83700562 C2.01042108 72.87021232 1.77030482 74.55276651 0 77 C-6.76908464 80.08765264 -14.48533451 82.48481713 -22 82 C-20.66666667 81.33333333 -19.33333333 80.66666667 -18 80 C-17.38125 79.649375 -16.7625 79.29875 -16.125 78.9375 C-14 78 -14 78 -10.8125 77.5 C-9.884375 77.335 -8.95625 77.17 -8 77 C-7.505 76.01 -7.505 76.01 -7 75 C-5.02 74.01 -3.04 73.02 -1 72 C-0.67 48.24 -0.34 24.48 0 0 Z " fill="#E2C081" transform="translate(536,160)"/>
<path d="M0 0 C1.79093191 -0.08086147 3.58289628 -0.13912702 5.375 -0.1875 C6.87160156 -0.23970703 6.87160156 -0.23970703 8.3984375 -0.29296875 C9.25695312 -0.19628906 10.11546875 -0.09960938 11 0 C13.13363651 3.20045476 13.24672228 3.98629436 13.22705078 7.6550293 C13.22689972 8.59577805 13.22674866 9.53652679 13.22659302 10.50578308 C13.21627045 11.51836685 13.20594788 12.53095062 13.1953125 13.57421875 C13.1924826 14.61318802 13.18965271 15.65215729 13.18673706 16.72261047 C13.17553282 20.04435697 13.15042764 23.36583485 13.125 26.6875 C13.11497052 28.93814715 13.10584462 31.18879852 13.09765625 33.43945312 C13.0755927 38.95972722 13.04211271 44.47984442 13 50 C15.58366245 49.85879984 18.16682885 49.71221667 20.75 49.5625 C21.47960937 49.52318359 22.20921875 49.48386719 22.9609375 49.44335938 C26.43387164 49.23814054 29.64165512 48.87291973 33 48 C36.08042857 47.7603627 39.16112887 47.76903773 42.25 47.75 C43.07113281 47.729375 43.89226562 47.70875 44.73828125 47.6875 C51.76710118 47.6429433 57.0604986 49.0403324 63 53 C61.35369672 52.85957123 59.70795821 52.71250671 58.0625 52.5625 C57.14597656 52.48128906 56.22945313 52.40007812 55.28515625 52.31640625 C53 52 53 52 52 51 C49.01127586 50.89828166 46.05114366 50.85929391 43.0625 50.875 C42.19238281 50.87693359 41.32226562 50.87886719 40.42578125 50.88085938 C36.0888051 50.91007553 31.81379112 51.00899938 27.5 51.5 C22.362263 52.07085967 17.16935414 52 12 52 C11.67 36.16 11.34 20.32 11 4 C5.39 4 -0.22 4 -6 4 C-10.02209578 3.71524986 -13.99857299 3.4317532 -18 3 C-18 2.67 -18 2.34 -18 2 C-12.06 2 -6.12 2 0 2 C0 1.34 0 0.68 0 0 Z " fill="#E98344" transform="translate(342,102)"/>
<path d="M0 0 C0.66 0 1.32 0 2 0 C3.7604542 4.55007901 4.23645373 8.28449171 4.1953125 13.15112305 C4.19239197 13.83968384 4.18947144 14.52824463 4.1864624 15.2376709 C4.17889109 16.72234184 4.16670135 18.2069951 4.15032959 19.69159508 C4.12467943 22.04108169 4.11174146 24.39034115 4.10205078 26.73994446 C4.07926488 31.72256548 4.04074784 36.70499776 4 41.6875 C3.952794 47.47301192 3.91204196 53.25841788 3.88812256 59.04407692 C3.87515429 61.35917567 3.85014672 63.67394692 3.82470703 65.98893738 C3.81744352 67.40497553 3.81073986 68.8210167 3.8046875 70.23706055 C3.79421387 71.47360886 3.78374023 72.71015717 3.77294922 73.98417664 C3.76551187 77.17982636 3.76551187 77.17982636 6 80 C9.10213725 80.51220541 9.10213725 80.51220541 12.7578125 80.51171875 C13.75238968 80.53864555 13.75238968 80.53864555 14.76705933 80.56611633 C16.88630803 80.62032924 19.00533025 80.65414771 21.125 80.6875 C22.56122952 80.72066367 23.9974291 80.75515245 25.43359375 80.79101562 C28.95551129 80.87605964 32.47750759 80.94281873 36 81 C36 81.33 36 81.66 36 82 C32.32251392 82.84722683 28.9190651 83.12856835 25.1484375 83.1328125 C24.05015625 83.13410156 22.951875 83.13539063 21.8203125 83.13671875 C20.68335938 83.13285156 19.54640625 83.12898438 18.375 83.125 C17.2303125 83.12886719 16.085625 83.13273437 14.90625 83.13671875 C13.81054688 83.13542969 12.71484375 83.13414062 11.5859375 83.1328125 C10.5861084 83.13168457 9.5862793 83.13055664 8.55615234 83.12939453 C6 83 6 83 3 82 C1.09611992 77.71257753 0.75864711 73.96305108 0.78881836 69.3112793 C0.79219711 67.99939133 0.79557587 66.68750336 0.79905701 65.33586121 C0.81259745 63.91531319 0.82619443 62.49476572 0.83984375 61.07421875 C0.84612407 59.6022023 0.85136085 58.13018107 0.85560608 56.65815735 C0.86887302 52.79001033 0.89327616 48.92202291 0.92095947 45.05395508 C0.96414891 38.8748375 0.99397758 32.69568094 1.0170002 26.51645851 C1.02712191 24.37123524 1.04418569 22.22614971 1.06199646 20.08097839 C1.1034156 13.30723575 0.94462701 6.71513638 0 0 Z " fill="#CD885F" transform="translate(380,183)"/>
<path d="M0 0 C0.04632061 10.88313874 0.08186784 21.76625407 0.10362434 32.64947128 C0.11406585 37.70287302 0.12823181 42.75620736 0.15087891 47.80957031 C0.17259411 52.68545444 0.18456586 57.5612737 0.18975449 62.43720245 C0.19345261 64.29835278 0.20067403 66.15949951 0.21146011 68.02062225 C0.22595741 70.62548014 0.22797868 73.23006926 0.22705078 75.83496094 C0.23424133 76.60604187 0.24143188 77.3771228 0.24884033 78.17156982 C0.23305892 82.26016921 -0.11811173 84.23622346 -2 88 C-2.33 59.29 -2.66 30.58 -3 1 C-1 0 -1 0 0 0 Z " fill="#E97F40" transform="translate(423,174)"/>
<path d="M0 0 C8.17619305 9.29112847 6.16211238 25.18752354 6.16796875 36.74609375 C6.17118825 38.2491916 6.17455283 39.75228914 6.17805481 41.25538635 C6.1840031 44.38437631 6.18589875 47.51333879 6.18530273 50.64233398 C6.18520039 54.65277136 6.19894576 58.66303457 6.21607494 62.67343044 C6.22717411 65.76775426 6.22922273 68.86203534 6.22869301 71.95637703 C6.22987268 73.43597079 6.23429373 74.91556567 6.24202538 76.39513969 C6.25179992 78.4555295 6.24895951 80.51553198 6.24291992 82.57592773 C6.24434494 83.74711655 6.24576996 84.91830536 6.24723816 86.12498474 C6 89 6 89 4 92 C3.99413376 91.14603638 3.98826752 90.29207275 3.98222351 89.41223145 C3.92388854 81.29372837 3.85158558 73.17548858 3.76428509 65.05724335 C3.71989621 60.88535052 3.68057465 56.71354832 3.65356445 52.54150391 C3.62721235 48.50179599 3.58659603 44.46244301 3.53681374 40.42295837 C3.52035736 38.89554827 3.50871299 37.36807708 3.50238609 35.84059143 C3.45941804 26.40471188 2.62530711 17.62335874 0.63825989 8.3873291 C0.08962661 5.47566017 -0.13206953 2.94686581 0 0 Z " fill="#DAB299" transform="translate(303,143)"/>
<path d="M0 0 C0 0.33 0 0.66 0 1 C-3.63 1.33 -7.26 1.66 -11 2 C-11 2.66 -11 3.32 -11 4 C-12.0725 4.103125 -13.145 4.20625 -14.25 4.3125 C-17.90150273 4.69388661 -17.90150273 4.69388661 -20 6.5 C-22.8291841 8.62188808 -25.54142399 8.66744461 -29 9 C-29.35662108 13.99269509 -28.24146027 16.60328948 -26 21 C-25.41748169 23.30629699 -24.95173618 25.60899762 -24.52734375 27.94921875 C-24.04610766 30.28834777 -24.04610766 30.28834777 -22 33 C-19.94996045 34.19232613 -19.94996045 34.19232613 -18 35 C-24.51646426 35.36885647 -24.51646426 35.36885647 -26.65527344 33.73730469 C-29.04742112 30.64679581 -29.45210509 27.00977753 -30.25 23.25 C-30.5284375 22.07050781 -30.5284375 22.07050781 -30.8125 20.8671875 C-31.90714948 15.87492247 -32.0444611 12.00805709 -31 7 C-9.5447513 -0.40615963 -9.5447513 -0.40615963 0 0 Z " fill="#DB986C" transform="translate(475,123)"/>
<path d="M0 0 C3.11423168 -0.21233398 5.34462587 -0.32356892 8.17578125 1.07421875 C10.87614461 3.92492353 10.49770891 6.14662988 10.4375 10 C10.43621094 11.2375 10.43492187 12.475 10.43359375 13.75 C10 17 10 17 8.91015625 19 C6.47757916 20.27349639 4.94616472 19.83288973 2.31884766 19.32373047 C-4.19586551 18.41422219 -11.00540461 19.01432832 -17.56835938 19.12695312 C-19.33856445 19.14338867 -19.33856445 19.14338867 -21.14453125 19.16015625 C-22.75871948 19.18541382 -22.75871948 19.18541382 -24.40551758 19.21118164 C-27 19 -27 19 -29 17 C-16.59097306 14.93447695 -5.43928493 15.22490994 7 17 C6.79801781 14.91385563 6.56230679 12.83095932 6.3125 10.75 C6.18488281 9.58984375 6.05726563 8.4296875 5.92578125 7.234375 C4.80850037 3.33096332 3.34285862 2.1817688 0 0 Z " fill="#DE9769" transform="translate(259,155)"/>
<path d="M0 0 C3.62699644 1.2143248 4.90814428 3.12974682 7.22265625 6.140625 C8.33833984 7.57148437 8.33833984 7.57148437 9.4765625 9.03125 C10.19714844 9.97484375 10.91773438 10.9184375 11.66015625 11.890625 C12.98987052 13.56018048 14.32201795 15.22781369 15.66015625 16.890625 C15.00015625 17.550625 14.34015625 18.210625 13.66015625 18.890625 C7.39928993 15.68739107 5.38884897 11.21732847 2.66015625 4.890625 C0.35015625 4.890625 -1.95984375 4.890625 -4.33984375 4.890625 C-4.77296875 5.8496875 -4.77296875 5.8496875 -5.21484375 6.828125 C-6.33984375 8.890625 -6.33984375 8.890625 -8.33984375 9.890625 C-8.99197667 11.91525755 -8.99197667 11.91525755 -9.33984375 13.890625 C-8.01984375 14.220625 -6.69984375 14.550625 -5.33984375 14.890625 C-5.33984375 16.870625 -5.33984375 18.850625 -5.33984375 20.890625 C-6.49503293 19.98577708 -7.63869781 19.0662044 -8.77734375 18.140625 C-9.41542969 17.63015625 -10.05351562 17.1196875 -10.7109375 16.59375 C-12.63500583 14.58201429 -13.32952386 13.69247545 -13.33984375 10.890625 C-11.5390625 8.34765625 -11.5390625 8.34765625 -9.02734375 5.703125 C-7.79564453 4.38248047 -7.79564453 4.38248047 -6.5390625 3.03515625 C-3.26976555 -0.1528438 -3.26976555 -0.1528438 0 0 Z " fill="#DF9F77" transform="translate(377.33984375,101.109375)"/>
<path d="M0 0 C3.49092266 -0.24935162 5.56333897 -0.23356287 8.6875 1.4375 C12.70239865 3.33132012 16.12170222 3.53404079 20.51171875 3.7890625 C23 4 23 4 26 5 C27.36592183 5.08567246 28.73564858 5.11773647 30.10424805 5.11352539 C31.3351844 5.11341209 31.3351844 5.11341209 32.59098816 5.11329651 C33.47232925 5.10813522 34.35367035 5.10297394 35.26171875 5.09765625 C36.16751175 5.0962413 37.07330475 5.09482635 38.00654602 5.09336853 C40.90023091 5.08777001 43.79383849 5.07521781 46.6875 5.0625 C48.64908742 5.05748481 50.61067606 5.05292193 52.57226562 5.04882812 C57.38154021 5.03780107 62.190757 5.02053747 67 5 C67 5.33 67 5.66 67 6 C57.82470404 7.67354793 48.94603763 8.35453957 39.625 8.3125 C37.71690552 8.30621582 37.71690552 8.30621582 35.77026367 8.29980469 C22.99785188 8.14606799 11.68696618 6.41725256 0 1 C0 0.67 0 0.34 0 0 Z " fill="#D59168" transform="translate(447,237)"/>
<path d="M0 0 C10.93455135 0.95917117 17.57611711 4.81568466 25 13 C27.2797058 16.57343884 29.37841234 19.95232949 28.58203125 24.26171875 C28.38996094 24.83535156 28.19789063 25.40898437 28 26 C27.01 26 26.02 26 25 26 C24.34 22.7 23.68 19.4 23 16 C22.01 15.67 21.02 15.34 20 15 C19.67 14.01 19.34 13.02 19 12 C14.34695271 7.33480377 9.35791982 5.16429651 3.00390625 3.73828125 C2.34261719 3.49464844 1.68132812 3.25101563 1 3 C0.67 2.01 0.34 1.02 0 0 Z " fill="#DB8852" transform="translate(394,149)"/>
<path d="M0 0 C0.33 0.66 0.66 1.32 1 2 C0.33333333 3.33333333 -0.33333333 4.66666667 -1 6 C-2.13332503 11.16732812 -2.18340779 16.23741353 -2.1875 21.5 C-2.19974609 22.32886719 -2.21199219 23.15773437 -2.22460938 24.01171875 C-2.23601958 28.79639891 -1.6859655 32.46855124 0 37 C0 38.32 0 39.64 0 41 C0.66 41 1.32 41 2 41 C1.67 42.32 1.34 43.64 1 45 C0.20309351 43.77422398 -0.58726484 42.54418995 -1.375 41.3125 C-2.03628906 40.28576172 -2.03628906 40.28576172 -2.7109375 39.23828125 C-6.00026047 33.52682045 -6.38579368 28.80190034 -6.375 22.3125 C-6.37483887 21.41998535 -6.37467773 20.5274707 -6.37451172 19.60791016 C-6.24716406 12.26598254 -5.40177877 5.40177877 0 0 Z " fill="#E3A47B" transform="translate(438,186)"/>
<path d="M0 0 C0.33 0 0.66 0 1 0 C1 8.25 1 16.5 1 25 C1.66 25 2.32 25 3 25 C3.50757862 26.41396902 4.00574925 27.83131729 4.5 29.25 C4.7784375 30.03890625 5.056875 30.8278125 5.34375 31.640625 C6 34 6 34 6 38 C6.66 38.33 7.32 38.66 8 39 C5 39 5 39 3 37.0625 C-1.48805233 30.19016987 -2.26987868 23.95583815 -2.3125 15.875 C-2.31797852 15.11098877 -2.32345703 14.34697754 -2.32910156 13.55981445 C-2.26796064 8.69120474 -1.53819405 4.62071042 0 0 Z " fill="#E09B70" transform="translate(205,192)"/>
<path d="M0 0 C0.33 0 0.66 0 1 0 C1 23.43 1 46.86 1 71 C0.01 71 -0.98 71 -2 71 C-2 71.66 -2 72.32 -2 73 C-2.74765625 73.12117188 -3.4953125 73.24234375 -4.265625 73.3671875 C-5.25046875 73.53476563 -6.2353125 73.70234375 -7.25 73.875 C-8.22453125 74.03742188 -9.1990625 74.19984375 -10.203125 74.3671875 C-12.95873612 74.87364623 -12.95873612 74.87364623 -15.125 76.0625 C-18.02502769 77.51251384 -20.81959299 77.12232335 -24 77 C-24 76.67 -24 76.34 -24 76 C-22.02 76 -20.04 76 -18 76 C-18 75.34 -18 74.68 -18 74 C-17.01257813 73.80664062 -16.02515625 73.61328125 -15.0078125 73.4140625 C-13.72648437 73.15367187 -12.44515625 72.89328125 -11.125 72.625 C-9.84882813 72.36976563 -8.57265625 72.11453125 -7.2578125 71.8515625 C-3.94075544 71.27762104 -3.94075544 71.27762104 -2 69 C-1.06329901 64.83652647 -0.85451566 60.7926854 -0.79467773 56.53564453 C-0.77473251 55.27479034 -0.75478729 54.01393616 -0.73423767 52.71487427 C-0.71725866 51.35418823 -0.70037967 49.99350094 -0.68359375 48.6328125 C-0.66299884 47.22890649 -0.64200174 45.82500632 -0.62062073 44.42111206 C-0.56566179 40.7419918 -0.5161381 37.06281803 -0.46777344 33.38360596 C-0.41736615 29.62287687 -0.36178087 25.86222464 -0.30664062 22.1015625 C-0.1993797 14.73444025 -0.09786479 7.3672537 0 0 Z " fill="#E38347" transform="translate(306,164)"/>
<path d="M0 0 C2.97 0.495 2.97 0.495 6 1 C6 1.66 6 2.32 6 3 C7.03060547 2.96519531 7.03060547 2.96519531 8.08203125 2.9296875 C9.43361328 2.90261719 9.43361328 2.90261719 10.8125 2.875 C11.70582031 2.85179687 12.59914062 2.82859375 13.51953125 2.8046875 C16 3 16 3 19 5 C19 5.66 19 6.32 19 7 C19.84304687 7.12117187 20.68609375 7.24234375 21.5546875 7.3671875 C23.19824219 7.61855469 23.19824219 7.61855469 24.875 7.875 C25.96554688 8.03742188 27.05609375 8.19984375 28.1796875 8.3671875 C31 9 31 9 33 11 C20.39263122 10.70748564 9.51157318 10.26126862 0 1 C0 0.67 0 0.34 0 0 Z " fill="#EB8247" transform="translate(212,232)"/>
<path d="M0 0 C0.99 0 1.98 0 3 0 C3 0.66 3 1.32 3 2 C1.42578125 3.55078125 1.42578125 3.55078125 -0.6875 5.3125 C-4.5229436 8.5749863 -8.08813674 11.99754971 -11.56640625 15.640625 C-13.00918133 17.12859545 -14.50153207 18.56813064 -16 20 C-16.66 20 -17.32 20 -18 20 C-18.226875 20.556875 -18.45375 21.11375 -18.6875 21.6875 C-20.68085165 25.19959577 -23.36119749 28.18059875 -27 30 C-27.33 29.01 -27.66 28.02 -28 27 C-27.01 26.67 -26.02 26.34 -25 26 C-25 25.34 -25 24.68 -25 24 C-24.01 24 -23.02 24 -22 24 C-22 23.01 -22 22.02 -22 21 C-20.1875 18.8125 -20.1875 18.8125 -18 17 C-17.01 17 -16.02 17 -15 17 C-14.7525 16.46375 -14.505 15.9275 -14.25 15.375 C-10.8082329 8.83564251 -6.94833037 5.17880417 -1 1 C-0.67 0.67 -0.34 0.34 0 0 Z " fill="#DDA176" transform="translate(429,108)"/>
<path d="M0 0 C0 3.1819944 -0.41086442 4.32356113 -2 7 C-3 8 -4 9 -5 10 C-5.433125 10.721875 -5.86625 11.44375 -6.3125 12.1875 C-9.51249305 17.52082175 -13.25479552 22.93268187 -18 27 C-18.66 27 -19.32 27 -20 27 C-20 26.34 -20 25.68 -20 25 C-20.66 25 -21.32 25 -22 25 C-21.67 23.68 -21.34 22.36 -21 21 C-21 21.66 -21 22.32 -21 23 C-17.39820045 19.44387545 -13.91549428 15.79849585 -10.5 12.0625 C-10.03980469 11.56298828 -9.57960938 11.06347656 -9.10546875 10.54882812 C-5.96138789 7.11690888 -2.95697909 3.59444378 0 0 Z " fill="#EB8247" transform="translate(415,98)"/>
<path d="M0 0 C0.9295752 -0.00902344 1.85915039 -0.01804687 2.81689453 -0.02734375 C8.76043011 -0.00204762 14.14187557 0.69429957 19.875 2.25 C20.803125 2.49621094 21.73125 2.74242188 22.6875 2.99609375 C23.409375 3.22425781 24.13125 3.45242187 24.875 3.6875 C25.98875 4.02587891 25.98875 4.02587891 27.125 4.37109375 C28.875 5.25 28.875 5.25 29.875 8.25 C28.555 7.92 27.235 7.59 25.875 7.25 C25.875 6.59 25.875 5.93 25.875 5.25 C24.98748047 5.15912109 24.98748047 5.15912109 24.08203125 5.06640625 C23.29183594 4.98261719 22.50164062 4.89882812 21.6875 4.8125 C20.91019531 4.73128906 20.13289063 4.65007812 19.33203125 4.56640625 C16.875 4.25 16.875 4.25 14.71679688 3.73632812 C11.1170036 3.12028103 7.5880282 3.12618289 3.94921875 3.15234375 C3.20162796 3.1537587 2.45403717 3.15517365 1.68379211 3.15663147 C-0.69001365 3.16220236 -3.06372303 3.1747494 -5.4375 3.1875 C-7.05273301 3.19251877 -8.6679675 3.19708101 -10.28320312 3.20117188 C-14.23050555 3.21216225 -18.17773647 3.22940668 -22.125 3.25 C-22.125 2.92 -22.125 2.59 -22.125 2.25 C-14.80045914 0.2874436 -7.53495261 0.03021535 0 0 Z " fill="#E8844B" transform="translate(486.125,122.75)"/>
<path d="M0 0 C0.66 0.33 1.32 0.66 2 1 C2.0868329 4.458176 2.14033282 7.91607344 2.1875 11.375 C2.21263672 12.35984375 2.23777344 13.3446875 2.26367188 14.359375 C2.27333984 15.30039063 2.28300781 16.24140625 2.29296875 17.2109375 C2.3086792 18.08024902 2.32438965 18.94956055 2.34057617 19.84521484 C2.22818604 20.55629395 2.1157959 21.26737305 2 22 C-1.74426746 24.49617831 -4.67375072 24.26063055 -9 24.1875 C-9.72445313 24.18685547 -10.44890625 24.18621094 -11.1953125 24.18554688 C-14.38339447 24.15907756 -16.95665629 24.0144479 -20 23 C-22.24064723 20.67636584 -22.96556146 19.50509856 -23.1875 16.25 C-23.125625 15.5075 -23.06375 14.765 -23 14 C-22.01 15.485 -22.01 15.485 -21 17 C-18.33010966 20.51301361 -15.24716262 21.19101664 -11 22 C-7.7 21.67 -4.4 21.34 -1 21 C-0.67 14.07 -0.34 7.14 0 0 Z " fill="#DEA580" transform="translate(266,196)"/>
<path d="M0 0 C2.43816585 -0.0809723 4.87364384 -0.14046972 7.3125 -0.1875 C8.34793945 -0.22520508 8.34793945 -0.22520508 9.40429688 -0.26367188 C12.25035064 -0.30491903 14.44309728 -0.32560844 16.9375 1.1328125 C18.44841039 3.78801531 18.52434461 6.02055834 18.6875 9.0625 C18.75066406 10.21492187 18.81382812 11.36734375 18.87890625 12.5546875 C19.32838983 25.34322034 19.32838983 25.34322034 18 28 C16.02 27.67 14.04 27.34 12 27 C12.99 26.34 13.98 25.68 15 25 C16.24078003 21.2776599 16.14555459 17.81203967 16.125 13.9375 C16.12886719 13.20466797 16.13273437 12.47183594 16.13671875 11.71679688 C16.21095757 7.72879812 16.21095757 7.72879812 15 4 C12.11788698 3.03929566 10.30149956 2.89418117 7.3125 2.9375 C6.50425781 2.94652344 5.69601562 2.95554688 4.86328125 2.96484375 C4.24839844 2.97644531 3.63351562 2.98804688 3 3 C3 2.34 3 1.68 3 1 C1.68 1.33 0.36 1.66 -1 2 C-0.67 1.34 -0.34 0.68 0 0 Z " fill="#D28A5C" transform="translate(479,192)"/>
<path d="M0 0 C1.01449219 0.185625 2.02898437 0.37125 3.07421875 0.5625 C3.81285156 0.706875 4.55148437 0.85125 5.3125 1 C5.3125 1.33 5.3125 1.66 5.3125 2 C-9.5375 2.33 -24.3875 2.66 -39.6875 3 C-39.6875 2.67 -39.6875 2.34 -39.6875 2 C-36.25179127 1.48716694 -32.81372082 0.99219602 -29.375 0.5 C-28.41787109 0.35691406 -27.46074219 0.21382813 -26.47460938 0.06640625 C-17.56244056 -1.19390045 -8.89344338 -1.67405993 0 0 Z " fill="#E1A47F" transform="translate(273.6875,122)"/>
<path d="M0 0 C1.32 0 2.64 0 4 0 C5.10052814 2.20105628 5.19183037 3.55159535 5.31640625 5.9921875 C5.35830078 6.77980469 5.40019531 7.56742188 5.44335938 8.37890625 C5.48267578 9.20261719 5.52199219 10.02632812 5.5625 10.875 C5.60568359 11.69097656 5.64886719 12.50695312 5.69335938 13.34765625 C6.22755493 23.74327136 6.22755493 23.74327136 4.01953125 26.234375 C0.05992888 28.5496923 -2.82763839 28.4584118 -7.3125 28.25 C-8.42334961 28.22292969 -8.42334961 28.22292969 -9.55664062 28.1953125 C-11.3716571 28.14847337 -13.18600166 28.07673789 -15 28 C-15 27.67 -15 27.34 -15 27 C-13.41058594 26.90912109 -13.41058594 26.90912109 -11.7890625 26.81640625 C-10.40102779 26.73199873 -9.01300768 26.64735083 -7.625 26.5625 C-6.92632812 26.52318359 -6.22765625 26.48386719 -5.5078125 26.44335938 C-1.62639508 26.25719866 -1.62639508 26.25719866 2 25 C2.05816623 21.58340509 2.09365195 18.16693795 2.125 14.75 C2.14175781 13.78191406 2.15851563 12.81382812 2.17578125 11.81640625 C2.18222656 10.88183594 2.18867188 9.94726562 2.1953125 8.984375 C2.20578613 8.12553711 2.21625977 7.26669922 2.22705078 6.38183594 C1.98293323 3.82096404 1.28990512 2.20488971 0 0 Z " fill="#E68447" transform="translate(265,193)"/>
<path d="M0 0 C9.24 0 18.48 0 28 0 C28 0.66 28 1.32 28 2 C27.21238281 1.97679687 26.42476563 1.95359375 25.61328125 1.9296875 C16.63050404 1.78086042 8.14026859 2.70301564 -0.64453125 4.55859375 C-4.45525125 5.27270878 -8.47034763 5.76482618 -12 4 C-12 3.34 -12 2.68 -12 2 C-8.04 2 -4.08 2 0 2 C0 1.34 0 0.68 0 0 Z " fill="#E1AC88" transform="translate(231,153)"/>
<path d="M0 0 C3.06855816 2.39497222 5.17484713 4.9301606 7.5625 8 C6.5725 8.495 6.5725 8.495 5.5625 9 C4.14349094 8.29483053 2.75078892 7.53616509 1.375 6.75 C-0.97742419 5.52306363 -0.97742419 5.52306363 -3.4375 5 C-6.30150028 6.12477102 -8.29275619 7.82077478 -10.4375 10 C-11.0975 9.67 -11.7575 9.34 -12.4375 9 C-11.53123216 7.7010161 -10.61200463 6.41106833 -9.6875 5.125 C-9.17703125 4.40570313 -8.6665625 3.68640625 -8.140625 2.9453125 C-5.56737272 0.00613903 -3.77221128 -1.54757386 0 0 Z " fill="#E28244" transform="translate(428.4375,88)"/>
<path d="M0 0 C6.99459484 0.53804576 12.60283499 3.92245699 17.8125 8.4375 C24 15.68571429 24 15.68571429 24 19 C23.34 19 22.68 19 22 19 C21.67 17.68 21.34 16.36 21 15 C20.34 15 19.68 15 19 15 C18.67 14.01 18.34 13.02 18 12 C16.3083856 10.8694647 16.3083856 10.8694647 14.25 10 C13.53328125 9.66226563 12.8165625 9.32453125 12.078125 8.9765625 C11.39234375 8.65429688 10.7065625 8.33203125 10 8 C7 6.375 7 6.375 5 5 C5 4.34 5 3.68 5 3 C3.68 3 2.36 3 1 3 C0.67 2.01 0.34 1.02 0 0 Z " fill="#E18A51" transform="translate(279,124)"/>
<path d="M0 0 C0.65547821 0.00091644 1.31095642 0.00183289 1.98629761 0.0027771 C3.3664274 0.00880028 4.74654489 0.02450813 6.12646484 0.04931641 C8.24234939 0.0859403 10.35648711 0.09033485 12.47265625 0.08984375 C22.82185611 0.16560611 22.82185611 0.16560611 25.1171875 2.4609375 C24.4571875 3.1209375 23.7971875 3.7809375 23.1171875 4.4609375 C21.0703125 4.1484375 21.0703125 4.1484375 18.3671875 3.4609375 C8.67286357 1.58385027 -1.16616974 3.31704015 -10.8828125 4.4609375 C-7.54523718 0.27002255 -5.25700795 -0.03531912 0 0 Z " fill="#D9A07D" transform="translate(467.8828125,152.5390625)"/>
<path d="M0 0 C4.52720835 0.47822623 6.41660558 1.97117918 9.5 5.25 C10.27472656 6.06082031 11.04945313 6.87164062 11.84765625 7.70703125 C12.91306641 8.84205078 12.91306641 8.84205078 14 10 C14.97445922 10.98385159 15.95250512 11.96419645 16.9375 12.9375 C18.29166667 14.29166667 19.64583333 15.64583333 21 17 C23.32275177 17.40047444 25.65739357 17.7397104 28 18 C28 18.33 28 18.66 28 19 C23.88753551 19.5997344 20.43533538 19.87799771 16.796875 17.65234375 C13.69697196 14.96063405 10.9710414 12.04977675 8.375 8.875 C6.51613176 6.62479108 4.91417859 4.99894715 2.6875 3.1875 C1.800625 2.465625 0.91375 1.74375 0 1 C0 0.67 0 0.34 0 0 Z " fill="#E4B595" transform="translate(372,122)"/>
<path d="M0 0 C0.7748877 1.21562622 0.7748877 1.21562622 1.56542969 2.45581055 C3.80250723 5.27620568 3.80250723 5.27620568 7.20800781 5.65942383 C8.44389648 5.67513428 9.67978516 5.69084473 10.953125 5.70703125 C11.61334656 5.72215256 12.27356812 5.73727386 12.95379639 5.75285339 C15.0528796 5.795682 17.1505237 5.80456202 19.25 5.8125 C20.67712146 5.83564864 22.10420879 5.86101477 23.53125 5.88867188 C27.02080563 5.95147146 30.50988132 5.98384791 34 6 C34 6.33 34 6.66 34 7 C30.32251392 7.84722683 26.9190651 8.12856835 23.1484375 8.1328125 C22.05015625 8.13410156 20.951875 8.13539063 19.8203125 8.13671875 C18.68335938 8.13285156 17.54640625 8.12898438 16.375 8.125 C15.2303125 8.12886719 14.085625 8.13273437 12.90625 8.13671875 C11.81054688 8.13542969 10.71484375 8.13414062 9.5859375 8.1328125 C8.5861084 8.13168457 7.5862793 8.13055664 6.55615234 8.12939453 C4 8 4 8 1 7 C-0.1875 3.9375 -0.1875 3.9375 -1 1 C-0.67 0.67 -0.34 0.34 0 0 Z " fill="#E4B699" transform="translate(382,258)"/>
<path d="M0 0 C1.27955566 -0.03867188 1.27955566 -0.03867188 2.58496094 -0.078125 C8.58653277 -0.09738395 8.58653277 -0.09738395 11.76171875 2.3984375 C12.23222656 3.05070313 12.70273437 3.70296875 13.1875 4.375 C11.5375 4.375 9.8875 4.375 8.1875 4.375 C8.1875 3.715 8.1875 3.055 8.1875 2.375 C3.66645122 2.51458564 -0.85427646 2.66277757 -5.375 2.8125 C-7.29022461 2.87147461 -7.29022461 2.87147461 -9.24414062 2.93164062 C-11.10522461 2.99448242 -11.10522461 2.99448242 -13.00390625 3.05859375 C-14.70848999 3.11358032 -14.70848999 3.11358032 -16.44750977 3.16967773 C-19.94431545 3.38304301 -23.35241975 3.83454277 -26.8125 4.375 C-27.1425 3.715 -27.4725 3.055 -27.8125 2.375 C-18.55286289 1.03163296 -9.36184318 0.13752249 0 0 Z " fill="#EA8346" transform="translate(250.8125,150.625)"/>
<path d="M0 0 C2.375 0.25 2.375 0.25 5 1 C5.309375 1.66 5.61875 2.32 5.9375 3 C6.288125 3.66 6.63875 4.32 7 5 C10.05908413 5.81584568 10.05908413 5.81584568 13 6 C13 4.35 13 2.7 13 1 C15.97 1.495 15.97 1.495 19 2 C18.01 3.485 18.01 3.485 17 5 C16.36707617 7.11280345 16.36707617 7.11280345 16 9 C8.7735697 9.61240935 8.7735697 9.61240935 5 6.625 C3 4 3 4 3 2 C2.01 1.67 1.02 1.34 0 1 C0 0.67 0 0.34 0 0 Z " fill="#E5854C" transform="translate(385,131)"/>
<path d="M0 0 C2.58361518 -0.05407567 5.16609255 -0.093707 7.75 -0.125 C8.84441406 -0.15013672 8.84441406 -0.15013672 9.9609375 -0.17578125 C14.13521398 -0.21372922 16.16970546 0.08485273 20 2 C20 10.58 20 19.16 20 28 C19.34 28.33 18.68 28.66 18 29 C18.01160156 28.30777344 18.02320313 27.61554688 18.03515625 26.90234375 C18.11225356 18.54279269 17.61723102 10.33261871 17 2 C11.39 1.67 5.78 1.34 0 1 C0 0.67 0 0.34 0 0 Z " fill="#ED8240" transform="translate(479,191)"/>
<path d="M0 0 C0.99 0 1.98 0 3 0 C3 0.66 3 1.32 3 2 C-8.22526592 6.18821475 -19.94032427 9.31202266 -32 9 C-28.04214105 7.02107052 -25.39326408 5.88820969 -20.9375 5.625 C-16.26717221 5.25210734 -12.38717726 4.25248834 -8.015625 2.6328125 C-5.30409245 1.7815174 -2.81590996 1.78339154 0 2 C0 1.34 0 0.68 0 0 Z " fill="#D6976B" transform="translate(304,235)"/>
<path d="M0 0 C0.66 0.33 1.32 0.66 2 1 C0 3 0 3 -3.0625 4.1875 C-8.10706766 6.24780763 -14.51195716 10.02391432 -17 15 C-17.66 15 -18.32 15 -19 15 C-19.33 16.32 -19.66 17.64 -20 19 C-20.66 19 -21.32 19 -22 19 C-20.25088485 12.7809239 -15.85180335 7.75861207 -10.421875 4.41015625 C-7.00079287 2.68461044 -3.63546152 1.21182051 0 0 Z " fill="#DFA481" transform="translate(228,173)"/>
<path d="M0 0 C0.66 0.33 1.32 0.66 2 1 C1.71875 2.8984375 1.71875 2.8984375 1 5 C-5.72763772 8.12354608 -13.51356663 10.4829957 -21 10 C-19 9 -19 9 -17 8 C-16.38125 7.649375 -15.7625 7.29875 -15.125 6.9375 C-13 6 -13 6 -9.8125 5.5 C-8.4203125 5.2525 -8.4203125 5.2525 -7 5 C-6.67 4.34 -6.34 3.68 -6 3 C-3.0625 1.3125 -3.0625 1.3125 0 0 Z " fill="#D49165" transform="translate(535,232)"/>
<path d="M0 0 C-2 2 -2 2 -3.9453125 2.1953125 C-5.96354167 2.13020833 -7.98177083 2.06510417 -10 2 C-10 2.66 -10 3.32 -10 4 C-11.98 4.33 -13.96 4.66 -16 5 C-16.99 7.97 -17.98 10.94 -19 14 C-19.33 14 -19.66 14 -20 14 C-20.28776913 10.94964721 -20.40151657 8.04392967 -20 5 C-15.80723921 0.66266126 -5.77702955 -2.01176558 0 0 Z " fill="#E1A888" transform="translate(234,126)"/>
<path d="M0 0 C0.66 0 1.32 0 2 0 C3.91261829 4.81132698 4.26715165 9.12969327 4.1953125 14.2421875 C4.1924826 15.01055939 4.18965271 15.77893127 4.18673706 16.57058716 C4.17561311 19.00555521 4.1505236 21.44014462 4.125 23.875 C4.11496011 25.53384882 4.10583603 27.19270346 4.09765625 28.8515625 C4.07569937 32.90118579 4.04122406 36.95052887 4 41 C3.67 41 3.34 41 3 41 C2.98018066 40.25540527 2.96036133 39.51081055 2.93994141 38.74365234 C2.50747769 19.27750171 2.50747769 19.27750171 0 0 Z " fill="#E69A6A" transform="translate(380,183)"/>
<path d="M0 0 C0.33 0 0.66 0 1 0 C1.66 4.62 2.32 9.24 3 14 C13.56 14 24.12 14 35 14 C35 14.33 35 14.66 35 15 C30.33691801 15.02468646 25.67387392 15.04285349 21.01074219 15.05493164 C19.42382139 15.05996588 17.83690523 15.06679369 16.25 15.07543945 C13.97134251 15.08754482 11.69274624 15.09323733 9.4140625 15.09765625 C8.34679428 15.10539818 8.34679428 15.10539818 7.25796509 15.11329651 C2.22774341 15.11387171 2.22774341 15.11387171 0 14 C0 9.38 0 4.76 0 0 Z " fill="#F17E3B" transform="translate(385,248)"/>
<path d="M0 0 C1.0625 1.8125 1.0625 1.8125 2 4 C1.67 4.99 1.34 5.98 1 7 C-17.315 6.505 -17.315 6.505 -36 6 C-36.33 5.34 -36.66 4.68 -37 4 C-24.79 4 -12.58 4 0 4 C0 2.68 0 1.36 0 0 Z " fill="#E28B5A" transform="translate(422,258)"/>
<path d="M0 0 C0.66 0.33 1.32 0.66 2 1 C1.21625 1.845625 0.4325 2.69125 -0.375 3.5625 C-3.0908479 6.8000362 -4.06382336 9.86521985 -5 14 C-5.33 14.99 -5.66 15.98 -6 17 C-6.14403348 18.33363703 -6.24590423 19.67218046 -6.31640625 21.01171875 C-6.35830078 21.76904297 -6.40019531 22.52636719 -6.44335938 23.30664062 C-6.48267578 24.09232422 -6.52199219 24.87800781 -6.5625 25.6875 C-6.62727539 26.88342773 -6.62727539 26.88342773 -6.69335938 28.10351562 C-6.79927368 30.06881447 -6.90012551 32.03438496 -7 34 C-7.33 34 -7.66 34 -8 34 C-8.05444001 30.99975053 -8.0938836 28.00050961 -8.125 25 C-8.14175781 24.16082031 -8.15851563 23.32164062 -8.17578125 22.45703125 C-8.22716272 15.82882142 -7.79332454 8.68998681 -4 3 C-1.875 1.25 -1.875 1.25 0 0 Z " fill="#EA8242" transform="translate(443,183)"/>
<path d="M0 0 C1.65 0 3.3 0 5 0 C6.00926479 4.15626368 6.10239579 8.04365094 6.0625 12.3125 C6.05347656 13.56675781 6.04445313 14.82101563 6.03515625 16.11328125 C6.02355469 17.06589844 6.01195312 18.01851562 6 19 C2.7 18.67 -0.6 18.34 -4 18 C-4 17.67 -4 17.34 -4 17 C-1.69 17 0.62 17 3 17 C3.34548714 10.66606918 2.29342747 5.89738492 0 0 Z " fill="#DD9368" transform="translate(492,155)"/>
<path d="M0 0 C0.65742188 0.16242188 1.31484375 0.32484375 1.9921875 0.4921875 C5.71542474 1.12078599 9.36213029 1.1475722 13.125 1.125 C14.24962646 1.1242749 14.24962646 1.1242749 15.39697266 1.12353516 C20.61607796 1.09104877 25.72407985 0.74432324 30.8984375 0.0234375 C33 0 33 0 36 2 C31.60008044 4.19995978 25.66047579 3.22709926 20.76928711 3.24023438 C18.57432267 3.24994768 16.38029178 3.28097409 14.18554688 3.3125 C12.79167223 3.31902948 11.39779089 3.32428017 10.00390625 3.328125 C8.09847046 3.34214355 8.09847046 3.34214355 6.15454102 3.35644531 C3 3 3 3 1.06225586 1.47949219 C0.53643921 0.74714355 0.53643921 0.74714355 0 0 Z " fill="#EC8140" transform="translate(242,240)"/>
<path d="M0 0 C1.32 0 2.64 0 4 0 C4 0.66 4 1.32 4 2 C11.92 1.505 11.92 1.505 20 1 C20 1.99 20 2.98 20 4 C17.37504621 4.16742302 14.75004205 4.3339717 12.125 4.5 C11.00544922 4.57154297 11.00544922 4.57154297 9.86328125 4.64453125 C4.2265625 5 4.2265625 5 2 5 C1.34 3.35 0.68 1.7 0 0 Z " fill="#E98044" transform="translate(473,218)"/>
<path d="M0 0 C1.29486328 0.00902344 2.58972656 0.01804688 3.92382812 0.02734375 C7.09524771 0.05074906 10.26627373 0.08353772 13.4375 0.125 C13.4375 0.455 13.4375 0.785 13.4375 1.125 C12.24205566 1.14687378 12.24205566 1.14687378 11.02246094 1.16918945 C7.41031876 1.24367475 3.79910026 1.34033512 0.1875 1.4375 C-1.69388672 1.47133789 -1.69388672 1.47133789 -3.61328125 1.50585938 C-4.81855469 1.54130859 -6.02382813 1.57675781 -7.265625 1.61328125 C-8.93093262 1.65255737 -8.93093262 1.65255737 -10.62988281 1.69262695 C-13.85470936 2.16808215 -15.09338349 3.09854431 -17.5625 5.125 C-20.25 4.9375 -20.25 4.9375 -22.5625 4.125 C-22.8925 3.465 -23.2225 2.805 -23.5625 2.125 C-15.64782302 -0.06251681 -8.17791991 -0.10876006 0 0 Z " fill="#E1844B" transform="translate(474.5625,151.875)"/>
<path d="M0 0 C5.14171815 5.84286153 5.30170072 12.60833245 5 20 C4.34 20.33 3.68 20.66 3 21 C2.49432271 18.43850372 1.99529868 15.87600535 1.5 13.3125 C1.35691406 12.59126953 1.21382813 11.87003906 1.06640625 11.12695312 C0.34428113 7.36158641 -0.1824976 3.85526187 0 0 Z " fill="#DE9E76" transform="translate(303,143)"/>
<path d="M0 0 C2.875 0.3125 2.875 0.3125 6 1 C6.66 1.99 7.32 2.98 8 4 C10.05925139 4.72382467 10.05925139 4.72382467 12 5 C12 5.66 12 6.32 12 7 C14.64 7.33 17.28 7.66 20 8 C20 8.66 20 9.32 20 10 C13.39091426 9.63950441 8.38274168 7.93885042 3 4 C1.23828125 1.83203125 1.23828125 1.83203125 0 0 Z " fill="#DEA179" transform="translate(212,232)"/>
<path d="M0 0 C0.66 0.33 1.32 0.66 2 1 C1.360625 1.556875 0.72125 2.11375 0.0625 2.6875 C-2.22392808 5.25107087 -2.46379593 6.69340825 -3 10 C-3.99 10.495 -3.99 10.495 -5 11 C-5.495 12.2375 -5.495 12.2375 -6 13.5 C-7 16 -7 16 -9 17 C-9 14.69 -9 12.38 -9 10 C-8.34 10 -7.68 10 -7 10 C-6.67 8.68 -6.34 7.36 -6 6 C-5.34 6 -4.68 6 -4 6 C-3.71125 5.38125 -3.4225 4.7625 -3.125 4.125 C-2 2 -2 2 0 0 Z " fill="#E98347" transform="translate(215,182)"/>
<path d="M0 0 C5.64033825 0.49476651 9.95861201 1.37847825 15 4 C15.99 5.485 15.99 5.485 17 7 C14.34979514 6.41139757 11.70594517 5.80512738 9.0625 5.1875 C8.30775391 5.02185547 7.55300781 4.85621094 6.77539062 4.68554688 C4.82429587 4.22183377 2.90744213 3.6192456 1 3 C0.67 2.01 0.34 1.02 0 0 Z " fill="#D8A27C" transform="translate(394,149)"/>
<path d="M0 0 C2.00720923 0.28674418 4.0085944 0.61866701 6 1 C2.82236695 3.11842204 -0.34503919 4.50721672 -3.84375 6 C-6.21554255 7.03308442 -6.21554255 7.03308442 -9 9 C-11.1875 8.625 -11.1875 8.625 -13 8 C-9.06037694 5.06459458 -5.66169843 2.64530533 -1 1 C-0.67 0.67 -0.34 0.34 0 0 Z " fill="#E18445" transform="translate(230,173)"/>
<path d="M0 0 C0 3.10685346 -0.44445982 4.29466211 -1.8125 7 C-2.31716797 8.0209375 -2.31716797 8.0209375 -2.83203125 9.0625 C-4.04865255 11.08070791 -5.16465127 12.52062571 -7 14 C-7.99 14 -8.98 14 -10 14 C-8.25 9.125 -8.25 9.125 -6 8 C-5.525625 7.030625 -5.05125 6.06125 -4.5625 5.0625 C-3 2 -3 2 0 0 Z " fill="#EA8245" transform="translate(419,96)"/>
<path d="M0 0 C-0.33 0.66 -0.66 1.32 -1 2 C-1.515625 1.835 -2.03125 1.67 -2.5625 1.5 C-8.48088984 0.28597131 -13.38590879 1.16682736 -19 3 C-18.67 2.01 -18.34 1.02 -18 0 C-11.87372512 -2.77141007 -6.06600344 -2.94109258 0 0 Z " fill="#D68F67" transform="translate(266,194)"/>
<path d="M0 0 C3.96 0 7.92 0 12 0 C12 0.99 12 1.98 12 3 C5.07 3 -1.86 3 -9 3 C-9 2.67 -9 2.34 -9 2 C-4.545 1.505 -4.545 1.505 0 1 C0 0.67 0 0.34 0 0 Z " fill="#F2BEA6" transform="translate(330,263)"/>
<path d="M0 0 C6.40902305 2.9481506 9.71074045 6.75884085 13 13 C13 13.66 13 14.32 13 15 C12.34 15 11.68 15 11 15 C10.67 13.68 10.34 12.36 10 11 C9.34 11 8.68 11 8 11 C7.67 10.01 7.34 9.02 7 8 C6.34 7.67 5.68 7.34 5 7 C5 6.34 5 5.68 5 5 C4.360625 4.731875 3.72125 4.46375 3.0625 4.1875 C1 3 1 3 0 0 Z " fill="#D6A57C" transform="translate(290,128)"/>
<path d="M0 0 C0.99 0.33 1.98 0.66 3 1 C5.56634861 1.22718496 8.11678107 1.41608184 10.6875 1.5625 C11.7403418 1.62727539 11.7403418 1.62727539 12.81445312 1.69335938 C14.54275206 1.7991736 16.2713511 1.90006581 18 2 C18 2.33 18 2.66 18 3 C11.65758005 4.15316726 5.43311296 4.09507063 -1 4 C-0.67 2.68 -0.34 1.36 0 0 Z " fill="#EA8245" transform="translate(358,176)"/>
<path d="M0 0 C3.33193619 2.69728168 4.60371996 6.02060187 6 10 C5.6875 12.4375 5.6875 12.4375 5 14 C4.01 14 3.02 14 2 14 C1.93941406 13.32453125 1.87882812 12.6490625 1.81640625 11.953125 C1.73261719 11.06109375 1.64882813 10.1690625 1.5625 9.25 C1.48128906 8.36828125 1.40007812 7.4865625 1.31640625 6.578125 C1.03761535 4.30649548 0.61209423 2.20148177 0 0 Z " fill="#E1A581" transform="translate(417,161)"/>
<path d="M0 0 C0 4.03066816 -1.67283027 5.78303008 -4 9 C-6.35953094 11.35953094 -7.77895617 11.49141413 -11 12 C-10.67 10.68 -10.34 9.36 -10 8 C-10 8.66 -10 9.32 -10 10 C-9.278125 9.278125 -8.55625 8.55625 -7.8125 7.8125 C-5.20833333 5.20833333 -2.60416667 2.60416667 0 0 Z " fill="#E2A27A" transform="translate(404,111)"/>
<path d="M0 0 C0.3403125 0.9590625 0.3403125 0.9590625 0.6875 1.9375 C1.85250896 4.27193661 1.85250896 4.27193661 4.625 4.75 C5.40875 4.8325 6.1925 4.915 7 5 C7 6.98 7 8.96 7 11 C5.84481082 10.09515208 4.70114594 9.1755794 3.5625 8.25 C2.60537109 7.48429687 2.60537109 7.48429687 1.62890625 6.703125 C-0.19679464 4.7942387 -0.69919045 3.6033699 -1 1 C-0.67 0.67 -0.34 0.34 0 0 Z " fill="#E2AE82" transform="translate(365,111)"/>
<path d="M0 0 C0.99 0.495 0.99 0.495 2 1 C2 1.99 2 2.98 2 4 C2.66 4 3.32 4 4 4 C4.33 5.32 4.66 6.64 5 8 C5.66 8 6.32 8 7 8 C7.33 11.3 7.66 14.6 8 18 C7.34 16.68 6.68 15.36 6 14 C4.71717227 11.76604143 3.42367218 9.53890654 2.12109375 7.31640625 C0.93813333 4.87217096 0.41959357 2.67314103 0 0 Z " fill="#E48549" transform="translate(296,135)"/>
<path d="M0 0 C4.13167661 1.4582388 7.5703189 3.25625512 11 6 C12.375 9.25 12.375 9.25 13 12 C11.87411986 11.04270084 10.7493285 10.08412105 9.625 9.125 C8.99851562 8.59132813 8.37203125 8.05765625 7.7265625 7.5078125 C6.44163349 6.38567993 5.20628025 5.20628025 4 4 C1.93125966 3.3574765 1.93125966 3.3574765 0 3 C0 2.01 0 1.02 0 0 Z " fill="#EB8245" transform="translate(372,119)"/>
<path d="M0 0 C0.99 0.66 1.98 1.32 3 2 C2.75 4.875 2.75 4.875 2 8 C-0.0625 9.375 -0.0625 9.375 -2 10 C-2 10.66 -2 11.32 -2 12 C-2.66 12 -3.32 12 -4 12 C-4 10.68 -4 9.36 -4 8 C-2.68 7.67 -1.36 7.34 0 7 C0 4.69 0 2.38 0 0 Z " fill="#DFAA7F" transform="translate(436,96)"/>
<path d="M0 0 C0.99 0.66 1.98 1.32 3 2 C1.9171875 2.5878125 1.9171875 2.5878125 0.8125 3.1875 C-2.13664788 4.94023982 -2.13664788 4.94023982 -4.625 7.6875 C-7 10 -7 10 -10 10 C-9.09373216 8.7010161 -8.17450463 7.41106833 -7.25 6.125 C-6.73953125 5.40570313 -6.2290625 4.68640625 -5.703125 3.9453125 C-3.92496453 1.91429435 -2.47298393 1.02144988 0 0 Z " fill="#E0A77E" transform="translate(426,87)"/>
<path d="M0 0 C5.75 -0.125 5.75 -0.125 8 1 C8 5.95 8 10.9 8 16 C7.67 16 7.34 16 7 16 C6.91363281 15.18015625 6.82726562 14.3603125 6.73828125 13.515625 C6.02798466 6.74032584 6.02798466 6.74032584 2.375 1.25 C1.59125 0.8375 0.8075 0.425 0 0 Z " fill="#EAB89B" transform="translate(259,155)"/>
<path d="M0 0 C3.51233939 5.26850908 4.25153688 9.71157812 4 16 C3.34 16 2.68 16 2 16 C0.40837921 10.42932723 -0.20674944 5.78898419 0 0 Z " fill="#E4AC89" transform="translate(533,144)"/>
<path d="M0 0 C0.99 0 1.98 0 3 0 C3 2 3 2 1.390625 3.7265625 C0.68421875 4.35304688 -0.0221875 4.97953125 -0.75 5.625 C-1.79414063 6.57246094 -1.79414063 6.57246094 -2.859375 7.5390625 C-5 9 -5 9 -9 9 C-9 8.34 -9 7.68 -9 7 C-7.28515625 5.52734375 -7.28515625 5.52734375 -5.0625 3.9375 C-2.41985962 2.10094469 -2.41985962 2.10094469 0 0 Z " fill="#D68A62" transform="translate(429,108)"/>
<path d="M0 0 C5.40049736 0.31767632 7.52337065 3.19996327 11 7 C10.67 7.99 10.34 8.98 10 10 C8.33037631 8.52417192 6.6643694 7.04425109 5 5.5625 C4.071875 4.73878906 3.14375 3.91507812 2.1875 3.06640625 C1.465625 2.38449219 0.74375 1.70257813 0 1 C0 0.67 0 0.34 0 0 Z " fill="#DB9F73" transform="translate(372,122)"/>
<path d="M0 0 C1.47906892 -0.02689216 2.95827483 -0.04634621 4.4375 -0.0625 C5.26121094 -0.07410156 6.08492188 -0.08570313 6.93359375 -0.09765625 C9 0 9 0 10 1 C12.32817964 1.36760731 14.6618385 1.70241581 17 2 C17 2.66 17 3.32 17 4 C14.91589342 3.91266027 12.83265331 3.80447722 10.75 3.6875 C9.00976562 3.60048828 9.00976562 3.60048828 7.234375 3.51171875 C3.89180362 2.98288197 2.4502943 2.26227667 0 0 Z " fill="#F1823F" transform="translate(455,238)"/>
<path d="M0 0 C0.99 0 1.98 0 3 0 C3 0.66 3 1.32 3 2 C1.06643218 2.69848264 -0.87202298 3.38344814 -2.8125 4.0625 C-3.89144531 4.44535156 -4.97039062 4.82820312 -6.08203125 5.22265625 C-9 6 -9 6 -12 5 C-11.67 4.34 -11.34 3.68 -11 3 C-8.49609375 2.5859375 -8.49609375 2.5859375 -5.4375 2.375 C-4.42558594 2.30023438 -3.41367187 2.22546875 -2.37109375 2.1484375 C-1.58863281 2.09945312 -0.80617188 2.05046875 0 2 C0 1.34 0 0.68 0 0 Z " fill="#DFAD8A" transform="translate(304,235)"/>
<path d="M0 0 C0.89332031 0.31517578 0.89332031 0.31517578 1.8046875 0.63671875 C0.18450908 1.97590681 -1.44160593 3.30791565 -3.0703125 4.63671875 C-4.42769531 5.75046875 -4.42769531 5.75046875 -5.8125 6.88671875 C-8.1953125 8.63671875 -8.1953125 8.63671875 -10.1953125 8.63671875 C-8.67883393 4.54222662 -4.76672094 -0.78879902 0 0 Z " fill="#DB9E7F" transform="translate(449.1953125,177.36328125)"/>
<path d="M0 0 C0 3.74885305 -0.90337618 5.80801759 -3.4375 8.5625 C-3.953125 9.036875 -4.46875 9.51125 -5 10 C-5.556875 10.556875 -6.11375 11.11375 -6.6875 11.6875 C-7.120625 12.120625 -7.55375 12.55375 -8 13 C-8.66 12.67 -9.32 12.34 -10 12 C-8.52149287 10.18696196 -7.04217625 8.37458402 -5.5625 6.5625 C-4.32693359 5.04849609 -4.32693359 5.04849609 -3.06640625 3.50390625 C-1 1 -1 1 0 0 Z " fill="#E0A078" transform="translate(415,98)"/>
<path d="M0 0 C-4.61252802 4.9306334 -9.63398668 4.7770223 -16 5 C-11.1356474 1.75709826 -5.95319301 -0.55811184 0 0 Z " fill="#D68E69" transform="translate(465,172)"/>
<path d="M0 0 C0.58007812 0.20496094 1.16015625 0.40992188 1.7578125 0.62109375 C6.1621984 2.14009813 10.35677777 3.4047151 15 4 C15 4.33 15 4.66 15 5 C10.71 5 6.42 5 2 5 C2 4.34 2 3.68 2 3 C1.34 3 0.68 3 0 3 C0 2.01 0 1.02 0 0 Z " fill="#D99C73" transform="translate(475,215)"/>
<path d="M0 0 C0.33 0 0.66 0 1 0 C1 2.64 1 5.28 1 8 C1.66 8 2.32 8 3 8 C2.75 9.875 2.75 9.875 2 12 C0.125 13.3125 0.125 13.3125 -2 14 C-2.99 13.67 -3.98 13.34 -5 13 C-4.03320312 12.41798828 -4.03320312 12.41798828 -3.046875 11.82421875 C-0.79121416 10.16053515 -0.79121416 10.16053515 -0.390625 7.51953125 C-0.32101562 6.17955078 -0.32101562 6.17955078 -0.25 4.8125 C-0.19328125 3.91144531 -0.1365625 3.01039063 -0.078125 2.08203125 C-0.05234375 1.39496094 -0.0265625 0.70789063 0 0 Z " fill="#EE8039" transform="translate(269,162)"/>
<path d="M0 0 C1.32 0.66 2.64 1.32 4 2 C-1.04140164 4.81532819 -5.22621075 6.5188509 -11 7 C-11 6.34 -11 5.68 -11 5 C-10.37351562 4.80664062 -9.74703125 4.61328125 -9.1015625 4.4140625 C-8.28429687 4.15367187 -7.46703125 3.89328125 -6.625 3.625 C-5.81289063 3.36976563 -5.00078125 3.11453125 -4.1640625 2.8515625 C-1.83540815 2.10145717 -1.83540815 2.10145717 0 0 Z " fill="#EE7F3D" transform="translate(457,127)"/>
<path d="M0 0 C0.33 0 0.66 0 1 0 C1.02698189 1.62490954 1.04638757 3.24994633 1.0625 4.875 C1.07410156 5.77992188 1.08570313 6.68484375 1.09765625 7.6171875 C1 10 1 10 0 12 C-2.97 11.505 -2.97 11.505 -6 11 C-5.01 10.34 -4.02 9.68 -3 9 C-0.87491756 5.81237635 -0.4979837 3.73487777 0 0 Z " fill="#E39566" transform="translate(497,208)"/>
<path d="M0 0 C-1.7578125 0.9765625 -3.515625 1.953125 -5.2734375 2.9296875 C-7.1612614 4.00897274 -7.1612614 4.00897274 -9 6 C-9.99 5.67 -10.98 5.34 -12 5 C-4.50757576 -1.35227273 -4.50757576 -1.35227273 0 0 Z " fill="#EB8243" transform="translate(457,177)"/>
<path d="M0 0 C-3.44621549 3.44621549 -8.25753764 5.05150753 -13 6 C-12 3 -12 3 -9.78515625 1.796875 C-8.43744141 1.27867187 -8.43744141 1.27867187 -7.0625 0.75 C-6.16660156 0.39421875 -5.27070313 0.0384375 -4.34765625 -0.328125 C-2 -1 -2 -1 0 0 Z " fill="#D7976B" transform="translate(230,174)"/>
<path d="M0 0 C-2 2 -2 2 -3.9453125 2.1953125 C-5.96354167 2.13020833 -7.98177083 2.06510417 -10 2 C-10 2.66 -10 3.32 -10 4 C-11.32 4.33 -12.64 4.66 -14 5 C-13 2 -13 2 -11.07421875 1.015625 C-9.89279297 0.63664062 -9.89279297 0.63664062 -8.6875 0.25 C-7.51767578 -0.14445312 -7.51767578 -0.14445312 -6.32421875 -0.546875 C-3.83078909 -1.03298902 -2.3818103 -0.80665429 0 0 Z " fill="#DB9269" transform="translate(234,126)"/>
<path d="M0 0 C0.5775 0.45375 1.155 0.9075 1.75 1.375 C3.90427881 3.04238698 3.90427881 3.04238698 6.1875 4 C8 5 8 5 9 8 C5.33157745 8 3.89548041 7.20970874 1 5 C0.1875 2.3125 0.1875 2.3125 0 0 Z " fill="#E6976A" transform="translate(384,111)"/>
<path d="M0 0 C-0.33 0.66 -0.66 1.32 -1 2 C-2.134375 2.12375 -3.26875 2.2475 -4.4375 2.375 C-6.2009375 2.684375 -6.2009375 2.684375 -8 3 C-9.51294288 4.93597032 -9.51294288 4.93597032 -10 7 C-10.66 6.67 -11.32 6.34 -12 6 C-6 -1.42105263 -6 -1.42105263 0 0 Z " fill="#E3B297" transform="translate(380,102)"/>
<path d="M0 0 C1.32 0.33 2.64 0.66 4 1 C4.12375 1.969375 4.2475 2.93875 4.375 3.9375 C4.58125 4.948125 4.7875 5.95875 5 7 C5.66 7.33 6.32 7.66 7 8 C6.01 8 5.02 8 4 8 C0 3.77142857 0 3.77142857 0 0 Z " fill="#DA9970" transform="translate(206,223)"/>
<path d="M0 0 C0 0.33 0 0.66 0 1 C-5.445 1.495 -5.445 1.495 -11 2 C-11 2.66 -11 3.32 -11 4 C-12.98 4.33 -14.96 4.66 -17 5 C-16.67 4.01 -16.34 3.02 -16 2 C-10.92679142 -0.03581546 -5.39500547 -0.2295747 0 0 Z " fill="#E4A47F" transform="translate(475,123)"/>
<path d="M0 0 C1.1446875 0.0928125 1.1446875 0.0928125 2.3125 0.1875 C-1.4375 2.1875 -1.4375 2.1875 -3.6875 2.1875 C-3.97625 2.826875 -4.265 3.46625 -4.5625 4.125 C-5.6875 6.1875 -5.6875 6.1875 -7.6875 7.1875 C-8.82100534 9.20419827 -8.82100534 9.20419827 -9.6875 11.1875 C-10.0175 9.5375 -10.3475 7.8875 -10.6875 6.1875 C-9.924375 5.754375 -9.16125 5.32125 -8.375 4.875 C-5.72019477 3.38269749 -5.72019477 3.38269749 -4.1875 1.5 C-2.6875 0.1875 -2.6875 0.1875 0 0 Z " fill="#DF8C5B" transform="translate(376.6875,103.8125)"/>
<path d="M0 0 C0.66 0 1.32 0 2 0 C2 2.64 2 5.28 2 8 C1.01 8 0.02 8 -1 8 C-1 8.66 -1 9.32 -1 10 C-2.32 9.67 -3.64 9.34 -5 9 C-4.0409375 8.443125 -4.0409375 8.443125 -3.0625 7.875 C-0.36141928 5.41947207 -0.31592995 3.55421195 0 0 Z " fill="#DC8452" transform="translate(305,227)"/>
<path d="M0 0 C0.99 0.33 1.98 0.66 3 1 C1.68 4.63 0.36 8.26 -1 12 C-1.33 12 -1.66 12 -2 12 C-2.05422947 10.5629191 -2.09289723 9.12524538 -2.125 7.6875 C-2.14820313 6.88699219 -2.17140625 6.08648437 -2.1953125 5.26171875 C-2 3 -2 3 0 0 Z " fill="#DEA984" transform="translate(244,197)"/>
<path d="M0 0 C0.66 0 1.32 0 2 0 C1.52797514 4.24822374 -0.96655518 6.19989709 -4 9 C-4.66 8.01 -5.32 7.02 -6 6 C-5.01 5.67 -4.02 5.34 -3 5 C-3 4.34 -3 3.68 -3 3 C-2.01 3 -1.02 3 0 3 C0 2.01 0 1.02 0 0 Z " fill="#E4A57D" transform="translate(407,129)"/>
<path d="M0 0 C0.5775 0.804375 1.155 1.60875 1.75 2.4375 C3.98126893 4.97866739 4.74456771 5.65120368 8 6 C8 6.66 8 7.32 8 8 C5.69 7.67 3.38 7.34 1 7 C0.34 5.02 -0.32 3.04 -1 1 C-0.67 0.67 -0.34 0.34 0 0 Z " fill="#DCA382" transform="translate(382,258)"/>
<path d="M0 0 C0.33 0.66 0.66 1.32 1 2 C-2.63423209 4.32590854 -5.77088331 4.16265833 -10 4 C-10.33 3.34 -10.66 2.68 -11 2 C-5.555 1.01 -5.555 1.01 0 0 Z " fill="#D59F84" transform="translate(356,262)"/>
<path d="M0 0 C0.33 0.99 0.66 1.98 1 3 C3.31 2.34 5.62 1.68 8 1 C7.67 1.99 7.34 2.98 7 4 C6.34 4 5.68 4 5 4 C5 4.99 5 5.98 5 7 C3.0625 6.3125 3.0625 6.3125 1 5 C0.25 2.375 0.25 2.375 0 0 Z " fill="#EC8142" transform="translate(211,226)"/>
<path d="M0 0 C-0.33 0.99 -0.66 1.98 -1 3 C-2.64551962 3.71727778 -4.31422289 4.38325228 -6 5 C-6.66 5.66 -7.32 6.32 -8 7 C-8.33 6.01 -8.66 5.02 -9 4 C-6.31059578 0.90718514 -4.07621501 0 0 0 Z " fill="#DD9B72" transform="translate(482,193)"/>
<path d="M0 0 C2.64 0.33 5.28 0.66 8 1 C8 1.99 8 2.98 8 4 C5.69 3.67 3.38 3.34 1 3 C0.67 2.01 0.34 1.02 0 0 Z " fill="#E09D73" transform="translate(394,149)"/>
<path d="M0 0 C6.75 1.625 6.75 1.625 9 5 C6.75 5.3125 6.75 5.3125 4 5 C1.6875 2.5 1.6875 2.5 0 0 Z " fill="#D6905F" transform="translate(407,155)"/>
<path d="M0 0 C3.77545388 1.09068668 6.47043472 1.9083091 9 5 C7.68 5.33 6.36 5.66 5 6 C3.35 4.02 1.7 2.04 0 0 Z " fill="#E0A579" transform="translate(440,231)"/>
<path d="M0 0 C0.66 0.33 1.32 0.66 2 1 C1.75 2.875 1.75 2.875 1 5 C-0.875 6.3125 -0.875 6.3125 -3 7 C-3.99 6.67 -4.98 6.34 -6 6 C-5.34 6 -4.68 6 -4 6 C-4 5.34 -4 4.68 -4 4 C-3.01 4 -2.02 4 -1 4 C-0.67 2.68 -0.34 1.36 0 0 Z " fill="#DFB393" transform="translate(535,232)"/>
<path d="M0 0 C2.62386487 3.06117568 3 3.73173127 3 8 C1.0625 7.25 1.0625 7.25 -1 6 C-1.875 4 -1.875 4 -2 2 C-1.34 1.34 -0.68 0.68 0 0 Z " fill="#E58F68" transform="translate(472,210)"/>
<path d="M0 0 C4.21912747 0.4794463 6.79663178 1.16625119 10 4 C7.03 3.67 4.06 3.34 1 3 C0.67 2.01 0.34 1.02 0 0 Z " fill="#D9A07D" transform="translate(279,124)"/>
<path d="M0 0 C2 1 2 1 2 1 Z M-1.75 1.3125 C-0.88375 1.6528125 -0.88375 1.6528125 0 2 C-1.75 3.5625 -1.75 3.5625 -4 5 C-6.25 4.6875 -6.25 4.6875 -8 4 C-4.55384615 0.92307692 -4.55384615 0.92307692 -1.75 1.3125 Z " fill="#EC8141" transform="translate(225,177)"/>
<path d="M0 0 C-0.99 1.485 -0.99 1.485 -2 3 C-6.455 2.01 -6.455 2.01 -11 1 C-11 0.67 -11 0.34 -11 0 C-6.98195309 -0.84098656 -3.98196457 -1.05404945 0 0 Z " fill="#EEB091" transform="translate(493,154)"/>
<path d="M0 0 C0.5775 0.165 1.155 0.33 1.75 0.5 C4.26664369 1.14462031 4.26664369 1.14462031 8 1 C8 1.66 8 2.32 8 3 C1.25 4.125 1.25 4.125 -1 3 C-0.67 2.01 -0.34 1.02 0 0 Z " fill="#E6B185" transform="translate(357,149)"/>
<path d="M0 0 C2.38564077 0.57584432 4.66682784 1.22227595 7 2 C6.67 3.32 6.34 4.64 6 6 C6 5.34 6 4.68 6 4 C4.68 4.33 3.36 4.66 2 5 C1.34 3.35 0.68 1.7 0 0 Z " fill="#EB8040" transform="translate(386,117)"/>
<path d="M0 0 C5.53846154 -0.36923077 5.53846154 -0.36923077 7.875 1.5 C8.24625 1.995 8.6175 2.49 9 3 C8.01 3.495 8.01 3.495 7 4 C4.64018187 3.06421005 2.30368736 2.06652192 0 1 C0 0.67 0 0.34 0 0 Z " fill="#DEA981" transform="translate(447,237)"/>
<path d="M0 0 C0.66 0 1.32 0 2 0 C1.34 3.3 0.68 6.6 0 10 C-2 7 -2 7 -2 3 C-1.34 3 -0.68 3 0 3 C0 2.01 0 1.02 0 0 Z " fill="#E2A684" transform="translate(472,200)"/>
<path d="M0 0 C2.66666667 1.33333333 5.33333333 2.66666667 8 4 C1.25 4.125 1.25 4.125 -1 3 C-0.67 2.01 -0.34 1.02 0 0 Z " fill="#DBAD8D" transform="translate(449,154)"/>
<path d="M0 0 C1.8125 0.875 1.8125 0.875 2.8125 2.875 C-1.6425 3.37 -1.6425 3.37 -6.1875 3.875 C-2.76553468 -0.15803055 -2.76553468 -0.15803055 0 0 Z " fill="#E5AA8D" transform="translate(463.1875,153.125)"/>
<path d="M0 0 C1.32 0.66 2.64 1.32 4 2 C3.34 2.66 2.68 3.32 2 4 C2 4.66 2 5.32 2 6 C1.01 6 0.02 6 -1 6 C-1.042721 4.33388095 -1.04063832 2.66617115 -1 1 C-0.67 0.67 -0.34 0.34 0 0 Z " fill="#E88447" transform="translate(400,132)"/>
<path d="M0 0 C0.99 0.33 1.98 0.66 3 1 C3 1.99 3 2.98 3 4 C3.66 4 4.32 4 5 4 C4.67 5.32 4.34 6.64 4 8 C0 2.25 0 2.25 0 0 Z " fill="#E0AB7E" transform="translate(435,223)"/>
<path d="M0 0 C1.485 0.99 1.485 0.99 3 2 C2.67 3.65 2.34 5.3 2 7 C1.34 7 0.68 7 0 7 C0 4.69 0 2.38 0 0 Z " fill="#D79F7D" transform="translate(436,96)"/>
<path d="M0 0 C2.31 1.98 4.62 3.96 7 6 C6.34 6.66 5.68 7.32 5 8 C4.566875 7.38125 4.13375 6.7625 3.6875 6.125 C2.00259517 3.7802755 2.00259517 3.7802755 -1 2 C-0.67 1.34 -0.34 0.68 0 0 Z " fill="#DF9F7A" transform="translate(429,89)"/>
<path d="" fill="#FFFFFF" transform="translate(0,0)"/>
<path d="" fill="#FFFFFF" transform="translate(0,0)"/>
<path d="" fill="#FFFFFF" transform="translate(0,0)"/>
<path d="" fill="#FFFFFF" transform="translate(0,0)"/>
<path d="" fill="#FFFFFF" transform="translate(0,0)"/>
<path d="" fill="#FFFFFF" transform="translate(0,0)"/>
<path d="" fill="#FFFFFF" transform="translate(0,0)"/>
<path d="" fill="#FFFFFF" transform="translate(0,0)"/>
<path d="" fill="#FFFFFF" transform="translate(0,0)"/>
<path d="" fill="#FFFFFF" transform="translate(0,0)"/>
<path d="" fill="#FFFFFF" transform="translate(0,0)"/>
<path d="" fill="#FFFFFF" transform="translate(0,0)"/>
<path d="" fill="#FFFFFF" transform="translate(0,0)"/>
<path d="" fill="#FFFFFF" transform="translate(0,0)"/>
<path d="" fill="#FFFFFF" transform="translate(0,0)"/>
<path d="" fill="#FFFFFF" transform="translate(0,0)"/>
<path d="" fill="#FFFFFF" transform="translate(0,0)"/>
<path d="" fill="#FFFFFF" transform="translate(0,0)"/>
<path d="" fill="#FFFFFF" transform="translate(0,0)"/>
<path d="" fill="#FFFFFF" transform="translate(0,0)"/>
<path d="" fill="#FFFFFF" transform="translate(0,0)"/>
<path d="" fill="#FFFFFF" transform="translate(0,0)"/>
<path d="" fill="#FFFFFF" transform="translate(0,0)"/>
<path d="" fill="#FFFFFF" transform="translate(0,0)"/>
<path d="" fill="#FFFFFF" transform="translate(0,0)"/>
<path d="" fill="#FFFFFF" transform="translate(0,0)"/>
<path d="" fill="#FFFFFF" transform="translate(0,0)"/>
<path d="" fill="#FFFFFF" transform="translate(0,0)"/>
<path d="" fill="#FFFFFF" transform="translate(0,0)"/>
<path d="" fill="#FFFFFF" transform="translate(0,0)"/>
<path d="" fill="#FFFFFF" transform="translate(0,0)"/>
<path d="" fill="#FFFFFF" transform="translate(0,0)"/>
<path d="" fill="#FFFFFF" transform="translate(0,0)"/>
<path d="" fill="#FFFFFF" transform="translate(0,0)"/>
<path d="" fill="#FFFFFF" transform="translate(0,0)"/>
<path d="" fill="#FFFFFF" transform="translate(0,0)"/>
<path d="" fill="#FFFFFF" transform="translate(0,0)"/>
<path d="" fill="#FFFFFF" transform="translate(0,0)"/>
<path d="" fill="#FFFFFF" transform="translate(0,0)"/>
<path d="" fill="#FFFFFF" transform="translate(0,0)"/>
<path d="" fill="#FFFFFF" transform="translate(0,0)"/>
<path d="" fill="#FFFFFF" transform="translate(0,0)"/>
<path d="" fill="#FFFFFF" transform="translate(0,0)"/>
<path d="" fill="#FFFFFF" transform="translate(0,0)"/>
<path d="" fill="#FFFFFF" transform="translate(0,0)"/>
<path d="" fill="#FFFFFF" transform="translate(0,0)"/>
<path d="" fill="#FFFFFF" transform="translate(0,0)"/>
<path d="" fill="#FFFFFF" transform="translate(0,0)"/>
<path d="" fill="#FFFFFF" transform="translate(0,0)"/>
<path d="" fill="#FFFFFF" transform="translate(0,0)"/>
<path d="" fill="#FFFFFF" transform="translate(0,0)"/>
<path d="" fill="#FFFFFF" transform="translate(0,0)"/>
<path d="" fill="#FFFFFF" transform="translate(0,0)"/>
<path d="" fill="#FFFFFF" transform="translate(0,0)"/>
<path d="" fill="#FFFFFF" transform="translate(0,0)"/>
<path d="" fill="#FFFFFF" transform="translate(0,0)"/>
<path d="" fill="#FFFFFF" transform="translate(0,0)"/>
<path d="" fill="#FFFFFF" transform="translate(0,0)"/>
<path d="" fill="#FFFFFF" transform="translate(0,0)"/>
<path d="" fill="#FFFFFF" transform="translate(0,0)"/>
<path d="" fill="#FFFFFF" transform="translate(0,0)"/>
<path d="" fill="#FFFFFF" transform="translate(0,0)"/>
<path d="" fill="#FFFFFF" transform="translate(0,0)"/>
<path d="" fill="#FFFFFF" transform="translate(0,0)"/>
<path d="" fill="#FFFFFF" transform="translate(0,0)"/>
<path d="" fill="#FFFFFF" transform="translate(0,0)"/>
<path d="" fill="#FFFFFF" transform="translate(0,0)"/>
<path d="" fill="#FFFFFF" transform="translate(0,0)"/>
<path d="" fill="#FFFFFF" transform="translate(0,0)"/>
</svg>
