<?xml version="1.0" encoding="UTF-8"?>
<svg version="1.1" xmlns="http://www.w3.org/2000/svg" width="1116" height="379">
<path d="M0 0 C0 2 0 4 0 6 C2.31 6 4.62 6 7 6 C7.66 7.65 8.32 9.3 9 11 C5.92677456 11.91058531 3.19902639 12.08886184 0 12 C0 14.64 0 17.28 0 20 C-0.99 20 -1.98 20 -3 20 C-3.33 21.65 -3.66 23.3 -4 25 C-4.66 25 -5.32 25 -6 25 C-6 25.66 -6 26.32 -6 27 C-8.31 27 -10.62 27 -13 27 C-13 28.32 -13 29.64 -13 31 C-13.66 31 -14.32 31 -15 31 C-15 31.99 -15 32.98 -15 34 C-16.69139999 35.40876396 -18.49518089 36.4728077 -20.37109375 37.62109375 C-22.3543268 39.29994571 -22.61937434 40.47500443 -23 43 C-23.639375 43.103125 -24.27875 43.20625 -24.9375 43.3125 C-25.618125 43.539375 -26.29875 43.76625 -27 44 C-27.33 44.99 -27.66 45.98 -28 47 C-28.66 47 -29.32 47 -30 47 C-30 47.66 -30 48.32 -30 49 C-30.66 49 -31.32 49 -32 49 C-32 49.66 -32 50.32 -32 51 C-32.66 51 -33.32 51 -34 51 C-34.66 53.31 -35.32 55.62 -36 58 C-37.66666667 58 -39.33333333 58 -41 58 C-41 59.32 -41 60.64 -41 62 C-42.32 62 -43.64 62 -45 62 C-44.34 63.98 -43.68 65.96 -43 68 C-44.65 68.33 -46.3 68.66 -48 69 C-48.33 70.32 -48.66 71.64 -49 73 C-49.99 72.67 -50.98 72.34 -52 72 C-54.62386487 75.06117568 -55 75.73173127 -55 80 C-56.32 80 -57.64 80 -59 80 C-59.99 80.495 -59.99 80.495 -61 81 C-61.66 80.67 -62.32 80.34 -63 80 C-63 80.66 -63 81.32 -63 82 C-62.34 82 -61.68 82 -61 82 C-61 83.32 -61 84.64 -61 86 C-61.66 86 -62.32 86 -63 86 C-63.4021875 86.8971875 -63.4021875 86.8971875 -63.8125 87.8125 C-65.05646632 90.1040169 -65.87633118 91.4830937 -68 93 C-71.1875 93.1875 -71.1875 93.1875 -74 93 C-74.28875 93.969375 -74.5775 94.93875 -74.875 95.9375 C-76 99 -76 99 -78 100 C-77.938125 100.7425 -77.87625 101.485 -77.8125 102.25 C-78.03094296 105.45383006 -78.90250005 106.64031256 -81 109 C-82.32 108.34 -83.64 107.68 -85 107 C-85 107.66 -85 108.32 -85 109 C-85 109.99 -85 110.98 -85 112 C-86.32 112.33 -87.64 112.66 -89 113 C-88.34 113 -87.68 113 -87 113 C-87.33 114.32 -87.66 115.64 -88 117 C-88.5775 116.62875 -89.155 116.2575 -89.75 115.875 C-92 114.70833333 -92 114.70833333 -94.25 115.875 C-94.8275 116.24625 -95.405 116.6175 -96 117 C-96 118.32 -96 119.64 -96 121 C-96.66 121 -97.32 121 -98 121 C-98.061875 121.78375 -98.12375 122.5675 -98.1875 123.375 C-98.5896875 124.674375 -98.5896875 124.674375 -99 126 C-101.5625 127.3125 -101.5625 127.3125 -104 128 C-102.68 128.33 -101.36 128.66 -100 129 C-100 129.99 -100 130.98 -100 132 C-98.02 132 -96.04 132 -94 132 C-93.34 133.32 -92.68 134.64 -92 136 C-90.35 135.67 -88.7 135.34 -87 135 C-87.33 136.65 -87.66 138.3 -88 140 C-86.35 139.67 -84.7 139.34 -83 139 C-83 139.66 -83 140.32 -83 141 C-82.34 141 -81.68 141 -81 141 C-80.34 142.32 -79.68 143.64 -79 145 C-78.67 144.34 -78.34 143.68 -78 143 C-76.68 143 -75.36 143 -74 143 C-74 144.32 -74 145.64 -74 147 C-74.66 147 -75.32 147 -76 147 C-75.67 147.66 -75.34 148.32 -75 149 C-72.44169499 149.80835332 -69.86090012 150.40779912 -67.25 151.0234375 C-66.5075 151.34570312 -65.765 151.66796875 -65 152 C-64.1875 154.1015625 -64.1875 154.1015625 -64 156 C-63.01 156 -62.02 156 -61 156 C-61 157.65 -61 159.3 -61 161 C-59.35 161 -57.7 161 -56 161 C-56 162.32 -56 163.64 -56 165 C-54.68 165 -53.36 165 -52 165 C-51.566875 165.9590625 -51.566875 165.9590625 -51.125 166.9375 C-50.17176549 169.15206079 -50.17176549 169.15206079 -48 170 C-48 170.66 -48 171.32 -48 172 C-46.02 172.33 -44.04 172.66 -42 173 C-42.33 174.65 -42.66 176.3 -43 178 C-42.34 178 -41.68 178 -41 178 C-41 179.32 -41 180.64 -41 182 C-42.32 182 -43.64 182 -45 182 C-45 181.34 -45 180.68 -45 180 C-47.64 180 -50.28 180 -53 180 C-53.33 180.66 -53.66 181.32 -54 182 C-55.32 182 -56.64 182 -58 182 C-58.33 181.34 -58.66 180.68 -59 180 C-59.99 180 -60.98 180 -62 180 C-62.33 179.01 -62.66 178.02 -63 177 C-63.5775 177.309375 -64.155 177.61875 -64.75 177.9375 C-66.84294184 178.92583364 -68.74535275 179.5168613 -71 180 C-71 178.68 -71 177.36 -71 176 C-70.34 176 -69.68 176 -69 176 C-69 175.34 -69 174.68 -69 174 C-71.3431213 174.25561323 -73.67843403 174.59270772 -76 175 C-76.33 175.66 -76.66 176.32 -77 177 C-77.99 176.67 -78.98 176.34 -80 176 C-81.1875 173.4375 -81.1875 173.4375 -82 171 C-83.65 171 -85.3 171 -87 171 C-87 171.66 -87 172.32 -87 173 C-88.32 173 -89.64 173 -91 173 C-91 172.34 -91 171.68 -91 171 C-91.66 171 -92.32 171 -93 171 C-93 170.34 -93 169.68 -93 169 C-96.63 169 -100.26 169 -104 169 C-104 168.34 -104 167.68 -104 167 C-108.29 167 -112.58 167 -117 167 C-117 166.34 -117 165.68 -117 165 C-120.3 165.33 -123.6 165.66 -127 166 C-126.01 167.32 -125.02 168.64 -124 170 C-128 170 -128 170 -130 169 C-130.33 170.65 -130.66 172.3 -131 174 C-131.66 174 -132.32 174 -133 174 C-133 174.66 -133 175.32 -133 176 C-132.34 176 -131.68 176 -131 176 C-131 178.64 -131 181.28 -131 184 C-131.99 184 -132.98 184 -134 184 C-134.33 185.65 -134.66 187.3 -135 189 C-135.66 189 -136.32 189 -137 189 C-136.67 189.763125 -136.34 190.52625 -136 191.3125 C-135 194 -135 194 -135 197 C-136.65 197.33 -138.3 197.66 -140 198 C-140.19335938 198.71027344 -140.38671875 199.42054688 -140.5859375 200.15234375 C-140.84632813 201.07144531 -141.10671875 201.99054688 -141.375 202.9375 C-141.63023437 203.85402344 -141.88546875 204.77054688 -142.1484375 205.71484375 C-143 208 -143 208 -145 209 C-145.65772428 212.02934491 -145.65772428 212.02934491 -146 215 C-146.66 215 -147.32 215 -148 215 C-147.67 217.64 -147.34 220.28 -147 223 C-147.66 222.67 -148.32 222.34 -149 222 C-148.67 224.31 -148.34 226.62 -148 229 C-148.99 229.33 -149.98 229.66 -151 230 C-151 230.66 -151 231.32 -151 232 C-151.99 232 -152.98 232 -154 232 C-154.1546875 233.0828125 -154.1546875 233.0828125 -154.3125 234.1875 C-155 237 -155 237 -156.5 239.3125 C-158.51361172 242.920221 -158.65235155 245.89774826 -159 250 C-159.66 250 -160.32 250 -161 250 C-161 250.66 -161 251.32 -161 252 C-160.01 251.67 -159.02 251.34 -158 251 C-158.33 252.65 -158.66 254.3 -159 256 C-160.32 256 -161.64 256 -163 256 C-163.33 257.98 -163.66 259.96 -164 262 C-166.64 262 -169.28 262 -172 262 C-172.33 262.99 -172.66 263.98 -173 265 C-173.99 264.67 -174.98 264.34 -176 264 C-176.02464775 258.46411467 -176.04283496 252.928261 -176.05493164 247.39233398 C-176.05997244 245.5075627 -176.06680498 243.62279535 -176.07543945 241.73803711 C-176.08751617 239.03498364 -176.09323068 236.33198169 -176.09765625 233.62890625 C-176.10281754 232.78099014 -176.10797882 231.93307404 -176.11329651 231.0594635 C-176.11349195 229.03928932 -176.06206211 227.01922066 -176 225 C-175.67 224.67 -175.34 224.34 -175 224 C-174.8774645 222.46617321 -174.82222062 220.92689481 -174.79467773 219.38842773 C-174.77473251 218.40748642 -174.75478729 217.4265451 -174.73423767 216.4158783 C-174.71752518 215.3492244 -174.70081268 214.2825705 -174.68359375 213.18359375 C-174.6524221 211.55430687 -174.6524221 211.55430687 -174.62062073 209.8921051 C-174.55500558 206.40730373 -174.49618489 202.92242432 -174.4375 199.4375 C-174.39432615 197.08137199 -174.35071224 194.72525201 -174.30664062 192.36914062 C-174.19931208 186.57951063 -174.09756835 180.78980225 -174 175 C-174.66 175 -175.32 175 -176 175 C-176 173.68 -176 172.36 -176 171 C-177.65 171.33 -179.3 171.66 -181 172 C-181.33 173.32 -181.66 174.64 -182 176 C-184.76276177 175.47731534 -187.3260876 174.89130413 -190 174 C-190 175.32 -190 176.64 -190 178 C-190.556875 177.90460938 -191.11375 177.80921875 -191.6875 177.7109375 C-197.3889729 176.88268299 -201.49824076 177.29945623 -207 179 C-207 179.99 -207 180.98 -207 182 C-208.32 182 -209.64 182 -211 182 C-211.33 181.67 -211.66 181.34 -212 181 C-212 181.99 -212 182.98 -212 184 C-213.65 184 -215.3 184 -217 184 C-217.33 182.68 -217.66 181.36 -218 180 C-218 180.66 -218 181.32 -218 182 C-220.64 182 -223.28 182 -226 182 C-226.33 183.32 -226.66 184.64 -227 186 C-229.64 185.67 -232.28 185.34 -235 185 C-235 185.66 -235 186.32 -235 187 C-237.31 187.33 -239.62 187.66 -242 188 C-242 188.66 -242 189.32 -242 190 C-242.99 190 -243.98 190 -245 190 C-245.66 190.99 -246.32 191.98 -247 193 C-247.99 193 -248.98 193 -250 193 C-250 192.34 -250 191.68 -250 191 C-252.475 191.99 -252.475 191.99 -255 193 C-256 192 -256 192 -256.1875 189.0625 C-256 186 -256 186 -254 184 C-254 182.68 -254 181.36 -254 180 C-253.01 180 -252.02 180 -251 180 C-249.25 178.75 -249.25 178.75 -248 177 C-248 176.01 -248 175.02 -248 174 C-245.69 173.67 -243.38 173.34 -241 173 C-241 172.01 -241 171.02 -241 170 C-237.535 169.01 -237.535 169.01 -234 168 C-234 167.34 -234 166.68 -234 166 C-233.34 166 -232.68 166 -232 166 C-231.67 165.01 -231.34 164.02 -231 163 C-229.35 163 -227.7 163 -226 163 C-226 162.34 -226 161.68 -226 161 C-226.66 160.67 -227.32 160.34 -228 160 C-228 159.01 -228 158.02 -228 157 C-225.69 156.67 -223.38 156.34 -221 156 C-221 155.01 -221 154.02 -221 153 C-218.92446352 152.4465236 -217.15634036 152 -215 152 C-214.01 151.67 -213.02 151.34 -212 151 C-211.814375 149.0509375 -211.814375 149.0509375 -211.625 147.0625 C-211.4140625 144.84765625 -211.4140625 144.84765625 -211 143 C-210.34 142.67 -209.68 142.34 -209 142 C-209.66 141.34 -210.32 140.68 -211 140 C-211.125 136.875 -211.125 136.875 -211 134 C-214.3 134 -217.6 134 -221 134 C-221 133.01 -221 132.02 -221 131 C-221.99 130.67 -222.98 130.34 -224 130 C-224.33 130.66 -224.66 131.32 -225 132 C-225.99 131.67 -226.98 131.34 -228 131 C-228 129.35 -228 127.7 -228 126 C-229.65 126 -231.3 126 -233 126 C-233.33 125.34 -233.66 124.68 -234 124 C-235.98 124.99 -235.98 124.99 -238 126 C-238.66 125.01 -239.32 124.02 -240 123 C-242.58380177 122.74969023 -242.58380177 122.74969023 -245 123 C-245.5534764 120.92446352 -246 119.15634036 -246 117 C-247.32 117 -248.64 117 -250 117 C-250 116.34 -250 115.68 -250 115 C-252.475 115.99 -252.475 115.99 -255 117 C-255.2475 116.38125 -255.495 115.7625 -255.75 115.125 C-257.22527877 112.6170261 -258.34874952 112.07707051 -261 111 C-263 110 -263 110 -264 109 C-264 109.99 -264 110.98 -264 112 C-266.92879371 111.37240135 -269.36095629 110.41377341 -272 109 C-272 108.34 -272 107.68 -272 107 C-274.97 107.495 -274.97 107.495 -278 108 C-278.12375 107.195625 -278.2475 106.39125 -278.375 105.5625 C-278.58125 104.716875 -278.7875 103.87125 -279 103 C-279.66 102.67 -280.32 102.34 -281 102 C-281 101.01 -281 100.02 -281 99 C-282.32 99 -283.64 99 -285 99 C-285 98.34 -285 97.68 -285 97 C-285.99 97 -286.98 97 -288 97 C-288 97.66 -288 98.32 -288 99 C-289.98 99 -291.96 99 -294 99 C-294 98.34 -294 97.68 -294 97 C-294.66 97 -295.32 97 -296 97 C-296 96.34 -296 95.68 -296 95 C-296.9075 95.0825 -297.815 95.165 -298.75 95.25 C-302 95 -302 95 -304.4375 93.4375 C-306 91 -306 91 -305.875 87.375 C-305 84 -305 84 -303 82 C-300.54901444 82.39532025 -298.36095721 83.21301426 -296 84 C-294.515 83.505 -294.515 83.505 -293 83 C-290.8125 83.9375 -290.8125 83.9375 -289 85 C-289.33 85.99 -289.66 86.98 -290 88 C-288.35 88.33 -286.7 88.66 -285 89 C-285 88.34 -285 87.68 -285 87 C-283.68 87 -282.36 87 -281 87 C-281 87.66 -281 88.32 -281 89 C-278.03 88.505 -278.03 88.505 -275 88 C-275.33 88.66 -275.66 89.32 -276 90 C-273.4516326 89.5752721 -271.34028275 89.18660667 -269.0625 87.9375 C-266.31378018 86.6880819 -263.98134247 86.86448443 -261 87 C-261.33 88.65 -261.66 90.3 -262 92 C-261.28972656 92.06058594 -260.57945312 92.12117188 -259.84765625 92.18359375 C-258.46900391 92.30927734 -258.46900391 92.30927734 -257.0625 92.4375 C-256.14597656 92.51871094 -255.22945312 92.59992188 -254.28515625 92.68359375 C-252 93 -252 93 -251 94 C-249.33795513 94.20775561 -247.66970509 94.36718255 -246 94.5 C-241.11111111 94.88888889 -241.11111111 94.88888889 -240 96 C-237.25706804 96.28562763 -234.51391162 96.44839273 -231.76171875 96.62109375 C-229.03361934 96.99538745 -227.39365185 97.7122759 -225 99 C-222.6693782 99.35179197 -220.33564933 99.68330179 -218 100 C-215.63769206 100.59287495 -213.33018593 101.28667778 -211 102 C-211 101.34 -211 100.68 -211 100 C-209.68 100 -208.36 100 -207 100 C-207 100.66 -207 101.32 -207 102 C-202.71 102.66 -198.42 103.32 -194 104 C-194.95934081 100.16263678 -195.23609263 99.40339772 -198 97 C-197.01 95.02 -197.01 95.02 -196 93 C-197.32 93 -198.64 93 -200 93 C-202 90 -202 90 -202 87 C-201.34 87 -200.68 87 -200 87 C-200 86.01 -200 85.02 -200 84 C-201.65 84.33 -203.3 84.66 -205 85 C-205.103125 84.360625 -205.20625 83.72125 -205.3125 83.0625 C-205.539375 82.381875 -205.76625 81.70125 -206 81 C-207.485 80.505 -207.485 80.505 -209 80 C-209 78.68 -209 77.36 -209 76 C-209.66 75.67 -210.32 75.34 -211 75 C-211 69.39 -211 63.78 -211 58 C-209.68 58 -208.36 58 -207 58 C-207 58.66 -207 59.32 -207 60 C-206.34 60 -205.68 60 -205 60 C-205 60.66 -205 61.32 -205 62 C-204.01 61.67 -203.02 61.34 -202 61 C-201.4121875 61.7734375 -201.4121875 61.7734375 -200.8125 62.5625 C-200.214375 63.036875 -199.61625 63.51125 -199 64 C-196.34533951 63.76956136 -196.34533951 63.76956136 -194 63 C-194 63.66 -194 64.32 -194 65 C-193.34 65 -192.68 65 -192 65 C-192 65.99 -192 66.98 -192 68 C-190.515 68.495 -190.515 68.495 -189 69 C-189 69.66 -189 70.32 -189 71 C-188.05125 70.79375 -187.1025 70.5875 -186.125 70.375 C-184.578125 70.189375 -184.578125 70.189375 -183 70 C-180.8614515 72.1385485 -180.57344937 73.13275314 -180 76 C-180 75.34 -180 74.68 -180 74 C-177.69 74 -175.38 74 -173 74 C-173 74.99 -173 75.98 -173 77 C-172.01 77.66 -171.02 78.32 -170 79 C-169.67 78.01 -169.34 77.02 -169 76 C-168.01 76 -167.02 76 -166 76 C-165.67 75.34 -165.34 74.68 -165 74 C-162.4375 73.375 -162.4375 73.375 -160 73 C-159.67 71.02 -159.34 69.04 -159 67 C-158.34 67 -157.68 67 -157 67 C-157.16048828 66.00419922 -157.16048828 66.00419922 -157.32421875 64.98828125 C-158.30890465 57.73548726 -158.30890465 57.73548726 -156.6875 53.875 C-156.130625 53.25625 -155.57375 52.6375 -155 52 C-154.34 52 -153.68 52 -153 52 C-152.34 50.35 -151.68 48.7 -151 47 C-151.99 46.67 -152.98 46.34 -154 46 C-153.67 45.01 -153.34 44.02 -153 43 C-152.34 43 -151.68 43 -151 43 C-151.33 41.68 -151.66 40.36 -152 39 C-151.34 39 -150.68 39 -150 39 C-149.855625 38.071875 -149.71125 37.14375 -149.5625 36.1875 C-149 33 -149 33 -148 30 C-147.01 30 -146.02 30 -145 30 C-145 29.34 -145 28.68 -145 28 C-144.34 28 -143.68 28 -143 28 C-143.33 27.2575 -143.66 26.515 -144 25.75 C-145 23 -145 23 -145 19 C-144.01 19 -143.02 19 -142 19 C-141.67 18.34 -141.34 17.68 -141 17 C-140.34 17 -139.68 17 -139 17 C-138.67 15.35 -138.34 13.7 -138 12 C-136.35 12.33 -134.7 12.66 -133 13 C-133 13.99 -133 14.98 -133 16 C-133.66 16 -134.32 16 -135 16 C-134.01 17.485 -134.01 17.485 -133 19 C-132.69108907 23.2475253 -132.66953299 26.3586453 -135 30 C-134.34 30 -133.68 30 -133 30 C-133 30.66 -133 31.32 -133 32 C-132.34 32 -131.68 32 -131 32 C-131 33.98 -131 35.96 -131 38 C-131.66 38 -132.32 38 -133 38 C-133 38.99 -133 39.98 -133 41 C-132.34 41 -131.68 41 -131 41 C-131.06510417 42.98567708 -131.13020833 44.97135417 -131.1953125 46.95703125 C-131.13254462 49.31359719 -131.13254462 49.31359719 -129 52 C-128.19944682 56.00276589 -127.74604955 59.09882081 -129 63 C-129 63.99 -129 64.98 -129 66 C-129.15468841 68.06343295 -129.32265725 70.12589054 -129.5 72.1875 C-129.5928125 73.27417969 -129.685625 74.36085938 -129.78125 75.48046875 C-129.8534375 76.31191406 -129.925625 77.14335938 -130 78 C-129.34 78 -128.68 78 -128 78 C-127.67 80.31 -127.34 82.62 -127 85 C-126.4225 84.79375 -125.845 84.5875 -125.25 84.375 C-122.48032433 83.91338739 -121.35438733 84.57055055 -119 86 C-118.34 84.02 -117.68 82.04 -117 80 C-116.34 80 -115.68 80 -115 80 C-115 79.34 -115 78.68 -115 78 C-114.34 77.67 -113.68 77.34 -113 77 C-113 76.01 -113 75.02 -113 74 C-112.01 73.67 -111.02 73.34 -110 73 C-109.34 73.33 -108.68 73.66 -108 74 C-108 73.01 -108 72.02 -108 71 C-106.35 71 -104.7 71 -103 71 C-102.67 70.34 -102.34 69.68 -102 69 C-101.34 69 -100.68 69 -100 69 C-100 68.34 -100 67.68 -100 67 C-98.68 67 -97.36 67 -96 67 C-95.67 67.33 -95.34 67.66 -95 68 C-95 67.01 -95 66.02 -95 65 C-92.03 64.505 -92.03 64.505 -89 64 C-88.67 62.68 -88.34 61.36 -88 60 C-86.68 60.33 -85.36 60.66 -84 61 C-84 60.01 -84 59.02 -84 58 C-79.93370553 54.69613575 -76.04808808 54.42780407 -71 54 C-71.33 53.67 -71.66 53.34 -72 53 C-73.32 53 -74.64 53 -76 53 C-75.3125 51.0625 -75.3125 51.0625 -74 49 C-71.12060581 48.06419689 -69.74490212 47.62754894 -67 49 C-66.67 47.68 -66.34 46.36 -66 45 C-65.01 45 -64.02 45 -63 45 C-62.67 43.68 -62.34 42.36 -62 41 C-61.01 41 -60.02 41 -59 41 C-59 41.66 -59 42.32 -59 43 C-56.94009522 41.70532323 -56.94009522 41.70532323 -55 40 C-55 39.01 -55 38.02 -55 37 C-54.34 36.01 -53.68 35.02 -53 34 C-51.02 34.66 -49.04 35.32 -47 36 C-47 34.68 -47 33.36 -47 32 C-46.34 32 -45.68 32 -45 32 C-45 31.34 -45 30.68 -45 30 C-42.69 30 -40.38 30 -38 30 C-38 29.34 -38 28.68 -38 28 C-36.68 28 -35.36 28 -34 28 C-34 26.68 -34 25.36 -34 24 C-33.34 24 -32.68 24 -32 24 C-31.87625 23.236875 -31.7525 22.47375 -31.625 21.6875 C-29.61091842 18.35651892 -28.66681458 18.41406185 -25 17.5 C-22.32878948 16.88036376 -22.32878948 16.88036376 -20 16 C-18.40311361 13.51686936 -18.40311361 13.51686936 -18 11 C-17.34 10.67 -16.68 10.34 -16 10 C-16 8.68 -16 7.36 -16 6 C-15.01 6 -14.02 6 -13 6 C-13 6.66 -13 7.32 -13 8 C-12.34 8 -11.68 8 -11 8 C-10.67 7.34 -10.34 6.68 -10 6 C-7.9375 5.375 -7.9375 5.375 -6 5 C-6 4.01 -6 3.02 -6 2 C-3 0 -3 0 0 0 Z M-205 78 C-204 80 -204 80 -204 80 Z M-268 89 C-268 89.66 -268 90.32 -268 91 C-267.34 90.67 -266.68 90.34 -266 90 C-266.66 89.67 -267.32 89.34 -268 89 Z M-304 90 C-303.67 90.66 -303.34 91.32 -303 92 C-302.67 91.34 -302.34 90.68 -302 90 C-302.66 90 -303.32 90 -304 90 Z M-266 91 C-265.67 91.66 -265.34 92.32 -265 93 C-264.67 92.34 -264.34 91.68 -264 91 C-264.66 91 -265.32 91 -266 91 Z M-268 108 C-267 110 -267 110 -267 110 Z M-203 139 C-202 141 -202 141 -202 141 Z M-207 143 C-206 145 -206 145 -206 145 Z M-70 152 C-69 154 -69 154 -69 154 Z " fill="#010101" transform="translate(367,39)"/>
<path d="M0 0 C0.66 0.99 1.32 1.98 2 3 C2.66 2.34 3.32 1.68 4 1 C4.99 1 5.98 1 7 1 C7 2.32 7 3.64 7 5 C7.99 4.34 8.98 3.68 10 3 C11.32 3 12.64 3 14 3 C14 2.34 14 1.68 14 1 C15.32 1 16.64 1 18 1 C18.09765625 7.15234375 18.09765625 7.15234375 18 9 C17.67 9.33 17.34 9.66 17 10 C17.99 10 18.98 10 20 10 C19.67 11.32 19.34 12.64 19 14 C18.34 14 17.68 14 17 14 C17.66 14.33 18.32 14.66 19 15 C18.690625 15.763125 18.38125 16.52625 18.0625 17.3125 C17.32106407 19.18789677 16.63771783 21.08684652 16 23 C16.66 23 17.32 23 18 23 C18.66 24.98 19.32 26.96 20 29 C23.25924846 29.91666363 25.71635745 29.95336886 29 29.375 C32.10356989 28.91651808 32.95563426 28.98151427 36 30.25 C36.99 31.11625 36.99 31.11625 38 32 C38 32.99 38 33.98 38 35 C37.34 35 36.68 35 36 35 C36 38.3 36 41.6 36 45 C36.66 45 37.32 45 38 45 C38 45.99 38 46.98 38 48 C30.60795485 50.92243645 26.98894134 49.69145703 18 49 C18 60.22 18 71.44 18 83 C17.34 83 16.68 83 16 83 C16 83.99 16 84.98 16 86 C16.66 86 17.32 86 18 86 C18 87.32 18 88.64 18 90 C18.66 90 19.32 90 20 90 C21.625 91.3125 21.625 91.3125 23 93 C23 93.99 23 94.98 23 96 C20.525 96.495 20.525 96.495 18 97 C18.99 97 19.98 97 21 97 C21 97.66 21 98.32 21 99 C26.28 99 31.56 99 37 99 C37.12375 97.22625 37.2475 95.4525 37.375 93.625 C37.75 88.25 37.75 88.25 40 86 C47.30434783 85.53623188 47.30434783 85.53623188 51 88 C51.495 86.02 51.495 86.02 52 84 C53.65 84 55.3 84 57 84 C57.33 84.66 57.66 85.32 58 86 C59.32 86 60.64 86 62 86 C63.25664978 88.90600261 64 90.79604584 64 94 C64.66 94.33 65.32 94.66 66 95 C66 96.98 66 98.96 66 101 C68.64 100.67 71.28 100.34 74 100 C74.495 98.515 74.495 98.515 75 97 C76.32 97 77.64 97 79 97 C79 98.32 79 99.64 79 101 C79.99 101 80.98 101 82 101 C82 99.68 82 98.36 82 97 C83.98 97 85.96 97 88 97 C88 96.01 88 95.02 88 94 C86.68 94 85.36 94 84 94 C83.67 93.34 83.34 92.68 83 92 C81.515 91.505 81.515 91.505 80 91 C80.33 89.02 80.66 87.04 81 85 C77.94729537 84.84188612 77.94729537 84.84188612 75 86 C74.34 85.67 73.68 85.34 73 85 C72.505 86.485 72.505 86.485 72 88 C71.01 88 70.02 88 69 88 C69 85.69 69 83.38 69 81 C67.35 81 65.7 81 64 81 C64 80.34 64 79.68 64 79 C62.865625 79.020625 61.73125 79.04125 60.5625 79.0625 C57 79 57 79 56 78 C54.33382885 77.95936168 52.66611905 77.957279 51 78 C50.67 78.66 50.34 79.32 50 80 C49.34 80 48.68 80 48 80 C48 79.34 48 78.68 48 78 C46.35 78.33 44.7 78.66 43 79 C43 77.68 43 76.36 43 75 C43.66 75 44.32 75 45 75 C45 74.34 45 73.68 45 73 C43.35 73.66 41.7 74.32 40 75 C38 72 38 72 38 69 C38.495 67.515 38.495 67.515 39 66 C39.14777936 64.30132812 39.24747066 62.59822511 39.31640625 60.89453125 C39.35830078 59.91162109 39.40019531 58.92871094 39.44335938 57.91601562 C39.48267578 56.89185547 39.52199219 55.86769531 39.5625 54.8125 C39.62727539 53.25885742 39.62727539 53.25885742 39.69335938 51.67382812 C39.79944366 49.1160181 39.90150146 46.55811155 40 44 C40.66 44 41.32 44 42 44 C42 42.35 42 40.7 42 39 C40.68 39 39.36 39 38 39 C38.66 37.35 39.32 35.7 40 34 C41.32 34 42.64 34 44 34 C44.495 33.01 44.495 33.01 45 32 C46.98 32.33 48.96 32.66 51 33 C51.33 31.68 51.66 30.36 52 29 C53.32 29 54.64 29 56 29 C60.89995144 28.91833438 60.89995144 28.91833438 65 27 C67.92629572 26.89929752 70.82390339 26.86132665 73.75 26.875 C74.56210937 26.87113281 75.37421875 26.86726563 76.2109375 26.86328125 C85.95610226 26.87915285 85.95610226 26.87915285 89.9375 29.0625 C92.09655402 30.21552237 92.09655402 30.21552237 95.125 30 C96.07375 30 97.0225 30 98 30 C98.99 30.99 98.99 30.99 100 32 C100.66 31.34 101.32 30.68 102 30 C105 31 105 31 106.16796875 32.84765625 C106.50441406 33.57855469 106.84085938 34.30945313 107.1875 35.0625 C107.53167969 35.79597656 107.87585938 36.52945313 108.23046875 37.28515625 C108.48441406 37.85105469 108.73835937 38.41695312 109 39 C109.33 37.68 109.66 36.36 110 35 C109.34 35 108.68 35 108 35 C108.57344937 32.13275314 108.8614515 31.1385485 111 29 C113.26274788 29.35355436 114.95088852 29.97544426 117 31 C117 30.34 117 29.68 117 29 C117.969375 29.185625 118.93875 29.37125 119.9375 29.5625 C120.948125 29.706875 121.95875 29.85125 123 30 C124.71443219 28.28556781 124.23052967 25.99554759 124.31640625 23.65234375 C124.35830078 22.57275391 124.40019531 21.49316406 124.44335938 20.38085938 C124.48267578 19.24455078 124.52199219 18.10824219 124.5625 16.9375 C124.60568359 15.79732422 124.64886719 14.65714844 124.69335938 13.48242188 C124.79982738 10.65510492 124.90045262 7.82756908 125 5 C131.6 5 138.2 5 145 5 C145 3.68 145 2.36 145 1 C146.32 1 147.64 1 149 1 C149 2.32 149 3.64 149 5 C150.98 5.495 150.98 5.495 153 6 C153 6.99 153 7.98 153 9 C151.68 9 150.36 9 149 9 C149 9.66 149 10.32 149 11 C148.34 11 147.68 11 147 11 C147.11361602 13.79256219 147.2403589 16.58344118 147.375 19.375 C147.42140625 20.56609375 147.42140625 20.56609375 147.46875 21.78125 C147.51816421 26.36667375 147.51816421 26.36667375 150 30 C150.33 29.67 150.66 29.34 151 29 C152.97793609 28.92717467 154.95833701 28.9163199 156.9375 28.9375 C158.01902344 28.94652344 159.10054687 28.95554687 160.21484375 28.96484375 C161.59349609 28.98224609 161.59349609 28.98224609 163 29 C163.66 29 164.32 29 165 29 C166.33783393 29.31478446 167.67203709 29.64587656 169 30 C168.67 30.99 168.34 31.98 168 33 C168.99 33.33 169.98 33.66 171 34 C171.33 34.33 171.66 34.66 172 35 C172 34.01 172 33.02 172 32 C172.99 32 173.98 32 175 32 C175 32.66 175 33.32 175 34 C178.465 33.505 178.465 33.505 182 33 C182 32.34 182 31.68 182 31 C185.4352048 28.70986347 186.985331 28.82157027 191 29 C191 28.34 191 27.68 191 27 C193.475 26.01 193.475 26.01 196 25 C196.33 25.33 196.66 25.66 197 26 C198.6242026 26.13338046 200.2537009 26.20343407 201.8828125 26.24609375 C202.88570312 26.27896484 203.88859375 26.31183594 204.921875 26.34570312 C207.03376402 26.40622677 209.14574627 26.46359139 211.2578125 26.51757812 C216.89817799 26.70822823 221.63468579 27.298136 227 29 C229.58930993 29.23692775 229.58930993 29.23692775 231.9375 29.125 C232.70964844 29.10695313 233.48179687 29.08890625 234.27734375 29.0703125 C235.13005859 29.03550781 235.13005859 29.03550781 236 29 C236 29.66 236 30.32 236 31 C237.32 31.33 238.64 31.66 240 32 C240.144375 32.598125 240.28875 33.19625 240.4375 33.8125 C240.8872439 35.56150404 241.42892341 37.28677023 242 39 C242.99 39 243.98 39 245 39 C244.67 39.99 244.34 40.98 244 42 C244.66 42.33 245.32 42.66 246 43 C245.67 45.64 245.34 48.28 245 51 C245.66 51 246.32 51 247 51 C247.33 54.3 247.66 57.6 248 61 C246.68 60.34 245.36 59.68 244 59 C243.88311926 65.24662628 244.07213492 71.39484878 244.5625 77.625 C244.8848626 81.91155133 245.04759694 85.86850975 244.4375 90.125 C244.00682694 93.93953278 243.90109315 95.80166575 246 99 C248.04105639 99.88693303 248.04105639 99.88693303 250 100 C249.67 100.99 249.34 101.98 249 103 C247.515 103.495 247.515 103.495 246 104 C244.96683512 106.79172239 244.96683512 106.79172239 244.3125 110.0625 C244.06113281 111.16722656 243.80976562 112.27195312 243.55078125 113.41015625 C243.36902344 114.26480469 243.18726563 115.11945313 243 116 C241.3603125 116.2165625 241.3603125 116.2165625 239.6875 116.4375 C236.06877013 116.88288104 236.06877013 116.88288104 233 118 C233 117.34 233 116.68 233 116 C230.03 116.66 227.06 117.32 224 118 C224 117.34 224 116.68 224 116 C220.00967159 115.39735687 220.00967159 115.39735687 216 115 C215.67 115.33 215.34 115.66 215 116 C213.33382885 116.04063832 211.66611905 116.042721 210 116 C210 116.66 210 117.32 210 118 C201.42 118 192.84 118 184 118 C184 117.34 184 116.68 184 116 C183.2575 116.04125 182.515 116.0825 181.75 116.125 C178.91241048 115.99601866 177.41226062 115.42948778 175 114 C175 114.66 175 115.32 175 116 C173.68 116 172.36 116 171 116 C171 115.34 171 114.68 171 114 C169.35 114 167.7 114 166 114 C165.67 114.66 165.34 115.32 165 116 C161.98046875 116.37890625 161.98046875 116.37890625 158.1875 116.5625 C154.29498163 116.76015119 150.76721532 117.04223339 147 118 C146.67 117.67 146.34 117.34 146 117 C144.43962479 116.86776481 142.87632969 116.76931471 141.3125 116.6875 C136.55734664 116.24531836 133.63538476 115.27184628 130 112 C128.8125 109.3125 128.8125 109.3125 128 107 C127.01 106.67 126.02 106.34 125 106 C124.67 101.38 124.34 96.76 124 92 C123.01 91.67 122.02 91.34 121 91 C121.33 89.35 121.66 87.7 122 86 C122.66 86 123.32 86 124 86 C123.99476318 85.16339844 123.98952637 84.32679688 123.98413086 83.46484375 C123.96696987 80.32633728 123.95449227 77.18785493 123.94506836 74.04931641 C123.93763579 72.03676759 123.92492171 70.02424051 123.91210938 68.01171875 C123.89594517 61.57836629 123.97039025 55.3560161 125 49 C120.05 49.33 115.1 49.66 110 50 C108.91780051 55.47940321 108.91780051 55.47940321 109 59 C108.01 59 107.02 59 106 59 C106 58.34 106 57.68 106 57 C105.34 57 104.68 57 104 57 C103.67 57.66 103.34 58.32 103 59 C101.68 59 100.36 59 99 59 C99 59.66 99 60.32 99 61 C97.68 61 96.36 61 95 61 C95 60.34 95 59.68 95 59 C94.34 59 93.68 59 93 59 C93 58.34 93 57.68 93 57 C92.01 57.495 92.01 57.495 91 58 C91.33 58.99 91.66 59.98 92 61 C92.66 61.33 93.32 61.66 94 62 C94 63.32 94 64.64 94 66 C94.99 66 95.98 66 97 66 C97 65.34 97 64.68 97 64 C98.32 64 99.64 64 101 64 C101.33 64.66 101.66 65.32 102 66 C102.99 66 103.98 66 105 66 C107.65970346 68.04592574 108.40929544 69.7511249 109 73 C109.185625 73.639375 109.37125 74.27875 109.5625 74.9375 C110.07066883 77.33315307 110.06783326 79.55800267 110 82 C110.66 82 111.32 82 112 82 C113.31626692 85.61973402 114 88.09567131 114 92 C113.34 92 112.68 92 112 92 C112 93.98 112 95.96 112 98 C111.34 98 110.68 98 110 98 C110.04125 98.7425 110.0825 99.485 110.125 100.25 C109.99601866 103.08758952 109.42948778 104.58773938 108 107 C107.34 107 106.68 107 106 107 C106.66 108.98 107.32 110.96 108 113 C106.68 113.33 105.36 113.66 104 114 C104 113.34 104 112.68 104 112 C103.01 112 102.02 112 101 112 C101 112.66 101 113.32 101 114 C99.68 114 98.36 114 97 114 C97 114.66 97 115.32 97 116 C94.69 116 92.38 116 90 116 C90 116.66 90 117.32 90 118 C85.545 118.495 85.545 118.495 81 119 C81 119.99 81 120.98 81 122 C79.54077307 121.88590407 78.08259402 121.75834456 76.625 121.625 C75.81289063 121.55539063 75.00078125 121.48578125 74.1640625 121.4140625 C72 121 72 121 70 119 C69.67 119.33 69.34 119.66 69 120 C64.92922882 120.34892324 61.80024093 119.41404314 58 118 C58 117.34 58 116.68 58 116 C56.02 116 54.04 116 52 116 C52 115.34 52 114.68 52 114 C51.01 114 50.02 114 49 114 C49 113.34 49 112.68 49 112 C47.02 112 45.04 112 43 112 C43 110.35 43 108.7 43 107 C42.34 107 41.68 107 41 107 C41 108.32 41 109.64 41 111 C39.68 111 38.36 111 37 111 C36.67 112.65 36.34 114.3 36 116 C34.35 116 32.7 116 31 116 C31 116.66 31 117.32 31 118 C26.17639811 118.19294408 22.50353262 117.75747614 18 116 C18 116.66 18 117.32 18 118 C13.71 117.34 9.42 116.68 5 116 C5 115.34 5 114.68 5 114 C3.02 114 1.04 114 -1 114 C-1.495 113.01 -1.495 113.01 -2 112 C-2.99 112 -3.98 112 -5 112 C-4.79375 111.2575 -4.5875 110.515 -4.375 109.75 C-3.94998068 106.63319166 -4.12619554 105.49840595 -6 103 C-8.05000871 102.19471111 -8.05000871 102.19471111 -10 102 C-8.125 97.25 -8.125 97.25 -7 95 C-6.91050583 93.54962893 -6.8824156 92.09521371 -6.88647461 90.64208984 C-6.88658791 89.29091568 -6.88658791 89.29091568 -6.88670349 87.91244507 C-6.89186478 86.93844757 -6.89702606 85.96445007 -6.90234375 84.9609375 C-6.9037587 83.96494537 -6.90517365 82.96895325 -6.90663147 81.94277954 C-6.91224064 78.75348947 -6.9247947 75.56426894 -6.9375 72.375 C-6.94251382 70.21614685 -6.94707693 68.05729259 -6.95117188 65.8984375 C-6.96221305 60.5989345 -6.97896012 55.29947222 -7 50 C-8.26457031 50.01740234 -8.26457031 50.01740234 -9.5546875 50.03515625 C-10.65039062 50.04417969 -11.74609375 50.05320313 -12.875 50.0625 C-14.51082031 50.07990234 -14.51082031 50.07990234 -16.1796875 50.09765625 C-19 50 -19 50 -21 49 C-21.4140625 46.49609375 -21.4140625 46.49609375 -21.625 43.4375 C-21.69976563 42.42558594 -21.77453125 41.41367188 -21.8515625 40.37109375 C-21.90054688 39.58863281 -21.94953125 38.80617187 -22 38 C-24.97 38.495 -24.97 38.495 -28 39 C-27.67 38.01 -27.34 37.02 -27 36 C-26.34 36 -25.68 36 -25 36 C-25 34.02 -25 32.04 -25 30 C-20.99799622 28.39919849 -17.95443764 29.70720308 -14 31 C-14 30.34 -14 29.68 -14 29 C-11.23723823 29.52268466 -8.6739124 30.10869587 -6 31 C-6 23.74 -6 16.48 -6 9 C-6.66 9 -7.32 9 -8 9 C-8.66 7.35 -9.32 5.7 -10 4 C-9.01 3.67 -8.02 3.34 -7 3 C-7 2.34 -7 1.68 -7 1 C-2.25 0 -2.25 0 0 0 Z M147 5 C148 7 148 7 148 7 Z M101 34 C101 35.32 101 36.64 101 38 C101.99 38 102.98 38 104 38 C104 37.01 104 36.02 104 35 C103.01 34.67 102.02 34.34 101 34 Z M234 34 C234 34.66 234 35.32 234 36 C234.66 35.67 235.32 35.34 236 35 C235.34 34.67 234.68 34.34 234 34 Z M236 36 C237 38 237 38 237 38 Z M168 39 C167.79503906 39.61488281 167.59007812 40.22976562 167.37890625 40.86328125 C166.25260417 44.2421875 165.12630208 47.62109375 164 51 C163.45859375 50.67257813 162.9171875 50.34515625 162.359375 50.0078125 C159.49280933 48.78335233 157.3547013 48.80107854 154.25 48.875 C153.26515625 48.89304687 152.2803125 48.91109375 151.265625 48.9296875 C150.51796875 48.95289063 149.7703125 48.97609375 149 49 C148.01 52.465 148.01 52.465 147 56 C147.66 56 148.32 56 149 56 C148.91621094 56.95519531 148.83242188 57.91039062 148.74609375 58.89453125 C148.12729681 66.7509025 147.93955467 74.15270455 149 82 C148.01 82.495 148.01 82.495 147 83 C147 83.99 147 84.98 147 86 C148.32 86 149.64 86 151 86 C150.95875 86.721875 150.9175 87.44375 150.875 88.1875 C151.00921305 91.20729369 151.75170619 93.26935729 153 96 C152.01 96.495 152.01 96.495 151 97 C151.66 97 152.32 97 153 97 C153.33 97.66 153.66 98.32 154 99 C154 97.68 154 96.36 154 95 C155.32 95 156.64 95 158 95 C158 96.32 158 97.64 158 99 C159.65 99 161.3 99 163 99 C163 98.34 163 97.68 163 97 C164.98 96.505 164.98 96.505 167 96 C167 93.36 167 90.72 167 88 C166.34 88 165.68 88 165 88 C165 86.68 165 85.36 165 84 C165.66 84 166.32 84 167 84 C167 83.34 167 82.68 167 82 C167.66 82 168.32 82 169 82 C169 81.01 169 80.02 169 79 C168.34 79 167.68 79 167 79 C167 77.68 167 76.36 167 75 C167.78375 74.855625 168.5675 74.71125 169.375 74.5625 C171.96421018 74.12201075 171.96421018 74.12201075 174 73 C174 72.34 174 71.68 174 71 C174.66 70.67 175.32 70.34 176 70 C175.34 69.34 174.68 68.68 174 68 C174 67.34 174 66.68 174 66 C174.99 66 175.98 66 177 66 C177 66.66 177 67.32 177 68 C177.99 68 178.98 68 180 68 C180.33 67.34 180.66 66.68 181 66 C183.25 65.4375 183.25 65.4375 186 65 C187.66666667 64.66666667 189.33333333 64.33333333 191 64 C191 63.34 191 62.68 191 62 C189.02 61.67 187.04 61.34 185 61 C185 60.01 185 59.02 185 58 C188.96 58 192.92 58 197 58 C196.67 59.32 196.34 60.64 196 62 C197.2375 62 198.475 62 199.75 62 C204.83333333 62 209.91666667 62 215 62 C215 61.34 215 60.68 215 60 C215.66 60 216.32 60 217 60 C216.505 59.01 216.505 59.01 216 58 C214.515 58.495 214.515 58.495 213 59 C213.495 57.63875 213.495 57.63875 214 56.25 C215.19605723 52.92954193 215.19605723 52.92954193 215 49 C215 48.01 215 47.02 215 46 C212.69 46 210.38 46 208 46 C208 45.34 208 44.68 208 44 C206.68 44 205.36 44 204 44 C204 44.66 204 45.32 204 46 C201.69 46 199.38 46 197 46 C197 46.99 197 47.98 197 49 C196.34 49.33 195.68 49.66 195 50 C193.90963072 52.9737344 193.96135834 53.88407501 195 57 C191.37 57 187.74 57 184 57 C183.34 58.32 182.68 59.64 182 61 C180.68 61 179.36 61 178 61 C178 60.01 178 59.02 178 58 C178.66 57.67 179.32 57.34 180 57 C179.01 56.34 178.02 55.68 177 55 C177 55.66 177 56.32 177 57 C176.01 57 175.02 57 174 57 C174 56.34 174 55.68 174 55 C173.01 55 172.02 55 171 55 C171.01160156 54.38511719 171.02320313 53.77023438 171.03515625 53.13671875 C171.04417969 52.32847656 171.05320312 51.52023438 171.0625 50.6875 C171.07410156 49.88699219 171.08570313 49.08648437 171.09765625 48.26171875 C171.09657855 45.83138666 171.09657855 45.83138666 170 43 C170.99 43.33 171.98 43.66 173 44 C173 43.34 173 42.68 173 42 C172.01 41.67 171.02 41.34 170 41 C169.34 40.34 168.68 39.68 168 39 Z M66 46 C64.66695302 48.89186786 64.66695302 48.89186786 65.9375 51.1875 C66.288125 51.785625 66.63875 52.38375 67 53 C67 52.34 67 51.68 67 51 C67.66 51 68.32 51 69 51 C69 49.68 69 48.36 69 47 C69.66 46.67 70.32 46.34 71 46 C69.35 46 67.7 46 66 46 Z M76 46 C76.99 46.33 77.98 46.66 79 47 C79.33 47.66 79.66 48.32 80 49 C80 48.34 80 47.68 80 47 C80.66 46.67 81.32 46.34 82 46 C80.02 46 78.04 46 76 46 Z M73 48 C73 48.99 73 49.98 73 51 C72.01 51.33 71.02 51.66 70 52 C70.33 52.5775 70.66 53.155 71 53.75 C72 56 72 56 72 60 C74.31 60 76.62 60 79 60 C79.33 60.66 79.66 61.32 80 62 C80.33 60.35 80.66 58.7 81 57 C81.99 57.33 82.98 57.66 84 58 C84 57.34 84 56.68 84 56 C84.66 56 85.32 56 86 56 C86.66 54.35 87.32 52.7 88 51 C85.60280568 50.32041397 85.60280568 50.32041397 83 50 C82.34 50.66 81.68 51.32 81 52 C79 51.8125 79 51.8125 77 51 C76.34 50.01 75.68 49.02 75 48 C74.34 48 73.68 48 73 48 Z M216 49 C217 51 217 51 217 51 Z M64 53 C64.33 54.32 64.66 55.64 65 57 C65.33 55.68 65.66 54.36 66 53 C65.34 53 64.68 53 64 53 Z M96 55 C96.33 55.99 96.66 56.98 97 58 C97.66 58 98.32 58 99 58 C99.33 57.01 99.66 56.02 100 55 C98.68 55 97.36 55 96 55 Z M219 55 C219 55.66 219 56.32 219 57 C218.01 57.495 218.01 57.495 217 58 C218.32 58 219.64 58 221 58 C221 57.01 221 56.02 221 55 C220.34 55 219.68 55 219 55 Z M86 61 C86 61.99 86 62.98 86 64 C87.32 63.67 88.64 63.34 90 63 C89.67 62.34 89.34 61.68 89 61 C88.01 61 87.02 61 86 61 Z M103 70 C104 73 104 73 104 73 Z M201 80 C198.67182036 80.36760731 196.3381615 80.70241581 194 81 C193.86722656 81.61488281 193.73445312 82.22976562 193.59765625 82.86328125 C193.33275391 84.07564453 193.33275391 84.07564453 193.0625 85.3125 C192.88847656 86.11300781 192.71445312 86.91351563 192.53515625 87.73828125 C192 90 192 90 191 93 C192.32 93 193.64 93 195 93 C195 94.98 195 96.96 195 99 C195.66 99 196.32 99 197 99 C197 99.66 197 100.32 197 101 C197.7425 101 198.485 101 199.25 101 C201.5 101 203.75 101 206 101 C208.39276611 100.15046118 208.39276611 100.15046118 210.75 99 C211.54921875 98.62875 212.3484375 98.2575 213.171875 97.875 C213.77515625 97.58625 214.3784375 97.2975 215 97 C215 96.34 215 95.68 215 95 C215.66 95 216.32 95 217 95 C217 92.69 217 90.38 217 88 C218.32 88 219.64 88 221 88 C221 87.01 221 86.02 221 85 C219.68 85 218.36 85 217 85 C217 84.01 217 83.02 217 82 C218.32 82 219.64 82 221 82 C220.67 81.34 220.34 80.68 220 80 C219.01 80.495 219.01 80.495 218 81 C218 80.34 218 79.68 218 79 C216.02 79 214.04 79 212 79 C212 79.66 212 80.32 212 81 C211.01 81 210.02 81 209 81 C209 80.34 209 79.68 209 79 C204.67679914 78.49633499 204.67679914 78.49633499 201 80 Z M86 88 C86 88.66 86 89.32 86 90 C86.66 90 87.32 90 88 90 C88 89.34 88 88.68 88 88 C87.34 88 86.68 88 86 88 Z M88 90 C88.33 91.32 88.66 92.64 89 94 C89.33 92.68 89.66 91.36 90 90 C89.34 90 88.68 90 88 90 Z M149 92 C150 94 150 94 150 94 Z M244 100 C243.67 100.99 243.34 101.98 243 103 C243.66 103 244.32 103 245 103 C244.67 102.01 244.34 101.02 244 100 Z M36 104 C37 106 37 106 37 106 Z M170 109 C170.33 109.99 170.66 110.98 171 112 C171.66 112 172.32 112 173 112 C172.67 111.01 172.34 110.02 172 109 C171.34 109 170.68 109 170 109 Z " fill="#020202" transform="translate(746,92)"/>
<path d="M0 0 C1.98 0 3.96 0 6 0 C6.33 0.99 6.66 1.98 7 3 C7.66 3 8.32 3 9 3 C9.33 4.32 9.66 5.64 10 7 C10 6.34 10 5.68 10 5 C11.32 5 12.64 5 14 5 C13.67 6.32 13.34 7.64 13 9 C12.01 9 11.02 9 10 9 C10.515625 9.721875 11.03125 10.44375 11.5625 11.1875 C13 14 13 14 12.8125 16.5 C11.98217285 19.05485277 11.05819663 21.53087453 10 24 C9.01 24 8.02 24 7 24 C7 24.66 7 25.32 7 26 C7.99 26.33 8.98 26.66 10 27 C12.37914087 30.5687113 11.86892484 31.95993818 11.29296875 36.0390625 C10.67067589 42.32836898 10.93028023 48.68648758 11 55 C12.485 55.495 12.485 55.495 14 56 C13.67 57.98 13.34 59.96 13 62 C14.65 62.66 16.3 63.32 18 64 C17.505 61.03 17.505 61.03 17 58 C16.34 58 15.68 58 15 58 C15 57.34 15 56.68 15 56 C16.9375 55.4375 16.9375 55.4375 19 55 C19.33 55.33 19.66 55.66 20 56 C20.33 55.01 20.66 54.02 21 53 C21.66 53 22.32 53 23 53 C23.103125 52.46375 23.20625 51.9275 23.3125 51.375 C24.18092697 48.37497956 25.55620296 45.7620465 27 43 C26.34 43 25.68 43 25 43 C25.33 42.01 25.66 41.02 26 40 C27.32 40.33 28.64 40.66 30 41 C30.45375 40.030625 30.9075 39.06125 31.375 38.0625 C33 35 33 35 35 34 C35 33.34 35 32.68 35 32 C39.75 33.875 39.75 33.875 42 35 C42 34.34 42 33.68 42 33 C48.11715124 30.96094959 53.08845587 31.00495711 59.48046875 31.65234375 C64.24749112 32.12322609 69.02369804 32.31274684 73.80859375 32.5234375 C77.36653297 33.0547332 79.82105934 34.3646165 83 36 C84.32 36 85.64 36 87 36 C87.99 36 88.98 36 90 36 C90 36.99 90 37.98 90 39 C89.67 39.33 89.34 39.66 89 40 C89.99 40 90.98 40 92 40 C92.64995297 41.41478135 93.29478722 42.83191487 93.9375 44.25 C94.29714844 45.03890625 94.65679688 45.8278125 95.02734375 46.640625 C95.90033279 48.75823698 96.51338508 50.76669362 97 53 C98.65 52.67 100.3 52.34 102 52 C101.95359375 52.68707031 101.9071875 53.37414062 101.859375 54.08203125 C101.82328125 54.98308594 101.7871875 55.88414062 101.75 56.8125 C101.70359375 57.70582031 101.6571875 58.59914062 101.609375 59.51953125 C101.76018967 62.16674709 101.76018967 62.16674709 104.015625 63.82421875 C104.67046875 64.21222656 105.3253125 64.60023438 106 65 C106 63.68 106 62.36 106 61 C105.34 61 104.68 61 104 61 C104 59.35 104 57.7 104 56 C104.99 55.67 105.98 55.34 107 55 C107.99 57.97 107.99 57.97 109 61 C109.33 44.5 109.66 28 110 11 C109.34 11 108.68 11 108 11 C108 8.36 108 5.72 108 3 C111.70921629 2.79393243 113.75510917 3.27615175 117 5 C118.65740715 5.37668344 120.32345271 5.72057545 122 6 C122.33 5.01 122.66 4.02 123 3 C124.32 3 125.64 3 127 3 C127 3.66 127 4.32 127 5 C127.99 5 128.98 5 130 5 C130 4.34 130 3.68 130 3 C131.98 3.495 131.98 3.495 134 4 C134.09765625 10.15234375 134.09765625 10.15234375 134 12 C133.67 12.33 133.34 12.66 133 13 C132.86431681 16.66344611 132.83538574 19.50615721 134 23 C133.67966043 25.00212229 133.34740923 27.00239695 133 29 C133.33 29.33 133.66 29.66 134 30 C133.90756364 31.83679993 133.74961622 33.67041918 133.5625 35.5 C133.07700015 40.7035625 132.91294829 45.77689759 133 51 C133.66 51 134.32 51 135 51 C135 49.68 135 48.36 135 47 C135.99 47.33 136.98 47.66 138 48 C138 48.99 138 49.98 138 51 C152.52 51 167.04 51 182 51 C181.67 45.39 181.34 39.78 181 34 C180.34 34 179.68 34 179 34 C179.0721875 33.37351563 179.144375 32.74703125 179.21875 32.1015625 C179.3115625 31.28429687 179.404375 30.46703125 179.5 29.625 C179.5928125 28.81289062 179.685625 28.00078125 179.78125 27.1640625 C180.03352351 25.03087175 180.03352351 25.03087175 180 23 C179.01 22.01 179.01 22.01 178 21 C177.875 18.375 177.875 18.375 178 16 C178.66 16 179.32 16 180 16 C180 11.71 180 7.42 180 3 C182.56278699 2.94579299 185.12441483 2.90622993 187.6875 2.875 C188.40873047 2.85824219 189.12996094 2.84148437 189.87304688 2.82421875 C194.04876781 2.78608431 197.2494138 3.1210081 201 5 C201 5.66 201 6.32 201 7 C202.65 7 204.3 7 206 7 C206 8.32 206 9.64 206 11 C207.98 11.99 207.98 11.99 210 13 C209.67 13.66 209.34 14.32 209 15 C207.35 15 205.7 15 204 15 C204.33 45.69 204.66 76.38 205 108 C206.32 108.33 207.64 108.66 209 109 C208.67 109.66 208.34 110.32 208 111 C207.01 111 206.02 111 205 111 C204.67 113.97 204.34 116.94 204 120 C201.69 120 199.38 120 197 120 C197 120.66 197 121.32 197 122 C195.68 122 194.36 122 193 122 C193 121.34 193 120.68 193 120 C192.01 120 191.02 120 190 120 C190 120.66 190 121.32 190 122 C187.36 122 184.72 122 182 122 C182 121.34 182 120.68 182 120 C181.34 120 180.68 120 180 120 C179.85692631 114.51905988 179.71452817 109.03810279 179.57275391 103.55712891 C179.52443678 101.69286628 179.47593561 99.82860841 179.42724609 97.96435547 C179.35726212 95.28354098 179.28794175 92.60271003 179.21875 89.921875 C179.19687622 89.08944275 179.17500244 88.2570105 179.15246582 87.39935303 C179.13244507 86.61884583 179.11242432 85.83833862 179.09179688 85.03417969 C179.07403198 84.35023132 179.05626709 83.66628296 179.03796387 82.96160889 C178.9619106 79.03190495 179.21854969 75.90725153 180 72 C166.14 72.33 152.28 72.66 138 73 C138 73.99 138 74.98 138 76 C137.34 76 136.68 76 136 76 C135.68680856 77.39567835 135.37448212 78.79155082 135.0625 80.1875 C134.88847656 80.96480469 134.71445312 81.74210937 134.53515625 82.54296875 C134.35855469 83.35378906 134.18195313 84.16460937 134 85 C133.81308594 85.79019531 133.62617187 86.58039063 133.43359375 87.39453125 C132.92074479 90.47624527 132.94163909 93.3776913 133 96.5 C133.07502633 100.51390858 132.93396603 104.08901726 132 108 C132.66 108 133.32 108 134 108 C133.835 108.5775 133.67 109.155 133.5 109.75 C132.85537969 112.26664369 132.85537969 112.26664369 133 116 C132.38001259 118.01495907 131.72045764 120.0187415 131 122 C128.69 122 126.38 122 124 122 C124 121.34 124 120.68 124 120 C123.01 120.66 122.02 121.32 121 122 C117.86328125 122.1953125 117.86328125 122.1953125 114.3125 122.125 C113.13300781 122.10695313 111.95351563 122.08890625 110.73828125 122.0703125 C109.83464844 122.04710937 108.93101562 122.02390625 108 122 C108.16371094 121.47921875 108.32742188 120.9584375 108.49609375 120.421875 C109.14058659 117.3243125 109.09411589 114.41158906 109.0625 111.25 C109.05347656 110.07953125 109.04445313 108.9090625 109.03515625 107.703125 C109.02355469 106.81109375 109.01195312 105.9190625 109 105 C107.515 104.505 107.515 104.505 106 104 C106 103.01 106 102.02 106 101 C106.99 101 107.98 101 109 101 C109 98.69 109 96.38 109 94 C107.68 94 106.36 94 105 94 C105 95.98 105 97.96 105 100 C104.34 100 103.68 100 103 100 C103 100.66 103 101.32 103 102 C101.02 102.33 99.04 102.66 97 103 C97 103.66 97 104.32 97 105 C96.34 105 95.68 105 95 105 C94.505 106.98 94.505 106.98 94 109 C92.68 109 91.36 109 90 109 C90 110.32 90 111.64 90 113 C89.34 113 88.68 113 88 113 C88 115.31 88 117.62 88 120 C85.69 120 83.38 120 81 120 C81 120.66 81 121.32 81 122 C80.01 122 79.02 122 78 122 C78 121.34 78 120.68 78 120 C76.35 120 74.7 120 73 120 C73 120.66 73 121.32 73 122 C70.69 122 68.38 122 66 122 C66 122.66 66 123.32 66 124 C63.66705225 124.04241723 61.33297433 124.04092937 59 124 C58.67 123.67 58.34 123.34 58 123 C55.81707226 122.76518307 53.62796826 122.58636677 51.4375 122.4375 C49.64119141 122.31181641 49.64119141 122.31181641 47.80859375 122.18359375 C46.88175781 122.12300781 45.95492187 122.06242187 45 122 C45 121.34 45 120.68 45 120 C44.195625 120.020625 43.39125 120.04125 42.5625 120.0625 C40 120 40 120 39 119 C36.32941149 118.85884839 33.67567762 118.95752893 31 119 C31 117.02 31 115.04 31 113 C28.9254644 112.8509288 28.9254644 112.8509288 27 114 C26.01 113.505 26.01 113.505 25 113 C25 110.36 25 107.72 25 105 C24.34 105 23.68 105 23 105 C23 103.68 23 102.36 23 101 C22.34 101 21.68 101 21 101 C21 99.35 21 97.7 21 96 C20.38125 96.185625 19.7625 96.37125 19.125 96.5625 C17 97 17 97 15 96 C14.34 97.32 13.68 98.64 13 100 C12.34 100 11.68 100 11 100 C11.01160156 101.02480469 11.02320313 102.04960937 11.03515625 103.10546875 C11.04454022 104.466144 11.05363977 105.82682124 11.0625 107.1875 C11.07087891 107.86103516 11.07925781 108.53457031 11.08789062 109.22851562 C11.10606538 112.95434131 10.89299392 116.3788042 10 120 C4.48727081 121.71084699 1.46809845 122.4606443 -4 120 C-4 120.66 -4 121.32 -4 122 C-6.66666667 121.33333333 -9.33333333 120.66666667 -12 120 C-12.33 118.68 -12.66 117.36 -13 116 C-13.99 116 -14.98 116 -16 116 C-16 114.68 -16 113.36 -16 112 C-15.01 112 -14.02 112 -13 112 C-13 111.10686096 -13 110.21372192 -13 109.29351807 C-13 35.55555556 -13 35.55555556 -12.21875 28.4375 C-11.94041042 25.74388453 -11.94041042 25.74388453 -12 22 C-12.66 22 -13.32 22 -14 22 C-14 19.03 -14 16.06 -14 13 C-14.66 13 -15.32 13 -16 13 C-16 11.68 -16 10.36 -16 9 C-14.68 9 -13.36 9 -12 9 C-12 8.34 -12 7.68 -12 7 C-13.32 6.67 -14.64 6.34 -16 6 C-16 5.01 -16 4.02 -16 3 C-11.05 3 -6.1 3 -1 3 C-0.67 2.01 -0.34 1.02 0 0 Z M-11 5 C-11.33 5.66 -11.66 6.32 -12 7 C-11.34 7 -10.68 7 -10 7 C-10.33 6.34 -10.66 5.68 -11 5 Z M-8 28 C-8.33 28.99 -8.66 29.98 -9 31 C-9.66 31.66 -10.32 32.32 -11 33 C-10.01 33 -9.02 33 -8 33 C-7.67 33.66 -7.34 34.32 -7 35 C-7 33.68 -7 32.36 -7 31 C-6.34 31 -5.68 31 -5 31 C-5 30.34 -5 29.68 -5 29 C-5.99 28.67 -6.98 28.34 -8 28 Z M-2 29 C-1.34 29.66 -0.68 30.32 0 31 C0.33 30.34 0.66 29.68 1 29 C0.01 29 -0.98 29 -2 29 Z M-4 33 C-4.33 33.66 -4.66 34.32 -5 35 C-4.34 35 -3.68 35 -3 35 C-3.33 34.34 -3.66 33.68 -4 33 Z M1 33 C1 33.66 1 34.32 1 35 C1.66 34.67 2.32 34.34 3 34 C2.34 33.67 1.68 33.34 1 33 Z M63 50 C62.67 51.65 62.34 53.3 62 55 C60.1128125 54.7525 60.1128125 54.7525 58.1875 54.5 C55.73543415 54.17841759 53.48349306 54 51 54 C51 55.65 51 57.3 51 59 C49.35 58.67 47.7 58.34 46 58 C46 58.99 46 59.98 46 61 C46.99 61.33 47.98 61.66 49 62 C48.67 62.99 48.34 63.98 48 65 C47.01 65.33 46.02 65.66 45 66 C45 65.01 45 64.02 45 63 C44.01 63.33 43.02 63.66 42 64 C42.66 64 43.32 64 44 64 C44 65.32 44 66.64 44 68 C42.68 68.33 41.36 68.66 40 69 C40 74.61 40 80.22 40 86 C41.98 86 43.96 86 46 86 C46 86.99 46 87.98 46 89 C45.01 89.495 45.01 89.495 44 90 C44 90.66 44 91.32 44 92 C45.32 92.33 46.64 92.66 48 93 C48 93.66 48 94.32 48 95 C47.34 95.66 46.68 96.32 46 97 C46.33 97.66 46.66 98.32 47 99 C48.98 99 50.96 99 53 99 C53 99.66 53 100.32 53 101 C53.66 101 54.32 101 55 101 C55.66 102.32 56.32 103.64 57 105 C57.33 104.34 57.66 103.68 58 103 C64.42857143 101.71428571 64.42857143 101.71428571 67 103 C67 102.34 67 101.68 67 101 C67.66 101 68.32 101 69 101 C69 100.34 69 99.68 69 99 C69.66 99 70.32 99 71 99 C71 98.34 71 97.68 71 97 C72.98 96.505 72.98 96.505 75 96 C75 94.68 75 93.36 75 92 C75.66 91.67 76.32 91.34 77 91 C75.68 91 74.36 91 73 91 C73.33 90.01 73.66 89.02 74 88 C75.65 88 77.3 88 79 88 C79 82.39 79 76.78 79 71 C78.01 70.67 77.02 70.34 76 70 C76 69.34 76 68.68 76 68 C73.525 67.01 73.525 67.01 71 66 C71 64.68 71 63.36 71 62 C71.66 61.67 72.32 61.34 73 61 C72.34 61 71.68 61 71 61 C70.67 60.01 70.34 59.02 70 58 C69.34 58 68.68 58 68 58 C68 57.01 68 56.02 68 55 C66.68 55 65.36 55 64 55 C64 53.68 64 52.36 64 51 C64.66 50.67 65.32 50.34 66 50 C65.01 50 64.02 50 63 50 Z M68 53 C69 55 69 55 69 55 Z M69 55 C73 56 73 56 73 56 Z M11 63 C9.70366379 64.06645115 9.70366379 64.06645115 9.9375 66.5625 C9.958125 67.366875 9.97875 68.17125 10 69 C10.66 68.67 11.32 68.34 12 68 C12 66.35 12 64.7 12 63 C11.67 63 11.34 63 11 63 Z M107 66 C107 67.32 107 68.64 107 70 C106.34 70 105.68 70 105 70 C102.86413322 73.20380017 102.76867825 74.01939967 102.875 77.6875 C102.89304687 78.49574219 102.91109375 79.30398437 102.9296875 80.13671875 C102.95289063 80.75160156 102.97609375 81.36648437 103 82 C103.66 82 104.32 82 105 82 C105 83.65 105 85.3 105 87 C104.34 87 103.68 87 103 87 C102.67 87.99 102.34 88.98 102 90 C102.66 90 103.32 90 104 90 C104 89.34 104 88.68 104 88 C105.98 88.99 107.96 89.98 110 91 C110 82.42 110 73.84 110 65 C108.7763932 64.9254644 108.7763932 64.9254644 107 66 Z M13 68 C13 70.31 13 72.62 13 75 C12.01 75.33 11.02 75.66 10 76 C10 80.29 10 84.58 10 89 C11.98 88.67 13.96 88.34 16 88 C15.34 87.67 14.68 87.34 14 87 C14.350625 85.9275 14.70125 84.855 15.0625 83.75 C15.97573925 80.09704302 15.89303678 79.34888792 15 76 C15.61674772 74.31422289 16.28272222 72.64551962 17 71 C17 70.01 17 69.02 17 68 C15.68 68 14.36 68 13 68 Z M101 90 C101 92.64 101 95.28 101 98 C100.01 98.495 100.01 98.495 99 99 C99.99 99 100.98 99 102 99 C102.80967438 96.08517222 103.21845993 94.53886783 102.0625 91.6875 C101.711875 91.130625 101.36125 90.57375 101 90 Z M10 91 C10 91.99 10 92.98 10 94 C11.32 94.33 12.64 94.66 14 95 C13.34 93.68 12.68 92.36 12 91 C11.34 91 10.68 91 10 91 Z M62 103 C62 103.66 62 104.32 62 105 C62.66 104.67 63.32 104.34 64 104 C63.34 103.67 62.68 103.34 62 103 Z " fill="#010101" transform="translate(432,88)"/>
<path d="M0 0 C2.31 0.66 4.62 1.32 7 2 C7 2.66 7 3.32 7 4 C8.299375 3.938125 8.299375 3.938125 9.625 3.875 C13.14991551 4.00555243 15.71715027 4.75981233 19 6 C19.99 6.33 20.98 6.66 22 7 C22 8.98 22 10.96 22 13 C22.66 13 23.32 13 24 13 C24 13.66 24 14.32 24 15 C25.1446875 14.9690625 25.1446875 14.9690625 26.3125 14.9375 C29 15 29 15 32 16 C31.67 18.64 31.34 21.28 31 24 C31.66 24 32.32 24 33 24 C34.49821059 27.37097383 35 29.20442119 35 33 C36.32 33 37.64 33 39 33 C38.835 33.81339844 38.67 34.62679687 38.5 35.46484375 C37.92281599 39.54571508 37.92818538 43.45111302 38 47.5625 C38.08002669 52.16803627 38.04296098 56.48858738 37 61 C36.96227087 62.9996441 36.95350094 65.00054061 37 67 C35.515 67.495 35.515 67.495 34 68 C33.67 68.66 33.34 69.32 33 70 C33.66 70 34.32 70 35 70 C35 70.99 35 71.98 35 73 C34.01 73 33.02 73 32 73 C31.97421875 73.62648438 31.9484375 74.25296875 31.921875 74.8984375 C31.83679688 76.12433594 31.83679688 76.12433594 31.75 77.375 C31.70359375 78.18710938 31.6571875 78.99921875 31.609375 79.8359375 C31 82 31 82 29.015625 83.1640625 C28.35046875 83.43992187 27.6853125 83.71578125 27 84 C26.67 84.66 26.34 85.32 26 86 C25.01 86 24.02 86 23 86 C22.505 87.485 22.505 87.485 22 89 C20.824375 89.103125 19.64875 89.20625 18.4375 89.3125 C14.93122018 89.73325358 12.3900425 90.7707973 9.203125 92.3046875 C4.91646745 93.65756878 0.37781903 93.59171747 -4.0859375 93.7890625 C-6.89076305 93.67269292 -6.89076305 93.67269292 -8 95 C-9.99958364 95.04080783 -12.00045254 95.04254356 -14 95 C-14 94.34 -14 93.68 -14 93 C-16.31 93 -18.62 93 -21 93 C-21 92.34 -21 91.68 -21 91 C-21.7425 91.04125 -22.485 91.0825 -23.25 91.125 C-26.08758952 90.99601866 -27.58773938 90.42948778 -30 89 C-30 88.34 -30 87.68 -30 87 C-30.66 87 -31.32 87 -32 87 C-32 86.34 -32 85.68 -32 85 C-32.5775 85.350625 -33.155 85.70125 -33.75 86.0625 C-36.35801776 87.14917407 -37.39417629 86.93065133 -40 86 C-40 85.01 -40 84.02 -40 83 C-41.43750191 81.31201173 -41.43750191 81.31201173 -43 80 C-42.01 79.01 -42.01 79.01 -41 78 C-41.33 77.34 -41.66 76.68 -42 76 C-42.99 76.99 -42.99 76.99 -44 78 C-44.99 78 -45.98 78 -47 78 C-47 76.68 -47 75.36 -47 74 C-46.34 74 -45.68 74 -45 74 C-45.11562606 72.60335892 -45.242992 71.20768801 -45.375 69.8125 C-45.44460938 69.03519531 -45.51421875 68.25789063 -45.5859375 67.45703125 C-45.9003639 64.97011314 -45.9003639 64.97011314 -47.01147461 62.72363281 C-48.13420097 59.63024303 -48.24347468 57.24922479 -48.23046875 53.96484375 C-48.22853516 52.82595703 -48.22660156 51.68707031 -48.22460938 50.51367188 C-48.21236328 49.33353516 -48.20011719 48.15339844 -48.1875 46.9375 C-48.18685547 45.75349609 -48.18621094 44.56949219 -48.18554688 43.34960938 C-48.13679069 33.78797934 -48.13679069 33.78797934 -47 30 C-46.34 30 -45.68 30 -45 30 C-45 28.02 -45 26.04 -45 24 C-45.66 23.67 -46.32 23.34 -47 23 C-47 22.01 -47 21.02 -47 20 C-45.68 19.34 -44.36 18.68 -43 18 C-42.67 18.33 -42.34 18.66 -42 19 C-41.67 18.34 -41.34 17.68 -41 17 C-40.34 17 -39.68 17 -39 17 C-39 16.34 -39 15.68 -39 15 C-39.66 15 -40.32 15 -41 15 C-41 13.68 -41 12.36 -41 11 C-39.68 11 -38.36 11 -37 11 C-36.67 11.33 -36.34 11.66 -36 12 C-36 11.01 -36 10.02 -36 9 C-35.01 9 -34.02 9 -33 9 C-33 9.66 -33 10.32 -33 11 C-32.01 11 -31.02 11 -30 11 C-30.33 10.01 -30.66 9.02 -31 8 C-27.5980513 5.90649311 -24.94727588 5.82057837 -21 6 C-21 5.34 -21 4.68 -21 4 C-16.79165724 1.98554136 -12.84236302 1.61889392 -8.25 1.4375 C-3.76257161 1.63032239 -3.76257161 1.63032239 0 0 Z M-43 20 C-42 22 -42 22 -42 22 Z M-11 21 C-12.01111093 24.04913228 -12.01111093 24.04913228 -11 27 C-12.175625 27.37125 -12.175625 27.37125 -13.375 27.75 C-16.40937999 29.19494285 -16.67029725 30.05565819 -18 33 C-18.99 33.33 -19.98 33.66 -21 34 C-21.33 33.34 -21.66 32.68 -22 32 C-22 32.66 -22 33.32 -22 34 C-22.99 34.495 -22.99 34.495 -24 35 C-22.35 35 -20.7 35 -19 35 C-19.33 35.99 -19.66 36.98 -20 38 C-21.9375 38.8125 -21.9375 38.8125 -24 39 C-24.66 38.34 -25.32 37.68 -26 37 C-26 39.31 -26 41.62 -26 44 C-25.34 44 -24.68 44 -24 44 C-24 44.99 -24 45.98 -24 47 C-24.66 47 -25.32 47 -26 47 C-26 49.64 -26 52.28 -26 55 C-25.34 55 -24.68 55 -24 55 C-24.04125 55.78375 -24.0825 56.5675 -24.125 57.375 C-24.28728734 60.16116119 -24.28728734 60.16116119 -22 62 C-21.375 64.625 -21.375 64.625 -21 67 C-20.34 67 -19.68 67 -19 67 C-19 67.99 -19 68.98 -19 70 C-17.68 70 -16.36 70 -15 70 C-15 70.66 -15 71.32 -15 72 C-14.34 72 -13.68 72 -13 72 C-13 72.66 -13 73.32 -13 74 C-11.68 74 -10.36 74 -9 74 C-9 74.66 -9 75.32 -9 76 C-5.7 75.34 -2.4 74.68 1 74 C1 73.34 1 72.68 1 72 C2.32 72 3.64 72 5 72 C5 71.34 5 70.68 5 70 C5.66 70 6.32 70 7 70 C6.8453125 68.700625 6.8453125 68.700625 6.6875 67.375 C7.11458943 62.76243413 8.85042342 61.30705541 12 58 C11.34 57.34 10.68 56.68 10 56 C10.639375 55.814375 11.27875 55.62875 11.9375 55.4375 C14.42126213 54.05753944 14.42126213 54.05753944 14.75 50.375 C14.8325 49.26125 14.915 48.1475 15 47 C14.01 47 13.02 47 12 47 C12 46.01 12 45.02 12 44 C12.66 44 13.32 44 14 44 C14 42.02 14 40.04 14 38 C13.360625 37.731875 12.72125 37.46375 12.0625 37.1875 C10 36 10 36 9 33 C9.66 32.67 10.32 32.34 11 32 C9.02 32 7.04 32 5 32 C5 30.68 5 29.36 5 28 C5.66 28 6.32 28 7 28 C7 27.34 7 26.68 7 26 C5.68 26 4.36 26 3 26 C3 25.34 3 24.68 3 24 C2.01 23.67 1.02 23.34 0 23 C0 23.66 0 24.32 0 25 C-0.99 24.34 -1.98 23.68 -3 23 C-3 22.34 -3 21.68 -3 21 C-5.64 21 -8.28 21 -11 21 Z M-15 24 C-14.67 24.99 -14.34 25.98 -14 27 C-13.67 26.01 -13.34 25.02 -13 24 C-13.66 24 -14.32 24 -15 24 Z M-19 28 C-18.67 28.66 -18.34 29.32 -18 30 C-17.34 29.34 -16.68 28.68 -16 28 C-16.99 28 -17.98 28 -19 28 Z M8 65 C9 67 9 67 9 67 Z " fill="#020202" transform="translate(692,117)"/>
<path d="M0 0 C3.3 0 6.6 0 10 0 C10 0.66 10 1.32 10 2 C12.97 1.505 12.97 1.505 16 1 C15.67 1.99 15.34 2.98 15 4 C15.66 4 16.32 4 17 4 C17.0718223 6.51378035 17.05360184 8.76032033 16.50318909 11.22148132 C15.88868499 14.61466123 15.88051722 17.81947306 15.88647461 21.26879883 C15.88632858 21.98153961 15.88618256 22.6942804 15.8860321 23.42861938 C15.88672568 25.7714549 15.894492 28.11420972 15.90234375 30.45703125 C15.9042099 32.08656267 15.90563287 33.71609465 15.90663147 35.34562683 C15.91044112 39.62488364 15.92025812 43.90410626 15.93133545 48.18334961 C15.94158298 52.55386899 15.94613624 56.92439393 15.95117188 61.29492188 C15.96188182 69.8632969 15.97893955 78.43164419 16 87 C16.66 87.33 17.32 87.66 18 88 C18 88.66 18 89.32 18 90 C17.01 90.495 17.01 90.495 16 91 C15.57038779 93.05931532 15.57038779 93.05931532 15.4375 95.4375 C15.09333333 99.81333333 15.09333333 99.81333333 14 102 C13.34 102 12.68 102 12 102 C12 102.66 12 103.32 12 104 C11.34 104 10.68 104 10 104 C10 105.98 10 107.96 10 110 C9.34 110 8.68 110 8 110 C8 110.99 8 111.98 8 113 C7.34 113 6.68 113 6 113 C6 114.32 6 115.64 6 117 C4.68 117 3.36 117 2 117 C2 116.34 2 115.68 2 115 C1.01 115 0.02 115 -1 115 C-1 115.66 -1 116.32 -1 117 C-2.98 117 -4.96 117 -7 117 C-7 117.66 -7 118.32 -7 119 C-10.96 119 -14.92 119 -19 119 C-19 119.66 -19 120.32 -19 121 C-19.67933594 120.83886719 -20.35867188 120.67773438 -21.05859375 120.51171875 C-24.43465117 119.9243834 -27.63618539 119.83082254 -31.0625 119.8125 C-32.27035156 119.79832031 -33.47820312 119.78414063 -34.72265625 119.76953125 C-37.84315087 119.98897008 -39.33044295 120.53883367 -42 122 C-42.66 121.67 -43.32 121.34 -44 121 C-43.49396008 118.83125748 -43.00016187 117.00032373 -42 115 C-43.32 115 -44.64 115 -46 115 C-46 114.34 -46 113.68 -46 113 C-46.99 113 -47.98 113 -49 113 C-49 113.66 -49 114.32 -49 115 C-51.96175123 114.38722388 -53.38058783 113.74627478 -56 112 C-55.67 111.01 -55.34 110.02 -55 109 C-55.66 108.67 -56.32 108.34 -57 108 C-57 107.34 -57 106.68 -57 106 C-57.66 106 -58.32 106 -59 106 C-60.25664978 103.09399739 -61 101.20395416 -61 98 C-60.01 98 -59.02 98 -58 98 C-58 97.01 -58 96.02 -58 95 C-58.99 95 -59.98 95 -61 95 C-61 92.36 -61 89.72 -61 87 C-60.34 87 -59.68 87 -59 87 C-59.04125 86.21625 -59.0825 85.4325 -59.125 84.625 C-59 82 -59 82 -57 80 C-54.3984375 79.5859375 -54.3984375 79.5859375 -51.375 79.375 C-49.87066406 79.26285156 -49.87066406 79.26285156 -48.3359375 79.1484375 C-47.17964844 79.07496094 -47.17964844 79.07496094 -46 79 C-45.67 78.01 -45.34 77.02 -45 76 C-43.515 76.495 -43.515 76.495 -42 77 C-42.66 78.65 -43.32 80.3 -44 82 C-43.113125 81.95875 -42.22625 81.9175 -41.3125 81.875 C-38.02722987 81.99897246 -35.94550705 82.61387904 -33 84 C-33.33 84.99 -33.66 85.98 -34 87 C-33.67619874 88.33568021 -33.34342449 89.66923011 -33 91 C-33.33 91.66 -33.66 92.32 -34 93 C-32.515 93.495 -32.515 93.495 -31 94 C-31 94.66 -31 95.32 -31 96 C-29.68 96 -28.36 96 -27 96 C-26.67 96.99 -26.34 97.98 -26 99 C-23.3294087 99 -21.53531955 98.69145079 -19 98 C-17.66666667 97.66666667 -16.33333333 97.33333333 -15 97 C-14.67 97.99 -14.34 98.98 -14 100 C-13.505 98.02 -13.505 98.02 -13 96 C-12.34 96 -11.68 96 -11 96 C-10.814375 94.824375 -10.814375 94.824375 -10.625 93.625 C-10 91 -10 91 -8 89 C-7.78264832 86.41214534 -7.68861179 83.92801958 -7.68115234 81.33740234 C-7.66608391 80.15190544 -7.66608391 80.15190544 -7.65071106 78.94245911 C-7.61975866 76.32362615 -7.60281067 73.70489595 -7.5859375 71.0859375 C-7.56723553 69.27274687 -7.54766285 67.45956502 -7.5272522 65.64639282 C-7.47582235 60.86903047 -7.43625487 56.09163987 -7.39910889 51.31414795 C-7.35913709 46.44113108 -7.30801371 41.56823283 -7.2578125 36.6953125 C-7.16092481 27.13029153 -7.07656129 17.56520375 -7 8 C-7.66 8 -8.32 8 -9 8 C-9 6.68 -9 5.36 -9 4 C-8.34 4 -7.68 4 -7 4 C-7 3.34 -7 2.68 -7 2 C-5.02 2 -3.04 2 -1 2 C-0.67 1.34 -0.34 0.68 0 0 Z M-58 91 C-57 93 -57 93 -57 93 Z " fill="#010101" transform="translate(392,91)"/>
<path d="M0 0 C2.4375 0.375 2.4375 0.375 5 1 C5.33 1.66 5.66 2.32 6 3 C8.31 2.01 10.62 1.02 13 0 C13.66 1.32 14.32 2.64 15 4 C15 3.34 15 2.68 15 2 C17.93718767 1.80538512 20.87449932 1.61902407 23.8125 1.4375 C24.64587891 1.38142578 25.47925781 1.32535156 26.33789062 1.26757812 C27.14033203 1.21923828 27.94277344 1.17089844 28.76953125 1.12109375 C29.50792236 1.0739624 30.24631348 1.02683105 31.00708008 0.97827148 C33 1 33 1 36 2 C36 3.32 36 4.64 36 6 C36.66 6.33 37.32 6.66 38 7 C37.49396008 9.16874252 37.00016187 10.99967627 36 13 C36.66 13 37.32 13 38 13 C38 14.32 38 15.64 38 17 C37.34 17 36.68 17 36 17 C36 17.66 36 18.32 36 19 C36.66 19.33 37.32 19.66 38 20 C38 21.32 38 22.64 38 24 C34.32589215 25.17571451 30.83070817 25.07366746 27 25 C27 24.34 27 23.68 27 23 C26.34 22.67 25.68 22.34 25 22 C25 22.66 25 23.32 25 24 C23.35 23.67 21.7 23.34 20 23 C20 23.66 20 24.32 20 25 C18.68 25 17.36 25 16 25 C16.495 27.97 16.495 27.97 17 31 C15.7934375 31.3403125 15.7934375 31.3403125 14.5625 31.6875 C13.716875 32.120625 12.87125 32.55375 12 33 C11.10613836 35.54775306 11.10613836 35.54775306 11 38 C10.01 38 9.02 38 8 38 C6.49843126 41.00313748 6.90718796 43.79067522 6.9375 47.125 C6.94652344 48.40632813 6.95554687 49.68765625 6.96484375 51.0078125 C6.97644531 51.99523437 6.98804688 52.98265625 7 54 C8.65 54.33 10.3 54.66 12 55 C12 55.99 12 56.98 12 58 C10.68 58 9.36 58 8 58 C8.0721875 58.96421875 8.144375 59.9284375 8.21875 60.921875 C8.3115625 62.18515625 8.404375 63.4484375 8.5 64.75 C8.5928125 66.00296875 8.685625 67.2559375 8.78125 68.546875 C8.93838402 71.02734771 9 73.51455517 9 76 C9.66 76.33 10.32 76.66 11 77 C10.67 77.99 10.34 78.98 10 80 C9.34 80 8.68 80 8 80 C8 83.63 8 87.26 8 91 C0.08 91 -7.84 91 -16 91 C-19.375 84.25 -19.375 84.25 -20 81 C-18.68 81 -17.36 81 -16 81 C-16.33 58.89 -16.66 36.78 -17 14 C-17.99 13.67 -18.98 13.34 -20 13 C-20 11.68 -20 10.36 -20 9 C-19.34 8.67 -18.68 8.34 -18 8 C-18 7.01 -18 6.02 -18 5 C-16.35 4.67 -14.7 4.34 -13 4 C-13 3.34 -13 2.68 -13 2 C-12.2575 2.185625 -11.515 2.37125 -10.75 2.5625 C-7.97817108 3.00347278 -6.63418715 2.76476401 -4 2 C-2.68 2 -1.36 2 0 2 C0 1.34 0 0.68 0 0 Z " fill="#020202" transform="translate(1016,119)"/>
<path d="M0 0 C0.99 0 1.98 0 3 0 C3 0.66 3 1.32 3 2 C3.99 2.33 4.98 2.66 6 3 C5.67 3.66 5.34 4.32 5 5 C4.01 5 3.02 5 2 5 C1.34 3.35 0.68 1.7 0 0 Z " fill="#000000" transform="translate(669,172)"/>
<path d="M0 0 C0.99 0.33 1.98 0.66 3 1 C2.67 2.32 2.34 3.64 2 5 C1.01 4.67 0.02 4.34 -1 4 C-0.67 2.68 -0.34 1.36 0 0 Z " fill="#000000" transform="translate(240,98)"/>
<path d="M0 0 C1.32 0.33 2.64 0.66 4 1 C3.67 1.99 3.34 2.98 3 4 C2.01 3.67 1.02 3.34 0 3 C0 2.01 0 1.02 0 0 Z " fill="#000000" transform="translate(237,213)"/>
<path d="M0 0 C1.32 0 2.64 0 4 0 C4 0.99 4 1.98 4 3 C2.35 2.67 0.7 2.34 -1 2 C-0.67 1.34 -0.34 0.68 0 0 Z " fill="#000000" transform="translate(939,211)"/>
<path d="M0 0 C1.32 0.33 2.64 0.66 4 1 C3.67 1.99 3.34 2.98 3 4 C2.01 3.67 1.02 3.34 0 3 C0 2.01 0 1.02 0 0 Z " fill="#000000" transform="translate(237,80)"/>
<path d="M0 0 C1.98 0.495 1.98 0.495 4 1 C3.67 1.66 3.34 2.32 3 3 C1.68 3 0.36 3 -1 3 C-0.67 2.01 -0.34 1.02 0 0 Z " fill="#000000" transform="translate(479,211)"/>
<path d="M0 0 C1.32 0 2.64 0 4 0 C4 0.99 4 1.98 4 3 C2.68 3 1.36 3 0 3 C0 2.01 0 1.02 0 0 Z " fill="#000000" transform="translate(804,174)"/>
<path d="M0 0 C0.99 0 1.98 0 3 0 C3 1.32 3 2.64 3 4 C2.01 4 1.02 4 0 4 C0 2.68 0 1.36 0 0 Z " fill="#000000" transform="translate(728,143)"/>
<path d="M0 0 C0.66 0 1.32 0 2 0 C2 1.32 2 2.64 2 4 C1.01 4 0.02 4 -1 4 C-0.67 2.68 -0.34 1.36 0 0 Z " fill="#000000" transform="translate(539,164)"/>
<path d="M0 0 C1.32 0.33 2.64 0.66 4 1 C3.01 1.99 2.02 2.98 1 4 C0.67 2.68 0.34 1.36 0 0 Z " fill="#000000" transform="translate(754,91)"/>
<path d="M0 0 C1.32 0.33 2.64 0.66 4 1 C3.67 1.66 3.34 2.32 3 3 C2.01 3 1.02 3 0 3 C0 2.01 0 1.02 0 0 Z " fill="#000000" transform="translate(634,91)"/>
<path d="M0 0 C0.99 0 1.98 0 3 0 C3 0.99 3 1.98 3 3 C2.01 3 1.02 3 0 3 C0 2.01 0 1.02 0 0 Z " fill="#000000" transform="translate(318,220)"/>
<path d="M0 0 C0.99 0 1.98 0 3 0 C3 0.99 3 1.98 3 3 C2.01 3 1.02 3 0 3 C0 2.01 0 1.02 0 0 Z " fill="#000000" transform="translate(957,209)"/>
<path d="M0 0 C0.99 0 1.98 0 3 0 C3 0.99 3 1.98 3 3 C2.01 3 1.02 3 0 3 C0 2.01 0 1.02 0 0 Z " fill="#000000" transform="translate(992,198)"/>
<path d="M0 0 C0.99 0 1.98 0 3 0 C3 0.99 3 1.98 3 3 C2.01 3 1.02 3 0 3 C0 2.01 0 1.02 0 0 Z " fill="#000000" transform="translate(765,113)"/>
<path d="M0 0 C0.99 0.33 1.98 0.66 3 1 C2.67 1.66 2.34 2.32 2 3 C1.01 2.67 0.02 2.34 -1 2 C-0.67 1.34 -0.34 0.68 0 0 Z " fill="#000000" transform="translate(323,222)"/>
<path d="M0 0 C0.66 0.33 1.32 0.66 2 1 C1.67 1.99 1.34 2.98 1 4 C0.34 3.67 -0.32 3.34 -1 3 C-0.67 2.01 -0.34 1.02 0 0 Z " fill="#000000" transform="translate(188,215)"/>
<path d="M0 0 C0.99 0 1.98 0 3 0 C2.67 0.99 2.34 1.98 2 3 C1.34 3 0.68 3 0 3 C0 2.01 0 1.02 0 0 Z " fill="#000000" transform="translate(737,196)"/>
<path d="M0 0 C0.66 0.33 1.32 0.66 2 1 C1.67 1.99 1.34 2.98 1 4 C0.34 3.67 -0.32 3.34 -1 3 C-0.67 2.01 -0.34 1.02 0 0 Z " fill="#000000" transform="translate(823,178)"/>
<path d="M0 0 C0.66 0.33 1.32 0.66 2 1 C1.67 1.99 1.34 2.98 1 4 C0.34 3.67 -0.32 3.34 -1 3 C-0.67 2.01 -0.34 1.02 0 0 Z " fill="#000000" transform="translate(766,178)"/>
<path d="M0 0 C0.66 0 1.32 0 2 0 C2 0.99 2 1.98 2 3 C1.01 3 0.02 3 -1 3 C-0.67 2.01 -0.34 1.02 0 0 Z " fill="#000000" transform="translate(790,174)"/>
<path d="M0 0 C0.99 0 1.98 0 3 0 C3 0.99 3 1.98 3 3 C2.01 2.67 1.02 2.34 0 2 C0 1.34 0 0.68 0 0 Z " fill="#000000" transform="translate(959,172)"/>
<path d="M0 0 C0.66 0.33 1.32 0.66 2 1 C1.67 1.99 1.34 2.98 1 4 C0.34 3.67 -0.32 3.34 -1 3 C-0.67 2.01 -0.34 1.02 0 0 Z " fill="#000000" transform="translate(334,167)"/>
<path d="M0 0 C0.66 0.33 1.32 0.66 2 1 C1.67 1.99 1.34 2.98 1 4 C0.34 3.67 -0.32 3.34 -1 3 C-0.67 2.01 -0.34 1.02 0 0 Z " fill="#000000" transform="translate(991,154)"/>
<path d="M0 0 C0.66 0.33 1.32 0.66 2 1 C1.67 1.99 1.34 2.98 1 4 C0.34 3.67 -0.32 3.34 -1 3 C-0.67 2.01 -0.34 1.02 0 0 Z " fill="#000000" transform="translate(485,143)"/>
<path d="M0 0 C0.99 0 1.98 0 3 0 C3 0.99 3 1.98 3 3 C2.01 2.67 1.02 2.34 0 2 C0 1.34 0 0.68 0 0 Z " fill="#000000" transform="translate(427,87)"/>
<path d="M0 0 C0.99 0 1.98 0 3 0 C2.67 0.99 2.34 1.98 2 3 C1.34 2.67 0.68 2.34 0 2 C0 1.34 0 0.68 0 0 Z " fill="#000000" transform="translate(244,205)"/>
<path d="M0 0 C0.66 0 1.32 0 2 0 C2 0.99 2 1.98 2 3 C1.01 2.67 0.02 2.34 -1 2 C-0.67 1.34 -0.34 0.68 0 0 Z " fill="#000000" transform="translate(360,181)"/>
<path d="M0 0 C0.66 0.33 1.32 0.66 2 1 C2 1.66 2 2.32 2 3 C1.01 3 0.02 3 -1 3 C-0.67 2.01 -0.34 1.02 0 0 Z " fill="#000000" transform="translate(415,176)"/>
<path d="M0 0 C0.99 0.495 0.99 0.495 2 1 C2 1.99 2 2.98 2 4 C1.34 4 0.68 4 0 4 C0 2.68 0 1.36 0 0 Z " fill="#000000" transform="translate(766,144)"/>
<path d="M0 0 C0.99 0.33 1.98 0.66 3 1 C2.67 1.66 2.34 2.32 2 3 C1.34 3 0.68 3 0 3 C0 2.01 0 1.02 0 0 Z " fill="#000000" transform="translate(388,89)"/>
<path d="M0 0 C0.66 0.66 1.32 1.32 2 2 C1.01 2 0.02 2 -1 2 C-0.67 1.34 -0.34 0.68 0 0 Z " fill="#FFFFFF" transform="translate(463,233)"/>
<path d="M0 0 C0.66 0.66 1.32 1.32 2 2 C1.01 2 0.02 2 -1 2 C-0.67 1.34 -0.34 0.68 0 0 Z " fill="#000000" transform="translate(572,161)"/>
<path d="M0 0 C0.66 0 1.32 0 2 0 C2 0.66 2 1.32 2 2 C1.34 2 0.68 2 0 2 C0 1.34 0 0.68 0 0 Z " fill="#FFFFFF" transform="translate(493,375)"/>
<path d="M0 0 C0.66 0 1.32 0 2 0 C2 0.66 2 1.32 2 2 C1.34 2 0.68 2 0 2 C0 1.34 0 0.68 0 0 Z " fill="#FFFFFF" transform="translate(107,362)"/>
<path d="M0 0 C0.66 0 1.32 0 2 0 C2 0.66 2 1.32 2 2 C1.34 2 0.68 2 0 2 C0 1.34 0 0.68 0 0 Z " fill="#FFFFFF" transform="translate(541,358)"/>
<path d="M0 0 C0.66 0.66 1.32 1.32 2 2 C1.01 2.495 1.01 2.495 0 3 C0 2.01 0 1.02 0 0 Z " fill="#FFFFFF" transform="translate(633,318)"/>
<path d="M0 0 C0.66 0 1.32 0 2 0 C2 0.66 2 1.32 2 2 C1.34 2 0.68 2 0 2 C0 1.34 0 0.68 0 0 Z " fill="#FFFFFF" transform="translate(698,312)"/>
<path d="M0 0 C0.66 0 1.32 0 2 0 C2 0.66 2 1.32 2 2 C1.34 2 0.68 2 0 2 C0 1.34 0 0.68 0 0 Z " fill="#FFFFFF" transform="translate(554,299)"/>
<path d="M0 0 C0.66 0 1.32 0 2 0 C2 0.66 2 1.32 2 2 C1.34 2 0.68 2 0 2 C0 1.34 0 0.68 0 0 Z " fill="#FFFFFF" transform="translate(11,266)"/>
<path d="M0 0 C0.66 0 1.32 0 2 0 C2 0.66 2 1.32 2 2 C1.34 2 0.68 2 0 2 C0 1.34 0 0.68 0 0 Z " fill="#FFFFFF" transform="translate(613,240)"/>
<path d="M0 0 C0.66 0 1.32 0 2 0 C2 0.66 2 1.32 2 2 C1.34 2 0.68 2 0 2 C0 1.34 0 0.68 0 0 Z " fill="#000000" transform="translate(301,218)"/>
<path d="M0 0 C0.66 0 1.32 0 2 0 C2 0.66 2 1.32 2 2 C1.34 2 0.68 2 0 2 C0 1.34 0 0.68 0 0 Z " fill="#000000" transform="translate(783,205)"/>
<path d="M0 0 C0.66 0 1.32 0 2 0 C2 0.66 2 1.32 2 2 C1.34 2 0.68 2 0 2 C0 1.34 0 0.68 0 0 Z " fill="#000000" transform="translate(408,190)"/>
<path d="M0 0 C0.66 0 1.32 0 2 0 C2 0.66 2 1.32 2 2 C1.34 2 0.68 2 0 2 C0 1.34 0 0.68 0 0 Z " fill="#000000" transform="translate(735,142)"/>
<path d="M0 0 C0.66 0 1.32 0 2 0 C2 0.66 2 1.32 2 2 C1.34 2 0.68 2 0 2 C0 1.34 0 0.68 0 0 Z " fill="#FFFFFF" transform="translate(81,107)"/>
<path d="M0 0 C0.66 0 1.32 0 2 0 C2 0.66 2 1.32 2 2 C1.34 2 0.68 2 0 2 C0 1.34 0 0.68 0 0 Z " fill="#FFFFFF" transform="translate(0,72)"/>
<path d="M0 0 C0.66 0 1.32 0 2 0 C2 0.66 2 1.32 2 2 C1.34 2 0.68 2 0 2 C0 1.34 0 0.68 0 0 Z " fill="#FFFFFF" transform="translate(565,48)"/>
<path d="M0 0 C0.66 0 1.32 0 2 0 C2 0.66 2 1.32 2 2 C1.34 2 0.68 2 0 2 C0 1.34 0 0.68 0 0 Z " fill="#FFFFFF" transform="translate(384,37)"/>
<path d="M0 0 C0.66 0 1.32 0 2 0 C2 0.66 2 1.32 2 2 C1.34 2 0.68 2 0 2 C0 1.34 0 0.68 0 0 Z " fill="#FFFFFF" transform="translate(371,24)"/>
<path d="M0 0 C0.66 0 1.32 0 2 0 C2 0.66 2 1.32 2 2 C1.34 2 0.68 2 0 2 C0 1.34 0 0.68 0 0 Z " fill="#FFFFFF" transform="translate(37,24)"/>
<path d="M0 0 C0.66 0 1.32 0 2 0 C2 0.66 2 1.32 2 2 C1.34 2 0.68 2 0 2 C0 1.34 0 0.68 0 0 Z " fill="#FFFFFF" transform="translate(373,0)"/>
<path d="M0 0 C0.99 0.33 1.98 0.66 3 1 C2.01 1 1.02 1 0 1 C0 0.67 0 0.34 0 0 Z " fill="#FFFFFF" transform="translate(222,0)"/>
<path d="M0 0 C0.66 0 1.32 0 2 0 C2 0.66 2 1.32 2 2 C1.34 2 0.68 2 0 2 C0 1.34 0 0.68 0 0 Z " fill="#FFFFFF" transform="translate(111,0)"/>
<path d="M0 0 C0.99 0.495 0.99 0.495 2 1 C1.01 1.495 1.01 1.495 0 2 C0 1.34 0 0.68 0 0 Z " fill="#FEFFFF" transform="translate(44,371)"/>
<path d="M0 0 C0.99 0.495 0.99 0.495 2 1 C1.01 1.495 1.01 1.495 0 2 C0 1.34 0 0.68 0 0 Z " fill="#FFFFFF" transform="translate(670,369)"/>
<path d="M0 0 C0.33 0.66 0.66 1.32 1 2 C0.34 1.67 -0.32 1.34 -1 1 C-0.67 0.67 -0.34 0.34 0 0 Z " fill="#FFFFFF" transform="translate(834,362)"/>
<path d="M0 0 C0.33 0.66 0.66 1.32 1 2 C0.34 1.67 -0.32 1.34 -1 1 C-0.67 0.67 -0.34 0.34 0 0 Z " fill="#FFFFFF" transform="translate(88,362)"/>
<path d="M0 0 C0.66 0 1.32 0 2 0 C1.67 0.66 1.34 1.32 1 2 C0.67 1.34 0.34 0.68 0 0 Z " fill="#FFFFFF" transform="translate(567,358)"/>
<path d="M0 0 C0.33 0.66 0.66 1.32 1 2 C0.34 1.67 -0.32 1.34 -1 1 C-0.67 0.67 -0.34 0.34 0 0 Z " fill="#FFFFFF" transform="translate(1087,340)"/>
<path d="M0 0 C0.66 0.66 1.32 1.32 2 2 C1.34 2 0.68 2 0 2 C0 1.34 0 0.68 0 0 Z " fill="#FFFFFF" transform="translate(7,327)"/>
<path d="M0 0 C0.66 0.66 1.32 1.32 2 2 C1.34 2 0.68 2 0 2 C0 1.34 0 0.68 0 0 Z " fill="#FFFFFF" transform="translate(803,325)"/>
<path d="M0 0 C0.99 0.495 0.99 0.495 2 1 C1.01 1.495 1.01 1.495 0 2 C0 1.34 0 0.68 0 0 Z " fill="#FFFFFF" transform="translate(9,323)"/>
<path d="M0 0 C0.99 0.495 0.99 0.495 2 1 C1.01 1.495 1.01 1.495 0 2 C0 1.34 0 0.68 0 0 Z " fill="#FFFFFF" transform="translate(744,299)"/>
<path d="M0 0 C0.66 0 1.32 0 2 0 C1.67 0.66 1.34 1.32 1 2 C0.67 1.34 0.34 0.68 0 0 Z " fill="#FFFFFF" transform="translate(218,297)"/>
<path d="M0 0 C0.33 0.66 0.66 1.32 1 2 C0.34 1.67 -0.32 1.34 -1 1 C-0.67 0.67 -0.34 0.34 0 0 Z " fill="#FFFFFF" transform="translate(293,292)"/>
<path d="M0 0 C0.66 0 1.32 0 2 0 C1.67 0.66 1.34 1.32 1 2 C0.67 1.34 0.34 0.68 0 0 Z " fill="#FFFFFF" transform="translate(567,273)"/>
<path d="M0 0 C0.99 0.495 0.99 0.495 2 1 C1.01 1.495 1.01 1.495 0 2 C0 1.34 0 0.68 0 0 Z " fill="#FFFFFF" transform="translate(489,273)"/>
<path d="M0 0 C0.99 0.495 0.99 0.495 2 1 C1.01 1.495 1.01 1.495 0 2 C0 1.34 0 0.68 0 0 Z " fill="#FFFFFF" transform="translate(718,247)"/>
<path d="M0 0 C0.33 0.66 0.66 1.32 1 2 C0.34 1.67 -0.32 1.34 -1 1 C-0.67 0.67 -0.34 0.34 0 0 Z " fill="#FFFFFF" transform="translate(448,244)"/>
<path d="M0 0 C0.33 0.66 0.66 1.32 1 2 C0.34 1.67 -0.32 1.34 -1 1 C-0.67 0.67 -0.34 0.34 0 0 Z " fill="#FFFFFF" transform="translate(980,233)"/>
<path d="M0 0 C0.66 0 1.32 0 2 0 C1.67 0.66 1.34 1.32 1 2 C0.67 1.34 0.34 0.68 0 0 Z " fill="#FFFFFF" transform="translate(558,225)"/>
<path d="M0 0 C0.66 0.66 1.32 1.32 2 2 C1.34 2 0.68 2 0 2 C0 1.34 0 0.68 0 0 Z " fill="#000000" transform="translate(188,220)"/>
<path d="M0 0 C0.66 0 1.32 0 2 0 C1.67 0.66 1.34 1.32 1 2 C0.67 1.34 0.34 0.68 0 0 Z " fill="#FFFFFF" transform="translate(977,212)"/>
<path d="M0 0 C0.66 0.66 1.32 1.32 2 2 C1.34 2 0.68 2 0 2 C0 1.34 0 0.68 0 0 Z " fill="#000000" transform="translate(404,196)"/>
<path d="M0 0 C0.66 0.66 1.32 1.32 2 2 C1.34 2 0.68 2 0 2 C0 1.34 0 0.68 0 0 Z " fill="#000000" transform="translate(960,181)"/>
<path d="M0 0 C0.66 0 1.32 0 2 0 C1.67 0.66 1.34 1.32 1 2 C0.67 1.34 0.34 0.68 0 0 Z " fill="#000000" transform="translate(809,175)"/>
<path d="M0 0 C0.66 0.66 1.32 1.32 2 2 C1.34 2 0.68 2 0 2 C0 1.34 0 0.68 0 0 Z " fill="#000000" transform="translate(731,172)"/>
<path d="M0 0 C0.66 0.66 1.32 1.32 2 2 C1.34 2 0.68 2 0 2 C0 1.34 0 0.68 0 0 Z " fill="#FFFFFF" transform="translate(33,170)"/>
<path d="M0 0 C0.99 0.495 0.99 0.495 2 1 C1.01 1.495 1.01 1.495 0 2 C0 1.34 0 0.68 0 0 Z " fill="#FFFFFF" transform="translate(68,166)"/>
<path d="M0 0 C0.66 0 1.32 0 2 0 C1.67 0.66 1.34 1.32 1 2 C0.67 1.34 0.34 0.68 0 0 Z " fill="#000000" transform="translate(857,142)"/>
<path d="M0 0 C0.66 0 1.32 0 2 0 C1.67 0.66 1.34 1.32 1 2 C0.67 1.34 0.34 0.68 0 0 Z " fill="#000000" transform="translate(530,138)"/>
<path d="M0 0 C0.66 0.66 1.32 1.32 2 2 C1.34 2 0.68 2 0 2 C0 1.34 0 0.68 0 0 Z " fill="#000000" transform="translate(164,137)"/>
<path d="M0 0 C0.66 0.66 1.32 1.32 2 2 C1.34 2 0.68 2 0 2 C0 1.34 0 0.68 0 0 Z " fill="#000000" transform="translate(611,135)"/>
<path d="M0 0 C0.99 0.495 0.99 0.495 2 1 C1.01 1.495 1.01 1.495 0 2 C0 1.34 0 0.68 0 0 Z " fill="#000000" transform="translate(1056,129)"/>
<path d="M0 0 C0.66 0.66 1.32 1.32 2 2 C1.34 2 0.68 2 0 2 C0 1.34 0 0.68 0 0 Z " fill="#000000" transform="translate(611,124)"/>
<path d="M0 0 C0.33 0.66 0.66 1.32 1 2 C0.34 1.67 -0.32 1.34 -1 1 C-0.67 0.67 -0.34 0.34 0 0 Z " fill="#FFFFFF" transform="translate(1111,122)"/>
<path d="M0 0 C0.66 0 1.32 0 2 0 C1.67 0.66 1.34 1.32 1 2 C0.67 1.34 0.34 0.68 0 0 Z " fill="#FFFFFF" transform="translate(953,116)"/>
<path d="M0 0 C0.66 0.66 1.32 1.32 2 2 C1.34 2 0.68 2 0 2 C0 1.34 0 0.68 0 0 Z " fill="#FFFFFF" transform="translate(587,109)"/>
<path d="M0 0 C0.99 0.495 0.99 0.495 2 1 C1.01 1.495 1.01 1.495 0 2 C0 1.34 0 0.68 0 0 Z " fill="#FFFFFF" transform="translate(1034,105)"/>
<path d="M0 0 C0.66 0 1.32 0 2 0 C1.67 0.66 1.34 1.32 1 2 C0.67 1.34 0.34 0.68 0 0 Z " fill="#FFFFFF" transform="translate(678,103)"/>
<path d="M0 0 C0.66 0.66 1.32 1.32 2 2 C1.34 2 0.68 2 0 2 C0 1.34 0 0.68 0 0 Z " fill="#FFFFFF" transform="translate(598,100)"/>
<path d="M0 0 C0.99 0.495 0.99 0.495 2 1 C1.01 1.495 1.01 1.495 0 2 C0 1.34 0 0.68 0 0 Z " fill="#FFFFFF" transform="translate(661,92)"/>
<path d="M0 0 C0.66 0.66 1.32 1.32 2 2 C1.34 2 0.68 2 0 2 C0 1.34 0 0.68 0 0 Z " fill="#FFFFFF" transform="translate(768,74)"/>
<path d="M0 0 C0.66 0.66 1.32 1.32 2 2 C1.34 2 0.68 2 0 2 C0 1.34 0 0.68 0 0 Z " fill="#000000" transform="translate(369,39)"/>
<path d="M0 0 C0.33 0.66 0.66 1.32 1 2 C0.34 1.67 -0.32 1.34 -1 1 C-0.67 0.67 -0.34 0.34 0 0 Z " fill="#FFFFFF" transform="translate(642,39)"/>
<path d="M0 0 C0.66 0 1.32 0 2 0 C1.67 0.66 1.34 1.32 1 2 C0.67 1.34 0.34 0.68 0 0 Z " fill="#FFFFFF" transform="translate(2,22)"/>
<path d="M0 0 C0.66 0 1.32 0 2 0 C1.67 0.66 1.34 1.32 1 2 C0.67 1.34 0.34 0.68 0 0 Z " fill="#FFFFFF" transform="translate(447,9)"/>
<path d="M0 0 C0.66 0 1.32 0 2 0 C1.67 0.66 1.34 1.32 1 2 C0.67 1.34 0.34 0.68 0 0 Z " fill="#FFFFFF" transform="translate(929,7)"/>
<path d="" fill="#FFFFFF" transform="translate(0,0)"/>
<path d="M0 0 C2 1 2 1 2 1 Z " fill="#FFFFFF" transform="translate(744,332)"/>
<path d="" fill="#FFFFFF" transform="translate(0,0)"/>
<path d="" fill="#FFFFFF" transform="translate(0,0)"/>
<path d="M0 0 C2 1 2 1 2 1 Z " fill="#FFFFFF" transform="translate(482,319)"/>
<path d="" fill="#FFFFFF" transform="translate(0,0)"/>
<path d="" fill="#FFFFFF" transform="translate(0,0)"/>
<path d="M0 0 C2 1 2 1 2 1 Z " fill="#FFFFFF" transform="translate(35,297)"/>
<path d="M0 0 C2 1 2 1 2 1 Z " fill="#FFFFFF" transform="translate(1047,295)"/>
<path d="M0 0 C2 1 2 1 2 1 Z " fill="#FFFFFF" transform="translate(480,271)"/>
<path d="M0 0 C2 1 2 1 2 1 Z " fill="#FFFFFF" transform="translate(1071,260)"/>
<path d="M0 0 C2 1 2 1 2 1 Z " fill="#FFFFFF" transform="translate(279,247)"/>
<path d="M0 0 C2 1 2 1 2 1 Z " fill="#000000" transform="translate(1010,212)"/>
<path d="" fill="#000000" transform="translate(0,0)"/>
<path d="M0 0 C2 1 2 1 2 1 Z " fill="#FFFFFF" transform="translate(1108,199)"/>
<path d="M0 0 C2 1 2 1 2 1 Z " fill="#000000" transform="translate(905,186)"/>
<path d="M0 0 C2 1 2 1 2 1 Z " fill="#000000" transform="translate(951,173)"/>
<path d="" fill="#000000" transform="translate(0,0)"/>
<path d="M0 0 C2 1 2 1 2 1 Z " fill="#00FF00" transform="translate(997,138)"/>
<path d="" fill="#FFFFFF" transform="translate(0,0)"/>
<path d="" fill="#000000" transform="translate(0,0)"/>
<path d="" fill="#FFFFFF" transform="translate(0,0)"/>
<path d="" fill="#FFFFFF" transform="translate(0,0)"/>
<path d="" fill="#FFFFFF" transform="translate(0,0)"/>
<path d="" fill="#FFFFFF" transform="translate(0,0)"/>
<path d="" fill="#FFFFFF" transform="translate(0,0)"/>
<path d="M0 0 C2 1 2 1 2 1 Z " fill="#FFFFFF" transform="translate(840,42)"/>
<path d="" fill="#FFFFFF" transform="translate(0,0)"/>
</svg>
