<?xml version="1.0" encoding="UTF-8"?>
<svg version="1.1" xmlns="http://www.w3.org/2000/svg" width="640" height="360">
<path d="M0 0 C2.38299408 2.38299408 2.25070069 2.86010191 2.25396729 6.09936523 C2.25960693 6.95746796 2.26524658 7.81557068 2.27105713 8.69967651 C2.26700867 9.6431192 2.26296021 10.58656189 2.25878906 11.55859375 C2.2622937 12.55053741 2.26579834 13.54248108 2.26940918 14.56448364 C2.27823848 17.85555951 2.27237307 21.14642181 2.265625 24.4375 C2.2669713 26.71671592 2.26891154 28.99593155 2.27142334 31.27514648 C2.27437623 36.05683114 2.27007163 40.83844119 2.26074219 45.62011719 C2.24934761 51.76077717 2.25590619 57.90126233 2.26788712 64.04191589 C2.27510124 68.74981004 2.27281984 73.45766249 2.26763153 78.16555786 C2.2662938 80.43026754 2.26794705 82.69498096 2.27259064 84.95968628 C2.2776485 88.12036218 2.26995598 91.28075177 2.25878906 94.44140625 C2.26283752 95.38484894 2.26688599 96.32829163 2.27105713 97.30032349 C2.26259766 98.58747757 2.26259766 98.58747757 2.25396729 99.90063477 C2.25321323 100.64837662 2.25245918 101.39611847 2.25168228 102.16651917 C2 104 2 104 0 106 C-2.8907496 106.4673667 -5.71660569 106.83699342 -8.625 107.125 C-9.42679688 107.21136719 -10.22859375 107.29773438 -11.0546875 107.38671875 C-13.03563635 107.59896327 -15.01772718 107.80049931 -17 108 C-19.86883346 103.71508866 -21.3711485 99.35572122 -22.91796875 94.48828125 C-23.18007645 93.67884567 -23.44218414 92.8694101 -23.7122345 92.03544617 C-24.26220295 90.33276963 -24.80916086 88.62911806 -25.35327148 86.92456055 C-26.18871448 84.30869733 -27.03400151 81.6961718 -27.88085938 79.08398438 C-28.41464089 77.42726958 -28.94786373 75.77037465 -29.48046875 74.11328125 C-29.86008003 72.93829826 -29.86008003 72.93829826 -30.24736023 71.73957825 C-32 66.23247933 -32 66.23247933 -32 64 C-32.66 64 -33.32 64 -34 64 C-34.495 59.05 -34.495 59.05 -35 54 C-35.66 54 -36.32 54 -37 54 C-36.67 54.66 -36.34 55.32 -36 56 C-35.90948931 57.69543591 -35.88245128 59.39443978 -35.88647461 61.09228516 C-35.88655014 62.15323395 -35.88662567 63.21418274 -35.88670349 64.30728149 C-35.89444542 66.03076309 -35.89444542 66.03076309 -35.90234375 67.7890625 C-35.9037587 68.96262299 -35.90517365 70.13618347 -35.90663147 71.3453064 C-35.91224311 75.10522985 -35.92479762 78.86509445 -35.9375 82.625 C-35.9425135 85.16926998 -35.94707667 87.71354088 -35.95117188 90.2578125 C-35.96221632 96.50522853 -35.97896582 102.75261006 -36 109 C-42.35764409 111.22322523 -48.3177728 111.59088405 -55 112 C-55.09182455 91.38174366 -54.85536646 70.766095 -54.62768555 50.14941406 C-54.57192215 45.07318898 -54.52203099 39.99692228 -54.47328281 34.92062569 C-54.43449884 30.99342063 -54.39138786 27.06627184 -54.34705925 23.13912582 C-54.32667223 21.26435947 -54.30795316 19.38957421 -54.29092598 17.51477432 C-54.26699447 14.92139541 -54.23694801 12.32815812 -54.20532227 9.73486328 C-54.1995668 8.96107834 -54.19381134 8.1872934 -54.18788147 7.39006042 C-54.11412022 2.11412022 -54.11412022 2.11412022 -53 1 C-50.50941086 0.90002358 -48.05272605 0.86120373 -45.5625 0.875 C-44.86833984 0.87113281 -44.17417969 0.86726563 -43.45898438 0.86328125 C-38.25327988 0.87336006 -38.25327988 0.87336006 -36 2 C-35.27500671 4.01491642 -34.65166288 6.06626481 -34.0625 8.125 C-31.07187649 18.21563889 -27.46930977 28.09037161 -23.92211914 37.99462891 C-23.56974434 38.97951546 -23.56974434 38.97951546 -23.21025085 39.98429871 C-22.56526362 41.78553707 -21.91820162 43.58603211 -21.27099609 45.38647461 C-19.79810757 49.57399343 -18.40373482 53.78879554 -17 58 C-16.67 39.19 -16.34 20.38 -16 1 C-8.08 0.505 -8.08 0.505 0 0 Z " fill="#DC040E" transform="translate(184,122)"/>
<path d="M0 0 C6.93 0 13.86 0 21 0 C24.3125 9.5625 24.3125 9.5625 25.3371582 12.53344727 C27.04877617 17.44805803 28.880822 22.24652072 31 27 C33.41118211 24.02202159 34.97554964 21.09611773 36.48046875 17.578125 C36.92197266 16.55332031 37.36347656 15.52851563 37.81835938 14.47265625 C38.27017578 13.40917969 38.72199219 12.34570312 39.1875 11.25 C39.88262695 9.63158203 39.88262695 9.63158203 40.59179688 7.98046875 C41.73266352 5.32236709 42.86696994 2.66145148 44 0 C50.93 0 57.86 0 65 0 C64.1445746 4.27712699 63.11908718 7.28652657 61.33984375 11.19921875 C60.79674561 12.40054443 60.25364746 13.60187012 59.6940918 14.83959961 C59.40690277 15.46849091 59.11971375 16.0973822 58.82382202 16.74533081 C57.93139981 18.70086716 57.04640159 20.65960993 56.16333008 22.61938477 C53.58909394 28.32656172 50.99434369 34.0236713 48.359375 39.703125 C47.98562744 40.51821533 47.61187988 41.33330566 47.22680664 42.1730957 C46.55606518 43.6344833 45.87619572 45.09173192 45.18530273 46.54370117 C42.66955755 52.04805527 42.28585854 55.79465168 44.15820312 61.57666016 C44.6885981 62.90176158 45.23026133 64.2223909 45.78125 65.5390625 C46.07080063 66.25420013 46.36035126 66.96933777 46.65867615 67.70614624 C47.27731994 69.23014379 47.9007365 70.75221127 48.52853394 72.27246094 C49.50461473 74.63617521 50.46789175 77.00474873 51.42797852 79.375 C54.17401311 86.14383872 56.95700285 92.89724375 59.74609375 99.6484375 C60.12507812 100.57446777 60.5040625 101.50049805 60.89453125 102.45458984 C61.57164121 104.10710586 62.25735988 105.7561303 62.953125 107.40087891 C65.11204945 112.66385166 65.11204945 112.66385166 64 116 C61.06202558 115.69152766 58.12467718 115.37839777 55.1875 115.0625 C54.35412109 114.97548828 53.52074219 114.88847656 52.66210938 114.79882812 C51.85966797 114.71181641 51.05722656 114.62480469 50.23046875 114.53515625 C49.49207764 114.456604 48.75368652 114.37805176 47.99291992 114.29711914 C46 114 46 114 43 113 C41.68139648 110.36376953 41.68139648 110.36376953 40.37109375 106.8828125 C40.13592545 106.26985321 39.90075714 105.65689392 39.65846252 105.02536011 C38.90737581 103.06247231 38.17181297 101.09421745 37.4375 99.125 C36.69702586 97.16403015 35.95334385 95.20435871 35.20582581 93.24606323 C34.5273129 91.46477175 33.85803472 89.67997086 33.18920898 87.89501953 C32.0610129 84.87816333 32.0610129 84.87816333 30 82 C28.37378819 85.72863937 26.74924402 89.45800306 25.125 93.1875 C24.66480469 94.24259766 24.20460938 95.29769531 23.73046875 96.38476562 C23.28574219 97.40634766 22.84101563 98.42792969 22.3828125 99.48046875 C21.97434082 100.41785889 21.56586914 101.35524902 21.14501953 102.32104492 C20.05714141 104.8663086 19.01669905 107.42558735 18 110 C15.2079699 109.8595017 12.41650204 109.71284617 9.625 109.5625 C8.8309375 109.52318359 8.036875 109.48386719 7.21875 109.44335938 C1.2265625 109.11328125 1.2265625 109.11328125 -1 108 C-0.47238858 101.87733737 1.48548649 96.99215087 4 91.41796875 C4.39574219 90.52257889 4.79148437 89.62718903 5.19921875 88.70466614 C6.45799818 85.86191122 7.7288406 83.02473741 9 80.1875 C9.85495684 78.26141826 10.70913186 76.33498928 11.5625 74.40820312 C17.59218258 60.81563484 17.59218258 60.81563484 19 58 C18.87958162 50.77489698 16.61851516 45.34252655 13.67578125 38.796875 C10.77741137 32.33372784 8.41336879 25.6557372 6 19 C5.7205957 18.23026855 5.44119141 17.46053711 5.15332031 16.66748047 C4.30516516 14.32187625 3.46350753 11.97406887 2.625 9.625 C2.36203125 8.8930542 2.0990625 8.1611084 1.828125 7.40698242 C0 2.23528068 0 2.23528068 0 0 Z " fill="#EC030A" transform="translate(482,118)"/>
<path d="M0 0 C0.1720611 2.70631694 0.23239017 5.2971394 0.1875 8 C0.18685547 8.73734375 0.18621094 9.4746875 0.18554688 10.234375 C0.14050904 15.71898191 0.14050904 15.71898191 -1 18 C-10.9 18 -20.8 18 -31 18 C-31 25.26 -31 32.52 -31 40 C-23.80451019 39.63154426 -23.80451019 39.63154426 -16.60961914 39.25170898 C-15.71879639 39.20860596 -14.82797363 39.16550293 -13.91015625 39.12109375 C-12.99371338 39.0739624 -12.07727051 39.02683105 -11.13305664 38.97827148 C-9 39 -9 39 -8 40 C-7.91368126 41.34267413 -7.89293527 42.68974322 -7.90234375 44.03515625 C-7.90484131 44.76355713 -7.90733887 45.49195801 -7.90991211 46.24243164 C-7.91901611 47.1730542 -7.92812012 48.10367676 -7.9375 49.0625 C-7.958125 52.011875 -7.97875 54.96125 -8 58 C-15.59 58 -23.18 58 -31 58 C-31 66.25 -31 74.5 -31 83 C-29.515 82.505 -29.515 82.505 -28 82 C-19.01381331 81.09804074 -10.02715554 80.84870689 -1 81 C-0.80615821 83.81219705 -0.61963397 86.62454196 -0.4375 89.4375 C-0.35338867 90.64116211 -0.35338867 90.64116211 -0.26757812 91.86914062 C-0.1383705 93.91062111 -0.0648727 95.95546369 0 98 C-1.98868575 99.98868575 -5.7829488 99.5310946 -8.515625 99.75390625 C-9.28243591 99.81907944 -10.04924683 99.88425262 -10.83929443 99.95140076 C-12.47340224 100.08893482 -14.10770911 100.22412018 -15.7421875 100.35717773 C-18.19859441 100.55829127 -20.65394278 100.76977986 -23.109375 100.98242188 C-24.70307181 101.11522325 -26.29682062 101.24740223 -27.890625 101.37890625 C-28.60784729 101.44139053 -29.32506958 101.50387482 -30.06402588 101.56825256 C-36.76635078 102.09986986 -43.20130198 102 -50 102 C-49.67 68.34 -49.34 34.68 -49 0 C-45.62083933 -0.67583213 -42.95626334 -1.13797747 -39.60864258 -1.23706055 C-38.35758476 -1.27666145 -38.35758476 -1.27666145 -37.08125305 -1.31706238 C-35.75132576 -1.35154228 -35.75132576 -1.35154228 -34.39453125 -1.38671875 C-33.47411545 -1.41224319 -32.55369965 -1.43776764 -31.60539246 -1.46406555 C-29.66643357 -1.5159284 -27.72740864 -1.56537204 -25.78833008 -1.61254883 C-22.81226976 -1.6875058 -19.83693324 -1.7780632 -16.86132812 -1.86914062 C-14.97658691 -1.91762487 -13.09182159 -1.96518314 -11.20703125 -2.01171875 C-9.86799492 -2.05530769 -9.86799492 -2.05530769 -8.50190735 -2.09977722 C-7.26503426 -2.12519341 -7.26503426 -2.12519341 -6.00317383 -2.15112305 C-5.27657059 -2.17031296 -4.54996735 -2.18950287 -3.80134583 -2.20927429 C-2 -2 -2 -2 0 0 Z " fill="#E2050F" transform="translate(250,123)"/>
<path d="M0 0 C1.66150805 3.3230161 0.81799365 7.00242901 0.5625 10.625 C0.2840625 14.770625 0.2840625 14.770625 0 19 C-10.23 19 -20.46 19 -31 19 C-31 26.26 -31 33.52 -31 41 C-29.35128906 40.98839844 -27.70257813 40.97679687 -26.00390625 40.96484375 C-23.85677196 40.95546762 -21.70963645 40.94636723 -19.5625 40.9375 C-18.47388672 40.92912109 -17.38527344 40.92074219 -16.26367188 40.91210938 C-15.22919922 40.90888672 -14.19472656 40.90566406 -13.12890625 40.90234375 C-12.17056885 40.89710693 -11.21223145 40.89187012 -10.22485352 40.88647461 C-8 41 -8 41 -7 42 C-6.87341778 44.65822657 -6.81479786 47.27887424 -6.8125 49.9375 C-6.80025391 50.67935547 -6.78800781 51.42121094 -6.77539062 52.18554688 C-6.77011522 54.12513629 -6.87811098 56.0642371 -7 58 C-9 60 -9 60 -11.24658203 60.13525391 C-12.15778809 60.08288574 -13.06899414 60.03051758 -14.0078125 59.9765625 C-14.99394531 59.925 -15.98007812 59.8734375 -16.99609375 59.8203125 C-18.54490234 59.72363281 -18.54490234 59.72363281 -20.125 59.625 C-21.68541016 59.53992188 -21.68541016 59.53992188 -23.27734375 59.453125 C-25.85223418 59.31138791 -28.4261874 59.15995446 -31 59 C-30.99214478 60.70313354 -30.99214478 60.70313354 -30.98413086 62.44067383 C-30.96603962 66.65062676 -30.95455286 70.86057624 -30.94506836 75.07055664 C-30.9400376 76.89315366 -30.93321231 78.71574665 -30.92456055 80.53833008 C-30.91244003 83.15707394 -30.90675914 85.77576447 -30.90234375 88.39453125 C-30.89718246 89.21025101 -30.89202118 90.02597076 -30.88670349 90.8664093 C-30.8863754 94.17013929 -30.94774379 96.84323138 -32 100 C-37.94 99.67 -43.88 99.34 -50 99 C-50.02254916 86.37004197 -50.040914 73.7400972 -50.05181217 61.11012363 C-50.05704146 55.24617836 -50.06413994 49.38224751 -50.07543945 43.51831055 C-50.0862667 37.86438288 -50.09227649 32.21046913 -50.09487724 26.55653191 C-50.09673179 24.3942639 -50.10035295 22.23199669 -50.10573006 20.06973457 C-50.11293833 17.05241343 -50.11399103 14.03515057 -50.11352539 11.01782227 C-50.11712067 10.1143959 -50.12071594 9.21096954 -50.12442017 8.28016663 C-50.11405216 2.11405216 -50.11405216 2.11405216 -49 1 C-47.51515433 0.8412061 -46.02314628 0.74861413 -44.53125 0.68359375 C-43.57863281 0.64161865 -42.62601562 0.59964355 -41.64453125 0.55639648 C-40.08798828 0.49754272 -40.08798828 0.49754272 -38.5 0.4375 C-37.44167969 0.3950415 -36.38335937 0.35258301 -35.29296875 0.30883789 C-23.5297838 -0.12053218 -11.76899715 -0.09757459 0 0 Z " fill="#EE0308" transform="translate(374,120)"/>
<path d="M0 0 C1.40564713 0.00666183 1.40564713 0.00666183 2.83969116 0.01345825 C3.90063995 0.01360931 4.96158875 0.01376038 6.0546875 0.01391602 C7.20367523 0.02423859 8.35266296 0.03456116 9.53646851 0.04519653 C10.71002899 0.04802643 11.88358948 0.05085632 13.0927124 0.05377197 C16.85271262 0.06499548 20.61247739 0.09010411 24.37240601 0.11550903 C26.91667341 0.12553602 29.46094453 0.13466236 32.00521851 0.14285278 C38.25269511 0.1649419 44.50003374 0.19844079 50.74740601 0.24050903 C50.77424588 3.21973497 50.79416638 6.19872198 50.80990601 9.17800903 C50.81828491 10.02814575 50.82666382 10.87828247 50.83529663 11.75418091 C50.83851929 12.56306763 50.84174194 13.37195435 50.84506226 14.20535278 C50.85029907 14.95421753 50.85553589 15.70308228 50.8609314 16.47463989 C50.74740601 18.24050903 50.74740601 18.24050903 49.74740601 19.24050903 C46.88473034 19.31376071 44.04668701 19.33289108 41.18490601 19.30300903 C40.37859741 19.29849731 39.57228882 19.2939856 38.74154663 19.28933716 C36.74346844 19.27751421 34.74542818 19.25957817 32.74740601 19.24050903 C32.74962662 20.22800644 32.75184723 21.21550385 32.75413513 22.23292542 C32.77436683 31.51849932 32.78937828 40.80406878 32.79921818 50.08965969 C32.80444694 54.86399183 32.81154445 59.63830624 32.82284546 64.41262817 C32.8336746 69.01617165 32.8396829 73.61969803 32.84228325 78.22325325 C32.84413745 79.98360526 32.84775797 81.7439563 32.85313606 83.50430107 C32.86034686 85.96123181 32.86139693 88.41809098 32.8609314 90.87503052 C32.86452667 91.61014359 32.86812195 92.34525665 32.87182617 93.10264587 C32.86145817 98.12645687 32.86145817 98.12645687 31.74740601 99.24050903 C28.90405553 99.34037878 26.09043437 99.37928785 23.24740601 99.36550903 C22.05051147 99.37130981 22.05051147 99.37130981 20.82943726 99.37722778 C14.87401368 99.36711671 14.87401368 99.36711671 13.74740601 98.24050903 C13.65240052 95.77606847 13.62182615 93.33976277 13.63388062 90.87503052 C13.63373459 90.10435242 13.63358856 89.33367432 13.63343811 88.53964233 C13.63413741 85.98026765 13.64193055 83.42096483 13.64974976 80.86160278 C13.65161388 79.09183288 13.65303781 77.32206247 13.65403748 75.55229187 C13.65786312 70.88499538 13.6676938 66.2177298 13.67874146 61.55044556 C13.68895457 56.79153868 13.69353488 52.03262683 13.69857788 47.27371216 C13.70931603 37.9292975 13.72639301 28.58490583 13.74740601 19.24050903 C11.45541423 19.38114038 9.16381415 19.52816846 6.87240601 19.67800903 C5.59623413 19.75921997 4.32006226 19.84043091 3.00521851 19.92410278 C-0.13559552 20.0325693 -0.13559552 20.0325693 -2.25259399 21.24050903 C-3.47568283 17.57124253 -3.68619416 14.00681849 -3.94009399 10.17800903 C-4.0000354 9.445177 -4.05997681 8.71234497 -4.12173462 7.95730591 C-4.24922184 6.05547598 -4.25881626 4.14659701 -4.25259399 2.24050903 C-2.25259399 0.24050903 -2.25259399 0.24050903 0 0 Z " fill="#E2050B" transform="translate(263.2525939941406,120.75949096679688)"/>
<path d="M0 0 C0.68578125 -0.01224609 1.3715625 -0.02449219 2.078125 -0.03710938 C5.81796797 -0.04802331 7.4349737 0.0608158 10.625 2.1875 C10.90622344 4.78569576 10.9931375 7.14403643 10.94970703 9.74243164 C10.94795471 10.91088875 10.94795471 10.91088875 10.94616699 12.10295105 C10.93896305 14.68478722 10.91073899 17.2659681 10.8828125 19.84765625 C10.87468047 21.63601593 10.8680157 23.42438284 10.86276245 25.2127533 C10.84561755 29.92580893 10.8113462 34.63857876 10.77270508 39.35150146 C10.71357826 46.89954784 10.67973479 54.44774078 10.64693832 61.99593925 C10.6329188 64.64010663 10.6113354 67.28413226 10.58865356 69.92823792 C10.57863489 71.53947858 10.56876926 73.1507202 10.55908203 74.76196289 C10.55077362 75.50328461 10.54246521 76.24460632 10.53390503 77.00839233 C10.52629324 78.7350118 10.57007084 80.4617377 10.625 82.1875 C12.45229024 84.01479024 15.35328058 83.40460832 17.8125 83.46875 C19.06804687 83.50613281 20.32359375 83.54351562 21.6171875 83.58203125 C22.95311038 83.61773885 24.28904828 83.65288818 25.625 83.6875 C28.22940136 83.75497481 30.83334932 83.82871369 33.4375 83.90625 C34.59894531 83.93654297 35.76039063 83.96683594 36.95703125 83.99804688 C39.625 84.1875 39.625 84.1875 40.625 85.1875 C40.94267147 88.00830499 41.18650857 90.79532989 41.375 93.625 C41.47748047 94.80932617 41.47748047 94.80932617 41.58203125 96.01757812 C41.734375 98.30859375 41.734375 98.30859375 41.625 102.1875 C38.13581859 104.51362094 36.86495654 104.1319682 32.87744141 103.51394653 C29.04114765 102.95795214 25.18152984 102.83624842 21.3125 102.65234375 C20.45817383 102.60936661 19.60384766 102.56638947 18.72363281 102.52210999 C16.02421865 102.38695072 13.32462338 102.2559069 10.625 102.125 C8.78253849 102.03347628 6.94009041 101.94168202 5.09765625 101.84960938 C0.60691985 101.6257792 -3.8839836 101.4056369 -8.375 101.1875 C-8.398121 88.1663936 -8.41591384 75.14529205 -8.42681217 62.12416935 C-8.43204153 56.07862183 -8.43914014 50.0330883 -8.45043945 43.98754883 C-8.46126645 38.15855712 -8.46727643 32.32957891 -8.46987724 26.50057793 C-8.47173183 24.2713239 -8.47535308 22.04207065 -8.48073006 19.81282234 C-8.48793799 16.70210266 -8.48899105 13.59143951 -8.48852539 10.48071289 C-8.49212067 9.54923431 -8.49571594 8.61775574 -8.49942017 7.65805054 C-8.48640331 -0.32242369 -7.43486992 0.00690973 0 0 Z " fill="#EF0509" transform="translate(393.375,118.8125)"/>
<path d="M0 0 C0 34.98 0 69.96 0 106 C-4.11002104 107.02750526 -6.99116104 106.9467918 -11.1875 106.625 C-12.43917969 106.53476563 -13.69085938 106.44453125 -14.98046875 106.3515625 C-18 106 -18 106 -19 105 C-19.09531163 103.6465941 -19.1218872 102.28826016 -19.12025452 100.9315033 C-19.12162918 100.05505661 -19.12300385 99.17860992 -19.12442017 98.27560425 C-19.12082489 97.30672272 -19.11722961 96.33784119 -19.11352539 95.33959961 C-19.11367142 94.32508224 -19.11381744 93.31056488 -19.1139679 92.26530457 C-19.11326829 88.89429627 -19.10547368 85.52334246 -19.09765625 82.15234375 C-19.09579224 79.82206757 -19.09436826 77.491791 -19.09336853 75.16151428 C-19.08954202 69.01462735 -19.0797106 62.86776387 -19.06866455 56.72088623 C-19.05845329 50.45390134 -19.05387152 44.18691268 -19.04882812 37.91992188 C-19.03808845 25.61327092 -19.02101044 13.30663741 -19 1 C-16.39590255 0.83218705 -13.7917318 0.66570349 -11.1875 0.5 C-10.08051758 0.42845703 -10.08051758 0.42845703 -8.95117188 0.35546875 C-5.96175412 0.16609387 -2.99625426 0 0 0 Z " fill="#F20307" transform="translate(467,118)"/>
<path d="M0 0 C0.1720611 2.70631694 0.23239017 5.2971394 0.1875 8 C0.18685547 8.73734375 0.18621094 9.4746875 0.18554688 10.234375 C0.14050904 15.71898191 0.14050904 15.71898191 -1 18 C-10.9 18 -20.8 18 -31 18 C-31 25.26 -31 32.52 -31 40 C-23.80451019 39.63154426 -23.80451019 39.63154426 -16.60961914 39.25170898 C-15.71879639 39.20860596 -14.82797363 39.16550293 -13.91015625 39.12109375 C-12.99371338 39.0739624 -12.07727051 39.02683105 -11.13305664 38.97827148 C-9 39 -9 39 -8 40 C-7.91368126 41.34267413 -7.89293527 42.68974322 -7.90234375 44.03515625 C-7.90484131 44.76355713 -7.90733887 45.49195801 -7.90991211 46.24243164 C-7.91901611 47.1730542 -7.92812012 48.10367676 -7.9375 49.0625 C-7.958125 52.011875 -7.97875 54.96125 -8 58 C-15.59 58 -23.18 58 -31 58 C-31 66.25 -31 74.5 -31 83 C-29.515 82.505 -29.515 82.505 -28 82 C-19.01381331 81.09804074 -10.02715554 80.84870689 -1 81 C-0.80615821 83.81219705 -0.61963397 86.62454196 -0.4375 89.4375 C-0.35338867 90.64116211 -0.35338867 90.64116211 -0.26757812 91.86914062 C-0.1383705 93.91062111 -0.0648727 95.95546369 0 98 C-1.98868575 99.98868575 -5.7829488 99.5310946 -8.515625 99.75390625 C-9.28243591 99.81907944 -10.04924683 99.88425262 -10.83929443 99.95140076 C-12.47340224 100.08893482 -14.10770911 100.22412018 -15.7421875 100.35717773 C-18.19859441 100.55829127 -20.65394278 100.76977986 -23.109375 100.98242188 C-24.70307181 101.11522325 -26.29682062 101.24740223 -27.890625 101.37890625 C-28.60784729 101.44139053 -29.32506958 101.50387482 -30.06402588 101.56825256 C-36.76635078 102.09986986 -43.20130198 102 -50 102 C-49.67 68.34 -49.34 34.68 -49 0 C-45.62083933 -0.67583213 -42.95626334 -1.13797747 -39.60864258 -1.23706055 C-38.35758476 -1.27666145 -38.35758476 -1.27666145 -37.08125305 -1.31706238 C-35.75132576 -1.35154228 -35.75132576 -1.35154228 -34.39453125 -1.38671875 C-33.47411545 -1.41224319 -32.55369965 -1.43776764 -31.60539246 -1.46406555 C-29.66643357 -1.5159284 -27.72740864 -1.56537204 -25.78833008 -1.61254883 C-22.81226976 -1.6875058 -19.83693324 -1.7780632 -16.86132812 -1.86914062 C-14.97658691 -1.91762487 -13.09182159 -1.96518314 -11.20703125 -2.01171875 C-9.86799492 -2.05530769 -9.86799492 -2.05530769 -8.50190735 -2.09977722 C-7.26503426 -2.12519341 -7.26503426 -2.12519341 -6.00317383 -2.15112305 C-5.27657059 -2.17031296 -4.54996735 -2.18950287 -3.80134583 -2.20927429 C-2 -2 -2 -2 0 0 Z M-47 2 C-47.454351 4.93587744 -47.454351 4.93587744 -47.37231445 8.4375 C-47.37596512 9.09782227 -47.37961578 9.75814453 -47.38337708 10.43847656 C-47.39149748 12.62591092 -47.37786108 14.81260791 -47.36328125 17 C-47.36276282 18.51692708 -47.36327986 20.03385484 -47.36479187 21.55078125 C-47.36470208 24.73187269 -47.35425924 27.91271105 -47.33618164 31.09375 C-47.31349405 35.17629625 -47.31294957 39.25847252 -47.31969929 43.34106445 C-47.32303692 46.47399193 -47.3164131 49.60683467 -47.30657005 52.73974609 C-47.3027142 54.24527544 -47.30157143 55.75081421 -47.3031559 57.25634766 C-47.30352577 59.3585819 -47.29092906 61.46033749 -47.2746582 63.5625 C-47.27005081 64.76003906 -47.26544342 65.95757812 -47.26069641 67.19140625 C-47.28884984 70.13696803 -47.28884984 70.13696803 -45 72 C-42.69 70.68 -40.38 69.36 -38 68 C-38 68.66 -38 69.32 -38 70 C-40 71.5 -40 71.5 -42 73 C-42 73.66 -42 74.32 -42 75 C-40.02 74.505 -40.02 74.505 -38 74 C-38 74.66 -38 75.32 -38 76 C-34.86596652 75.33638908 -34.86596652 75.33638908 -33.8515625 72.86328125 C-32.87869952 69.59214106 -32.5813351 66.59202908 -32.375 63.1875 C-32.25125 61.145625 -32.1275 59.10375 -32 57 C-24.41 56.67 -16.82 56.34 -9 56 C-9 51.05 -9 46.1 -9 41 C-16.59 41 -24.18 41 -32 41 C-32.33 33.41 -32.66 25.82 -33 18 C-29.6978772 16.8992924 -27.05916721 16.79372928 -23.58203125 16.68359375 C-21.70161133 16.62075195 -21.70161133 16.62075195 -19.78320312 16.55664062 C-18.47287109 16.51732422 -17.16253906 16.47800781 -15.8125 16.4375 C-14.47720022 16.39429008 -13.14191348 16.350675 -11.80664062 16.30664062 C-8.53788766 16.20043566 -5.26895777 16.09970215 -2 16 C-2 10.72 -2 5.44 -2 0 C-7.92650126 -0.04939701 -13.85288297 -0.08571817 -19.77954102 -0.10986328 C-21.79616381 -0.11992773 -23.81277199 -0.13358047 -25.8293457 -0.15087891 C-28.72611089 -0.17510769 -31.62268331 -0.18647859 -34.51953125 -0.1953125 C-35.42274612 -0.20563507 -36.325961 -0.21595764 -37.25654602 -0.22659302 C-38.09719101 -0.22674408 -38.937836 -0.22689514 -39.80395508 -0.22705078 C-40.54341873 -0.231492 -41.28288239 -0.23593323 -42.04475403 -0.24050903 C-44.32324251 -0.10875987 -44.32324251 -0.10875987 -47 2 Z " fill="#DD0911" transform="translate(250,123)"/>
<path d="M0 0 C0 0.33 0 0.66 0 1 C-9.9 1 -19.8 1 -30 1 C-29.98839844 3.07023437 -29.97679687 5.14046875 -29.96484375 7.2734375 C-29.84100043 37.18934042 -30.41846114 67.09096164 -31 97 C-25.72 97 -20.44 97 -15 97 C-15.00785522 95.1902771 -15.00785522 95.1902771 -15.01586914 93.34399414 C-15.03391611 88.88436622 -15.04543089 84.42474154 -15.05493164 79.96508789 C-15.05997256 78.03181415 -15.06680519 76.09854424 -15.07543945 74.1652832 C-15.08751565 71.39273128 -15.09323057 68.62022959 -15.09765625 65.84765625 C-15.10281754 64.97786636 -15.10797882 64.10807648 -15.11329651 63.21192932 C-15.11349185 61.14094186 -15.06208168 59.07005676 -15 57 C-14 56 -14 56 -11.77514648 55.88647461 C-10.81680908 55.89171143 -9.85847168 55.89694824 -8.87109375 55.90234375 C-7.31938477 55.90717773 -7.31938477 55.90717773 -5.73632812 55.91210938 C-4.64771484 55.92048828 -3.55910156 55.92886719 -2.4375 55.9375 C-0.7987793 55.94426758 -0.7987793 55.94426758 0.87304688 55.95117188 C3.58205432 55.9630016 6.2910338 55.98093769 9 56 C9 51.05 9 46.1 9 41 C1.08 41 -6.84 41 -15 41 C-15.04125 37.24625 -15.0825 33.4925 -15.125 29.625 C-15.14320801 28.44244629 -15.16141602 27.25989258 -15.18017578 26.04150391 C-15.1851709 25.11257324 -15.19016602 24.18364258 -15.1953125 23.2265625 C-15.20578613 22.27346191 -15.21625977 21.32036133 -15.22705078 20.33837891 C-15 18 -15 18 -13 16 C-10.01904297 15.77294922 -10.01904297 15.77294922 -6.2421875 15.8046875 C-5.24761032 15.80893234 -5.24761032 15.80893234 -4.23294067 15.81326294 C-2.11344417 15.82446565 0.00563104 15.84956949 2.125 15.875 C3.56119182 15.88502972 4.99739025 15.89415559 6.43359375 15.90234375 C9.95602238 15.92270461 13.47753917 15.9618506 17 16 C17 10.72 17 5.44 17 0 C12.71 0 8.42 0 4 0 C4 -0.33 4 -0.66 4 -1 C8.62 -1 13.24 -1 18 -1 C19.66150805 2.3230161 18.81799365 6.00242901 18.5625 9.625 C18.2840625 13.770625 18.2840625 13.770625 18 18 C7.77 18 -2.46 18 -13 18 C-13 25.26 -13 32.52 -13 40 C-11.35128906 39.98839844 -9.70257813 39.97679687 -8.00390625 39.96484375 C-5.85677196 39.95546762 -3.70963645 39.94636723 -1.5625 39.9375 C-0.47388672 39.92912109 0.61472656 39.92074219 1.73632812 39.91210938 C2.77080078 39.90888672 3.80527344 39.90566406 4.87109375 39.90234375 C5.82943115 39.89710693 6.78776855 39.89187012 7.77514648 39.88647461 C10 40 10 40 11 41 C11.12658222 43.65822657 11.18520214 46.27887424 11.1875 48.9375 C11.19974609 49.67935547 11.21199219 50.42121094 11.22460938 51.18554688 C11.22988478 53.12513629 11.12188902 55.0642371 11 57 C9 59 9 59 6.75341797 59.13525391 C5.84221191 59.08288574 4.93100586 59.03051758 3.9921875 58.9765625 C3.00605469 58.925 2.01992188 58.8734375 1.00390625 58.8203125 C-0.54490234 58.72363281 -0.54490234 58.72363281 -2.125 58.625 C-3.68541016 58.53992188 -3.68541016 58.53992188 -5.27734375 58.453125 C-7.85223418 58.31138791 -10.4261874 58.15995446 -13 58 C-12.99214478 59.70313354 -12.99214478 59.70313354 -12.98413086 61.44067383 C-12.96603962 65.65062676 -12.95455286 69.86057624 -12.94506836 74.07055664 C-12.9400376 75.89315366 -12.93321231 77.71574665 -12.92456055 79.53833008 C-12.91244003 82.15707394 -12.90675914 84.77576447 -12.90234375 87.39453125 C-12.89718246 88.21025101 -12.89202118 89.02597076 -12.88670349 89.8664093 C-12.8863754 93.17013929 -12.94774379 95.84323138 -14 99 C-19.94 98.67 -25.88 98.34 -32 98 C-32.02254916 85.37004197 -32.040914 72.7400972 -32.05181217 60.11012363 C-32.05704146 54.24617836 -32.06413994 48.38224751 -32.07543945 42.51831055 C-32.0862667 36.86438288 -32.09227649 31.21046913 -32.09487724 25.55653191 C-32.09673179 23.3942639 -32.10035295 21.23199669 -32.10573006 19.06973457 C-32.11293833 16.05241343 -32.11399103 13.03515057 -32.11352539 10.01782227 C-32.11712067 9.1143959 -32.12071594 8.21096954 -32.12442017 7.28016663 C-32.11405216 1.11405216 -32.11405216 1.11405216 -31 0 C-27.13826416 -0.387285 -23.2522622 -0.4711763 -19.375 -0.625 C-18.29347656 -0.6765625 -17.21195312 -0.728125 -16.09765625 -0.78125 C-10.5759005 -1.0104804 -5.43412789 -1.04322799 0 0 Z " fill="#B31015" transform="translate(356,121)"/>
<path d="M0 0 C0.68578125 -0.01224609 1.3715625 -0.02449219 2.078125 -0.03710938 C5.81796797 -0.04802331 7.4349737 0.0608158 10.625 2.1875 C10.88167989 4.79375643 10.94453225 7.15514409 10.8737793 9.75830078 C10.86446381 10.53887848 10.85514832 11.31945618 10.84555054 12.12368774 C10.81110352 14.71049813 10.75522402 17.29638633 10.69921875 19.8828125 C10.67119423 21.67355369 10.64450291 23.46431621 10.61909485 25.25509644 C10.54855063 29.97362498 10.45984664 34.69164592 10.36743164 39.40979004 C10.27635964 44.22223708 10.20236249 49.0349428 10.12695312 53.84765625 C9.97640106 63.29460384 9.80667431 72.74110328 9.625 82.1875 C9.295 82.1875 8.965 82.1875 8.625 82.1875 C8.295 56.4475 7.965 30.7075 7.625 4.1875 C2.18 4.6825 2.18 4.6825 -3.375 5.1875 C-4.365 4.8575 -5.355 4.5275 -6.375 4.1875 C-6.375 35.8675 -6.375 67.5475 -6.375 100.1875 C5.175 100.1875 16.725 100.1875 28.625 100.1875 C28.625 100.8475 28.625 101.5075 28.625 102.1875 C25.83326052 102.21535549 23.04181751 102.23473225 20.25 102.25 C19.49460937 102.25837891 18.73921875 102.26675781 17.9609375 102.27539062 C12.04277994 102.29925416 6.16133831 102.02363048 0.25537109 101.68139648 C-0.57646194 101.63414177 -1.40829498 101.58688705 -2.26533508 101.53820038 C-4.30195026 101.42235378 -6.33848373 101.3050724 -8.375 101.1875 C-8.398121 88.1663936 -8.41591384 75.14529205 -8.42681217 62.12416935 C-8.43204153 56.07862183 -8.43914014 50.0330883 -8.45043945 43.98754883 C-8.46126645 38.15855712 -8.46727643 32.32957891 -8.46987724 26.50057793 C-8.47173183 24.2713239 -8.47535308 22.04207065 -8.48073006 19.81282234 C-8.48793799 16.70210266 -8.48899105 13.59143951 -8.48852539 10.48071289 C-8.49212067 9.54923431 -8.49571594 8.61775574 -8.49942017 7.65805054 C-8.48640331 -0.32242369 -7.43486992 0.00690973 0 0 Z " fill="#B71214" transform="translate(393.375,118.8125)"/>
<path d="M0 0 C0 34.98 0 69.96 0 106 C-4.11002104 107.02750526 -6.99116104 106.9467918 -11.1875 106.625 C-12.43917969 106.53476563 -13.69085938 106.44453125 -14.98046875 106.3515625 C-18 106 -18 106 -19 105 C-19.09531163 103.6465941 -19.1218872 102.28826016 -19.12025452 100.9315033 C-19.12162918 100.05505661 -19.12300385 99.17860992 -19.12442017 98.27560425 C-19.12082489 97.30672272 -19.11722961 96.33784119 -19.11352539 95.33959961 C-19.11367142 94.32508224 -19.11381744 93.31056488 -19.1139679 92.26530457 C-19.11326829 88.89429627 -19.10547368 85.52334246 -19.09765625 82.15234375 C-19.09579224 79.82206757 -19.09436826 77.491791 -19.09336853 75.16151428 C-19.08954202 69.01462735 -19.0797106 62.86776387 -19.06866455 56.72088623 C-19.05845329 50.45390134 -19.05387152 44.18691268 -19.04882812 37.91992188 C-19.03808845 25.61327092 -19.02101044 13.30663741 -19 1 C-16.39590255 0.83218705 -13.7917318 0.66570349 -11.1875 0.5 C-10.08051758 0.42845703 -10.08051758 0.42845703 -8.95117188 0.35546875 C-5.96175412 0.16609387 -2.99625426 0 0 0 Z M-18 3 C-18 36.66 -18 70.32 -18 105 C-12.72 105 -7.44 105 -2 105 C-2 71.34 -2 37.68 -2 3 C-7.28 3 -12.56 3 -18 3 Z " fill="#B70F11" transform="translate(467,118)"/>
<path d="M0 0 C0.1720611 2.70631694 0.23239017 5.2971394 0.1875 8 C0.18685547 8.73734375 0.18621094 9.4746875 0.18554688 10.234375 C0.14050904 15.71898191 0.14050904 15.71898191 -1 18 C-10.9 18 -20.8 18 -31 18 C-31 25.26 -31 32.52 -31 40 C-23.80451019 39.63154426 -23.80451019 39.63154426 -16.60961914 39.25170898 C-15.71879639 39.20860596 -14.82797363 39.16550293 -13.91015625 39.12109375 C-12.99371338 39.0739624 -12.07727051 39.02683105 -11.13305664 38.97827148 C-9 39 -9 39 -8 40 C-7.91368126 41.34267413 -7.89293527 42.68974322 -7.90234375 44.03515625 C-7.90484131 44.76355713 -7.90733887 45.49195801 -7.90991211 46.24243164 C-7.91901611 47.1730542 -7.92812012 48.10367676 -7.9375 49.0625 C-7.958125 52.011875 -7.97875 54.96125 -8 58 C-15.59 58 -23.18 58 -31 58 C-31 66.25 -31 74.5 -31 83 C-31.66 82.67 -32.32 82.34 -33 82 C-33.02886751 77.85418113 -33.04675327 73.70838784 -33.0625 69.5625 C-33.07087891 68.37849609 -33.07925781 67.19449219 -33.08789062 65.97460938 C-33.09111328 64.84990234 -33.09433594 63.72519531 -33.09765625 62.56640625 C-33.10551147 61.00321655 -33.10551147 61.00321655 -33.11352539 59.40844727 C-33 57 -33 57 -32 56 C-30.29227642 55.91286169 -28.58101351 55.89299993 -26.87109375 55.90234375 C-25.31938477 55.90717773 -25.31938477 55.90717773 -23.73632812 55.91210938 C-22.64771484 55.92048828 -21.55910156 55.92886719 -20.4375 55.9375 C-18.7987793 55.94426758 -18.7987793 55.94426758 -17.12695312 55.95117188 C-14.41794568 55.9630016 -11.7089662 55.98093769 -9 56 C-9 51.05 -9 46.1 -9 41 C-16.92 41.33 -24.84 41.66 -33 42 C-33.33 33.75 -33.66 25.5 -34 17 C-30.22528434 16.05632108 -27.34659165 15.88478822 -23.484375 15.90234375 C-22.23398438 15.90556641 -20.98359375 15.90878906 -19.6953125 15.91210938 C-17.74238281 15.92467773 -17.74238281 15.92467773 -15.75 15.9375 C-13.77386719 15.94426758 -13.77386719 15.94426758 -11.7578125 15.95117188 C-8.50518896 15.96295674 -5.25258876 15.9808921 -2 16 C-2 10.72 -2 5.44 -2 0 C-15.86 0 -29.72 0 -44 0 C-44 -0.33 -44 -0.66 -44 -1 C-38.05549867 -1.19205195 -32.1108049 -1.37080791 -26.16552734 -1.53710938 C-24.14198009 -1.59560279 -22.11853548 -1.65776484 -20.09521484 -1.72363281 C-17.19127083 -1.81753791 -14.28721633 -1.898356 -11.3828125 -1.9765625 C-10.47443634 -2.00875885 -9.56606018 -2.0409552 -8.63015747 -2.0741272 C-7.78943695 -2.09429901 -6.94871643 -2.11447083 -6.08251953 -2.13525391 C-5.34083527 -2.15746002 -4.599151 -2.17966614 -3.83499146 -2.20254517 C-2 -2 -2 -2 0 0 Z " fill="#B00E15" transform="translate(250,123)"/>
<path d="M0 0 C0.69802734 0.00386719 1.39605469 0.00773437 2.11523438 0.01171875 C2.80939453 0.00785156 3.50355469 0.00398438 4.21875 0 C9.42445449 0.01007881 9.42445449 0.01007881 11.67773438 1.13671875 C12.78320312 3.97265625 12.78320312 3.97265625 13.86523438 7.51171875 C14.23003906 8.67445313 14.59484375 9.8371875 14.97070312 11.03515625 C15.67773438 14.13671875 15.67773438 14.13671875 14.67773438 17.13671875 C14.34773438 15.48671875 14.01773438 13.83671875 13.67773438 12.13671875 C12.68773437 12.46671875 11.69773438 12.79671875 10.67773438 13.13671875 C10.34773438 9.50671875 10.01773438 5.87671875 9.67773438 2.13671875 C7.53153178 2.27701294 5.38577219 2.42410039 3.24023438 2.57421875 C2.04527344 2.65542969 0.8503125 2.73664063 -0.38085938 2.8203125 C-3.20796807 2.81327989 -3.20796807 2.81327989 -4.32226562 4.13671875 C-4.42741433 5.47031512 -4.46462038 6.80936017 -4.47375488 8.14706421 C-4.48209854 9.01076126 -4.4904422 9.87445831 -4.4990387 10.764328 C-4.50531532 12.19655449 -4.50531532 12.19655449 -4.51171875 13.65771484 C-4.52001205 14.65765976 -4.52830536 15.65760468 -4.53684998 16.68785095 C-4.55429457 18.86719526 -4.56944917 21.04655879 -4.58262634 23.22593307 C-4.60358398 26.67139435 -4.63061311 30.11675931 -4.65930176 33.56216431 C-4.71911851 40.87864575 -4.77120298 48.19517167 -4.82226562 55.51171875 C-4.88142783 63.97994971 -4.94371059 72.44813349 -5.0141449 80.91627884 C-5.04077559 84.31700391 -5.06155863 87.71773353 -5.08215332 91.11849976 C-5.09875439 93.19798 -5.11562606 95.27745811 -5.1328125 97.35693359 C-5.13699692 98.30770279 -5.14118134 99.25847198 -5.14549255 100.23805237 C-5.15383621 101.10738907 -5.16217987 101.97672577 -5.17077637 102.87240601 C-5.1759301 103.62789923 -5.18108383 104.38339245 -5.18639374 105.1617794 C-5.32226562 107.13671875 -5.32226562 107.13671875 -6.32226562 110.13671875 C-5.82726562 109.97171875 -5.33226562 109.80671875 -4.82226562 109.63671875 C-1.28782474 108.92983057 2.07464139 109.0766672 5.67773438 109.13671875 C5.67773438 109.46671875 5.67773438 109.79671875 5.67773438 110.13671875 C-0.75726563 110.63171875 -0.75726563 110.63171875 -7.32226562 111.13671875 C-7.41409018 90.51846241 -7.17763208 69.90281375 -6.94995117 49.28613281 C-6.89418777 44.20990773 -6.84429662 39.13364103 -6.79554844 34.05734444 C-6.75676446 30.13013938 -6.71365349 26.20299059 -6.66932487 22.27584457 C-6.64893785 20.40107822 -6.63021879 18.52629296 -6.6131916 16.65149307 C-6.5892601 14.05811416 -6.55921363 11.46487687 -6.52758789 8.87158203 C-6.52183243 8.09779709 -6.51607697 7.32401215 -6.51014709 6.52677917 C-6.42351268 0.33005638 -6.23784929 0.01210058 0 0 Z " fill="#A50C13" transform="translate(136.322265625,122.86328125)"/>
<path d="M0 0 C6.93 0 13.86 0 21 0 C20.13565849 4.32170754 19.0639396 7.42640784 17.27734375 11.39453125 C16.73916016 12.59658203 16.20097656 13.79863281 15.64648438 15.03710938 C15.07693432 16.29562334 14.50727145 17.55408625 13.9375 18.8125 C13.36346104 20.09028319 12.78988839 21.36827597 12.21679688 22.64648438 C10.8157713 25.76641527 9.41002202 28.88412718 8 32 C7.67 32 7.34 32 7 32 C7 30.02 7 28.04 7 26 C7.66 26 8.32 26 9 26 C10.04566934 21.94803132 10.01661765 18.22951772 9.83984375 14.0859375 C10 12 10 12 12 9 C12.66 9 13.32 9 14 9 C14 7.35 14 5.7 14 4 C11.14917204 3.04972401 8.78896626 2.70808784 5.8125 2.4375 C4.91144531 2.35371094 4.01039063 2.26992187 3.08203125 2.18359375 C2.05142578 2.09271484 2.05142578 2.09271484 1 2 C1 3.65 1 5.3 1 7 C0.01 7 -0.98 7 -2 7 C-1.34 4.69 -0.68 2.38 0 0 Z " fill="#E1030C" transform="translate(526,118)"/>
<path d="M0 0 C2 2 2 2 2.22705078 4.98095703 C2.21657715 6.22731934 2.20610352 7.47368164 2.1953125 8.7578125 C2.1924826 9.42086395 2.18965271 10.08391541 2.18673706 10.76705933 C2.17553435 12.88655583 2.15043051 15.00563104 2.125 17.125 C2.11497028 18.56119182 2.10584441 19.99739025 2.09765625 21.43359375 C2.075595 24.95586628 2.04106494 28.47789203 2 32 C1.67 32 1.34 32 1 32 C1 22.43 1 12.86 1 3 C-3.95 3.33 -8.9 3.66 -14 4 C-13.9896875 6.40152344 -13.979375 8.80304688 -13.96875 11.27734375 C-13.95345509 21.04493844 -14.21266691 30.79992446 -14.5 40.5625 C-14.54839617 42.26757192 -14.59657422 43.97265005 -14.64453125 45.67773438 C-14.76052036 49.78523175 -14.8794121 53.89263518 -15 58 C-15.33 58 -15.66 58 -16 58 C-16 39.19 -16 20.38 -16 1 C-8.08 0.505 -8.08 0.505 0 0 Z " fill="#B10E18" transform="translate(184,122)"/>
<path d="M0 0 C2.8203125 0.0234375 2.8203125 0.0234375 6.125 0.375 C7.22070312 0.48585938 8.31640625 0.59671875 9.4453125 0.7109375 C10.28835938 0.80632812 11.13140625 0.90171875 12 1 C12 1.33 12 1.66 12 2 C8.04 2 4.08 2 0 2 C0.309375 3.216875 0.61875 4.43375 0.9375 5.6875 C1.72554155 8.78713008 2.37093982 11.85469912 3 15 C7.95 15 12.9 15 18 15 C19.09658936 18.28976808 18.79953138 19.71303767 18 23 C17.34 23 16.68 23 16 23 C16 21.68 16 20.36 16 19 C13.70800823 19.14063135 11.41640814 19.28765943 9.125 19.4375 C7.84882813 19.51871094 6.57265625 19.59992188 5.2578125 19.68359375 C2.11699848 19.79206027 2.11699848 19.79206027 0 21 C-1.22308884 17.33073349 -1.43360017 13.76630946 -1.6875 9.9375 C-1.74744141 9.20466797 -1.80738281 8.47183594 -1.86914062 7.71679688 C-1.99662785 5.81496694 -2.00622227 3.90608797 -2 2 C-1.34 1.34 -0.68 0.68 0 0 Z " fill="#C70911" transform="translate(261,121)"/>
<path d="M0 0 C1.67542976 0.28604898 3.34385343 0.61781233 5 1 C5 3.64 5 6.28 5 9 C0.05 9 -4.9 9 -10 9 C-10 6.69 -10 4.38 -10 2 C-9.04287109 1.90912109 -9.04287109 1.90912109 -8.06640625 1.81640625 C-6.82697266 1.69072266 -6.82697266 1.69072266 -5.5625 1.5625 C-4.73878906 1.48128906 -3.91507812 1.40007812 -3.06640625 1.31640625 C-1.01337975 1.21069185 -1.01337975 1.21069185 0 0 Z " fill="#F10307" transform="translate(289,210)"/>
<path d="M0 0 C4.95 0.33 9.9 0.66 15 1 C15 1.33 15 1.66 15 2 C13.72382813 2.10957031 12.44765625 2.21914062 11.1328125 2.33203125 C9.46347228 2.49146262 7.79420495 2.65165855 6.125 2.8125 C5.28324219 2.88275391 4.44148438 2.95300781 3.57421875 3.02539062 C2.76855469 3.10595703 1.96289062 3.18652344 1.1328125 3.26953125 C0.38918457 3.33760986 -0.35444336 3.40568848 -1.12060547 3.47583008 C-3.39845252 3.89086688 -3.39845252 3.89086688 -5 7 C-5.99 7 -6.98 7 -8 7 C-8.33 5.68 -8.66 4.36 -9 3 C-15.6 3 -22.2 3 -29 3 C-29 14.88 -29 26.76 -29 39 C-29.33 39 -29.66 39 -30 39 C-30 26.79 -30 14.58 -30 2 C-20.1 2 -10.2 2 0 2 C0 1.34 0 0.68 0 0 Z " fill="#DB0E12" transform="translate(356,120)"/>
<path d="M0 0 C6.93 0 13.86 0 21 0 C20.67 1.32 20.34 2.64 20 4 C20 3.01 20 2.02 20 1 C19.01 1 18.02 1 17 1 C17 1.66 17 2.32 17 3 C12.38 3 7.76 3 3 3 C3.66 4.98 4.32 6.96 5 9 C5 10.32 5 11.64 5 13 C5.66 13 6.32 13 7 13 C7.53394179 14.4117783 8.05165104 15.82970244 8.5625 17.25 C8.85253906 18.03890625 9.14257812 18.8278125 9.44140625 19.640625 C10.05384098 22.22741227 9.72332269 23.49494634 9 26 C7.67739984 22.79573933 6.36876329 19.58595147 5.0625 16.375 C4.68931641 15.47136719 4.31613281 14.56773437 3.93164062 13.63671875 C3.57392578 12.75371094 3.21621094 11.87070313 2.84765625 10.9609375 C2.3527771 9.75123291 2.3527771 9.75123291 1.84790039 8.51708984 C1 6 1 6 0 0 Z " fill="#B80D14" transform="translate(482,118)"/>
<path d="M0 0 C0.99 0.495 0.99 0.495 2 1 C2.81266138 3.4915662 3.40717932 6.00798201 4.0234375 8.5546875 C5.16895787 11.4230705 6.41273648 12.39227658 9 14 C8.67 15.65 8.34 17.3 8 19 C8.74765625 18.89300781 9.4953125 18.78601563 10.265625 18.67578125 C11.25046875 18.55589844 12.2353125 18.43601563 13.25 18.3125 C14.22453125 18.18488281 15.1990625 18.05726563 16.203125 17.92578125 C19 18 19 18 23 21 C18.05 21.66 13.1 22.32 8 23 C5.47207532 18.7867922 3.80178063 14.98232136 2.3125 10.375 C2.08755859 9.70726562 1.86261719 9.03953125 1.63085938 8.3515625 C0.6754395 5.44755073 0 3.07734387 0 0 Z " fill="#C00C18" transform="translate(159,207)"/>
<path d="M0 0 C2.22777065 3.34165598 3.6892376 6.79841055 5.1875 10.5 C5.47302734 11.17675781 5.75855469 11.85351562 6.05273438 12.55078125 C8.11798022 17.64605933 8.11798022 17.64605933 7 21 C4.06202558 20.69152766 1.12467718 20.37839777 -1.8125 20.0625 C-2.64587891 19.97548828 -3.47925781 19.88847656 -4.33789062 19.79882812 C-5.14033203 19.71181641 -5.94277344 19.62480469 -6.76953125 19.53515625 C-7.50792236 19.456604 -8.24631348 19.37805176 -9.00708008 19.29711914 C-11 19 -11 19 -14 18 C-15.1875 14.4375 -15.1875 14.4375 -16 11 C-15.34 11 -14.68 11 -14 11 C-13.34 12.98 -12.68 14.96 -12 17 C-6.39 17.33 -0.78 17.66 5 18 C4.67 16.02 4.34 14.04 4 12 C3.34 12 2.68 12 2 12 C0.86235649 7.73383684 0 4.43513689 0 0 Z " fill="#BA0F12" transform="translate(539,213)"/>
<path d="M0 0 C1.60379341 -0.05416188 3.20811406 -0.09286638 4.8125 -0.125 C5.70582031 -0.14820312 6.59914063 -0.17140625 7.51953125 -0.1953125 C10 0 10 0 13 2 C12.67 6.62 12.34 11.24 12 16 C11.67 16 11.34 16 11 16 C10.67 12.04 10.34 8.08 10 4 C8.246875 4.185625 6.49375 4.37125 4.6875 4.5625 C1.24748949 4.92673641 -0.6888987 5.10370043 -4 4 C-4 3.34 -4 2.68 -4 2 C-2.68 2 -1.36 2 0 2 C0 1.34 0 0.68 0 0 Z " fill="#CE050F" transform="translate(391,119)"/>
<path d="M0 0 C3.96 0 7.92 0 12 0 C12.19384179 2.81219705 12.38036603 5.62454196 12.5625 8.4375 C12.61857422 9.23994141 12.67464844 10.04238281 12.73242188 10.86914062 C12.8616295 12.91062111 12.9351273 14.95546369 13 17 C10.28514326 19.71485674 2.94139201 19.00098708 -0.7109375 19.0625 C-4.14120808 19.0625 -7.57003011 19.04391142 -11 19 C-11 18.67 -11 18.34 -11 18 C-3.95957136 17.14476355 2.90790104 16.90907565 10 17 C10 11.72 10 6.44 10 1 C6.7 1 3.4 1 0 1 C0 0.67 0 0.34 0 0 Z " fill="#B11217" transform="translate(237,204)"/>
<path d="M0 0 C0.99 0.99 1.98 1.98 3 3 C3 3.66 3 4.32 3 5 C2.34 5 1.68 5 1 5 C1.33 7.31 1.66 9.62 2 12 C1.34 11.67 0.68 11.34 0 11 C0 10.34 0 9.68 0 9 C-3.12577447 11.55745184 -3.79166718 14.22395994 -5 18 C-5.9563874 19.69207001 -6.94410931 21.36816893 -8 23 C-9.32 22.67 -10.64 22.34 -12 22 C-11.67 20.68 -11.34 19.36 -11 18 C-10.34 18.66 -9.68 19.32 -9 20 C-6.03 13.4 -3.06 6.8 0 0 Z " fill="#B80E15" transform="translate(523,125)"/>
<path d="M0 0 C6.93 0 13.86 0 21 0 C20.23539233 3.82303833 19.52385218 6.38393238 17.9375 9.8125 C17.57527344 10.60269531 17.21304688 11.39289063 16.83984375 12.20703125 C16.56269531 12.79871094 16.28554688 13.39039063 16 14 C15.67 14 15.34 14 15 14 C14.875 6.25 14.875 6.25 16 4 C16.99 4 17.98 4 19 4 C19 3.01 19 2.02 19 1 C13.06 1 7.12 1 1 1 C1 2.98 1 4.96 1 7 C0.01 7 -0.98 7 -2 7 C-1.34 4.69 -0.68 2.38 0 0 Z " fill="#B70E16" transform="translate(526,118)"/>
<path d="M0 0 C2.97 0.495 2.97 0.495 6 1 C5.95359375 1.58007812 5.9071875 2.16015625 5.859375 2.7578125 C5.58783097 8.63480113 6.61635462 11.0882567 10 16 C9.75 19.375 9.75 19.375 9 22 C6.16556078 19.16556078 5.50198033 15.74786481 4.375 12 C4.14554688 11.26265625 3.91609375 10.5253125 3.6796875 9.765625 C2 4.28664435 2 4.28664435 2 2 C1.34 2 0.68 2 0 2 C0 1.34 0 0.68 0 0 Z " fill="#C10B16" transform="translate(150,184)"/>
<path d="M0 0 C4.95 0.33 9.9 0.66 15 1 C15 1.33 15 1.66 15 2 C13.72382813 2.10957031 12.44765625 2.21914062 11.1328125 2.33203125 C9.46347228 2.49146262 7.79420495 2.65165855 6.125 2.8125 C5.28324219 2.88275391 4.44148438 2.95300781 3.57421875 3.02539062 C2.76855469 3.10595703 1.96289062 3.18652344 1.1328125 3.26953125 C0.38918457 3.33760986 -0.35444336 3.40568848 -1.12060547 3.47583008 C-3.39845252 3.89086688 -3.39845252 3.89086688 -5 7 C-5.99 7 -6.98 7 -8 7 C-8.66 5.35 -9.32 3.7 -10 2 C-6.7 2 -3.4 2 0 2 C0 1.34 0 0.68 0 0 Z " fill="#DD060B" transform="translate(356,120)"/>
<path d="M0 0 C5.28 0 10.56 0 16 0 C20.125 12.625 20.125 12.625 19 16 C18.67 14.35 18.34 12.7 18 11 C17.01 11.33 16.02 11.66 15 12 C14.67 8.37 14.34 4.74 14 1 C11.87465341 1.14069196 9.74972471 1.28770921 7.625 1.4375 C6.44164062 1.51871094 5.25828125 1.59992188 4.0390625 1.68359375 C1.08481099 1.81084936 1.08481099 1.81084936 -1 3 C-0.67 2.01 -0.34 1.02 0 0 Z " fill="#BB0816" transform="translate(132,124)"/>
<path d="M0 0 C1.09658936 3.28976808 0.79953138 4.71303767 0 8 C-0.66 8 -1.32 8 -2 8 C-2 6.68 -2 5.36 -2 4 C-4.29199177 4.14063135 -6.58359186 4.28765943 -8.875 4.4375 C-10.15117187 4.51871094 -11.42734375 4.59992188 -12.7421875 4.68359375 C-15.88300152 4.79206027 -15.88300152 4.79206027 -18 6 C-18 5.01 -18 4.02 -18 3 C-17.25234375 2.95101562 -16.5046875 2.90203125 -15.734375 2.8515625 C-14.74953125 2.77679688 -13.7646875 2.70203125 -12.75 2.625 C-11.28820312 2.52058594 -11.28820312 2.52058594 -9.796875 2.4140625 C-6.12142464 1.86993158 -3.73117242 0 0 0 Z " fill="#B5080F" transform="translate(279,136)"/>
<path d="M0 0 C0.33 0 0.66 0 1 0 C1.19622241 4.21878192 0.80230168 7.17010894 -1 11 C2.3 11 5.6 11 9 11 C9 11.66 9 12.32 9 13 C7.37509046 13.02698189 5.75005367 13.04638757 4.125 13.0625 C2.76761719 13.07990234 2.76761719 13.07990234 1.3828125 13.09765625 C-1 13 -1 13 -3 12 C-2.49202991 7.6822542 -1.80317221 3.96697886 0 0 Z " fill="#C11014" transform="translate(484,214)"/>
<path d="M0 0 C0.99 0.33 1.98 0.66 3 1 C2.896875 2.051875 2.79375 3.10375 2.6875 4.1875 C2.62839059 9.67482369 4.87669534 14.27293059 7.00390625 19.2421875 C7.33261719 20.15226562 7.66132812 21.06234375 8 22 C7.67 22.66 7.34 23.32 7 24 C4.77174356 21.77174356 4.30760631 20.34238372 3.375 17.375 C3.11460937 16.55773437 2.85421875 15.74046875 2.5859375 14.8984375 C2.39257812 14.27195313 2.19921875 13.64546875 2 13 C1.67 13 1.34 13 1 13 C0.67 8.71 0.34 4.42 0 0 Z " fill="#BF0F17" transform="translate(522,167)"/>
<path d="M0 0 C0.66 0.33 1.32 0.66 2 1 C0.06375702 7.20477864 -2.25609141 13.10825719 -5 19 C-5.33 19 -5.66 19 -6 19 C-6 16.69 -6 14.38 -6 12 C-5.34 11.67 -4.68 11.34 -4 11 C-3.53348793 8.87423218 -3.53348793 8.87423218 -3.375 6.4375 C-3.30023437 5.61121094 -3.22546875 4.78492188 -3.1484375 3.93359375 C-3.09945312 3.29550781 -3.05046875 2.65742188 -3 2 C-2.34 2.33 -1.68 2.66 -1 3 C-0.67 2.01 -0.34 1.02 0 0 Z " fill="#C80C13" transform="translate(531,149)"/>
<path d="M0 0 C1.32 0.33 2.64 0.66 4 1 C2.06375702 7.20477864 -0.25609141 13.10825719 -3 19 C-3.33 19 -3.66 19 -4 19 C-4 17.02 -4 15.04 -4 13 C-3.34 13 -2.68 13 -2 13 C-1.34 8.71 -0.68 4.42 0 0 Z " fill="#C30E14" transform="translate(537,131)"/>
<path d="M0 0 C0.66 0.33 1.32 0.66 2 1 C2 4.63 2 8.26 2 12 C0 10 0 10 -2 7 C-2.66 7.99 -3.32 8.98 -4 10 C-3.51171875 3.9453125 -3.51171875 3.9453125 -3 2 C-2.01 1.34 -1.02 0.68 0 0 Z " fill="#D3070F" transform="translate(514,193)"/>
<path d="M0 0 C2.82619863 2.82619863 3.81363347 6.26200296 5.1875 9.9375 C5.47302734 10.66646484 5.75855469 11.39542969 6.05273438 12.14648438 C8.12105341 17.63683977 8.12105341 17.63683977 7 21 C6.32645501 19.56570999 5.66140299 18.12742943 5 16.6875 C4.62875 15.88699219 4.2575 15.08648437 3.875 14.26171875 C3 12 3 12 3 9 C2.34 9 1.68 9 1 9 C0.67 6.03 0.34 3.06 0 0 Z " fill="#B30C14" transform="translate(503,122)"/>
<path d="M0 0 C0.66 0 1.32 0 2 0 C2.66 1.98 3.32 3.96 4 6 C9.61 6.33 15.22 6.66 21 7 C21 7.33 21 7.66 21 8 C18.39576408 8.02697137 15.79180756 8.04682489 13.1875 8.0625 C12.44951172 8.07087891 11.71152344 8.07925781 10.95117188 8.08789062 C7.70077932 8.10259828 5.10595105 8.03531702 2 7 C0.8125 3.4375 0.8125 3.4375 0 0 Z " fill="#C40C12" transform="translate(523,224)"/>
<path d="M0 0 C0.66 0.33 1.32 0.66 2 1 C1.67 3.64 1.34 6.28 1 9 C0.34 9 -0.32 9 -1 9 C-1 11.64 -1 14.28 -1 17 C-1.33 17 -1.66 17 -2 17 C-2 11.72 -2 6.44 -2 1 C-1.34 0.67 -0.68 0.34 0 0 Z " fill="#E60418" transform="translate(133,215)"/>
<path d="M0 0 C1.13583456 3.71727674 0.66670026 5.47051709 -1 9 C0.65 9.33 2.3 9.66 4 10 C3.67 10.66 3.34 11.32 3 12 C0.03 11.505 0.03 11.505 -3 11 C-3.33 11.99 -3.66 12.98 -4 14 C-4.33 13.34 -4.66 12.68 -5 12 C-4.26821134 9.92803369 -3.44100997 7.8891448 -2.5625 5.875 C-2.08941406 4.77929688 -1.61632812 3.68359375 -1.12890625 2.5546875 C-0.75636719 1.71164063 -0.38382812 0.86859375 0 0 Z " fill="#CD0F10" transform="translate(492,196)"/>
<path d="M0 0 C1.305239 3.91571701 0.32239848 5.03892997 -1.4375 8.6875 C-1.91058594 9.68136719 -2.38367188 10.67523438 -2.87109375 11.69921875 C-3.24363281 12.45847656 -3.61617188 13.21773437 -4 14 C-6.31 14 -8.62 14 -11 14 C-11 13.67 -11 13.34 -11 13 C-9.02 13 -7.04 13 -5 13 C-4.34 10.03 -3.68 7.06 -3 4 C-2.34 4 -1.68 4 -1 4 C-0.67 2.68 -0.34 1.36 0 0 Z " fill="#BE0E12" transform="translate(504,214)"/>
<path d="M0 0 C0.66 0.99 1.32 1.98 2 3 C2.53625 3.515625 3.0725 4.03125 3.625 4.5625 C5 6 5 6 5 8 C3.02 8.99 3.02 8.99 1 10 C1 9.34 1 8.68 1 8 C0.01 7.67 -0.98 7.34 -2 7 C-1.34 4.69 -0.68 2.38 0 0 Z " fill="#DD0A12" transform="translate(498,182)"/>
<path d="M0 0 C1.5 1.375 1.5 1.375 3 3 C3 3.66 3 4.32 3 5 C2.34 5 1.68 5 1 5 C1.33 7.31 1.66 9.62 2 12 C1.34 11.67 0.68 11.34 0 11 C0 10.34 0 9.68 0 9 C-0.66 9 -1.32 9 -2 9 C-1.51421457 5.87709365 -1.0013988 3.00419641 0 0 Z " fill="#CF0910" transform="translate(523,125)"/>
<path d="M0 0 C0.99 0 1.98 0 3 0 C3.33 2.31 3.66 4.62 4 7 C2.68 7 1.36 7 0 7 C0 4.69 0 2.38 0 0 Z " fill="#DC060E" transform="translate(499,119)"/>
<path d="M0 0 C1.74627478 2.61941217 2.38722388 4.03824877 3 7 C0.00468461 7.99843846 -1.17255732 8.00732761 -4.1875 7.5625 C-5.445625 7.376875 -6.70375 7.19125 -8 7 C-8 6.67 -8 6.34 -8 6 C-5.03 6 -2.06 6 1 6 C0.67 4.02 0.34 2.04 0 0 Z " fill="#AC161D" transform="translate(544,226)"/>
<path d="M0 0 C0.33 0.66 0.66 1.32 1 2 C0.22265625 4.1640625 0.22265625 4.1640625 -0.9375 6.625 C-1.31777344 7.44226563 -1.69804687 8.25953125 -2.08984375 9.1015625 C-2.39019531 9.72804687 -2.69054687 10.35453125 -3 11 C-3.33 11 -3.66 11 -4 11 C-4 9.02 -4 7.04 -4 5 C-3.34 5 -2.68 5 -2 5 C-1.34 3.35 -0.68 1.7 0 0 Z " fill="#BD0F13" transform="translate(509,203)"/>
<path d="M0 0 C0.93065133 2.60582371 1.14917407 3.64198224 0.0625 6.25 C-0.4634375 7.11625 -0.4634375 7.11625 -1 8 C-1.66 6.35 -2.32 4.7 -3 3 C-2.01 2.01 -1.02 1.02 0 0 Z " fill="#DC0C14" transform="translate(502,177)"/>
<path d="M0 0 C2.97 0.495 2.97 0.495 6 1 C5.34 2.32 4.68 3.64 4 5 C2 3.625 2 3.625 0 2 C0 1.34 0 0.68 0 0 Z " fill="#D90810" transform="translate(261,123)"/>
<path d="" fill="#000000" transform="translate(0,0)"/>
<path d="" fill="#000000" transform="translate(0,0)"/>
<path d="" fill="#000000" transform="translate(0,0)"/>
<path d="" fill="#000000" transform="translate(0,0)"/>
<path d="" fill="#000000" transform="translate(0,0)"/>
<path d="" fill="#000000" transform="translate(0,0)"/>
<path d="" fill="#000000" transform="translate(0,0)"/>
<path d="" fill="#000000" transform="translate(0,0)"/>
<path d="" fill="#000000" transform="translate(0,0)"/>
<path d="" fill="#000000" transform="translate(0,0)"/>
<path d="" fill="#000000" transform="translate(0,0)"/>
<path d="" fill="#000000" transform="translate(0,0)"/>
<path d="" fill="#000000" transform="translate(0,0)"/>
<path d="" fill="#000000" transform="translate(0,0)"/>
<path d="" fill="#000000" transform="translate(0,0)"/>
<path d="" fill="#000000" transform="translate(0,0)"/>
<path d="" fill="#000000" transform="translate(0,0)"/>
<path d="" fill="#000000" transform="translate(0,0)"/>
<path d="" fill="#000000" transform="translate(0,0)"/>
<path d="" fill="#000000" transform="translate(0,0)"/>
<path d="" fill="#000000" transform="translate(0,0)"/>
<path d="" fill="#000000" transform="translate(0,0)"/>
<path d="" fill="#000000" transform="translate(0,0)"/>
<path d="" fill="#000000" transform="translate(0,0)"/>
<path d="" fill="#000000" transform="translate(0,0)"/>
<path d="" fill="#000000" transform="translate(0,0)"/>
<path d="" fill="#000000" transform="translate(0,0)"/>
<path d="" fill="#000000" transform="translate(0,0)"/>
<path d="" fill="#000000" transform="translate(0,0)"/>
<path d="" fill="#000000" transform="translate(0,0)"/>
<path d="" fill="#000000" transform="translate(0,0)"/>
<path d="" fill="#000000" transform="translate(0,0)"/>
<path d="" fill="#000000" transform="translate(0,0)"/>
<path d="" fill="#000000" transform="translate(0,0)"/>
<path d="" fill="#010000" transform="translate(0,0)"/>
<path d="" fill="#000000" transform="translate(0,0)"/>
<path d="" fill="#000000" transform="translate(0,0)"/>
<path d="" fill="#000000" transform="translate(0,0)"/>
<path d="" fill="#000000" transform="translate(0,0)"/>
<path d="" fill="#000000" transform="translate(0,0)"/>
<path d="" fill="#550000" transform="translate(0,0)"/>
<path d="" fill="#000000" transform="translate(0,0)"/>
<path d="" fill="#000000" transform="translate(0,0)"/>
<path d="" fill="#000000" transform="translate(0,0)"/>
<path d="" fill="#000000" transform="translate(0,0)"/>
<path d="" fill="#000000" transform="translate(0,0)"/>
<path d="" fill="#000000" transform="translate(0,0)"/>
<path d="" fill="#000000" transform="translate(0,0)"/>
<path d="" fill="#000000" transform="translate(0,0)"/>
<path d="" fill="#000000" transform="translate(0,0)"/>
<path d="" fill="#000000" transform="translate(0,0)"/>
<path d="" fill="#000000" transform="translate(0,0)"/>
<path d="" fill="#000000" transform="translate(0,0)"/>
<path d="" fill="#000000" transform="translate(0,0)"/>
<path d="" fill="#000000" transform="translate(0,0)"/>
<path d="" fill="#000000" transform="translate(0,0)"/>
<path d="" fill="#000000" transform="translate(0,0)"/>
<path d="" fill="#000000" transform="translate(0,0)"/>
<path d="" fill="#000000" transform="translate(0,0)"/>
<path d="" fill="#000000" transform="translate(0,0)"/>
<path d="" fill="#000000" transform="translate(0,0)"/>
<path d="" fill="#000000" transform="translate(0,0)"/>
</svg>
