<?xml version="1.0" encoding="UTF-8"?>
<svg version="1.1" xmlns="http://www.w3.org/2000/svg" width="612" height="408">
<path d="M0 0 C4.24788042 0.54116089 7.43986318 1.50333357 11.1953125 3.546875 C12.15252197 4.05984131 13.10973145 4.57280762 14.09594727 5.10131836 C15.09553467 5.6453833 16.09512207 6.18944824 17.125 6.75 C24.96372774 10.92474185 32.65184105 14.93743177 41 18 C42.15757812 18.42667969 43.31515625 18.85335937 44.5078125 19.29296875 C47.99671238 20.55593569 51.49141554 21.79282888 55 23 C55.66862061 23.23936279 56.33724121 23.47872559 57.02612305 23.7253418 C63.07084223 25.83616395 69.17563829 27.25226227 75.4375 28.5625 C76.41009766 28.77068359 77.38269531 28.97886719 78.38476562 29.19335938 C80.32327949 29.60644282 82.26289735 30.01438119 84.20361328 30.41699219 C86.00125052 30.7917746 87.79676098 31.17699122 89.58935547 31.57519531 C95.49092176 32.84914753 101.22121046 33.41014809 107.25 33.625 C108.62949829 33.68083252 108.62949829 33.68083252 110.03686523 33.73779297 C117.36381231 34.01631579 124.66830469 34.15938468 132 34 C132.68191406 33.99806641 133.36382812 33.99613281 134.06640625 33.99414062 C160.77041135 33.8763981 191.31941801 27.52030925 215.1171875 14.875 C217.82594648 13.61615765 220.05820061 13.74419136 223 14 C225 16 225 16 225.1875 19.1875 C222.94961178 26.37229901 216.1071694 29.48431057 209.8125 33 C207.87982181 34.0092875 205.94200143 35.0087701 204 36 C202.9275 36.5671875 201.855 37.134375 200.75 37.71875 C177.30707826 49.86644581 152.61558686 55.57696701 126.3125 56.75 C124.82568726 56.81707153 124.82568726 56.81707153 123.30883789 56.88549805 C117.42794076 57.08718857 111.82190966 56.82551876 106 56 C105.23582764 55.90090332 104.47165527 55.80180664 103.68432617 55.69970703 C72.08745182 51.53701122 39.73556474 41.01067969 15 20 C15 19.34 15 18.68 15 18 C14.44570312 17.7628125 13.89140625 17.525625 13.3203125 17.28125 C10.44851733 15.69547758 8.28854348 13.71901908 5.875 11.5 C5.00617188 10.7059375 4.13734375 9.911875 3.2421875 9.09375 C1.80591578 7.75256247 0.38954317 6.38954317 -1 5 C-0.625 2.375 -0.625 2.375 0 0 Z " fill="#04A6DA" transform="translate(185,221)"/>
<path d="M0 0 C0.639375 0.39703125 1.27875 0.7940625 1.9375 1.203125 C3.80840763 2.39588127 3.80840763 2.39588127 5.875 2.953125 C8.50155321 2.24801004 10.76789924 1.16496943 13.22265625 0 C17.73552915 -1.78122229 22.1174854 -1.79491189 26.875 -1.046875 C30.87279588 0.95202294 33.67947005 3.06101357 35.875 6.953125 C36.32175837 9.9760499 36.29528698 12.97222786 36.2734375 16.0234375 C36.27630768 16.90087616 36.27917786 17.77831482 36.28213501 18.68234253 C36.28417327 20.53318936 36.27866002 22.38405785 36.26611328 24.23486328 C36.25001754 27.07503035 36.26598947 29.91378265 36.28515625 32.75390625 C36.28317453 34.55208648 36.27933233 36.35026584 36.2734375 38.1484375 C36.27951019 39.00051788 36.28558289 39.85259827 36.2918396 40.73049927 C36.26318359 43.11767578 36.26318359 43.11767578 35.875 46.953125 C32.60372414 49.13397557 31.60123277 49.20200359 27.8125 49.140625 C26.93464844 49.13417969 26.05679688 49.12773437 25.15234375 49.12109375 C22.875 48.953125 22.875 48.953125 20.875 47.953125 C20.38 30.628125 20.38 30.628125 19.875 12.953125 C12.61286479 12.53148798 12.61286479 12.53148798 8.875 13.953125 C8.545 25.173125 8.215 36.393125 7.875 47.953125 C5.14957733 49.31583633 2.91412726 49.12236101 -0.125 49.140625 C-1.1975 49.15480469 -2.27 49.16898438 -3.375 49.18359375 C-6.125 48.953125 -6.125 48.953125 -8.125 46.953125 C-8.35803892 44.46067888 -8.47425469 42.07053928 -8.50390625 39.57421875 C-8.52090073 38.84695084 -8.5378952 38.11968292 -8.55540466 37.37037659 C-8.60860694 35.04388124 -8.64886831 32.71740442 -8.6875 30.390625 C-8.73137668 28.06036594 -8.77803109 25.73024787 -8.83030701 23.40016174 C-8.86234923 21.94904633 -8.88921259 20.497806 -8.91053772 19.04649353 C-8.69330359 15.71441828 -8.69330359 15.71441828 -10.125 12.953125 C-11.62238124 12.8552193 -13.12442892 12.82337636 -14.625 12.828125 C-15.4396875 12.82554687 -16.254375 12.82296875 -17.09375 12.8203125 C-19.12030377 12.7286072 -19.12030377 12.7286072 -20.125 13.953125 C-20.28488491 16.47193017 -20.38434225 18.96654766 -20.44140625 21.48828125 C-20.46218735 22.24153183 -20.48296844 22.99478241 -20.50437927 23.77085876 C-20.56995425 26.1856849 -20.62879621 28.60062298 -20.6875 31.015625 C-20.7306777 32.64910029 -20.77429173 34.2825641 -20.81835938 35.91601562 C-20.92564362 39.92826964 -21.02688821 43.94063664 -21.125 47.953125 C-23.72679663 49.25402331 -25.7219188 49.12152578 -28.625 49.140625 C-29.6046875 49.15480469 -30.584375 49.16898438 -31.59375 49.18359375 C-34.125 48.953125 -34.125 48.953125 -36.125 46.953125 C-36.37896729 45.0177002 -36.37896729 45.0177002 -36.38378906 42.62695312 C-36.39009338 41.73262573 -36.39639771 40.83829834 -36.40289307 39.91687012 C-36.3988446 38.94914673 -36.39479614 37.98142334 -36.390625 36.984375 C-36.39253845 35.99312622 -36.3944519 35.00187744 -36.39642334 33.98059082 C-36.39778585 31.88240302 -36.39408482 29.78420681 -36.38574219 27.68603516 C-36.37504371 24.46627954 -36.38563536 21.24708192 -36.3984375 18.02734375 C-36.39711592 15.99218626 -36.39455355 13.95702912 -36.390625 11.921875 C-36.39669769 10.47028992 -36.39669769 10.47028992 -36.40289307 8.98937988 C-36.39658875 8.09505249 -36.39028442 7.2007251 -36.38378906 6.27929688 C-36.38219788 5.49035034 -36.38060669 4.70140381 -36.37896729 3.8885498 C-36.125 1.953125 -36.125 1.953125 -34.125 -0.046875 C-27.0728673 -0.61559538 -27.0728673 -0.61559538 -23.625 1.453125 C-23.13 1.948125 -22.635 2.443125 -22.125 2.953125 C-21.60292969 2.664375 -21.08085937 2.375625 -20.54296875 2.078125 C-14.19807111 -1.12210358 -6.76224691 -3.33140105 0 0 Z " fill="#05A5D8" transform="translate(219.125,151.046875)"/>
<path d="M0 0 C2.75 -0.36328125 2.75 -0.36328125 6 -0.3125 C7.60875 -0.30669922 7.60875 -0.30669922 9.25 -0.30078125 C12 0 12 0 14 2 C14.25396729 4.69470215 14.25396729 4.69470215 14.25878906 8.16210938 C14.26509338 9.45685181 14.27139771 10.75159424 14.27789307 12.08557129 C14.27431339 13.50496557 14.27021146 14.92435862 14.265625 16.34375 C14.26697169 17.793417 14.26891226 19.24308357 14.27142334 20.69274902 C14.27437442 23.73254695 14.27007756 26.77222743 14.26074219 29.81201172 C14.24934756 33.71294249 14.25590713 37.61359807 14.26788712 41.51451874 C14.27510621 44.50846438 14.27281758 47.50234453 14.26763153 50.49629211 C14.26629517 51.93484021 14.2679423 53.37339421 14.27259064 54.81193542 C14.2776564 56.82058604 14.26856944 58.82925743 14.25878906 60.83789062 C14.25719788 61.98213501 14.25560669 63.12637939 14.25396729 64.30529785 C14 67 14 67 12 69 C9.46875 69.265625 9.46875 69.265625 6.5 69.25 C5.5203125 69.25515625 4.540625 69.2603125 3.53125 69.265625 C1 69 1 69 -1 67 C-2.11375 67.495 -2.11375 67.495 -3.25 68 C-6 69 -6 69 -10 69 C-10.33 69.66 -10.66 70.32 -11 71 C-23.88363209 68.99290598 -23.88363209 68.99290598 -27.625 64.8125 C-32.23236954 58.08185473 -33.26735196 52.40516336 -33.375 44.4375 C-33.38901855 43.7170752 -33.40303711 42.99665039 -33.41748047 42.25439453 C-33.35018274 34.71532372 -30.75686224 29.08428426 -25.66015625 23.51171875 C-21.10185993 19.36098774 -16.20560029 18.66675816 -10.30859375 18.69921875 C-7.38166004 19.08056206 -4.77046249 20.00231552 -2 21 C-2.02320313 19.73542969 -2.04640625 18.47085938 -2.0703125 17.16796875 C-2.08907126 15.5078184 -2.10727135 13.84766167 -2.125 12.1875 C-2.14175781 11.35412109 -2.15851563 10.52074219 -2.17578125 9.66210938 C-2.18222656 8.85966797 -2.18867188 8.05722656 -2.1953125 7.23046875 C-2.20578613 6.49207764 -2.21625977 5.75368652 -2.22705078 4.99291992 C-2 3 -2 3 0 0 Z M-16 34 C-17.17832621 37.53497862 -17.18397309 40.75893071 -17.1875 44.4375 C-17.20167969 45.75621094 -17.21585937 47.07492188 -17.23046875 48.43359375 C-17.02120594 51.67184711 -16.90355249 53.42240269 -15 56 C-9.42611222 58.35818329 -8.04385833 58.01461944 -2 56 C-2 48.41 -2 40.82 -2 33 C-7.35019679 30.32490161 -11.51781341 29.51781341 -16 34 Z " fill="#24323E" transform="translate(428,131)"/>
<path d="M0 0 C6.1186267 2.80294631 9.62623254 6.88961932 12.12109375 13.1953125 C14.67218606 22.00817685 13.88000666 30.17424562 10.34765625 38.5234375 C7.53140873 43.28939484 4.89304485 47.02544245 -0.27734375 49.2734375 C-7.46048296 50.91169732 -12.47849844 49.79090814 -19.27734375 47.2734375 C-19.25377808 48.12107666 -19.25377808 48.12107666 -19.22973633 48.98583984 C-19.1674733 51.53993773 -19.12838239 54.09387621 -19.08984375 56.6484375 C-19.06470703 57.53789062 -19.03957031 58.42734375 -19.01367188 59.34375 C-18.99916992 60.61992187 -18.99916992 60.61992187 -18.984375 61.921875 C-18.96080933 63.10015869 -18.96080933 63.10015869 -18.93676758 64.30224609 C-19.04915771 64.95273926 -19.16154785 65.60323242 -19.27734375 66.2734375 C-22.39934575 68.35477217 -23.21001364 68.5472197 -26.77734375 68.5234375 C-27.9375 68.53117187 -27.9375 68.53117187 -29.12109375 68.5390625 C-31.27734375 68.2734375 -31.27734375 68.2734375 -34.27734375 66.2734375 C-34.65156555 63.61669922 -34.65156555 63.61669922 -34.6496582 60.203125 C-34.65588699 58.92840332 -34.66211578 57.65368164 -34.66853333 56.34033203 C-34.65984551 54.9430299 -34.65052756 53.54573156 -34.640625 52.1484375 C-34.64010654 50.72119141 -34.64062369 49.2939446 -34.64213562 47.86669922 C-34.64204584 44.87391515 -34.6316049 41.88140014 -34.61352539 38.88867188 C-34.59083776 35.04825544 -34.59029339 31.20823233 -34.59704304 27.36776733 C-34.60038106 24.42013032 -34.59375614 21.47258333 -34.5839138 18.52496338 C-34.5800586 17.10874909 -34.57891491 15.6925248 -34.58049965 14.27630615 C-34.58086959 12.29876465 -34.56678904 10.32123625 -34.55200195 8.34375 C-34.54739456 7.21727051 -34.54278717 6.09079102 -34.53804016 4.93017578 C-34.27734375 2.2734375 -34.27734375 2.2734375 -32.27734375 0.2734375 C-25.26902931 -0.1861241 -25.26902931 -0.1861241 -21.71484375 1.4609375 C-18.52571815 2.52397937 -17.20055005 1.4368886 -14.29296875 0.02734375 C-9.66874715 -1.70225852 -4.66446628 -1.48814876 0 0 Z M-18.27734375 13.2734375 C-20.63689886 15.63299261 -19.4627678 21.54096576 -19.46484375 24.7109375 C-19.47708984 25.69126953 -19.48933594 26.67160156 -19.50195312 27.68164062 C-19.50388672 28.61814453 -19.50582031 29.55464844 -19.5078125 30.51953125 C-19.51192139 31.38247803 -19.51603027 32.2454248 -19.52026367 33.13452148 C-19.47784175 35.48813677 -19.47784175 35.48813677 -17.27734375 37.2734375 C-11.70294223 38.43011269 -11.70294223 38.43011269 -6.27734375 37.2734375 C-2.93094504 32.46040725 -1.52568801 27.0719246 -2.27734375 21.2734375 C-3.55443116 17.24052988 -4.41343609 14.94296593 -7.77734375 12.3359375 C-11.89822933 10.58456113 -14.34809442 11.51561543 -18.27734375 13.2734375 Z " fill="#04A6DC" transform="translate(104.27734375,150.7265625)"/>
<path d="M0 0 C5.12590363 4.64191273 7.98391005 9.3736545 8.3359375 16.36328125 C8.35971104 18.01290092 8.37243224 19.66271103 8.375 21.3125 C8.41173828 22.53743164 8.41173828 22.53743164 8.44921875 23.78710938 C8.48205555 30.65547308 6.71881747 35.71713881 2.32421875 41.0234375 C-3.76546 46.05214596 -9.60507006 47.44064419 -17.4453125 47.25 C-24.42600356 46.56687427 -30.21042643 44.2351153 -35 39 C-39.55985254 31.52809209 -39.96538188 23.54506337 -39 15 C-38.06360971 11.13567716 -37.00377802 7.45132334 -35 4 C-34.01 3.67 -33.02 3.34 -32 3 C-32 2.34 -32 1.68 -32 1 C-22.03707236 -5.0558972 -10.21946725 -6.79972334 0 0 Z M-21.375 11.3125 C-24.29985716 16.14976377 -24.63996825 20.48027388 -24 26 C-23.07638052 28.99674365 -21.93611095 31.52328665 -20 34 C-16.98353837 35.39221306 -15.57332157 35.13650513 -12.375 34.375 C-9.36903103 32.63470218 -8.52662296 31.10543815 -7 28 C-6.56588524 25.04911797 -6.56588524 25.04911797 -6.6875 22 C-6.69330078 20.4840625 -6.69330078 20.4840625 -6.69921875 18.9375 C-7.01150451 15.88764425 -7.58964538 13.71693732 -9 11 C-13.4557328 8.02951146 -17.36921208 7.41212756 -21.375 11.3125 Z " fill="#23313C" transform="translate(534,154)"/>
<path d="M0 0 C3.78287841 2.35008478 5.56579203 5.06065735 6.94921875 9.2109375 C7.3579705 13.40850354 7.40133329 17.08065116 5.82421875 21.0234375 C2.58127916 24.80686703 -1.12480378 27.36336727 -6.05078125 28.2109375 C-8.64452039 28.27991992 -11.20888322 28.30528502 -13.80078125 28.2734375 C-14.49816406 28.26892578 -15.19554687 28.26441406 -15.9140625 28.25976562 C-17.62633928 28.2480377 -19.33857158 28.23010403 -21.05078125 28.2109375 C-18.46967436 32.79638567 -18.46967436 32.79638567 -14.05078125 35.2109375 C-12.58091622 35.28031985 -11.10805509 35.29549376 -9.63671875 35.2734375 C-8.37214844 35.26183594 -8.37214844 35.26183594 -7.08203125 35.25 C-6.20546875 35.23710937 -5.32890625 35.22421875 -4.42578125 35.2109375 C-2.68365428 35.18554206 -0.94145704 35.16447037 0.80078125 35.1484375 C1.57244629 35.13683594 2.34411133 35.12523437 3.13916016 35.11328125 C4.94921875 35.2109375 4.94921875 35.2109375 5.94921875 36.2109375 C6.30819311 42.67247596 6.30819311 42.67247596 3.94921875 46.2109375 C-5.81817797 49.2532414 -16.79611288 50.00353362 -26.05078125 45.2109375 C-28.86328125 42.7734375 -28.86328125 42.7734375 -31.05078125 40.2109375 C-31.60765625 39.5921875 -32.16453125 38.9734375 -32.73828125 38.3359375 C-36.9101454 31.58149078 -36.97397912 23.42280911 -35.62109375 15.78515625 C-33.80912708 9.30905314 -30.0142227 3.5581395 -24.14453125 0.08203125 C-22.30078125 -0.7265625 -22.30078125 -0.7265625 -19.05078125 -1.7890625 C-12.29638978 -4.04052632 -6.32034986 -3.11053867 0 0 Z M-18.92578125 12.0859375 C-21.23821792 14.85673731 -21.23821792 14.85673731 -21.05078125 17.2109375 C-18.40637486 18.0924063 -16.77017373 18.37268568 -14.05078125 18.3984375 C-13.02984375 18.41970703 -13.02984375 18.41970703 -11.98828125 18.44140625 C-9.72463993 18.32034161 -9.72463993 18.32034161 -7.05078125 16.2109375 C-7.62530871 12.28018106 -7.62530871 12.28018106 -10.05078125 9.2109375 C-14.26993553 8.46086563 -16.19389544 8.89484582 -18.92578125 12.0859375 Z " fill="#04A7DC" transform="translate(296.05078125,152.7890625)"/>
<path d="M0 0 C3.19748526 3.47749103 4.24309129 6.95141469 4.4375 11.625 C4.23312493 15.50812632 3.58931541 17.97913202 1 21 C-4.84738707 25.3855403 -9.04333715 26.14361277 -16.1875 26.0625 C-16.93708984 26.05798828 -17.68667969 26.05347656 -18.45898438 26.04882812 C-20.30602383 26.03706354 -22.15302213 26.01912865 -24 26 C-22.70855022 28.99992729 -22.70855022 28.99992729 -21 32 C-15.11619581 33.96126806 -8.4628638 33.28517724 -2.375 32.4375 C-1.26125 32.293125 -0.1475 32.14875 1 32 C2.57897833 33.57897833 2.24543509 35.19362572 2.3125 37.375 C2.25083893 41.69127517 2.25083893 41.69127517 0.375 44 C-7.94736081 47.50415192 -19.69536519 47.39999355 -28.06640625 44.09765625 C-33.71868983 40.88898618 -36.78631436 35.6457165 -38.52734375 29.515625 C-40.46270806 19.21500836 -38.64389402 10.98639732 -33.25 2.125 C-24.28697386 -6.34008024 -9.98933634 -7.57256142 0 0 Z M-20 7 C-23.31411914 10.45076717 -23.31411914 10.45076717 -24 15 C-21.67313547 16.16343227 -20.15278587 16.19895988 -17.5625 16.25 C-16.38880859 16.28867188 -16.38880859 16.28867188 -15.19140625 16.328125 C-12.49321963 15.92411845 -11.61032802 15.16633704 -10 13 C-10.2818047 10.67511119 -10.95446418 9.09107165 -12 7 C-15.28414305 6.04932701 -16.69693408 5.89897803 -20 7 Z " fill="#22303B" transform="translate(487,155)"/>
<path d="M0 0 C1.60488281 -0.03867188 1.60488281 -0.03867188 3.2421875 -0.078125 C6.125 0.25 6.125 0.25 7.69335938 1.42626953 C9.53306836 3.76982788 10.12255608 5.88760236 10.9140625 8.7578125 C11.21570313 9.82644531 11.51734375 10.89507812 11.828125 11.99609375 C12.13234375 13.11113281 12.4365625 14.22617188 12.75 15.375 C13.3644984 17.5866864 13.98154579 19.79766673 14.6015625 22.0078125 C14.87049316 22.9889502 15.13942383 23.97008789 15.41650391 24.98095703 C15.91510981 27.19484755 15.91510981 27.19484755 17.125 28.25 C18.08496344 25.22968228 19.04267058 22.20865354 20 19.1875 C20.26941406 18.33994141 20.53882813 17.49238281 20.81640625 16.61914062 C21.08066406 15.78447266 21.34492188 14.94980469 21.6171875 14.08984375 C21.87854492 13.2685498 22.13990234 12.44725586 22.40917969 11.60107422 C23.05012928 9.49590895 23.5983728 7.38779231 24.1328125 5.25390625 C25.125 2.25 25.125 2.25 28.125 0.25 C30.75390625 -0.015625 30.75390625 -0.015625 33.6875 0 C34.65816406 -0.00515625 35.62882812 -0.0103125 36.62890625 -0.015625 C39.125 0.25 39.125 0.25 41.125 2.25 C40.71166292 8.43943682 38.05645256 14.49627743 35.75 20.1875 C35.28146606 21.36590454 35.28146606 21.36590454 34.8034668 22.56811523 C34.18908067 24.1113396 33.57192829 25.65346631 32.95166016 27.19433594 C32.26581981 28.89982198 31.59052296 30.60954354 30.91796875 32.3203125 C24.99208656 47.38291344 24.99208656 47.38291344 23.125 49.25 C21.17077134 49.40167148 19.20990271 49.47179996 17.25 49.5 C15.64511719 49.53867188 15.64511719 49.53867188 14.0078125 49.578125 C11.125 49.25 11.125 49.25 9.60473633 48.12231445 C7.59771515 45.58282502 6.68811508 43.00006854 5.56640625 39.96484375 C5.33598129 39.34912003 5.10555634 38.7333963 4.8681488 38.09901428 C4.13351933 36.13128838 3.41019096 34.15963796 2.6875 32.1875 C1.96804927 30.24694318 1.24628319 28.30726055 0.52409363 26.36772156 C-0.17424036 24.48999377 -0.86876276 22.61084987 -1.56323242 20.73168945 C-3.01712493 16.87277245 -4.56147792 13.05914723 -6.16503906 9.26025391 C-7.13492006 6.51403652 -7.2435377 4.12459404 -6.875 1.25 C-5.07228218 -0.55271782 -2.43091251 0.03497716 0 0 Z " fill="#23313B" transform="translate(328.875,150.75)"/>
<path d="M0 0 C0.78503906 0.00515625 1.57007813 0.0103125 2.37890625 0.015625 C3.55259766 0.00789062 3.55259766 0.00789062 4.75 0 C6.94140625 0.265625 6.94140625 0.265625 9.94140625 2.265625 C9.94140625 3.255625 9.94140625 4.245625 9.94140625 5.265625 C10.49828125 4.9046875 11.05515625 4.54375 11.62890625 4.171875 C16.98440884 0.91515045 20.65401535 -0.81840791 26.94140625 0.265625 C29.06640625 2.203125 29.06640625 2.203125 29.94140625 5.265625 C29.56754262 8.4145046 28.81248792 11.19391595 27.94140625 14.265625 C22.66140625 14.925625 17.38140625 15.585625 11.94140625 16.265625 C11.94140625 26.825625 11.94140625 37.385625 11.94140625 48.265625 C9.0750683 49.69879398 6.56905124 49.39762861 3.37890625 49.390625 C1.61353516 49.39449219 1.61353516 49.39449219 -0.1875 49.3984375 C-3.05859375 49.265625 -3.05859375 49.265625 -4.05859375 48.265625 C-4.16191302 46.83371639 -4.19709261 45.39679697 -4.20385742 43.96118164 C-4.21023727 43.04675797 -4.21661713 42.13233429 -4.22319031 41.19020081 C-4.22430313 40.19544235 -4.22541595 39.2006839 -4.2265625 38.17578125 C-4.2298909 37.16092148 -4.2332193 36.14606171 -4.23664856 35.10044861 C-4.24172225 32.9492132 -4.24405675 30.7979699 -4.24389648 28.64672852 C-4.24608209 25.34573464 -4.26423082 22.04507525 -4.28320312 18.74414062 C-4.28613706 16.65885532 -4.28812185 14.57356841 -4.2890625 12.48828125 C-4.29624802 11.49554703 -4.30343353 10.50281281 -4.31083679 9.47999573 C-4.30622185 8.10363197 -4.30622185 8.10363197 -4.30151367 6.69946289 C-4.30293869 5.88973526 -4.30436371 5.08000763 -4.30583191 4.2457428 C-3.94312509 1.34084243 -2.88270182 0.37196153 0 0 Z " fill="#01A7E0" transform="translate(127.05859375,150.734375)"/>
<path d="M0 0 C3.15273873 4.2493435 2.32186221 7.17779666 1.71484375 12.234375 C0.1283973 20.92160284 -2.56670571 29.10233249 -6.93359375 36.78515625 C-7.46984375 37.77515625 -8.00609375 38.76515625 -8.55859375 39.78515625 C-9.01234375 40.44515625 -9.46609375 41.10515625 -9.93359375 41.78515625 C-10.59359375 41.78515625 -11.25359375 41.78515625 -11.93359375 41.78515625 C-12.13984375 42.42453125 -12.34609375 43.06390625 -12.55859375 43.72265625 C-13.93359375 45.78515625 -13.93359375 45.78515625 -17.05859375 46.53515625 C-18.00734375 46.61765625 -18.95609375 46.70015625 -19.93359375 46.78515625 C-19.36686953 41.04707349 -18.20002157 35.94713306 -16.43359375 30.47265625 C-14.39754595 23.91077739 -13.09772035 17.69339398 -12.93359375 10.78515625 C-17.14170713 9.76549801 -21.11108854 9.65151124 -25.43359375 9.66015625 C-26.72265625 9.65757812 -28.01171875 9.655 -29.33984375 9.65234375 C-32.37085767 9.76435948 -34.9886078 10.14141578 -37.93359375 10.78515625 C-40.26661361 10.82340248 -42.60070883 10.83089909 -44.93359375 10.78515625 C-45.26359375 9.13515625 -45.59359375 7.48515625 -45.93359375 5.78515625 C-35.49210912 -3.9602294 -12.0747684 -9.11636975 0 0 Z " fill="#06A5D7" transform="translate(428.93359375,221.21484375)"/>
<path d="M0 0 C6.1186267 2.80294631 9.62623254 6.88961932 12.12109375 13.1953125 C14.67218606 22.00817685 13.88000666 30.17424562 10.34765625 38.5234375 C7.45333912 43.42151265 5.3092846 46.56641217 -0.27734375 48.2734375 C-0.27734375 47.2834375 -0.27734375 46.2934375 -0.27734375 45.2734375 C1.04265625 45.2734375 2.36265625 45.2734375 3.72265625 45.2734375 C3.39265625 44.2834375 3.06265625 43.2934375 2.72265625 42.2734375 C1.65015625 42.1290625 0.57765625 41.9846875 -0.52734375 41.8359375 C-4.27734375 41.2734375 -4.27734375 41.2734375 -6.21484375 40.7734375 C-8.48636746 40.22276509 -10.7031503 39.95019271 -13.02734375 39.7109375 C-13.8265625 39.62714844 -14.62578125 39.54335937 -15.44921875 39.45703125 C-16.0525 39.39644531 -16.65578125 39.33585937 -17.27734375 39.2734375 C-17.27734375 38.6134375 -17.27734375 37.9534375 -17.27734375 37.2734375 C-18.59734375 36.9434375 -19.91734375 36.6134375 -21.27734375 36.2734375 C-21.29716309 35.51200439 -21.31698242 34.75057129 -21.33740234 33.96606445 C-21.43284297 30.50568278 -21.54244587 27.04588895 -21.65234375 23.5859375 C-21.68328125 22.38775391 -21.71421875 21.18957031 -21.74609375 19.95507812 C-21.78476563 18.79814453 -21.8234375 17.64121094 -21.86328125 16.44921875 C-21.89470215 15.38614502 -21.92612305 14.32307129 -21.95849609 13.2277832 C-22.14413106 10.25058529 -22.14413106 10.25058529 -23.36572266 7.57495117 C-24.27734375 5.2734375 -24.27734375 5.2734375 -23.27734375 2.2734375 C-26.57734375 2.2734375 -29.87734375 2.2734375 -33.27734375 2.2734375 C-32.94734375 1.6134375 -32.61734375 0.9534375 -32.27734375 0.2734375 C-24.82264716 0.02073592 -24.82264716 0.02073592 -21.71484375 1.4609375 C-18.52571815 2.52397937 -17.20055005 1.4368886 -14.29296875 0.02734375 C-9.66874715 -1.70225852 -4.66446628 -1.48814876 0 0 Z M-18.27734375 13.2734375 C-20.63689886 15.63299261 -19.4627678 21.54096576 -19.46484375 24.7109375 C-19.47708984 25.69126953 -19.48933594 26.67160156 -19.50195312 27.68164062 C-19.50388672 28.61814453 -19.50582031 29.55464844 -19.5078125 30.51953125 C-19.51192139 31.38247803 -19.51603027 32.2454248 -19.52026367 33.13452148 C-19.47784175 35.48813677 -19.47784175 35.48813677 -17.27734375 37.2734375 C-11.70294223 38.43011269 -11.70294223 38.43011269 -6.27734375 37.2734375 C-2.93094504 32.46040725 -1.52568801 27.0719246 -2.27734375 21.2734375 C-3.55443116 17.24052988 -4.41343609 14.94296593 -7.77734375 12.3359375 C-11.89822933 10.58456113 -14.34809442 11.51561543 -18.27734375 13.2734375 Z " fill="#03A5DB" transform="translate(104.27734375,150.7265625)"/>
<path d="M0 0 C0.97066406 -0.00515625 1.94132813 -0.0103125 2.94140625 -0.015625 C5.4375 0.25 5.4375 0.25 7.4375 2.25 C7.67800903 4.23684692 7.67800903 4.23684692 7.66455078 6.69970703 C7.66439972 7.62051056 7.66424866 8.54131409 7.66409302 9.49002075 C7.65377045 10.48589203 7.64344788 11.48176331 7.6328125 12.5078125 C7.6299826 13.52600067 7.62715271 14.54418884 7.62423706 15.5932312 C7.6130177 18.853939 7.58790996 22.11437484 7.5625 25.375 C7.55247247 27.58202729 7.54334623 29.78905888 7.53515625 31.99609375 C7.51307268 37.41415572 7.47957795 42.83205843 7.4375 48.25 C4.37168931 49.2719369 2.08949926 49.4486365 -1.125 49.5 C-2.09566406 49.52578125 -3.06632813 49.5515625 -4.06640625 49.578125 C-4.89011719 49.46984375 -5.71382812 49.3615625 -6.5625 49.25 C-8.63646744 46.13904884 -8.8159905 45.43493123 -8.8371582 41.90209961 C-8.84669022 41.0278685 -8.85622223 40.15363739 -8.86604309 39.25291443 C-8.86513168 38.3122261 -8.86422028 37.37153778 -8.86328125 36.40234375 C-8.86756638 35.43470596 -8.8718515 34.46706818 -8.87626648 33.47010803 C-8.88200921 31.42498558 -8.88251047 29.37984271 -8.87817383 27.3347168 C-8.87500867 24.19610053 -8.89849185 21.05842191 -8.92382812 17.91992188 C-8.9261005 15.93489703 -8.9268049 13.94986963 -8.92578125 11.96484375 C-8.934991 11.0221312 -8.94420074 10.07941864 -8.95368958 9.10813904 C-8.94746078 8.23706009 -8.94123199 7.36598114 -8.93481445 6.46850586 C-8.93544388 5.70034042 -8.9360733 4.93217499 -8.9367218 4.14073181 C-8.81322861 3.51679031 -8.68973541 2.89284882 -8.5625 2.25 C-5.19898987 0.00765991 -3.93939944 -0.02098215 0 0 Z " fill="#01A7DF" transform="translate(166.5625,150.75)"/>
<path d="M0 0 C0.9796875 0.01417969 1.959375 0.02835938 2.96875 0.04296875 C3.9484375 0.04941406 4.928125 0.05585938 5.9375 0.0625 C8.46875 0.23046875 8.46875 0.23046875 10.46875 1.23046875 C11.71429876 6.26412867 11.629874 11.34351516 11.63671875 16.49609375 C11.64004715 17.37070251 11.64337555 18.24531128 11.64680481 19.14642334 C11.65184675 20.98530555 11.65421398 22.82419682 11.65405273 24.66308594 C11.65625367 27.48517623 11.67447723 30.30688427 11.69335938 33.12890625 C11.69629092 34.91796741 11.69827731 36.70703043 11.69921875 38.49609375 C11.70640427 39.34190002 11.71358978 40.1877063 11.72099304 41.05914307 C11.69759292 47.00162583 11.69759292 47.00162583 9.46875 49.23046875 C6.71875 49.49609375 6.71875 49.49609375 3.46875 49.48046875 C1.86 49.48820312 1.86 49.48820312 0.21875 49.49609375 C-2.53125 49.23046875 -2.53125 49.23046875 -4.53125 47.23046875 C-4.78521729 45.29504395 -4.78521729 45.29504395 -4.79003906 42.90429688 C-4.79634338 42.00996948 -4.80264771 41.11564209 -4.80914307 40.19421387 C-4.8050946 39.22649048 -4.80104614 38.25876709 -4.796875 37.26171875 C-4.79878845 36.27046997 -4.8007019 35.27922119 -4.80267334 34.25793457 C-4.80403585 32.15974677 -4.80033482 30.06155056 -4.79199219 27.96337891 C-4.78129371 24.74362329 -4.79188536 21.52442567 -4.8046875 18.3046875 C-4.80336592 16.26953001 -4.80080355 14.23437287 -4.796875 12.19921875 C-4.80294769 10.74763367 -4.80294769 10.74763367 -4.80914307 9.26672363 C-4.80283875 8.37239624 -4.79653442 7.47806885 -4.79003906 6.55664062 C-4.78844788 5.76769409 -4.78685669 4.97874756 -4.78521729 4.16589355 C-4.36430394 0.95821219 -3.10289636 0.2825168 0 0 Z " fill="#212D39" transform="translate(377.53125,150.76953125)"/>
<path d="M0 0 C3.375 1.5 3.375 1.5 6 4 C6.94186544 7.73683197 6.43005269 10.881863 5.0625 14.4375 C1.69975484 16.98503421 -1.85027804 17.29120856 -6 17 C-9 15.5 -9 15.5 -11 13 C-12.0625 9.5625 -12.0625 9.5625 -12 6 C-8.68074991 0.73498262 -6.16615638 -0.59289965 0 0 Z " fill="#02A8DE" transform="translate(169,130)"/>
<path d="M0 0 C0.97066406 -0.00515625 1.94132813 -0.0103125 2.94140625 -0.015625 C5.4375 0.25 5.4375 0.25 7.4375 2.25 C7.67800903 4.23684692 7.67800903 4.23684692 7.66455078 6.69970703 C7.66439972 7.62051056 7.66424866 8.54131409 7.66409302 9.49002075 C7.65377045 10.48589203 7.64344788 11.48176331 7.6328125 12.5078125 C7.6299826 13.52600067 7.62715271 14.54418884 7.62423706 15.5932312 C7.6130177 18.853939 7.58790996 22.11437484 7.5625 25.375 C7.55247247 27.58202729 7.54334623 29.78905888 7.53515625 31.99609375 C7.51307268 37.41415572 7.47957795 42.83205843 7.4375 48.25 C4.37168931 49.2719369 2.08949926 49.4486365 -1.125 49.5 C-2.09566406 49.52578125 -3.06632813 49.5515625 -4.06640625 49.578125 C-4.89011719 49.46984375 -5.71382812 49.3615625 -6.5625 49.25 C-8.63646744 46.13904884 -8.8159905 45.43493123 -8.8371582 41.90209961 C-8.84669022 41.0278685 -8.85622223 40.15363739 -8.86604309 39.25291443 C-8.86513168 38.3122261 -8.86422028 37.37153778 -8.86328125 36.40234375 C-8.86756638 35.43470596 -8.8718515 34.46706818 -8.87626648 33.47010803 C-8.88200921 31.42498558 -8.88251047 29.37984271 -8.87817383 27.3347168 C-8.87500867 24.19610053 -8.89849185 21.05842191 -8.92382812 17.91992188 C-8.9261005 15.93489703 -8.9268049 13.94986963 -8.92578125 11.96484375 C-8.934991 11.0221312 -8.94420074 10.07941864 -8.95368958 9.10813904 C-8.94746078 8.23706009 -8.94123199 7.36598114 -8.93481445 6.46850586 C-8.93544388 5.70034042 -8.9360733 4.93217499 -8.9367218 4.14073181 C-8.81322861 3.51679031 -8.68973541 2.89284882 -8.5625 2.25 C-5.19898987 0.00765991 -3.93939944 -0.02098215 0 0 Z M-5.5625 2.25 C-7.24585939 5.61671878 -6.70404289 9.422966 -6.6953125 13.125 C-6.69626923 14.00526855 -6.69722595 14.88553711 -6.69821167 15.79248047 C-6.69889276 17.65527416 -6.69704343 19.51807023 -6.69287109 21.38085938 C-6.68752184 24.23833528 -6.69281849 27.095654 -6.69921875 29.953125 C-6.69855796 31.76041701 -6.69727677 33.56770893 -6.6953125 35.375 C-6.69733673 36.23335449 -6.69936096 37.09170898 -6.70144653 37.97607422 C-6.80892678 42.24800802 -6.80892678 42.24800802 -5.5625 46.25 C-1.82463521 47.67163702 -1.82463521 47.67163702 5.4375 47.25 C5.4375 32.4 5.4375 17.55 5.4375 2.25 C1.8075 2.25 -1.8225 2.25 -5.5625 2.25 Z " fill="#1A94B0" transform="translate(166.5625,150.75)"/>
<path d="M0 0 C2.19562713 1.60583113 2.90105488 2.46453231 3.3984375 5.15625 C3.39070313 5.9296875 3.38296875 6.703125 3.375 7.5 C3.38273437 8.2734375 3.39046875 9.046875 3.3984375 9.84375 C2.90944554 12.49005943 2.07463075 13.3402954 0 15 C-2.82001327 16.41000664 -4.87007255 16.24548451 -8 16 C-12.63235294 13.73529412 -12.63235294 13.73529412 -14 11 C-14.43023798 7.12785818 -14.31669086 5.47503629 -12.125 2.1875 C-8.42145766 -1.62497006 -4.9608347 -1.37528091 0 0 Z " fill="#23323C" transform="translate(386,131)"/>
<path d="M0 0 C0.78503906 0.00515625 1.57007813 0.0103125 2.37890625 0.015625 C3.55259766 0.00789062 3.55259766 0.00789062 4.75 0 C6.94140625 0.265625 6.94140625 0.265625 9.94140625 2.265625 C9.94140625 3.585625 9.94140625 4.905625 9.94140625 6.265625 C9.28140625 6.265625 8.62140625 6.265625 7.94140625 6.265625 C7.61140625 5.275625 7.28140625 4.285625 6.94140625 3.265625 C3.97140625 2.935625 1.00140625 2.605625 -2.05859375 2.265625 C-2.05859375 16.785625 -2.05859375 31.305625 -2.05859375 46.265625 C1.90140625 46.265625 5.86140625 46.265625 9.94140625 46.265625 C9.93616943 45.33177979 9.93093262 44.39793457 9.92553711 43.43579102 C9.90853005 39.98249704 9.89597323 36.52924733 9.88647461 33.07592773 C9.88143504 31.57917582 9.87460338 30.08242884 9.8659668 28.58569336 C9.85388466 26.43862693 9.84817434 24.29162538 9.84375 22.14453125 C9.83851318 20.8510376 9.83327637 19.55754395 9.82788086 18.22485352 C9.94140625 15.265625 9.94140625 15.265625 10.94140625 14.265625 C13.27438058 14.22469563 15.6084585 14.22320777 17.94140625 14.265625 C14.19140625 16.265625 14.19140625 16.265625 11.94140625 16.265625 C11.94140625 26.825625 11.94140625 37.385625 11.94140625 48.265625 C9.0750683 49.69879398 6.56905124 49.39762861 3.37890625 49.390625 C1.61353516 49.39449219 1.61353516 49.39449219 -0.1875 49.3984375 C-3.05859375 49.265625 -3.05859375 49.265625 -4.05859375 48.265625 C-4.16191302 46.83371639 -4.19709261 45.39679697 -4.20385742 43.96118164 C-4.21023727 43.04675797 -4.21661713 42.13233429 -4.22319031 41.19020081 C-4.22430313 40.19544235 -4.22541595 39.2006839 -4.2265625 38.17578125 C-4.2298909 37.16092148 -4.2332193 36.14606171 -4.23664856 35.10044861 C-4.24172225 32.9492132 -4.24405675 30.7979699 -4.24389648 28.64672852 C-4.24608209 25.34573464 -4.26423082 22.04507525 -4.28320312 18.74414062 C-4.28613706 16.65885532 -4.28812185 14.57356841 -4.2890625 12.48828125 C-4.29624802 11.49554703 -4.30343353 10.50281281 -4.31083679 9.47999573 C-4.30622185 8.10363197 -4.30622185 8.10363197 -4.30151367 6.69946289 C-4.30293869 5.88973526 -4.30436371 5.08000763 -4.30583191 4.2457428 C-3.94312509 1.34084243 -2.88270182 0.37196153 0 0 Z " fill="#1E99AC" transform="translate(127.05859375,150.734375)"/>
<path d="M0 0 C2.125 1.9375 2.125 1.9375 3 5 C2.62613637 8.1488796 1.87108167 10.92829095 1 14 C-4.61 14 -10.22 14 -16 14 C-16.68982036 8.22275449 -16.68982036 8.22275449 -16 5 C-11.74650771 0.14836036 -6.13499238 -1.03982922 0 0 Z " fill="#06A5D9" transform="translate(154,151)"/>
<path d="M0 0 C-24.28747686 10.9232622 -54.62459767 15.7550831 -81 12 C-81.79075928 11.89558594 -82.58151855 11.79117187 -83.39624023 11.68359375 C-93.08896715 10.38114255 -102.6650458 9.0188728 -112 6 C-112 5.67 -112 5.34 -112 5 C-106.12908933 5.3158746 -100.31897634 5.75302016 -94.515625 6.69921875 C-79.02595593 9.21890489 -63.66126881 9.71410089 -48 10 C-48 9.34 -48 8.68 -48 8 C-46.43765625 7.96132813 -46.43765625 7.96132813 -44.84375 7.921875 C-31.20872941 7.43914844 -18.8818476 4.91959162 -6.234375 -0.36328125 C-3.72507692 -1.07834346 -2.42849215 -0.8633401 0 0 Z " fill="#1A9BB2" transform="translate(372,265)"/>
<path d="M0 0 C10.88522581 3.71842637 10.88522581 3.71842637 14 9 C15.64914271 13.94742814 15.8248061 18.93798475 13.875 23.8125 C10.63206041 27.59592953 6.92597747 30.15242977 2 31 C-0.59373914 31.06898242 -3.15810197 31.09434752 -5.75 31.0625 C-6.44738281 31.05798828 -7.14476562 31.05347656 -7.86328125 31.04882812 C-9.57555803 31.0371002 -11.28779033 31.01916653 -13 31 C-12.67 32.32 -12.34 33.64 -12 35 C-12.66 34.67 -13.32 34.34 -14 34 C-14 32.35 -14 30.7 -14 29 C-8.72 29 -3.44 29 2 29 C1.67 26.69 1.34 24.38 1 22 C1.99 21.34 2.98 20.68 4 20 C4 22.31 4 24.62 4 27 C4.99 27 5.98 27 7 27 C7.33 25.68 7.66 24.36 8 23 C9.65 22.67 11.3 22.34 13 22 C13 18.04 13 14.08 13 10 C11.68 9.67 10.36 9.34 9 9 C9 7.68 9 6.36 9 5 C8.1646875 4.814375 8.1646875 4.814375 7.3125 4.625 C4.77885636 3.94023145 2.42078968 3.00866237 0 2 C0 1.34 0 0.68 0 0 Z M-13 14 C-12.34 14 -11.68 14 -11 14 C-11.66 15.98 -12.32 17.96 -13 20 C-11.22925083 20.02705729 -9.45838289 20.04642195 -7.6875 20.0625 C-6.70136719 20.07410156 -5.71523438 20.08570313 -4.69921875 20.09765625 C-1.90036151 20.12329862 -1.90036151 20.12329862 1 19 C1.73323796 16.98491642 1.73323796 16.98491642 2 15 C2 16.65 2 18.3 2 20 C1.34 20 0.68 20 0 20 C0.33 21.32 0.66 22.64 1 24 C-0.93784265 23.85879286 -2.87526955 23.71187127 -4.8125 23.5625 C-5.89144531 23.48128906 -6.97039062 23.40007812 -8.08203125 23.31640625 C-11 23 -11 23 -14 22 C-13.67 19.36 -13.34 16.72 -13 14 Z " fill="#159ABB" transform="translate(288,150)"/>
<path d="M0 0 C5.42856744 -0.3619045 5.42856744 -0.3619045 7.66723633 1.0559082 C9.65756068 3.95917855 9.47994246 6.88914961 9.51171875 10.29296875 C9.52966995 10.99899734 9.54762115 11.70502594 9.56611633 12.43244934 C9.62023178 14.68407241 9.65411722 16.93548343 9.6875 19.1875 C9.72067219 20.71552431 9.75516177 22.24352063 9.79101562 23.77148438 C9.87595825 27.51416989 9.94276248 31.25679241 10 35 C15.445 34.505 15.445 34.505 21 34 C21 23.44 21 12.88 21 2 C21.66 2.33 22.32 2.66 23 3 C23 14.22 23 25.44 23 37 C20.27457733 38.36271133 18.03912726 38.16923601 15 38.1875 C13.9275 38.20167969 12.855 38.21585938 11.75 38.23046875 C9 38 9 38 7 36 C6.75484303 33.49624532 6.62666342 31.09450521 6.5859375 28.5859375 C6.56657135 27.85629791 6.5472052 27.12665833 6.5272522 26.37490845 C6.46741578 24.04172498 6.42105577 21.70849227 6.375 19.375 C6.33682386 17.79424918 6.29777235 16.21351924 6.2578125 14.6328125 C6.16171122 10.7553777 6.07769588 6.87784551 6 3 C4.02 2.34 2.04 1.68 0 1 C0 0.67 0 0.34 0 0 Z " fill="#1F9CAF" transform="translate(204,162)"/>
<path d="M0 0 C0.78761719 0.49242187 1.57523437 0.98484375 2.38671875 1.4921875 C7.03841539 3.43332793 10.84125231 3.29810931 15.8125 3.125 C17.52724566 3.08184578 19.24209476 3.04256569 20.95703125 3.0078125 C22.08588745 2.97131592 22.08588745 2.97131592 23.23754883 2.93408203 C25 3 25 3 26 4 C26.35897436 10.46153846 26.35897436 10.46153846 24 14 C15.46415028 16.65870729 5.2881054 17.86778252 -3 14 C-0.09330538 13.14694832 2.31048873 12.92710285 5.328125 13.12109375 C6.52695312 13.19360352 6.52695312 13.19360352 7.75 13.26757812 C8.575 13.32365234 9.4 13.37972656 10.25 13.4375 C11.09046875 13.48970703 11.9309375 13.54191406 12.796875 13.59570312 C14.8649352 13.72495689 16.9325222 13.86174274 19 14 C19 13.34 19 12.68 19 12 C20.65 12 22.3 12 24 12 C24 9.36 24 6.72 24 4 C23.15695312 4.15984375 22.31390625 4.3196875 21.4453125 4.484375 C17.88334959 5.01745789 14.47538007 5.20334281 10.875 5.25 C9.67617188 5.27578125 8.47734375 5.3015625 7.2421875 5.328125 C3.79393329 4.97914506 2.39821259 4.45786962 0 2 C0 1.34 0 0.68 0 0 Z " fill="#2093A2" transform="translate(276,185)"/>
<path d="M0 0 C1.02262939 0.04543945 1.02262939 0.04543945 2.06591797 0.09179688 C19.0538615 0.82880093 35.99673719 1.13778981 53 1 C53 1.33 53 1.66 53 2 C48.23692563 2.95261487 43.8333472 3.08333357 39 3 C39 3.66 39 4.32 39 5 C37.54176788 5.0270043 36.08339325 5.04639787 34.625 5.0625 C33.81289063 5.07410156 33.00078125 5.08570313 32.1640625 5.09765625 C30 5 30 5 28 4 C26.3211382 3.79098143 24.63587213 3.63215929 22.94921875 3.5 C21.94052734 3.4175 20.93183594 3.335 19.89257812 3.25 C18.83490234 3.1675 17.77722656 3.085 16.6875 3 C14.60786196 2.83598665 12.52842438 2.66940695 10.44921875 2.5 C9.06222778 2.39171875 9.06222778 2.39171875 7.6472168 2.28125 C5.05048359 2.00536356 2.55059371 1.55366195 0 1 C0 0.67 0 0.34 0 0 Z " fill="#1791A6" transform="translate(276,254)"/>
<path d="M0 0 C4.77561987 4.77561987 4.92944877 11.57101911 5 18 C4.14035261 25.65324971 1.33046339 32.35597994 -4 38 C-6.75 39.3125 -6.75 39.3125 -9 40 C-9 39.01 -9 38.02 -9 37 C-7.68 37 -6.36 37 -5 37 C-5 35.35 -5 33.7 -5 32 C-4.01 32 -3.02 32 -2 32 C-1.87625 31.4225 -1.7525 30.845 -1.625 30.25 C-1 28 -1 28 0.02734375 26.37890625 C1.46113042 22.87217499 1.2486751 19.41274149 1.1875 15.6875 C1.18685547 14.95337891 1.18621094 14.21925781 1.18554688 13.46289062 C1.14898033 8.88394634 0.74594843 4.51746367 0 0 Z " fill="#1C8CA7" transform="translate(113,159)"/>
<path d="M0 0 C3.375 1.5 3.375 1.5 6 4 C6.94186544 7.73683197 6.43005269 10.881863 5.0625 14.4375 C1.69975484 16.98503421 -1.85027804 17.29120856 -6 17 C-9 15.5 -9 15.5 -11 13 C-12.0625 9.5625 -12.0625 9.5625 -12 6 C-8.68074991 0.73498262 -6.16615638 -0.59289965 0 0 Z M-8 4 C-8 5.32 -8 6.64 -8 8 C-8.66 8 -9.32 8 -10 8 C-9.65238897 10.5723216 -9.2228621 12.60671393 -7.9375 14.875 C-4.66992981 16.77229882 -1.63093124 15.65475809 2 15 C2 14.01 2 13.02 2 12 C2.66 12 3.32 12 4 12 C4.34307189 7.96912741 4.34307189 7.96912741 4 4 C-0.33395097 0.25171808 -3.83946024 -0.01707287 -8 4 Z " fill="#16939C" transform="translate(169,130)"/>
<path d="M0 0 C0.33 0 0.66 0 1 0 C1 21.45 1 42.9 1 65 C0.01 65.495 0.01 65.495 -1 66 C-1.99 65.34 -2.98 64.68 -4 64 C-2.02 63.505 -2.02 63.505 0 63 C0 42.21 0 21.42 0 0 Z " fill="#1A2E31" transform="translate(440,134)"/>
<path d="M0 0 C10.88522581 3.71842637 10.88522581 3.71842637 14 9 C15.69465856 14.08397567 15.87399264 19.09310696 13.625 24 C12 26 12 26 10 27 C9.67 25.35 9.34 23.7 9 22 C10.32 22 11.64 22 13 22 C13 18.04 13 14.08 13 10 C11.68 9.67 10.36 9.34 9 9 C9 7.68 9 6.36 9 5 C8.443125 4.87625 7.88625 4.7525 7.3125 4.625 C4.77885636 3.94023145 2.42078968 3.00866237 0 2 C0 1.34 0 0.68 0 0 Z " fill="#2099AA" transform="translate(288,150)"/>
<path d="M0 0 C1.67542976 0.28604898 3.34385343 0.61781233 5 1 C5 1.66 5 2.32 5 3 C3.68 2.67 2.36 2.34 1 2 C1.02356567 2.84763916 1.02356567 2.84763916 1.04760742 3.71240234 C1.10987045 6.26650023 1.14896136 8.82043871 1.1875 11.375 C1.22520508 12.70917969 1.22520508 12.70917969 1.26367188 14.0703125 C1.27817383 15.34648437 1.27817383 15.34648437 1.29296875 16.6484375 C1.31653442 17.82672119 1.31653442 17.82672119 1.34057617 19.02880859 C1.22818604 19.67930176 1.1157959 20.32979492 1 21 C-2.13411302 23.08940868 -2.97450472 23.27364412 -6.5625 23.25 C-7.74005859 23.25773437 -7.74005859 23.25773437 -8.94140625 23.265625 C-11 23 -11 23 -13 21 C-9.04 21 -5.08 21 -1 21 C-1.01740234 18.85177734 -1.01740234 18.85177734 -1.03515625 16.66015625 C-1.04453255 14.79427213 -1.05363292 12.92838661 -1.0625 11.0625 C-1.07087891 10.11697266 -1.07925781 9.17144531 -1.08789062 8.19726562 C-1.09111328 7.29814453 -1.09433594 6.39902344 -1.09765625 5.47265625 C-1.10289307 4.64000244 -1.10812988 3.80734863 -1.11352539 2.94946289 C-1 1 -1 1 0 0 Z " fill="#1C999F" transform="translate(84,196)"/>
<path d="M0 0 C0.66 0 1.32 0 2 0 C1.93941406 0.62003906 1.87882812 1.24007812 1.81640625 1.87890625 C1.05644573 9.91110438 0.51067348 17.94874357 0 26 C-3.25450049 22.74549951 -3.17268119 19.27766115 -3.25 14.8125 C-3.22094331 9.40795571 -2.06009401 4.96629807 0 0 Z " fill="#11A1BA" transform="translate(263,162)"/>
<path d="M0 0 C2.3125 -0.3125 2.3125 -0.3125 5 0 C6.9375 1.9375 6.9375 1.9375 8 5 C7.64155741 8.1521863 6.87143029 10.92706162 6 14 C2.7 14 -0.6 14 -4 14 C-4 13.67 -4 13.34 -4 13 C-1.36 13 1.28 13 4 13 C3.65555119 10.52733235 3.65555119 10.52733235 3 8 C2.34 7.67 1.68 7.34 1 7 C0.59270772 4.67843403 0.25561323 2.3431213 0 0 Z " fill="#1799B6" transform="translate(149,151)"/>
<path d="M0 0 C9.40662007 0.6027851 18.67344131 1.67132013 28 3 C28 3.66 28 4.32 28 5 C28.99 5 29.98 5 31 5 C31 5.66 31 6.32 31 7 C9.39260417 4.03751649 9.39260417 4.03751649 0 1 C0 0.67 0 0.34 0 0 Z " fill="#189DB3" transform="translate(260,270)"/>
<path d="M0 0 C0.99773437 0.02320313 1.99546875 0.04640625 3.0234375 0.0703125 C4.52777344 0.09738281 4.52777344 0.09738281 6.0625 0.125 C6.83335937 0.14820313 7.60421875 0.17140625 8.3984375 0.1953125 C8.3984375 0.5253125 8.3984375 0.8553125 8.3984375 1.1953125 C7.45871094 1.28619141 7.45871094 1.28619141 6.5 1.37890625 C5.68273437 1.46269531 4.86546875 1.54648438 4.0234375 1.6328125 C3.21132813 1.71402344 2.39921875 1.79523438 1.5625 1.87890625 C-0.64429055 2.08621364 -0.64429055 2.08621364 -2.6015625 3.1953125 C-2.9315625 15.4053125 -3.2615625 27.6153125 -3.6015625 40.1953125 C-3.9315625 40.1953125 -4.2615625 40.1953125 -4.6015625 40.1953125 C-4.65091759 34.82016345 -4.68726052 29.44514565 -4.71142578 24.06982422 C-4.72149734 22.24037377 -4.73515526 20.41093947 -4.75244141 18.58154297 C-4.77663927 15.95536316 -4.78803382 13.32939575 -4.796875 10.703125 C-4.80719757 9.88224396 -4.81752014 9.06136292 -4.82815552 8.21560669 C-4.82855434 6.20742108 -4.7240579 4.19975868 -4.6015625 2.1953125 C-2.6015625 0.1953125 -2.6015625 0.1953125 0 0 Z " fill="#285A59" transform="translate(377.6015625,150.8046875)"/>
<path d="M0 0 C0.33 0 0.66 0 1 0 C1.02505615 0.86802246 1.0501123 1.73604492 1.07592773 2.63037109 C1.17099484 5.84713163 1.27023203 9.06372849 1.37231445 12.28027344 C1.41565846 13.6731259 1.45733396 15.06603131 1.49731445 16.45898438 C1.55502932 18.45976651 1.61921869 20.46035859 1.68359375 22.4609375 C1.72025146 23.66540527 1.75690918 24.86987305 1.79467773 26.11083984 C1.81052987 28.93996367 1.81052987 28.93996367 3 31 C5.58605332 31.4683265 5.58605332 31.4683265 8.5625 31.625 C9.57441406 31.69976562 10.58632812 31.77453125 11.62890625 31.8515625 C12.80259766 31.92503906 12.80259766 31.92503906 14 32 C12 34 12 34 9.6875 34.23046875 C8.800625 34.21628906 7.91375 34.20210937 7 34.1875 C5.6696875 34.17783203 5.6696875 34.17783203 4.3125 34.16796875 C2 34 2 34 0 33 C0 22.11 0 11.22 0 0 Z " fill="#18A0AF" transform="translate(240,166)"/>
<path d="M0 0 C0.66 0.99 1.32 1.98 2 3 C-1.40301755 3.78653402 -4.37991044 4.08116649 -7.86328125 3.87890625 C-8.74951172 3.83056641 -9.63574219 3.78222656 -10.54882812 3.73242188 C-11.46083984 3.67634766 -12.37285156 3.62027344 -13.3125 3.5625 C-14.70952148 3.48418945 -14.70952148 3.48418945 -16.13476562 3.40429688 C-18.42356353 3.2751852 -20.71186186 3.14024585 -23 3 C-16.81045192 -1.12636538 -7.16579696 -2.07011912 0 0 Z " fill="#139BBC" transform="translate(418,218)"/>
<path d="M0 0 C2 2 2 2 2.1953125 5.0390625 C2.17210938 6.22242188 2.14890625 7.40578125 2.125 8.625 C2.10695313 9.81351563 2.08890625 11.00203125 2.0703125 12.2265625 C2.04710938 13.14179688 2.02390625 14.05703125 2 15 C1.34 15 0.68 15 0 15 C-0.33 16.98 -0.66 18.96 -1 21 C-2.32 21 -3.64 21 -5 21 C-5 21.66 -5 22.32 -5 23 C-7.97 22.67 -10.94 22.34 -14 22 C-14 21.34 -14 20.68 -14 20 C-10.37 20 -6.74 20 -3 20 C-0.27705856 13.07919052 0.3740351 7.41143629 0 0 Z " fill="#1B9AB6" transform="translate(101,168)"/>
<path d="M0 0 C0.9590625 -0.02835938 1.918125 -0.05671875 2.90625 -0.0859375 C5.5 0.375 5.5 0.375 7.40625 2.2109375 C7.7671875 2.92507812 8.128125 3.63921875 8.5 4.375 C8.17 5.365 7.84 6.355 7.5 7.375 C6.943125 6.4159375 6.943125 6.4159375 6.375 5.4375 C4.60751706 3.1396516 4.60751706 3.1396516 1.625 2.5 C-1.91284199 2.14554026 -1.91284199 2.14554026 -6.5 4.375 C-6.83 11.305 -7.16 18.235 -7.5 25.375 C-7.83 25.375 -8.16 25.375 -8.5 25.375 C-8.5867982 21.58347666 -8.64032207 17.79220704 -8.6875 14 C-8.71263672 12.91976562 -8.73777344 11.83953125 -8.76367188 10.7265625 C-8.77333984 9.6953125 -8.78300781 8.6640625 -8.79296875 7.6015625 C-8.81653442 6.17191162 -8.81653442 6.17191162 -8.84057617 4.71337891 C-8.72818604 3.94171387 -8.6157959 3.17004883 -8.5 2.375 C-5.18400876 0.16433917 -3.88725511 0.05224805 0 0 Z " fill="#25929D" transform="translate(92.5,160.625)"/>
<path d="M0 0 C0.99 0.2165625 0.99 0.2165625 2 0.4375 C5.65599551 1.12299916 9.30622195 1.56175515 13 2 C13 2.66 13 3.32 13 4 C14.07121094 4.40992188 15.14242187 4.81984375 16.24609375 5.2421875 C17.64337101 5.78609408 19.04049877 6.33038483 20.4375 6.875 C21.14455078 7.14441406 21.85160156 7.41382813 22.58007812 7.69140625 C27.88671875 9.7734375 27.88671875 9.7734375 29 12 C19.13023331 9.70376857 7.94110182 6.55579904 0 0 Z " fill="#1795AD" transform="translate(228,258)"/>
<path d="M0 0 C2.8203125 -0.29296875 2.8203125 -0.29296875 6.125 -0.1875 C7.76855469 -0.14689453 7.76855469 -0.14689453 9.4453125 -0.10546875 C10.28835938 -0.07066406 11.13140625 -0.03585938 12 0 C12 0.66 12 1.32 12 2 C6.06 2.495 6.06 2.495 0 3 C0.01160156 3.95261719 0.02320313 4.90523437 0.03515625 5.88671875 C0.04417969 7.14097656 0.05320312 8.39523438 0.0625 9.6875 C0.07410156 10.92886719 0.08570313 12.17023438 0.09765625 13.44921875 C0.01478673 16.46235454 -0.29160551 19.08275339 -1 22 C-1.33 22 -1.66 22 -2 22 C-2.05807043 18.89591193 -2.09361914 15.7919636 -2.125 12.6875 C-2.14175781 11.80642578 -2.15851563 10.92535156 -2.17578125 10.01757812 C-2.18222656 9.17001953 -2.18867188 8.32246094 -2.1953125 7.44921875 C-2.20578613 6.66893311 -2.21625977 5.88864746 -2.22705078 5.0847168 C-2 3 -2 3 0 0 Z " fill="#25403B" transform="translate(428,131)"/>
<path d="M0 0 C0.99 0 1.98 0 3 0 C2.67 0.99 2.34 1.98 2 3 C-2.22907041 3.79733605 -6.25981808 4.16210046 -10.5625 4.1875 C-11.65691406 4.20167969 -12.75132812 4.21585938 -13.87890625 4.23046875 C-16.99939486 4.00004469 -19.1866095 3.32548938 -22 2 C-19.09330538 1.14694832 -16.68951127 0.92710285 -13.671875 1.12109375 C-12.47304688 1.19360352 -12.47304688 1.19360352 -11.25 1.26757812 C-10.425 1.32365234 -9.6 1.37972656 -8.75 1.4375 C-7.90953125 1.48970703 -7.0690625 1.54191406 -6.203125 1.59570312 C-4.1350648 1.72495689 -2.0674778 1.86174274 0 2 C0 1.34 0 0.68 0 0 Z " fill="#1EA1BD" transform="translate(295,197)"/>
<path d="M0 0 C0.66 0.33 1.32 0.66 2 1 C2 1.66 2 2.32 2 3 C0.7625 3.28875 -0.475 3.5775 -1.75 3.875 C-4.72448742 4.61334794 -7.333856 5.44474933 -10 7 C-10.33 6.01 -10.66 5.02 -11 4 C-14.3 3.67 -17.6 3.34 -21 3 C-20.67 2.34 -20.34 1.68 -20 1 C-12.54530341 0.74729842 -12.54530341 0.74729842 -9.4375 2.1875 C-5.70932509 3.43022497 -3.42653721 1.61629114 0 0 Z " fill="#1C99A5" transform="translate(92,150)"/>
<path d="M0 0 C1.65 0 3.3 0 5 0 C0.78910208 4.77235098 -4.23146586 8.28419455 -10 11 C-10.66 10.67 -11.32 10.34 -12 10 C-11.01 9.67 -10.02 9.34 -9 9 C-9 8.01 -9 7.02 -9 6 C-7.68 6 -6.36 6 -5 6 C-5 5.34 -5 4.68 -5 4 C-3.68 4 -2.36 4 -1 4 C-0.67 2.68 -0.34 1.36 0 0 Z " fill="#1898B7" transform="translate(401,245)"/>
<path d="M0 0 C1.51400391 0.01740234 1.51400391 0.01740234 3.05859375 0.03515625 C4.07050781 0.04417969 5.08242188 0.05320313 6.125 0.0625 C7.29869141 0.07990234 7.29869141 0.07990234 8.49609375 0.09765625 C8.49609375 0.42765625 8.49609375 0.75765625 8.49609375 1.09765625 C5.19609375 1.09765625 1.89609375 1.09765625 -1.50390625 1.09765625 C-1.17390625 1.94328125 -0.84390625 2.78890625 -0.50390625 3.66015625 C0.55715329 7.30754841 0.64718388 10.32040289 0.49609375 14.09765625 C-2.59990911 9.45365197 -3.88447548 6.80619477 -3.50390625 1.09765625 C-2.50390625 0.09765625 -2.50390625 0.09765625 0 0 Z " fill="#253F3A" transform="translate(325.50390625,150.90234375)"/>
<path d="M0 0 C0 0.99 0 1.98 0 3 C-2.61692474 5.61692474 -9.08314289 4.97794028 -12.59765625 5.0625 C-14.73187252 5.0625 -16.86605254 5.03387218 -19 5 C-19 4.67 -19 4.34 -19 4 C-12.73 2.68 -6.46 1.36 0 0 Z " fill="#1896AE" transform="translate(362,249)"/>
<path d="M0 0 C0.33 0 0.66 0 1 0 C1.34654672 6.35335655 0.30144326 11.09483339 -2 17 C-2.5878125 18.5159375 -2.5878125 18.5159375 -3.1875 20.0625 C-3.455625 20.701875 -3.72375 21.34125 -4 22 C-5.0354051 18.8151065 -4.94040666 16.86968126 -4.00390625 13.671875 C-3.66069336 12.47304687 -3.66069336 12.47304687 -3.31054688 11.25 C-3.06369141 10.425 -2.81683594 9.6 -2.5625 8.75 C-2.31951172 7.90953125 -2.07652344 7.0690625 -1.82617188 6.203125 C-1.22626051 4.13284266 -0.61429181 2.06606103 0 0 Z " fill="#149FBF" transform="translate(418,232)"/>
<path d="M0 0 C0.33 0.99 0.66 1.98 1 3 C-0.093125 3.309375 -1.18625 3.61875 -2.3125 3.9375 C-4.55407994 4.58337897 -6.7869351 5.2623117 -9 6 C-9.33 7.98 -9.66 9.96 -10 12 C-10.33 12 -10.66 12 -11 12 C-11.35671933 8.16526716 -11.29771416 6.44657125 -9.125 3.1875 C-6.01246274 -0.01658248 -4.3473048 -0.11440276 0 0 Z " fill="#283F3F" transform="translate(383,130)"/>
<path d="M0 0 C0.66 0 1.32 0 2 0 C2.3539823 7.07964602 2.3539823 7.07964602 1.0625 10.4375 C-2.23852063 12.9382732 -5.95553986 12.83042096 -10 13 C-6.91190305 11.23537317 -5.76687864 11 -2 11 C-2 10.01 -2 9.02 -2 8 C-1.34 8 -0.68 8 0 8 C0 5.36 0 2.72 0 0 Z " fill="#2292A6" transform="translate(173,134)"/>
<path d="M0 0 C-2.28929053 1.17154293 -4.58118362 2.33738074 -6.875 3.5 C-7.52597656 3.83386719 -8.17695313 4.16773438 -8.84765625 4.51171875 C-13.7734375 7 -13.7734375 7 -16 7 C-16 6.34 -16 5.68 -16 5 C-14.5459375 4.5978125 -14.5459375 4.5978125 -13.0625 4.1875 C-11.5465625 3.5996875 -11.5465625 3.5996875 -10 3 C-9.67 2.01 -9.34 1.02 -9 0 C-2.25 -1.125 -2.25 -1.125 0 0 Z " fill="#1B92AE" transform="translate(389,257)"/>
<path d="M0 0 C0 0.66 0 1.32 0 2 C-0.66 2 -1.32 2 -2 2 C-2.33 2.99 -2.66 3.98 -3 5 C-5.31 5.33 -7.62 5.66 -10 6 C-10.66 4.35 -11.32 2.7 -12 1 C-10.515 1.99 -10.515 1.99 -9 3 C-1.22727273 0 -1.22727273 0 0 0 Z " fill="#179DB8" transform="translate(206,151)"/>
<path d="M0 0 C0.79921875 0.00902344 1.5984375 0.01804688 2.421875 0.02734375 C3.02515625 0.03894531 3.6284375 0.05054688 4.25 0.0625 C4.25 1.0525 4.25 2.0425 4.25 3.0625 C2.4246875 3.0315625 2.4246875 3.0315625 0.5625 3 C-2.66977322 2.99425884 -5.59934741 3.27483685 -8.75 4.0625 C-8.75 3.0725 -8.75 2.0825 -8.75 1.0625 C-5.75519083 0.1901588 -3.11424089 -0.04579766 0 0 Z " fill="#11A2C4" transform="translate(234.75,160.9375)"/>
<path d="M0 0 C7.10993658 0.1205074 7.10993658 0.1205074 9.64453125 2.625 C10.85528923 4.35565118 11.93782395 6.17438492 13 8 C10.03216871 6.54331217 7.13584687 4.98767914 4.25 3.375 C3.45078125 2.92898437 2.6515625 2.48296875 1.828125 2.0234375 C1.22484375 1.68570313 0.6215625 1.34796875 0 1 C0 0.67 0 0.34 0 0 Z " fill="#1A9AB3" transform="translate(215,250)"/>
<path d="M0 0 C0.33 1.32 0.66 2.64 1 4 C4.63 4 8.26 4 12 4 C12 4.33 12 4.66 12 5 C7.9472484 5.98248524 4.16138263 6.08159574 0 6 C-0.38218767 4.34385343 -0.71395102 2.67542976 -1 1 C-0.67 0.67 -0.34 0.34 0 0 Z " fill="#238A9B" transform="translate(384,226)"/>
<path d="M0 0 C0.99 0.33 1.98 0.66 3 1 C3 3.97 3 6.94 3 10 C2.01 10 1.02 10 0 10 C0.04125 9.05125 0.0825 8.1025 0.125 7.125 C0.34973818 3.89755144 0.34973818 3.89755144 -2 2 C-1.34 2 -0.68 2 0 2 C0 1.34 0 0.68 0 0 Z " fill="#283C39" transform="translate(486,187)"/>
<path d="M0 0 C0.33 0 0.66 0 1 0 C1 1.65 1 3.3 1 5 C-1.64 5.33 -4.28 5.66 -7 6 C-7.66 5.01 -8.32 4.02 -9 3 C-7.35 2.67 -5.7 2.34 -4 2 C-4 2.66 -4 3.32 -4 4 C-3.01 4 -2.02 4 -1 4 C-0.67 2.68 -0.34 1.36 0 0 Z " fill="#09A4D5" transform="translate(170,140)"/>
<path d="M0 0 C5.75 0.75 5.75 0.75 8 3 C5.69 2.67 3.38 2.34 1 2 C1.66 3.98 2.32 5.96 3 8 C1.68 7.01 0.36 6.02 -1 5 C-0.67 3.35 -0.34 1.7 0 0 Z " fill="#2393A5" transform="translate(185,221)"/>
<path d="M0 0 C5.4 0.48 5.4 0.48 7.875 2.625 C9.39365855 5.83105694 9.20189694 8.50045311 9 12 C7.23537317 8.91190305 7 7.76687864 7 4 C6.030625 3.71125 5.06125 3.4225 4.0625 3.125 C1 2 1 2 0 0 Z " fill="#269892" transform="translate(422,219)"/>
<path d="M0 0 C0.33 0 0.66 0 1 0 C1.33 2.31 1.66 4.62 2 7 C3.32 7.33 4.64 7.66 6 8 C4.02 8.99 4.02 8.99 2 10 C0.4375 8.9375 0.4375 8.9375 -1 7 C-0.6875 3.3125 -0.6875 3.3125 0 0 Z " fill="#18ADC6" transform="translate(159,190)"/>
<path d="M0 0 C0.66 0 1.32 0 2 0 C2.33 3.96 2.66 7.92 3 12 C2.01 12 1.02 12 0 12 C0 8.04 0 4.08 0 0 Z " fill="#2E4343" transform="translate(448,170)"/>
<path d="M0 0 C0.33 0 0.66 0 1 0 C1.10815225 1.76949095 1.18566083 3.54087487 1.25 5.3125 C1.29640625 6.29863281 1.3428125 7.28476563 1.390625 8.30078125 C1 11 1 11 -1.015625 12.85546875 C-1.67046875 13.23316406 -2.3253125 13.61085937 -3 14 C-3.33 12.35 -3.66 10.7 -4 9 C-2.68 9 -1.36 9 0 9 C0 6.03 0 3.06 0 0 Z " fill="#1AA0BE" transform="translate(301,163)"/>
<path d="M0 0 C0.33 0 0.66 0 1 0 C1 1.98 1 3.96 1 6 C2.65 5.67 4.3 5.34 6 5 C4.75 6.5 4.75 6.5 3 8 C1.68 8 0.36 8 -1 8 C-0.67 5.36 -0.34 2.72 0 0 Z " fill="#1F95A9" transform="translate(410,260)"/>
<path d="M0 0 C-0.33 1.32 -0.66 2.64 -1 4 C-3.31 3.34 -5.62 2.68 -8 2 C-7 0 -7 0 -5.125 -0.6875 C-3 -1 -3 -1 0 0 Z " fill="#1D2E2F" transform="translate(418,198)"/>
<path d="M0 0 C0.99 0 1.98 0 3 0 C2.45773019 3.79588866 0.79872437 5.47211993 -2 8 C-2.66 7.67 -3.32 7.34 -4 7 C-4 6.34 -4 5.68 -4 5 C-2.68 5 -1.36 5 0 5 C0 3.35 0 1.7 0 0 Z " fill="#179DBD" transform="translate(108,191)"/>
<path d="M0 0 C1.21816406 0.03480469 1.21816406 0.03480469 2.4609375 0.0703125 C3.68683594 0.09738281 3.68683594 0.09738281 4.9375 0.125 C5.87722656 0.15980469 5.87722656 0.15980469 6.8359375 0.1953125 C7.1659375 1.1853125 7.4959375 2.1753125 7.8359375 3.1953125 C3.8759375 2.8653125 -0.0840625 2.5353125 -4.1640625 2.1953125 C-2.1640625 0.1953125 -2.1640625 0.1953125 0 0 Z " fill="#14ACC2" transform="translate(239.1640625,149.8046875)"/>
<path d="M0 0 C0.33 0.99 0.66 1.98 1 3 C0.34 3 -0.32 3 -1 3 C-1 3.66 -1 4.32 -1 5 C-2.65 5.33 -4.3 5.66 -6 6 C-2.25 1.125 -2.25 1.125 0 0 Z " fill="#243D38" transform="translate(406,152)"/>
<path d="M0 0 C-0.66 1.98 -1.32 3.96 -2 6 C-2.66 5.67 -3.32 5.34 -4 5 C-4 3.68 -4 2.36 -4 1 C-2 0 -2 0 0 0 Z " fill="#139EBE" transform="translate(390,223)"/>
<path d="M0 0 C0.66 0 1.32 0 2 0 C2.33 0.99 2.66 1.98 3 3 C5.00016466 4.20882096 5.00016466 4.20882096 7 5 C5.1875 5.6875 5.1875 5.6875 3 6 C1.25 4.75 1.25 4.75 0 3 C0 2.01 0 1.02 0 0 Z " fill="#344340" transform="translate(337,194)"/>
<path d="M0 0 C0.99 0.33 1.98 0.66 3 1 C3 4.63 3 8.26 3 12 C2.67 12 2.34 12 2 12 C2 9.03 2 6.06 2 3 C1.34 3 0.68 3 0 3 C0 2.01 0 1.02 0 0 Z " fill="#1A2F2F" transform="translate(539,165)"/>
<path d="M0 0 C0.66 0 1.32 0 2 0 C1.67 1.65 1.34 3.3 1 5 C0.34 5 -0.32 5 -1 5 C-1.33 6.32 -1.66 7.64 -2 9 C-1.125 2.25 -1.125 2.25 0 0 Z " fill="#21A4AD" transform="translate(263,162)"/>
<path d="M0 0 C0.33 0 0.66 0 1 0 C2.125 5.75 2.125 5.75 1 8 C-0.32 7.67 -1.64 7.34 -3 7 C-2.01 4.69 -1.02 2.38 0 0 Z " fill="#1B2D2D" transform="translate(387,137)"/>
<path d="" fill="#000000" transform="translate(0,0)"/>
<path d="" fill="#000000" transform="translate(0,0)"/>
<path d="" fill="#000000" transform="translate(0,0)"/>
<path d="" fill="#000000" transform="translate(0,0)"/>
<path d="" fill="#000000" transform="translate(0,0)"/>
<path d="" fill="#000000" transform="translate(0,0)"/>
<path d="" fill="#000000" transform="translate(0,0)"/>
<path d="" fill="#000000" transform="translate(0,0)"/>
<path d="" fill="#000000" transform="translate(0,0)"/>
<path d="" fill="#000000" transform="translate(0,0)"/>
<path d="" fill="#000000" transform="translate(0,0)"/>
<path d="" fill="#000000" transform="translate(0,0)"/>
<path d="" fill="#000000" transform="translate(0,0)"/>
<path d="" fill="#000000" transform="translate(0,0)"/>
<path d="" fill="#000000" transform="translate(0,0)"/>
<path d="" fill="#000000" transform="translate(0,0)"/>
<path d="" fill="#000000" transform="translate(0,0)"/>
<path d="" fill="#000000" transform="translate(0,0)"/>
<path d="" fill="#000000" transform="translate(0,0)"/>
<path d="" fill="#000000" transform="translate(0,0)"/>
<path d="" fill="#000000" transform="translate(0,0)"/>
<path d="" fill="#000000" transform="translate(0,0)"/>
<path d="" fill="#000000" transform="translate(0,0)"/>
<path d="" fill="#000000" transform="translate(0,0)"/>
<path d="" fill="#000000" transform="translate(0,0)"/>
<path d="" fill="#000000" transform="translate(0,0)"/>
<path d="" fill="#000000" transform="translate(0,0)"/>
<path d="" fill="#000000" transform="translate(0,0)"/>
<path d="" fill="#000000" transform="translate(0,0)"/>
<path d="" fill="#000000" transform="translate(0,0)"/>
<path d="" fill="#000000" transform="translate(0,0)"/>
<path d="" fill="#000000" transform="translate(0,0)"/>
<path d="" fill="#000000" transform="translate(0,0)"/>
<path d="" fill="#000000" transform="translate(0,0)"/>
<path d="" fill="#000000" transform="translate(0,0)"/>
<path d="" fill="#000000" transform="translate(0,0)"/>
<path d="" fill="#000000" transform="translate(0,0)"/>
<path d="" fill="#000000" transform="translate(0,0)"/>
<path d="" fill="#000000" transform="translate(0,0)"/>
<path d="" fill="#000000" transform="translate(0,0)"/>
<path d="" fill="#000000" transform="translate(0,0)"/>
<path d="" fill="#000000" transform="translate(0,0)"/>
<path d="" fill="#000000" transform="translate(0,0)"/>
<path d="" fill="#000000" transform="translate(0,0)"/>
<path d="" fill="#000000" transform="translate(0,0)"/>
<path d="" fill="#000000" transform="translate(0,0)"/>
<path d="" fill="#000000" transform="translate(0,0)"/>
<path d="" fill="#000000" transform="translate(0,0)"/>
<path d="" fill="#000000" transform="translate(0,0)"/>
<path d="" fill="#000000" transform="translate(0,0)"/>
<path d="" fill="#000000" transform="translate(0,0)"/>
<path d="" fill="#000000" transform="translate(0,0)"/>
<path d="" fill="#000000" transform="translate(0,0)"/>
<path d="" fill="#000000" transform="translate(0,0)"/>
<path d="" fill="#000000" transform="translate(0,0)"/>
<path d="" fill="#000000" transform="translate(0,0)"/>
<path d="" fill="#000000" transform="translate(0,0)"/>
<path d="" fill="#000000" transform="translate(0,0)"/>
<path d="" fill="#000000" transform="translate(0,0)"/>
<path d="" fill="#000000" transform="translate(0,0)"/>
<path d="" fill="#000000" transform="translate(0,0)"/>
<path d="" fill="#000000" transform="translate(0,0)"/>
<path d="" fill="#000000" transform="translate(0,0)"/>
<path d="" fill="#000000" transform="translate(0,0)"/>
<path d="" fill="#000000" transform="translate(0,0)"/>
<path d="" fill="#000000" transform="translate(0,0)"/>
<path d="" fill="#000000" transform="translate(0,0)"/>
<path d="" fill="#000000" transform="translate(0,0)"/>
<path d="" fill="#000000" transform="translate(0,0)"/>
<path d="" fill="#000000" transform="translate(0,0)"/>
<path d="" fill="#000000" transform="translate(0,0)"/>
<path d="" fill="#000000" transform="translate(0,0)"/>
<path d="" fill="#000000" transform="translate(0,0)"/>
<path d="" fill="#000000" transform="translate(0,0)"/>
<path d="" fill="#000000" transform="translate(0,0)"/>
<path d="" fill="#000000" transform="translate(0,0)"/>
<path d="" fill="#000000" transform="translate(0,0)"/>
</svg>
