<?xml version="1.0" encoding="UTF-8"?>
<svg version="1.1" xmlns="http://www.w3.org/2000/svg" width="300" height="168">
<path d="M0 0 C0 1.98 0 3.96 0 6 C-1.86591797 6.25523437 -1.86591797 6.25523437 -3.76953125 6.515625 C-12.90618369 7.82531893 -21.48914462 9.23227301 -30 13 C-29.34 13.99 -28.68 14.98 -28 16 C-27.05898437 15.72285156 -26.11796875 15.44570313 -25.1484375 15.16015625 C-23.28058594 14.61681641 -23.28058594 14.61681641 -21.375 14.0625 C-20.14523438 13.70285156 -18.91546875 13.34320313 -17.6484375 12.97265625 C0.85284026 8.04030276 19.10441102 11.55220551 36 20 C35.34 21.98 34.68 23.96 34 26 C31.15389728 25.07693966 28.32951895 24.12762321 25.5390625 23.046875 C9.05091339 16.71618165 -8.76782648 15.56579225 -25.265625 22.76953125 C-32.23831959 26.03728377 -38.51277996 29.51277996 -44 35 C-43.67 35.66 -43.34 36.32 -43 37 C-39.33137483 35.69345454 -36.66826711 34.09541837 -33.625 31.6875 C-23.93427853 24.71774687 -11.81619485 21.84908729 0 21.875 C1.175625 21.87242188 2.35125 21.86984375 3.5625 21.8671875 C6.79725504 21.99216667 9.82468717 22.3901076 13 23 C13 24.65 13 26.3 13 28 C14.03898437 28.4125 15.07796875 28.825 16.1484375 29.25 C24.79891308 32.78850046 32.16284882 36.45514339 39 43 C39.63164062 43.59167969 40.26328125 44.18335938 40.9140625 44.79296875 C47.1946073 51.28102054 51.81965973 60.2786389 54 69 C47.73 69 41.46 69 35 69 C35 77.91 35 86.82 35 96 C41.27 96 47.54 96 54 96 C50.04266284 111.82934864 41.68444197 123.0221728 27.8125 131.4609375 C18.45536831 136.58136789 10.36109077 138.17017598 -0.1875 138.125 C-1.55938477 138.13080078 -1.55938477 138.13080078 -2.95898438 138.13671875 C-3.83232422 138.13542969 -4.70566406 138.13414062 -5.60546875 138.1328125 C-6.40106201 138.13168457 -7.19665527 138.13055664 -8.01635742 138.12939453 C-10 138 -10 138 -12 137 C-12 138.65 -12 140.3 -12 142 C8.73769014 142.73238243 24.39780352 140.69005713 41 127 C42.9375 127.8125 42.9375 127.8125 45 129 C45.33 129.99 45.66 130.98 46 132 C27.95193276 145.99791042 11.59977178 150.53151076 -11 149 C-19.28619812 147.87125707 -26.55447546 144.70810572 -34 141 C-33.97124928 143.42947821 -33.97124928 143.42947821 -33 146 C-30.33557948 147.64288984 -30.33557948 147.64288984 -27 148.6875 C-25.906875 149.08324219 -24.81375 149.47898438 -23.6875 149.88671875 C-15.82478609 152.26052539 -8.60174313 153.38732308 -0.375 153.375 C1.05936401 153.37584595 1.05936401 153.37584595 2.52270508 153.37670898 C10.86916518 153.24860346 18.12579086 151.73455799 26 149 C26.99 148.67 27.98 148.34 29 148 C31 151 31 151 31.015625 153.05078125 C30 155 30 155 27.234375 156.23046875 C25.50960937 156.70419922 25.50960937 156.70419922 23.75 157.1875 C22.04070312 157.67283203 22.04070312 157.67283203 20.296875 158.16796875 C15.26887738 159.43688284 10.89155438 160.11968741 5.6875 160.0625 C4.61886719 160.05347656 3.55023438 160.04445312 2.44921875 160.03515625 C1.64097656 160.02355469 0.83273438 160.01195312 0 160 C0.33 160.99 0.66 161.98 1 163 C0.67 163.99 0.34 164.98 0 166 C-20.26343579 167.06649662 -40.09743733 158.81160492 -55.1875 145.625 C-56.808634 144.10118526 -58.41358648 142.55992915 -60 141 C-61.04994141 139.96939453 -61.04994141 139.96939453 -62.12109375 138.91796875 C-78.66635713 121.53415401 -83.677855 99.44238979 -83.31640625 76.1640625 C-83.04305747 68.63610573 -81.61972074 62.0896733 -79 55 C-78.66097656 53.98421875 -78.32195312 52.9684375 -77.97265625 51.921875 C-70.6847624 32.1071031 -54.21466955 16.05660086 -35.30078125 7.21484375 C-24.13457885 2.31556651 -12.2442756 -0.64443556 0 0 Z M-23 69 C-23 70.65 -23 72.3 -23 74 C-16.07 74.495 -16.07 74.495 -9 75 C-10.546875 76.69125 -12.09375 78.3825 -13.6875 80.125 C-14.60659236 81.1383049 -15.52479932 82.15241504 -16.44140625 83.16796875 C-17.87984976 84.76013905 -19.32207557 86.34897419 -20.77734375 87.92578125 C-23.49170198 90.97058309 -24 91.71376096 -24 96 C-16.41 96 -8.82 96 -1 96 C-1 94.68 -1 93.36 -1 92 C-5.95 92 -10.9 92 -16 92 C-14.63875 90.329375 -13.2775 88.65875 -11.875 86.9375 C-10.65103516 85.43123047 -10.65103516 85.43123047 -9.40234375 83.89453125 C-7.47142775 81.56801295 -5.48850543 79.34323369 -3.4375 77.125 C-0.4874735 74.0034497 -0.4874735 74.0034497 -1 69 C-8.26 69 -15.52 69 -23 69 Z M6 69 C6 77.91 6 86.82 6 96 C12.93 96 19.86 96 27 96 C27 94.68 27 93.36 27 92 C22.05 92 17.1 92 12 92 C12 89.69 12 87.38 12 85 C16.95 85 21.9 85 27 85 C27 83.35 27 81.7 27 80 C22.05 80 17.1 80 12 80 C12 78.02 12 76.04 12 74 C16.95 74 21.9 74 27 74 C27 72.35 27 70.7 27 69 C20.07 69 13.14 69 6 69 Z " fill="#010001" transform="translate(150,1)"/>
<path d="M0 0 C0 1.98 0 3.96 0 6 C-1.86591797 6.25523437 -1.86591797 6.25523437 -3.76953125 6.515625 C-12.90618369 7.82531893 -21.48914462 9.23227301 -30 13 C-29.34 13.99 -28.68 14.98 -28 16 C-27.05898437 15.72285156 -26.11796875 15.44570313 -25.1484375 15.16015625 C-23.28058594 14.61681641 -23.28058594 14.61681641 -21.375 14.0625 C-20.14523438 13.70285156 -18.91546875 13.34320313 -17.6484375 12.97265625 C0.85284026 8.04030276 19.10441102 11.55220551 36 20 C35.34 21.98 34.68 23.96 34 26 C31.15389728 25.07693966 28.32951895 24.12762321 25.5390625 23.046875 C9.05091339 16.71618165 -8.76782648 15.56579225 -25.265625 22.76953125 C-32.23831959 26.03728377 -38.51277996 29.51277996 -44 35 C-43.67 35.66 -43.34 36.32 -43 37 C-39.33137483 35.69345454 -36.66826711 34.09541837 -33.625 31.6875 C-23.93427853 24.71774687 -11.81619485 21.84908729 0 21.875 C1.175625 21.87242188 2.35125 21.86984375 3.5625 21.8671875 C6.79725504 21.99216667 9.82468717 22.3901076 13 23 C13.042721 24.66611905 13.04063832 26.33382885 13 28 C12.505 28.495 12.505 28.495 12 29 C9.83693444 28.97664993 7.67373207 28.94686564 5.51147461 28.88330078 C-10.49226893 28.46348299 -22.8566381 32.03886929 -36.1875 41.1875 C-48.00145448 53.00145448 -54.08968045 66.23734483 -54.375 82.75 C-54.3499361 97.10572011 -49.31230052 111.68769948 -39 122 C-30.69215567 128.87073782 -21.93233164 133.0484272 -12 137 C-12 138.65 -12 140.3 -12 142 C8.73769014 142.73238243 24.39780352 140.69005713 41 127 C42.9375 127.8125 42.9375 127.8125 45 129 C45.33 129.99 45.66 130.98 46 132 C27.95193276 145.99791042 11.59977178 150.53151076 -11 149 C-19.28619812 147.87125707 -26.55447546 144.70810572 -34 141 C-33.97124928 143.42947821 -33.97124928 143.42947821 -33 146 C-30.33557948 147.64288984 -30.33557948 147.64288984 -27 148.6875 C-25.906875 149.08324219 -24.81375 149.47898438 -23.6875 149.88671875 C-15.82478609 152.26052539 -8.60174313 153.38732308 -0.375 153.375 C1.05936401 153.37584595 1.05936401 153.37584595 2.52270508 153.37670898 C10.86916518 153.24860346 18.12579086 151.73455799 26 149 C26.99 148.67 27.98 148.34 29 148 C31 151 31 151 31.015625 153.05078125 C30 155 30 155 27.234375 156.23046875 C25.50960937 156.70419922 25.50960937 156.70419922 23.75 157.1875 C22.04070312 157.67283203 22.04070312 157.67283203 20.296875 158.16796875 C15.26887738 159.43688284 10.89155438 160.11968741 5.6875 160.0625 C4.61886719 160.05347656 3.55023438 160.04445312 2.44921875 160.03515625 C1.64097656 160.02355469 0.83273438 160.01195312 0 160 C0.33 160.99 0.66 161.98 1 163 C0.67 163.99 0.34 164.98 0 166 C-20.26343579 167.06649662 -40.09743733 158.81160492 -55.1875 145.625 C-56.808634 144.10118526 -58.41358648 142.55992915 -60 141 C-61.04994141 139.96939453 -61.04994141 139.96939453 -62.12109375 138.91796875 C-78.66635713 121.53415401 -83.677855 99.44238979 -83.31640625 76.1640625 C-83.04305747 68.63610573 -81.61972074 62.0896733 -79 55 C-78.66097656 53.98421875 -78.32195312 52.9684375 -77.97265625 51.921875 C-70.6847624 32.1071031 -54.21466955 16.05660086 -35.30078125 7.21484375 C-24.13457885 2.31556651 -12.2442756 -0.64443556 0 0 Z " fill="#F46213" transform="translate(150,1)"/>
<path d="M0 0 C0 1.98 0 3.96 0 6 C-1.86591797 6.25523437 -1.86591797 6.25523437 -3.76953125 6.515625 C-12.90618369 7.82531893 -21.48914462 9.23227301 -30 13 C-29.505 15.475 -29.505 15.475 -29 18 C-29.60585937 18.268125 -30.21171875 18.53625 -30.8359375 18.8125 C-37.7074032 22.02623165 -43.30599149 26.00812429 -49 31 C-49.9590625 31.83337891 -49.9590625 31.83337891 -50.9375 32.68359375 C-56.02637116 37.4203332 -59.50804287 43.0287533 -63 49 C-63.391875 49.63421875 -63.78375 50.2684375 -64.1875 50.921875 C-72.62767988 65.8240676 -73.39162072 85.80295932 -68.97265625 102.01953125 C-63.27447771 119.48021489 -53.56142328 135.04305151 -37 144 C-17.61346727 153.47217145 2.35994882 156.44001588 23.19921875 149.97265625 C24.58560547 149.49119141 24.58560547 149.49119141 26 149 C26.99 148.67 27.98 148.34 29 148 C31 151 31 151 31.015625 153.05078125 C30 155 30 155 27.234375 156.23046875 C25.50960937 156.70419922 25.50960937 156.70419922 23.75 157.1875 C22.04070312 157.67283203 22.04070312 157.67283203 20.296875 158.16796875 C15.26887738 159.43688284 10.89155438 160.11968741 5.6875 160.0625 C4.61886719 160.05347656 3.55023438 160.04445312 2.44921875 160.03515625 C1.64097656 160.02355469 0.83273438 160.01195312 0 160 C0.33 160.99 0.66 161.98 1 163 C0.67 163.99 0.34 164.98 0 166 C-20.26343579 167.06649662 -40.09743733 158.81160492 -55.1875 145.625 C-56.808634 144.10118526 -58.41358648 142.55992915 -60 141 C-61.04994141 139.96939453 -61.04994141 139.96939453 -62.12109375 138.91796875 C-78.66635713 121.53415401 -83.677855 99.44238979 -83.31640625 76.1640625 C-83.04305747 68.63610573 -81.61972074 62.0896733 -79 55 C-78.66097656 53.98421875 -78.32195312 52.9684375 -77.97265625 51.921875 C-70.6847624 32.1071031 -54.21466955 16.05660086 -35.30078125 7.21484375 C-24.13457885 2.31556651 -12.2442756 -0.64443556 0 0 Z " fill="#0BBDC9" transform="translate(150,1)"/>
<path d="M0 0 C0.495 2.475 0.495 2.475 1 5 C0.39414063 5.268125 -0.21171875 5.53625 -0.8359375 5.8125 C-7.7074032 9.02623165 -13.30599149 13.00812429 -19 18 C-19.639375 18.55558594 -20.27875 19.11117187 -20.9375 19.68359375 C-26.02637116 24.4203332 -29.50804287 30.0287533 -33 36 C-33.391875 36.63421875 -33.78375 37.2684375 -34.1875 37.921875 C-42.62767988 52.8240676 -43.39162072 72.80295932 -38.97265625 89.01953125 C-33.27447771 106.48021489 -23.56142328 122.04305151 -7 131 C12.38653273 140.47217145 32.35994882 143.44001588 53.19921875 136.97265625 C54.58560547 136.49119141 54.58560547 136.49119141 56 136 C56.99 135.67 57.98 135.34 59 135 C61 138 61 138 61.015625 140.05078125 C60 142 60 142 57.234375 143.23046875 C55.50960937 143.70419922 55.50960937 143.70419922 53.75 144.1875 C52.04070312 144.67283203 52.04070312 144.67283203 50.296875 145.16796875 C49.20890625 145.44253906 48.1209375 145.71710938 47 146 C45.84757812 146.29777344 45.84757812 146.29777344 44.671875 146.6015625 C24.56308895 149.60024112 1.85127994 146.08023926 -14.7734375 133.8203125 C-15.50820312 133.21960938 -16.24296875 132.61890625 -17 132 C-18.50433594 130.78957031 -18.50433594 130.78957031 -20.0390625 129.5546875 C-26.45265398 124.14897322 -31.54524811 118.34640996 -36.125 111.3125 C-36.57407715 110.62438232 -37.0231543 109.93626465 -37.48583984 109.22729492 C-40.50604042 104.35613457 -42.39014497 99.48535958 -44 94 C-44.31324219 93.03835937 -44.62648438 92.07671875 -44.94921875 91.0859375 C-48.7820111 77.01208623 -49.07220465 59.74037527 -44 46 C-43.78537109 45.39188477 -43.57074219 44.78376953 -43.34960938 44.15722656 C-40.75392122 36.85998203 -38.0768533 30.88110729 -33 25 C-32.67 24.01 -32.34 23.02 -32 22 C-31.34 22 -30.68 22 -30 22 C-29.79246094 21.46117188 -29.58492187 20.92234375 -29.37109375 20.3671875 C-27.46263381 17.07223957 -24.84000727 14.67754157 -22.0625 12.125 C-21.48636963 11.59487305 -20.91023926 11.06474609 -20.31665039 10.51855469 C-14.48064331 5.30213743 -8.09135198 0 0 0 Z " fill="#02C119" transform="translate(120,14)"/>
<path d="M0 0 C-0.66 1.98 -1.32 3.96 -2 6 C-4.84610272 5.07693966 -7.67048105 4.12762321 -10.4609375 3.046875 C-26.97249169 -3.29280483 -44.3969447 -4.23771433 -61.01953125 2.55859375 C-80.11808438 11.09012606 -91.26296473 24.30361907 -98.8359375 43.51953125 C-104.68020528 60.99349967 -100.95663423 80.10124021 -92.98974609 96.15673828 C-87.73083391 105.95071632 -78.61543842 114.55182086 -69 120 C-69.66 121.65 -70.32 123.3 -71 125 C-85.12683311 119.90345426 -95.26447031 106.55814958 -101.69921875 93.5703125 C-109.71905434 75.82181436 -110.92104939 55.39382202 -104 37 C-95.97796279 17.35018442 -80.39677792 3.22563023 -61 -5 C-40.14892281 -12.10654691 -19.5579106 -9.7789553 0 0 Z " fill="#F2B608" transform="translate(186,21)"/>
<path d="M0 0 C0.042721 1.66611905 0.04063832 3.33382885 0 5 C-0.33 5.33 -0.66 5.66 -1 6 C-3.16306556 5.97664993 -5.32626793 5.94686564 -7.48852539 5.88330078 C-23.49226893 5.46348299 -35.8566381 9.03886929 -49.1875 18.1875 C-61.00145448 30.00145448 -67.08968045 43.23734483 -67.375 59.75 C-67.3499361 74.10572011 -62.31230052 88.68769948 -52 99 C-43.69215567 105.87073782 -34.93233164 110.0484272 -25 114 C-25 115.32 -25 116.64 -25 118 C-34.99386281 118.54928101 -44.2489216 113.97669662 -51.59350586 107.48144531 C-59.31697713 100.26365793 -59.31697713 100.26365793 -61 96 C-61.66 96 -62.32 96 -63 96 C-63.33 95.01 -63.66 94.02 -64 93 C-64.74056641 92.30777344 -64.74056641 92.30777344 -65.49609375 91.6015625 C-67.39776512 89.57640598 -67.60709071 88.08976995 -68.0625 85.375 C-68.42335982 83.02139184 -68.42335982 83.02139184 -69 81 C-69.66 80.67 -70.32 80.34 -71 80 C-73.54100068 72.7259382 -73.29738517 65.44546163 -73.25 57.8125 C-73.25773437 56.55501953 -73.26546875 55.29753906 -73.2734375 54.00195312 C-73.27085938 52.79087891 -73.26828125 51.57980469 -73.265625 50.33203125 C-73.26336914 49.23608643 -73.26111328 48.1401416 -73.25878906 47.01098633 C-72.79908152 41.66233242 -70.33121366 37.67474785 -67.625 33.125 C-65.6488513 29.79739423 -63.70384635 26.47284872 -61.875 23.0625 C-54.29448003 10.68098405 -39.90875151 3.63175067 -26.28881836 0.22875977 C-17.49746248 -1.75790076 -8.84498628 -1.6335335 0 0 Z " fill="#F63195" transform="translate(163,24)"/>
<path d="M0 0 C0.495 2.475 0.495 2.475 1 5 C0.39414063 5.268125 -0.21171875 5.53625 -0.8359375 5.8125 C-7.7074032 9.02623165 -13.30599149 13.00812429 -19 18 C-19.639375 18.55558594 -20.27875 19.11117187 -20.9375 19.68359375 C-30.73020525 28.79867877 -36.56017998 41.28308963 -40 54 C-40.99 54 -41.98 54 -43 54 C-42.88202982 58.39675988 -42.75780274 62.79328399 -42.62768555 67.18969727 C-42.58428187 68.68639269 -42.54261087 70.18313939 -42.50268555 71.67993164 C-42.44511384 73.82714312 -42.38138284 75.97409521 -42.31640625 78.12109375 C-42.27974854 79.4145874 -42.24309082 80.70808105 -42.20532227 82.04077148 C-42.3332722 84.88555008 -42.3332722 84.88555008 -41 86 C-40.92728259 88.35313555 -40.91629132 90.70833668 -40.9375 93.0625 C-40.94652344 94.35285156 -40.95554687 95.64320312 -40.96484375 96.97265625 C-40.97644531 97.97167969 -40.98804687 98.97070312 -41 100 C-40.34 100 -39.68 100 -39 100 C-37.5393715 102.64738916 -37 103.89448334 -37 107 C-36.34 107 -35.68 107 -35 107 C-35.33 108.32 -35.66 109.64 -36 111 C-47.2783014 98.79152941 -47.90964314 78.79833013 -47.3515625 63.12109375 C-47.00544811 57.10327468 -46.09168639 51.66628478 -44 46 C-43.78537109 45.39188477 -43.57074219 44.78376953 -43.34960938 44.15722656 C-40.75392122 36.85998203 -38.0768533 30.88110729 -33 25 C-32.67 24.01 -32.34 23.02 -32 22 C-31.34 22 -30.68 22 -30 22 C-29.79246094 21.46117188 -29.58492187 20.92234375 -29.37109375 20.3671875 C-27.46263381 17.07223957 -24.84000727 14.67754157 -22.0625 12.125 C-21.48636963 11.59487305 -20.91023926 11.06474609 -20.31665039 10.51855469 C-14.48064331 5.30213743 -8.09135198 0 0 0 Z " fill="#01C02A" transform="translate(120,14)"/>
<path d="M0 0 C-0.66 1.98 -1.32 3.96 -2 6 C-4.84610272 5.07693966 -7.67048105 4.12762321 -10.4609375 3.046875 C-26.90789896 -3.26800419 -44.7821695 -4.47676416 -61.23046875 2.76953125 C-67.85800337 5.90172751 -73.65594593 9.33459007 -79.31640625 14.01171875 C-81.42333964 15.24850331 -82.60276712 15.20254271 -85 14.875 C-85.99 14.58625 -86.98 14.2975 -88 14 C-79.19757621 1.83194358 -64.0509248 -5.18255967 -49.6875 -8.3125 C-32.12961318 -10.96659917 -15.86956455 -7.93478228 0 0 Z " fill="#F4B213" transform="translate(186,21)"/>
<path d="M0 0 C5.61 0 11.22 0 17 0 C17 1.65 17 3.3 17 5 C13.04 5 9.08 5 5 5 C4.67 6.65 4.34 8.3 4 10 C4.59167969 9.94199219 5.18335938 9.88398437 5.79296875 9.82421875 C10.11523471 9.57743358 12.34941874 9.5751306 16.0625 12 C18.20909681 15.3237628 18.75569837 17.18054114 18.4765625 21.06640625 C17.60772665 24.59160087 15.93193843 25.98429233 13 28 C7.91384596 29.41745276 5.22901891 29.40608459 0.5 27.0625 C-0.67783105 26.39430738 -1.84892561 25.71329876 -3 25 C-2.34 23.68 -1.68 22.36 -1 21 C2 21 2 21 4 22 C6.3329866 22.04022391 8.66706666 22.04320247 11 22 C11.38218767 20.34385343 11.71395102 18.67542976 12 17 C10.97464257 15.74186795 10.97464257 15.74186795 8.78515625 15.97265625 C6.97256559 16.03246914 5.16006133 16.09496182 3.34765625 16.16015625 C1 16 1 16 -1 14 C-1.23046875 11.7578125 -1.23046875 11.7578125 -1.1875 9.125 C-1.18105469 8.26132813 -1.17460937 7.39765625 -1.16796875 6.5078125 C-1 4 -1 4 0 0 Z " fill="#020202" transform="translate(215,70)"/>
<path d="M0 0 C0.66 0 1.32 0 2 0 C1.98428955 0.68924561 1.9685791 1.37849121 1.95239258 2.08862305 C1.30850733 20.31120148 1.30850733 20.31120148 5 38 C5.52787109 39.51013672 5.52787109 39.51013672 6.06640625 41.05078125 C11.69982201 55.68278852 20.82689674 67.4088457 34 76 C32.3125 77.1875 32.3125 77.1875 30 78 C27.4375 76.75 27.4375 76.75 25 75 C23.515 74.01 23.515 74.01 22 73 C22 72.34 22 71.68 22 71 C21.154375 70.855625 20.30875 70.71125 19.4375 70.5625 C14.43112421 68.28687464 11.7643798 64.68875469 9 60 C8.22854581 57.5041188 8.05608914 55.63618956 8 53 C7.34 53 6.68 53 6 53 C4.5393715 50.35261084 4 49.10551666 4 46 C3.34 46 2.68 46 2 46 C1.93941406 45.00097656 1.87882812 44.00195312 1.81640625 42.97265625 C1.73261719 41.68230469 1.64882812 40.39195313 1.5625 39.0625 C1.48128906 37.77472656 1.40007812 36.48695312 1.31640625 35.16015625 C1.35080812 32.13976043 1.35080812 32.13976043 0 31 C-0.08790975 28.70848583 -0.10694038 26.41427476 -0.09765625 24.12109375 C-0.0962413 23.4344313 -0.09482635 22.74776886 -0.09336853 22.04029846 C-0.08775479 19.83932199 -0.07520007 17.63844591 -0.0625 15.4375 C-0.05748676 13.94856917 -0.05292355 12.45963676 -0.04882812 10.97070312 C-0.03778093 7.31376925 -0.02050713 3.65689442 0 0 Z " fill="#09BE14" transform="translate(77,68)"/>
<path d="M0 0 C0.33 0 0.66 0 1 0 C1.02505615 0.71655762 1.0501123 1.43311523 1.07592773 2.17138672 C1.19169751 5.40611514 1.31450969 8.64053841 1.4375 11.875 C1.47681641 13.00292969 1.51613281 14.13085938 1.55664062 15.29296875 C1.59853516 16.36933594 1.64042969 17.44570312 1.68359375 18.5546875 C1.72025146 19.54968262 1.75690918 20.54467773 1.79467773 21.56982422 C1.84959532 24.00779501 1.84959532 24.00779501 3 26 C3.039992 27.99960012 3.04346799 30.00047242 3 32 C3.99 32.33 4.98 32.66 6 33 C6.99 38.445 6.99 38.445 8 44 C8.99 44.33 9.98 44.66 11 45 C11 45.99 11 46.98 11 48 C11.66 48 12.32 48 13 48 C14.4453125 49.50390625 14.4453125 49.50390625 16.125 51.5625 C25.11589647 61.96625163 35.12352361 68.16403543 49 70 C49 70.33 49 70.66 49 71 C44.51330688 71.08973386 40.41118812 70.78421122 36 70 C34.68 70 33.36 70 32 70 C32 69.01 32 68.02 32 67 C31.030625 67.309375 30.06125 67.61875 29.0625 67.9375 C26.21202778 68.36974374 25.10408141 68.05698128 22.53125 66.6484375 C20.13462309 64.86613584 17.97540262 63.24416488 16 61 C16 59.68 16 58.36 16 57 C15.34 57 14.68 57 14 57 C13.505 55.515 13.505 55.515 13 54 C12.34 53.67 11.68 53.34 11 53 C10.375 49.9375 10.375 49.9375 10 47 C9.34 47 8.68 47 8 47 C8 46.34 8 45.68 8 45 C6.68 44.67 5.36 44.34 4 44 C4.66 42.68 5.32 41.36 6 40 C5.34 40 4.68 40 4 40 C4 38.02 4 36.04 4 34 C3.34 34 2.68 34 2 34 C2 32.02 2 30.04 2 28 C1.34 28 0.68 28 0 28 C-0.80593301 22.35207265 -1.15519347 16.88903371 -1.125 11.1875 C-1.12886719 10.43791016 -1.13273437 9.68832031 -1.13671875 8.91601562 C-1.13094162 5.68371214 -1.02914145 3.08742435 0 0 Z " fill="#FD5F13" transform="translate(89,72)"/>
<path d="M0 0 C0.495 2.475 0.495 2.475 1 5 C0.39414063 5.268125 -0.21171875 5.53625 -0.8359375 5.8125 C-7.7074032 9.02623165 -13.30599149 13.00812429 -19 18 C-19.639375 18.55558594 -20.27875 19.11117187 -20.9375 19.68359375 C-25.35752681 23.79777049 -28.41073812 28.48692251 -31.51953125 33.64453125 C-33 36 -33 36 -35 38 C-35.66 36.35 -36.32 34.7 -37 33 C-35.6875 31.5 -35.6875 31.5 -34 30 C-33.01 30 -32.02 30 -31 30 C-31.22171875 29.42121094 -31.4434375 28.84242187 -31.671875 28.24609375 C-32 26 -32 26 -30.890625 24.03515625 C-30.34921875 23.38417969 -29.8078125 22.73320313 -29.25 22.0625 C-27.49821818 19.9237955 -25.97235644 17.95050785 -24.62109375 15.53125 C-19.75048471 7.92605806 -9.22064706 0 0 0 Z " fill="#0FBC15" transform="translate(120,14)"/>
<path d="M0 0 C9.39774437 -0.61684036 19.32721052 3.98166384 27.4609375 8.2421875 C26.8009375 10.2221875 26.1409375 12.2021875 25.4609375 14.2421875 C20.98855097 12.82411372 16.74947444 11.12914376 12.4609375 9.2421875 C12.4609375 8.5821875 12.4609375 7.9221875 12.4609375 7.2421875 C2.24904824 4.82974577 -8.10040915 4.63069762 -18.5390625 4.2421875 C-18.5390625 3.2521875 -18.5390625 2.2621875 -18.5390625 1.2421875 C-13.85055125 0.92003213 -9.16187387 0.62614563 -4.46972656 0.36230469 C-2.97781577 0.26948474 -1.48804148 0.14193626 0 0 Z " fill="#FAB40D" transform="translate(158.5390625,12.7578125)"/>
<path d="M0 0 C1.5625 1.25 1.5625 1.25 3 3 C2.98046875 4.97265625 2.98046875 4.97265625 2 7 C-0.765625 8.23046875 -0.765625 8.23046875 -4.25 9.1875 C-5.95929688 9.67283203 -5.95929688 9.67283203 -7.703125 10.16796875 C-12.73112262 11.43688284 -17.10844562 12.11968741 -22.3125 12.0625 C-23.91544922 12.04896484 -23.91544922 12.04896484 -25.55078125 12.03515625 C-26.35902344 12.02355469 -27.16726562 12.01195312 -28 12 C-28 11.34 -28 10.68 -28 10 C-22.72 10 -17.44 10 -12 10 C-12 9.34 -12 8.68 -12 8 C-11.01 7.67 -10.02 7.34 -9 7 C-10.66611905 6.957279 -12.33382885 6.95936168 -14 7 C-14.33 7.33 -14.66 7.66 -15 8 C-16.99964982 8.08758003 -19.0023611 8.10696576 -21.00390625 8.09765625 C-22.21884766 8.09443359 -23.43378906 8.09121094 -24.68554688 8.08789062 C-25.96494141 8.07951172 -27.24433594 8.07113281 -28.5625 8.0625 C-29.84576172 8.05798828 -31.12902344 8.05347656 -32.45117188 8.04882812 C-35.63416022 8.03699545 -38.81705762 8.02051068 -42 8 C-42 7.34 -42 6.68 -42 6 C-43.11375 6.061875 -44.2275 6.12375 -45.375 6.1875 C-46.57125 6.125625 -47.7675 6.06375 -49 6 C-49.66 5.01 -50.32 4.02 -51 3 C-50.38898438 3.144375 -49.77796875 3.28875 -49.1484375 3.4375 C-33.45289964 6.62082036 -14.67910459 7.3395523 0 0 Z " fill="#12B024" transform="translate(178,149)"/>
<path d="M0 0 C0.556875 0.70125 1.11375 1.4025 1.6875 2.125 C2.8321875 3.548125 2.8321875 3.548125 4 5 C4.680625 5.928125 5.36125 6.85625 6.0625 7.8125 C13.86152703 17.0663914 25.05513008 21.64558939 36 26 C36 27.32 36 28.64 36 30 C27.8149677 30.5044704 18.93921675 27.10698786 12.50390625 22.03125 C9.06886821 18.31769536 7.13043347 15.21733877 7 10 C5.68 9.67 4.36 9.34 3 9 C2.67 7.35 2.34 5.7 2 4 C1.34 4 0.68 4 0 4 C0 2.68 0 1.36 0 0 Z " fill="#F5338F" transform="translate(102,112)"/>
<path d="M0 0 C0.77214844 0.00902344 1.54429687 0.01804688 2.33984375 0.02734375 C2.90832031 0.03894531 3.47679687 0.05054687 4.0625 0.0625 C4.0625 2.0425 4.0625 4.0225 4.0625 6.0625 C2.19658203 6.33513672 2.19658203 6.33513672 0.29296875 6.61328125 C-8.61025852 7.94675306 -17.33073396 9.33541233 -25.9375 12.0625 C-25.9375 11.4025 -25.9375 10.7425 -25.9375 10.0625 C-26.5975 9.7325 -27.2575 9.4025 -27.9375 9.0625 C-24.9675 9.5575 -24.9675 9.5575 -21.9375 10.0625 C-21.9375 9.0725 -21.9375 8.0825 -21.9375 7.0625 C-23.2575 6.4025 -24.5775 5.7425 -25.9375 5.0625 C-23.75176438 4.41072031 -21.5638177 3.76635326 -19.375 3.125 C-18.15683594 2.76535156 -16.93867188 2.40570313 -15.68359375 2.03515625 C-10.45681102 0.67804582 -5.40048833 -0.08308444 0 0 Z " fill="#1BB1BF" transform="translate(145.9375,0.9375)"/>
<path d="M0 0 C2.1875 0.3125 2.1875 0.3125 4 1 C4 2.32 4 3.64 4 5 C2.84536547 6.12067469 1.68487571 7.23592782 0.49609375 8.3203125 C-2.14452967 11.28498109 -3.7596452 14.85514682 -5.58203125 18.359375 C-7 21 -7 21 -9.25 24.1875 C-11.47173925 27.75815237 -12.15037993 30.89350301 -13 35 C-13.33 35 -13.66 35 -14 35 C-14.54946943 25.73228226 -14.76144836 18.66692737 -9 11 C-8.484375 10.26910156 -7.96875 9.53820312 -7.4375 8.78515625 C-2.86866885 2.46874719 -2.86866885 2.46874719 0 0 Z " fill="#F96115" transform="translate(103,37)"/>
<path d="M0 0 C1.32 0.33 2.64 0.66 4 1 C4 1.66 4 2.32 4 3 C8.30427875 5.23184824 11.93005384 6.89475939 16.8125 7.375 C20.79387042 7.78218561 23.75741157 9.14202018 27.23828125 11.0625 C29.14973149 12.14241411 29.14973149 12.14241411 32 13 C31.67 13.99 31.34 14.98 31 16 C24.98286774 17.7004939 21.75282949 16.36241744 16.34765625 13.38671875 C10.355314 9.84714887 5.00790102 5.84266571 0 1 C0 0.67 0 0.34 0 0 Z " fill="#14B422" transform="translate(95,138)"/>
<path d="M0 0 C0.33 0.99 0.66 1.98 1 3 C1.88945313 2.81566406 2.77890625 2.63132813 3.6953125 2.44140625 C6.91467404 2.01139697 8.76460355 2.19623729 11.875 2.9375 C22.08997015 4.87392564 32.64885441 4.16322767 43 4 C42.67 4.66 42.34 5.32 42 6 C32.43 6.33 22.86 6.66 13 7 C14.32 7.99 15.64 8.98 17 10 C9.77352595 9.58308804 3.39499368 7.40410433 -3 4 C-3.66 3.01 -4.32 2.02 -5 1 C-3 0 -3 0 0 0 Z " fill="#EA601F" transform="translate(121,139)"/>
<path d="M0 0 C-2 2 -2 2 -5.6953125 2.1953125 C-7.17200108 2.182009 -8.64862358 2.15814835 -10.125 2.125 C-10.87910156 2.11597656 -11.63320312 2.10695313 -12.41015625 2.09765625 C-14.27357254 2.0740687 -16.13682593 2.03819719 -18 2 C-18 2.99 -18 3.98 -18 5 C-16.68386719 4.96519531 -15.36773437 4.93039063 -14.01171875 4.89453125 C4.08316867 4.56415674 4.08316867 4.56415674 13 8 C9.78191154 9.04350714 7.81679693 8.88008199 4.5625 8.0625 C-4.4752231 6.22285418 -13.82284764 6.833863 -23 7 C-23 6.01 -23 5.02 -23 4 C-25.31 4 -27.62 4 -30 4 C-21.57006292 -1.61995805 -9.7472195 -0.22013796 0 0 Z " fill="#EDAF27" transform="translate(158,12)"/>
<path d="M0 0 C5.28 0 10.56 0 16 0 C15.67 2.31 15.34 4.62 15 7 C10.05 7 5.1 7 0 7 C0 4.69 0 2.38 0 0 Z " fill="#040404" transform="translate(190,86)"/>
<path d="M0 0 C2.31 0 4.62 0 7 0 C7 0.66 7 1.32 7 2 C6.01 2.7425 5.02 3.485 4 4.25 C-4.32630884 11.15762741 -8.87638357 22.93044703 -12 33 C-13.6073923 28.97121546 -12.35907861 25.43095321 -11.25 21.4375 C-11.07984375 20.76525391 -10.9096875 20.09300781 -10.734375 19.40039062 C-9.0375155 13.11826738 -9.0375155 13.11826738 -6 11 C-5.34 11 -4.68 11 -4 11 C-3.8453125 9.948125 -3.8453125 9.948125 -3.6875 8.875 C-2.90640997 5.60862353 -1.57941257 2.9528148 0 0 Z " fill="#FDAE0A" transform="translate(98,35)"/>
<path d="M0 0 C-0.50786789 4.06294309 -1.9643006 7.04782615 -3.96484375 10.546875 C-7.12340641 18.03207255 -7.26295512 25.54518539 -7.125 33.5625 C-7.11146484 35.07553711 -7.11146484 35.07553711 -7.09765625 36.61914062 C-7.07433356 39.07968457 -7.04160763 41.53970896 -7 44 C-7.66 43.67 -8.32 43.34 -9 43 C-10.04126146 37.87277587 -10.15376172 32.8308713 -10.125 27.625 C-10.12886719 26.90183594 -10.13273437 26.17867187 -10.13671875 25.43359375 C-10.12676222 20.12676222 -10.12676222 20.12676222 -9 19 C-8.63239269 16.67182036 -8.29758419 14.3381615 -8 12 C-7.34 12 -6.68 12 -6 12 C-6.268125 10.948125 -6.53625 9.89625 -6.8125 8.8125 C-7 5 -7 5 -4.6875 2.0625 C-2 0 -2 0 0 0 Z " fill="#DD388E" transform="translate(103,53)"/>
<path d="M0 0 C4.95 0 9.9 0 15 0 C15.33 1.98 15.66 3.96 16 6 C10.72 6 5.44 6 0 6 C0 4.02 0 2.04 0 0 Z " fill="#030303" transform="translate(190,75)"/>
<path d="M0 0 C0.61101562 0.144375 1.22203125 0.28875 1.8515625 0.4375 C9.00670448 1.88868373 15.90056725 2.19238318 23.1875 2.1875 C24.57606201 2.1884668 24.57606201 2.1884668 25.99267578 2.18945312 C31.73154106 2.14441833 37.30719364 1.72686496 43 1 C42 3 42 3 39.34326172 4.11279297 C35.89824218 5.02700365 33.06392319 5.22918022 29.5078125 5.1953125 C27.70957031 5.18564453 27.70957031 5.18564453 25.875 5.17578125 C24.6375 5.15902344 23.4 5.14226562 22.125 5.125 C20.86429688 5.11597656 19.60359375 5.10695312 18.3046875 5.09765625 C15.2029296 5.07415808 12.10156348 5.04130334 9 5 C9 4.34 9 3.68 9 3 C7.88625 3.061875 6.7725 3.12375 5.625 3.1875 C4.42875 3.125625 3.2325 3.06375 2 3 C1.34 2.01 0.68 1.02 0 0 Z " fill="#20A92A" transform="translate(127,152)"/>
<path d="M0 0 C0.66 0 1.32 0 2 0 C1.84015625 1.09183594 1.6803125 2.18367188 1.515625 3.30859375 C-0.25126724 17.56591042 0.3150648 32.11569059 4 46 C3.34 46 2.68 46 2 46 C0.41483116 41.66720517 -0.37390321 37.56156234 -1 33 C-1.33 32.67 -1.66 32.34 -2 32 C-2.25541217 28.52854086 -2.18524776 25.04221676 -2.1875 21.5625 C-2.19974609 20.60150391 -2.21199219 19.64050781 -2.22460938 18.65039062 C-2.23765475 12.20162713 -1.51633135 6.26721653 0 0 Z " fill="#04C5A1" transform="translate(73,64)"/>
<path d="M0 0 C1.175625 -0.00257812 2.35125 -0.00515625 3.5625 -0.0078125 C6.79725504 0.11716667 9.82468717 0.5151076 13 1.125 C13.042721 2.79111905 13.04063832 4.45882885 13 6.125 C12 7.125 12 7.125 10.23413086 7.14672852 C9.11083374 7.07603149 9.11083374 7.07603149 7.96484375 7.00390625 C6.75151367 6.93139648 6.75151367 6.93139648 5.51367188 6.85742188 C4.2384668 6.77331055 4.2384668 6.77331055 2.9375 6.6875 C2.08349609 6.63529297 1.22949219 6.58308594 0.34960938 6.52929688 C-1.76721995 6.39921239 -3.88365244 6.26270029 -6 6.125 C-6 5.795 -6 5.465 -6 5.125 C-0.39 5.125 5.22 5.125 11 5.125 C10.67 4.465 10.34 3.805 10 3.125 C1.09 3.125 -7.82 3.125 -17 3.125 C-11.29394619 0.27197309 -6.32075413 -0.0138613 0 0 Z " fill="#DD438B" transform="translate(150,22.875)"/>
<path d="M0 0 C0.33 1.65 0.66 3.3 1 5 C0.33613281 5.31453125 -0.32773438 5.6290625 -1.01171875 5.953125 C-5.79254654 8.27025613 -9.91842008 10.55616694 -14 14 C-14.66 14 -15.32 14 -16 14 C-16 11 -16 11 -14 9 C-13.67 8.34 -13.34 7.68 -13 7 C-11.68 7 -10.36 7 -9 7 C-9 6.34 -9 5.68 -9 5 C-8.01 5 -7.02 5 -6 5 C-6 3.68 -6 2.36 -6 1 C-4 0 -4 0 0 0 Z " fill="#1DB90F" transform="translate(120,14)"/>
<path d="M0 0 C0.33 0 0.66 0 1 0 C1.02689216 1.47906892 1.04634621 2.95827483 1.0625 4.4375 C1.07410156 5.26121094 1.08570312 6.08492188 1.09765625 6.93359375 C1 9 1 9 0 10 C-0.15888092 12.28988781 -0.25138073 14.58443441 -0.31640625 16.87890625 C-0.33718735 17.5655687 -0.35796844 18.25223114 -0.37937927 18.95970154 C-0.44494143 21.16052935 -0.50379015 23.36147975 -0.5625 25.5625 C-0.60567892 27.05144514 -0.649293 28.54037773 -0.69335938 30.02929688 C-0.8006293 33.68606553 -0.90187772 37.34297318 -1 41 C-1.33 41 -1.66 41 -2 41 C-4.71502758 28.08172359 -4.50435744 12.46741792 0 0 Z " fill="#00BD3C" transform="translate(76,60)"/>
<path d="M0 0 C0.33 0.66 0.66 1.32 1 2 C0.02616054 3.68208635 -0.97695052 5.34738161 -2 7 C-2.144375 7.70125 -2.28875 8.4025 -2.4375 9.125 C-3 11 -3 11 -4.9375 12.3125 C-7.89040411 14.72851245 -8.17790647 17.36908691 -9 21 C-9.99 21 -10.98 21 -12 21 C-12 21.66 -12 22.32 -12 23 C-12.66 23 -13.32 23 -14 23 C-11.64837758 14.06383481 -6.1373328 6.72184068 0 0 Z " fill="#DDC10C" transform="translate(97,35)"/>
<path d="M0 0 C4.62 0 9.24 0 14 0 C14 0.99 14 1.98 14 3 C13.154375 2.95875 12.30875 2.9175 11.4375 2.875 C7.98745557 2.86159164 7.98745557 2.86159164 4.75 3.9375 C0.17935107 5.2325172 -4.27769584 5.63893851 -9 6 C-8.34 5.01 -7.68 4.02 -7 3 C-6.34 3.33 -5.68 3.66 -5 4 C-5 3.34 -5 2.68 -5 2 C-3.35 2 -1.7 2 0 2 C0 1.34 0 0.68 0 0 Z " fill="#04BFD1" transform="translate(135,3)"/>
<path d="M0 0 C0.33 0 0.66 0 1 0 C0.85831863 1.43791516 0.71148957 2.8753237 0.5625 4.3125 C0.48128906 5.11300781 0.40007812 5.91351563 0.31640625 6.73828125 C0 9 0 9 -1 12 C-1.66 12 -2.32 12 -3 12 C-3 20.58 -3 29.16 -3 38 C-5.21005753 33.57988494 -5.34518065 30.24007059 -5.3125 25.4375 C-5.30976074 24.63481689 -5.30702148 23.83213379 -5.30419922 23.00512695 C-5.15849205 14.68055796 -3.12084365 7.66642026 0 0 Z " fill="#24000B" transform="translate(100,59)"/>
<path d="M0 0 C0.33 0 0.66 0 1 0 C1.02505615 0.71655762 1.0501123 1.43311523 1.07592773 2.17138672 C1.19169751 5.40611514 1.31450969 8.64053841 1.4375 11.875 C1.47681641 13.00292969 1.51613281 14.13085938 1.55664062 15.29296875 C1.59853516 16.36933594 1.64042969 17.44570312 1.68359375 18.5546875 C1.72025146 19.54968262 1.75690918 20.54467773 1.79467773 21.56982422 C1.84959532 24.00779501 1.84959532 24.00779501 3 26 C3.039992 27.99960012 3.04346799 30.00047242 3 32 C3.99 32.33 4.98 32.66 6 33 C6.33 34.98 6.66 36.96 7 39 C6.34 38.67 5.68 38.34 5 38 C5 36.68 5 35.36 5 34 C4.01 34 3.02 34 2 34 C2 32.02 2 30.04 2 28 C1.34 28 0.68 28 0 28 C-0.80593301 22.35207265 -1.15519347 16.88903371 -1.125 11.1875 C-1.12886719 10.43791016 -1.13273437 9.68832031 -1.13671875 8.91601562 C-1.13094162 5.68371214 -1.02914145 3.08742435 0 0 Z " fill="#FD4E46" transform="translate(89,72)"/>
<path d="M0 0 C-0.33 0.66 -0.66 1.32 -1 2 C-2.65 2 -4.3 2 -6 2 C-6 2.66 -6 3.32 -6 4 C-1.65815798 3.81535634 -1.65815798 3.81535634 2 2 C4.67058851 1.85884839 7.32432238 1.95752893 10 2 C7.06528123 3.56925934 4.192957 4.63284331 1 5.5625 C0.154375 5.81128906 -0.69125 6.06007813 -1.5625 6.31640625 C-3.70080843 6.91609211 -5.84218678 7.47553151 -8 8 C-8.66 7.01 -9.32 6.02 -10 5 C-10.99 5.66 -11.98 6.32 -13 7 C-13.99 6.67 -14.98 6.34 -16 6 C-2.92573754 -1.46286877 -2.92573754 -1.46286877 0 0 Z " fill="#DD3687" transform="translate(132,27)"/>
<path d="M0 0 C0.33 0 0.66 0 1 0 C1.4432849 4.58339861 0.1320305 6.92377836 -2.3125 10.75 C-5.38209802 15.77071903 -7.39955978 20.35138745 -9 26 C-9.33 26 -9.66 26 -10 26 C-10 21.71 -10 17.42 -10 13 C-9.34 13 -8.68 13 -8 13 C-7.67 12.01 -7.34 11.02 -7 10 C-5.15306876 7.22960315 -3.9687421 5.48437105 -1 4 C-0.34786708 1.97536745 -0.34786708 1.97536745 0 0 Z " fill="#FE5D1B" transform="translate(99,46)"/>
<path d="M0 0 C0 0.66 0 1.32 0 2 C-0.99 2.33 -1.98 2.66 -3 3 C-3.309375 3.825 -3.61875 4.65 -3.9375 5.5 C-4.288125 6.325 -4.63875 7.15 -5 8 C-7.125 8.8125 -7.125 8.8125 -9 9 C-8.67 10.32 -8.34 11.64 -8 13 C-11.87493656 14.07637127 -13.52452927 13.94566951 -17 12 C-15.44233138 10.55726615 -13.87864043 9.12103292 -12.3125 7.6875 C-11.44238281 6.88699219 -10.57226562 6.08648437 -9.67578125 5.26171875 C-3.4507772 0 -3.4507772 0 0 0 Z " fill="#EFC00B" transform="translate(115,22)"/>
<path d="M0 0 C2.24369447 3.3655417 2.2089196 4.13921781 1.8125 8 C1.73644531 8.86625 1.66039063 9.7325 1.58203125 10.625 C1 13 1 13 -0.50439453 14.39770508 C-2.34813384 16.37296807 -2.41159814 17.34851062 -2.51171875 20.01171875 C-2.54716797 20.76904297 -2.58261719 21.52636719 -2.61914062 22.30664062 C-2.64169922 23.09232422 -2.66425781 23.87800781 -2.6875 24.6875 C-2.72166016 25.48478516 -2.75582031 26.28207031 -2.79101562 27.10351562 C-2.87338104 29.06851904 -2.93837067 31.03423696 -3 33 C-3.33 33 -3.66 33 -4 33 C-4.66831683 9.33663366 -4.66831683 9.33663366 0 0 Z " fill="#F66606" transform="translate(88,60)"/>
<path d="M0 0 C0.66 0.33 1.32 0.66 2 1 C0.35 5.95 -1.3 10.9 -3 16 C-3.99 16 -4.98 16 -6 16 C-5.95875 17.11375 -5.9175 18.2275 -5.875 19.375 C-6 23 -6 23 -8 25 C-8.66 24.34 -9.32 23.68 -10 23 C-10 19 -10 19 -8 17 C-7.855625 16.319375 -7.71125 15.63875 -7.5625 14.9375 C-7.2840625 13.9784375 -7.2840625 13.9784375 -7 13 C-6.01 12.67 -5.02 12.34 -4 12 C-4 11.01 -4 10.02 -4 9 C-3.34 9 -2.68 9 -2 9 C-2 7.02 -2 5.04 -2 3 C-1.34 3 -0.68 3 0 3 C0 2.01 0 1.02 0 0 Z " fill="#02C2BD" transform="translate(79,48)"/>
<path d="M0 0 C2.86392794 3.52830761 5.58784278 7.12984917 8.25 10.8125 C8.95640625 11.78832031 9.6628125 12.76414063 10.390625 13.76953125 C10.92171875 14.50558594 11.4528125 15.24164063 12 16 C9 17 9 17 7 17 C7.33 15.68 7.66 14.36 8 13 C6.02 13.33 4.04 13.66 2 14 C0.39660152 10.88228073 -0.18974141 9.60988311 0.875 6.1875 C1.24625 5.465625 1.6175 4.74375 2 4 C1.34 4 0.68 4 0 4 C0 2.68 0 1.36 0 0 Z " fill="#09BFB2" transform="translate(81,120)"/>
<path d="M0 0 C-0.99 0.495 -0.99 0.495 -2 1 C-2 1.99 -2 2.98 -2 4 C-3.32 4 -4.64 4 -6 4 C-6 4.66 -6 5.32 -6 6 C-9.96 6 -13.92 6 -18 6 C-12.43209852 0.43209852 -7.55175579 -0.39746083 0 0 Z " fill="#12B7C7" transform="translate(126,7)"/>
<path d="M0 0 C0.33 0.66 0.66 1.32 1 2 C0.33333333 3.66666667 -0.33333333 5.33333333 -1 7 C-1.3813074 9.32597511 -1.72460254 11.65912158 -2 14 C-2.66 14 -3.32 14 -4 14 C-3.67 22.58 -3.34 31.16 -3 40 C-5.74210615 37.25789385 -5.25797781 35.68862434 -5.265625 31.85546875 C-5.26820312 30.62119141 -5.27078125 29.38691406 -5.2734375 28.11523438 C-5.26570313 26.81908203 -5.25796875 25.52292969 -5.25 24.1875 C-5.25773437 22.90294922 -5.26546875 21.61839844 -5.2734375 20.29492188 C-5.27085938 19.05677734 -5.26828125 17.81863281 -5.265625 16.54296875 C-5.26336914 15.40883545 -5.26111328 14.27470215 -5.25878906 13.10620117 C-4.8321599 7.98544377 -2.69964193 4.29488489 0 0 Z " fill="#FC3976" transform="translate(95,58)"/>
<path d="M0 0 C7.18456726 1.76225235 7.18456726 1.76225235 10 5 C10.99 5.33 11.98 5.66 13 6 C13 7.32 13 8.64 13 10 C5.57815275 9.39165187 5.57815275 9.39165187 3.0625 7.6875 C1.8702606 5.7939433 1.42346678 4.18791169 1 2 C0.67 1.34 0.34 0.68 0 0 Z " fill="#06BFC2" transform="translate(95,142)"/>
<path d="M0 0 C3.48670834 1.1094072 6.77484237 2.26337666 10 4 C9.34 5.98 8.68 7.96 8 10 C4.08788267 8.84414715 1.1254959 7.64465038 -2 5 C-0.68 4.67 0.64 4.34 2 4 C2 3.34 2 2.68 2 2 C1.34 2 0.68 2 0 2 C0 1.34 0 0.68 0 0 Z " fill="#F1B326" transform="translate(176,17)"/>
<path d="M0 0 C0.66 0.33 1.32 0.66 2 1 C2 1.99 2 2.98 2 4 C1.01 4.495 1.01 4.495 0 5 C-0.33 5.99 -0.66 6.98 -1 8 C-1.99 8.495 -1.99 8.495 -3 9 C-3.33 9.99 -3.66 10.98 -4 12 C-5.875 12.8125 -5.875 12.8125 -8 13 C-8.99 12.34 -9.98 11.68 -11 11 C-7.37 7.37 -3.74 3.74 0 0 Z " fill="#14B9CA" transform="translate(96,20)"/>
<path d="M0 0 C0.66 0 1.32 0 2 0 C1.98952637 0.68924561 1.97905273 1.37849121 1.96826172 2.08862305 C1.5825772 20.15386508 1.5825772 20.15386508 4 38 C2 37 2 37 0.88720703 34.39794922 C-0.0877934 30.66375658 -0.22718478 27.48935787 -0.1953125 23.6328125 C-0.1924826 22.95322479 -0.18965271 22.27363708 -0.18673706 21.57345581 C-0.17562964 19.42378392 -0.15054391 17.27454386 -0.125 15.125 C-0.11495795 13.65886023 -0.10583425 12.19271386 -0.09765625 10.7265625 C-0.07572159 7.15090369 -0.04125814 3.57549406 0 0 Z " fill="#30B208" transform="translate(77,68)"/>
<path d="M0 0 C1.4540625 0.0309375 1.4540625 0.0309375 2.9375 0.0625 C2.6075 0.7225 2.2775 1.3825 1.9375 2.0625 C0.9475 2.0625 -0.0425 2.0625 -1.0625 2.0625 C-1.0625 2.7225 -1.0625 3.3825 -1.0625 4.0625 C-3.58340778 4.0897367 -6.10401457 4.10945207 -8.625 4.125 C-9.68170898 4.13756836 -9.68170898 4.13756836 -10.75976562 4.15039062 C-15.30274798 4.17132603 -19.58034892 3.81050682 -24.0625 3.0625 C-24.0625 2.7325 -24.0625 2.4025 -24.0625 2.0625 C-23.46187744 2.03744385 -22.86125488 2.0123877 -22.24243164 1.98657227 C-19.53638563 1.8709472 -16.83071717 1.74807064 -14.125 1.625 C-13.17947266 1.58568359 -12.23394531 1.54636719 -11.25976562 1.50585938 C-10.36064453 1.46396484 -9.46152344 1.42207031 -8.53515625 1.37890625 C-7.70250244 1.34224854 -6.86984863 1.30559082 -6.01196289 1.26782227 C-3.11440667 0.96264446 -3.33511578 0.06806359 0 0 Z " fill="#02C213" transform="translate(167.0625,154.9375)"/>
<path d="M0 0 C0.7425 0.37125 1.485 0.7425 2.25 1.125 C3.1575 1.41375 4.065 1.7025 5 2 C5.66 1.649375 6.32 1.29875 7 0.9375 C7.66 0.628125 8.32 0.31875 9 0 C11.75 1.375 11.75 1.375 14 3 C13.34 4.65 12.68 6.3 12 8 C7.44328408 6.48109469 3.68276708 4.04597738 0 1 C0 0.67 0 0.34 0 0 Z " fill="#FAB00A" transform="translate(103,138)"/>
<path d="M0 0 C0 0.99 0 1.98 0 3 C-0.99 3 -1.98 3 -3 3 C-3 3.66 -3 4.32 -3 5 C-4.32 5 -5.64 5 -7 5 C-7 6.32 -7 7.64 -7 9 C-8.43429001 9.67354499 -9.87257057 10.33859701 -11.3125 11 C-12.51326172 11.556875 -12.51326172 11.556875 -13.73828125 12.125 C-16 13 -16 13 -19 13 C-5.19444444 0 -5.19444444 0 0 0 Z " fill="#01BD40" transform="translate(114,16)"/>
<path d="M0 0 C0 0.99 0 1.98 0 3 C-0.99 3 -1.98 3 -3 3 C-1.68 3.66 -0.36 4.32 1 5 C-4.625 9 -4.625 9 -8 9 C-7.67 7.68 -7.34 6.36 -7 5 C-7.99 4.67 -8.98 4.34 -10 4 C-3.375 0 -3.375 0 0 0 Z " fill="#E8B719" transform="translate(125,17)"/>
<path d="M0 0 C0.66 0.66 1.32 1.32 2 2 C1.67 2.99 1.34 3.98 1 5 C-7.28982104 5.43630637 -14.95969329 3.77967263 -23 2 C-23 1.67 -23 1.34 -23 1 C-21.52093108 0.97310784 -20.04172517 0.95365379 -18.5625 0.9375 C-17.73878906 0.92589844 -16.91507813 0.91429687 -16.06640625 0.90234375 C-14 1 -14 1 -13 2 C-11.37860563 2.12494616 -9.75115878 2.17571624 -8.125 2.1875 C-6.79855469 2.20876953 -6.79855469 2.20876953 -5.4453125 2.23046875 C-2.74233274 2.17068424 -2.74233274 2.17068424 0 0 Z " fill="#22AFB7" transform="translate(149,162)"/>
<path d="M0 0 C-1.1033102 1.58393026 -2.20768544 3.16711868 -3.3125 4.75 C-3.92738281 5.63171875 -4.54226562 6.5134375 -5.17578125 7.421875 C-6.74833065 9.64432169 -8.35368512 11.83192994 -10 14 C-10.66 12.35 -11.32 10.7 -12 9 C-10.6875 7.5 -10.6875 7.5 -9 6 C-8.01 6 -7.02 6 -6 6 C-6.185625 5.38125 -6.37125 4.7625 -6.5625 4.125 C-7 2 -7 2 -6 0 C-2.49056604 -1.24528302 -2.49056604 -1.24528302 0 0 Z " fill="#17B80E" transform="translate(95,38)"/>
<path d="M0 0 C1.65 0.99 3.3 1.98 5 3 C4.34 3.66 3.68 4.32 3 5 C3.66 5.45375 4.32 5.9075 5 6.375 C5.66 6.91125 6.32 7.4475 7 8 C7 8.66 7 9.32 7 10 C1.73829306 8.58832253 -1.72171358 6.25149768 -6 3 C-2.25 1.875 -2.25 1.875 0 3 C0 2.01 0 1.02 0 0 Z " fill="#12B8BF" transform="translate(108,149)"/>
<path d="M0 0 C3.42931954 3.7559214 4.56429083 8.23466745 6 13 C4.35 13.33 2.7 13.66 1 14 C0.8046875 11.94921875 0.609375 9.8984375 0.4140625 7.84765625 C0.27742188 7.23792969 0.14078125 6.62820312 0 6 C-0.66 5.67 -1.32 5.34 -2 5 C-1.34 5 -0.68 5 0 5 C0 3.35 0 1.7 0 0 Z " fill="#FDAE06" transform="translate(87,106)"/>
<path d="M0 0 C0.66 0 1.32 0 2 0 C1.67 5.61 1.34 11.22 1 17 C0.01 16.67 -0.98 16.34 -2 16 C-2.05402274 13.89611431 -2.09280256 11.79183286 -2.125 9.6875 C-2.14820312 8.51574219 -2.17140625 7.34398438 -2.1953125 6.13671875 C-2 3 -2 3 0 0 Z " fill="#FE5F13" transform="translate(87,73)"/>
<path d="M0 0 C3.63 0.33 7.26 0.66 11 1 C11 1.66 11 2.32 11 3 C15.95 3 20.9 3 26 3 C26 3.66 26 4.32 26 5 C8.14350797 4.40546697 8.14350797 4.40546697 0 1 C0 0.67 0 0.34 0 0 Z " fill="#00BD44" transform="translate(124,156)"/>
<path d="M0 0 C0.33 0.66 0.66 1.32 1 2 C1.66 1.67 2.32 1.34 3 1 C3.33 2.32 3.66 3.64 4 5 C2.58603098 5.50757862 1.16868271 6.00574925 -0.25 6.5 C-1.43335938 6.91765625 -1.43335938 6.91765625 -2.640625 7.34375 C-5 8 -5 8 -9 8 C-9 7.34 -9 6.68 -9 6 C-7.02 6 -5.04 6 -3 6 C-3 4.68 -3 3.36 -3 2 C-3.99 1.67 -4.98 1.34 -6 1 C-3 0 -3 0 0 0 Z " fill="#E5641F" transform="translate(171,141)"/>
<path d="M0 0 C5.77759884 -0.12036664 11.27959989 0.1679418 17 1 C15.8125 3 15.8125 3 14 5 C10.39429145 5.55472439 8.10391762 4.83935859 5 3 C5 2.34 5 1.68 5 1 C3.35 1 1.7 1 0 1 C0 0.67 0 0.34 0 0 Z " fill="#03C3B4" transform="translate(133,160)"/>
<path d="M0 0 C0.99 0 1.98 0 3 0 C3 1.32 3 2.64 3 4 C3.99 4 4.98 4 6 4 C6 4.99 6 5.98 6 7 C6.33 6.34 6.66 5.68 7 5 C7.66 5 8.32 5 9 5 C9.33 6.98 9.66 8.96 10 11 C11.32 11.33 12.64 11.66 14 12 C13.34 12 12.68 12 12 12 C11.67 12.66 11.34 13.32 11 14 C9.53238987 12.61392377 8.07625811 11.21568805 6.625 9.8125 C5.81289062 9.03519531 5.00078125 8.25789062 4.1640625 7.45703125 C2.01140148 5.012945 0.99367294 3.07383443 0 0 Z " fill="#DAC311" transform="translate(91,124)"/>
<path d="M0 0 C2.35448165 2.55068845 2.98327924 3.71017358 3.1875 7.25 C3.125625 8.1575 3.06375 9.065 3 10 C3.66 10 4.32 10 5 10 C5 11.32 5 12.64 5 14 C5.66 14 6.32 14 7 14 C7.33 16.64 7.66 19.28 8 22 C5.47345585 18.90294589 3.86965226 15.80044047 2.3125 12.125 C1.87550781 11.11695312 1.43851562 10.10890625 0.98828125 9.0703125 C-0.04404642 5.86316014 -0.18476838 3.34580574 0 0 Z " fill="#CDC412" transform="translate(80,98)"/>
<path d="M0 0 C1.30324219 0.52400391 1.30324219 0.52400391 2.6328125 1.05859375 C3.78523438 1.51363281 4.93765625 1.96867188 6.125 2.4375 C7.83042969 3.11619141 7.83042969 3.11619141 9.5703125 3.80859375 C12.74206741 4.91039927 15.67942748 5.56095774 19 6 C19 6.33 19 6.66 19 7 C14.51330688 7.08973386 10.41118812 6.78421122 6 6 C4.68 6 3.36 6 2 6 C1.34 4.02 0.68 2.04 0 0 Z " fill="#FE5036" transform="translate(119,136)"/>
<path d="M0 0 C2.43294867 3.22346511 4.81446918 6.48221985 7.1875 9.75 C7.90292969 10.73484375 8.61835937 11.7196875 9.35546875 12.734375 C9.89816406 13.48203125 10.44085938 14.2296875 11 15 C9 16 9 16 6.4375 15.4375 C5.633125 14.963125 4.82875 14.48875 4 14 C3.3125 10.9375 3.3125 10.9375 3 8 C2.34 7.67 1.68 7.34 1 7 C0.59270772 4.67843403 0.25561323 2.3431213 0 0 Z " fill="#23B60C" transform="translate(85,116)"/>
<path d="M0 0 C0.556875 0.70125 1.11375 1.4025 1.6875 2.125 C5.59988498 6.98904619 9.52444087 11.65231398 14 16 C11.625 15.8125 11.625 15.8125 9 15 C8.29788106 13.34795544 7.63028587 11.68076231 7 10 C4.95894361 9.11306697 4.95894361 9.11306697 3 9 C2.67 7.35 2.34 5.7 2 4 C1.34 4 0.68 4 0 4 C0 2.68 0 1.36 0 0 Z " fill="#D5388B" transform="translate(102,112)"/>
<path d="M0 0 C0.66 0.66 1.32 1.32 2 2 C-3.94 7.445 -3.94 7.445 -10 13 C-10.33 12.01 -10.66 11.02 -11 10 C-10.01 9.67 -9.02 9.34 -8 9 C-7.26676204 6.98491642 -7.26676204 6.98491642 -7 5 C-5.35 4.67 -3.7 4.34 -2 4 C-2 3.34 -2 2.68 -2 2 C-1.34 2 -0.68 2 0 2 C0 1.34 0 0.68 0 0 Z " fill="#03C4BB" transform="translate(103,19)"/>
<path d="M0 0 C5.94 2.475 5.94 2.475 12 5 C8 6 8 6 5 5 C5.95865509 7.33075929 5.95865509 7.33075929 9 9 C4.25 8.125 4.25 8.125 2 7 C1.26924352 4.6859378 0.59861742 2.35171131 0 0 Z " fill="#E8368C" transform="translate(121,131)"/>
<path d="M0 0 C0.99 0.33 1.98 0.66 3 1 C1.41078475 6.36095277 -0.18972938 11.70843973 -2 17 C-2.33 17 -2.66 17 -3 17 C-3 14.03 -3 11.06 -3 8 C-2.67 8 -2.34 8 -2 8 C-1.855625 6.865625 -1.71125 5.73125 -1.5625 4.5625 C-1 1 -1 1 0 0 Z " fill="#18B710" transform="translate(82,51)"/>
<path d="M0 0 C2.64 1.98 5.28 3.96 8 6 C7.01 6.495 7.01 6.495 6 7 C3.96855359 6.06553465 1.96466413 5.06775224 0 4 C0 2.68 0 1.36 0 0 Z M1 5 C2.37562854 6.28965176 3.70766393 7.62689293 5 9 C5 9.66 5 10.32 5 11 C1.83884224 9.63016497 1.0072908 9.0109362 -1 6 C-0.34 5.67 0.32 5.34 1 5 Z " fill="#0FBEB9" transform="translate(93,137)"/>
<path d="M0 0 C1.28958647 2.3949463 2.16463335 4.55975338 2.9375 7.1875 C3.288125 8.115625 3.63875 9.04375 4 10 C4.99 10.33 5.98 10.66 7 11 C7 11.99 7 12.98 7 14 C7.66 14 8.32 14 9 14 C8.67 14.66 8.34 15.32 8 16 C7.34 15.67 6.68 15.34 6 15 C6 14.34 6 13.68 6 13 C5.34 13 4.68 13 4 13 C4 12.34 4 11.68 4 11 C2.68 10.67 1.36 10.34 0 10 C0.66 8.68 1.32 7.36 2 6 C1.34 6 0.68 6 0 6 C0 4.02 0 2.04 0 0 Z " fill="#FE5928" transform="translate(93,106)"/>
<path d="M0 0 C2.64 0.33 5.28 0.66 8 1 C8 1.66 8 2.32 8 3 C9.32 3 10.64 3 12 3 C12 3.66 12 4.32 12 5 C7.18061476 5.23509196 3.53701494 4.45184478 -1 3 C-0.67 2.01 -0.34 1.02 0 0 Z " fill="#03C1D4" transform="translate(130,160)"/>
<path d="M0 0 C0.66 0 1.32 0 2 0 C2 0.66 2 1.32 2 2 C2.78375 2.144375 3.5675 2.28875 4.375 2.4375 C7 3 7 3 9 4 C8.67 5.98 8.34 7.96 8 10 C3.92236229 7.13463296 1.97322935 4.56958375 0 0 Z " fill="#02BE36" transform="translate(87,128)"/>
<path d="M0 0 C1.485 0.99 1.485 0.99 3 2 C3 3.32 3 4.64 3 6 C3.66 6 4.32 6 5 6 C4.625 8.4375 4.625 8.4375 4 11 C3.01 11.495 3.01 11.495 2 12 C0.70756464 7.8803623 -0.26252625 4.33168317 0 0 Z " fill="#07BCD2" transform="translate(78,118)"/>
<path d="M0 0 C0.042721 1.66611905 0.04063832 3.33382885 0 5 C-1 6 -1 6 -2.76586914 6.02172852 C-3.88916626 5.95103149 -3.88916626 5.95103149 -5.03515625 5.87890625 C-5.84404297 5.83056641 -6.65292969 5.78222656 -7.48632812 5.73242188 C-8.7615332 5.64831055 -8.7615332 5.64831055 -10.0625 5.5625 C-10.91650391 5.51029297 -11.77050781 5.45808594 -12.65039062 5.40429688 C-14.76721995 5.27421239 -16.88365244 5.13770029 -19 5 C-19 4.67 -19 4.34 -19 4 C-13.39 4 -7.78 4 -2 4 C-2.33 3.01 -2.66 2.02 -3 1 C-1 0 -1 0 0 0 Z " fill="#D13E89" transform="translate(163,24)"/>
<path d="M0 0 C1.32 0.33 2.64 0.66 4 1 C4 1.66 4 2.32 4 3 C4.804375 3.37125 4.804375 3.37125 5.625 3.75 C8.5966724 5.3140381 11.31168617 6.98376462 14 9 C14 9.99 14 10.98 14 12 C8.91209901 8.82006188 4.31796773 5.17549671 0 1 C0 0.67 0 0.34 0 0 Z " fill="#00BE45" transform="translate(95,138)"/>
<path d="M0 0 C1.32 0.33 2.64 0.66 4 1 C4 2.98 4 4.96 4 7 C4.66 7 5.32 7 6 7 C5.34 8.32 4.68 9.64 4 11 C1.52214277 7.33708062 0.51035831 4.3890815 0 0 Z " fill="#FC6014" transform="translate(87,99)"/>
<path d="M0 0 C0.33 1.65 0.66 3.3 1 5 C-1.31 5 -3.62 5 -6 5 C-6 3.68 -6 2.36 -6 1 C-4 0 -4 0 0 0 Z " fill="#15B627" transform="translate(120,14)"/>
<path d="M0 0 C4.75 0.875 4.75 0.875 7 2 C7 3.32 7 4.64 7 6 C4.69 5.34 2.38 4.68 0 4 C0 2.68 0 1.36 0 0 Z " fill="#01BF27" transform="translate(114,149)"/>
<path d="M0 0 C0.66 0 1.32 0 2 0 C3.42258812 3.82320557 4.24042276 6.91281305 4 11 C2.68 10.34 1.36 9.68 0 9 C0 6.03 0 3.06 0 0 Z " fill="#01C0D4" transform="translate(69,91)"/>
<path d="M0 0 C-0.33 1.65 -0.66 3.3 -1 5 C-1.99 4.67 -2.98 4.34 -4 4 C-4.268125 4.639375 -4.53625 5.27875 -4.8125 5.9375 C-6 8 -6 8 -9 9 C-8.09729807 5.30712847 -7.59508949 3.44631711 -4.5 1.125 C-2 0 -2 0 0 0 Z " fill="#F53193" transform="translate(105,49)"/>
<path d="M0 0 C0 0.66 0 1.32 0 2 C-0.99 2.33 -1.98 2.66 -3 3 C-4.20882096 5.00016466 -4.20882096 5.00016466 -5 7 C-6.65 7 -8.3 7 -10 7 C-10 7.66 -10 8.32 -10 9 C-10.99 8.67 -11.98 8.34 -13 8 C-11.2126038 6.66094733 -9.41995047 5.32890934 -7.625 4 C-6.62726563 3.2575 -5.62953125 2.515 -4.6015625 1.75 C-2 0 -2 0 0 0 Z " fill="#D3C313" transform="translate(115,22)"/>
<path d="M0 0 C3.63 0 7.26 0 11 0 C11 0.66 11 1.32 11 2 C8.24921116 2.91692961 6.64051087 3.10886083 3.8125 3.0625 C1.9253125 3.0315625 1.9253125 3.0315625 0 3 C0 2.01 0 1.02 0 0 Z " fill="#FEB703" transform="translate(140,14)"/>
<path d="M0 0 C1.5625 1.25 1.5625 1.25 3 3 C2.6875 5.1875 2.6875 5.1875 2 7 C1.01 6.67 0.02 6.34 -1 6 C-0.34 6 0.32 6 1 6 C0.67 5.34 0.34 4.68 0 4 C-2.64 4 -5.28 4 -8 4 C-5.33440687 2.22293791 -2.9719385 1.12451727 0 0 Z " fill="#25A328" transform="translate(178,149)"/>
<path d="M0 0 C1.48285242 0.95262034 2.96118201 1.91228405 4.4375 2.875 C5.67306641 3.67550781 5.67306641 3.67550781 6.93359375 4.4921875 C9 6 9 6 10 8 C7.39417629 8.93065133 6.35801776 9.14917407 3.75 8.0625 C3.1725 7.711875 2.595 7.36125 2 7 C2 6.01 2 5.02 2 4 C1.05021103 1.84971696 1.05021103 1.84971696 0 0 Z " fill="#21B610" transform="translate(101,137)"/>
<path d="M0 0 C4.66666667 4 9.33333333 8 14 12 C10.66843858 12 8.93971885 11.54335239 6 10 C4.375 7.5625 4.375 7.5625 3 5 C2.443125 4.443125 1.88625 3.88625 1.3125 3.3125 C0.879375 2.879375 0.44625 2.44625 0 2 C0 1.34 0 0.68 0 0 Z " fill="#FE553C" transform="translate(102,122)"/>
<path d="M0 0 C0.33 0 0.66 0 1 0 C0.85831863 1.43791516 0.71148957 2.8753237 0.5625 4.3125 C0.48128906 5.11300781 0.40007812 5.91351563 0.31640625 6.73828125 C0 9 0 9 -1 12 C-1.66 12 -2.32 12 -3 12 C-3.33 12.99 -3.66 13.98 -4 15 C-3.50341703 9.33895411 -2.45489316 5.12325529 0 0 Z " fill="#2C0317" transform="translate(100,59)"/>
<path d="M0 0 C2.64 0 5.28 0 8 0 C8 1.98 8 3.96 8 6 C3.23692563 6.95261487 -1.1666528 7.08333357 -6 7 C-6 6.67 -6 6.34 -6 6 C2.42857143 3.57142857 2.42857143 3.57142857 7 5 C7 3.68 7 2.36 7 1 C4.69 1 2.38 1 0 1 C0 0.67 0 0.34 0 0 Z " fill="#2CADBB" transform="translate(142,1)"/>
<path d="M0 0 C0.928125 0.2784375 0.928125 0.2784375 1.875 0.5625 C4.04160178 1.23686176 4.04160178 1.23686176 6 0 C5.67 2.31 5.34 4.62 5 7 C5.66 7 6.32 7 7 7 C7.33 8.32 7.66 9.64 8 11 C7.34 10.67 6.68 10.34 6 10 C6 9.34 6 8.68 6 8 C5.34 8 4.68 8 4 8 C3.67 7.01 3.34 6.02 3 5 C2.484375 4.484375 1.96875 3.96875 1.4375 3.4375 C0.963125 2.963125 0.48875 2.48875 0 2 C0 1.34 0 0.68 0 0 Z " fill="#FB3880" transform="translate(96,112)"/>
<path d="M0 0 C1.98 0.66 3.96 1.32 6 2 C6.33 3.98 6.66 5.96 7 8 C5.35 7.67 3.7 7.34 2 7 C1.7834375 5.824375 1.7834375 5.824375 1.5625 4.625 C1.12201075 2.03578982 1.12201075 2.03578982 0 0 Z " fill="#04C1D4" transform="translate(95,142)"/>
<path d="M0 0 C0.99 0.495 0.99 0.495 2 1 C2 1.99 2 2.98 2 4 C2.66 4 3.32 4 4 4 C5.4606285 6.64738916 6 7.89448334 6 11 C6.66 11 7.32 11 8 11 C7.67 12.32 7.34 13.64 7 15 C0.29612756 5.77448747 0.29612756 5.77448747 0 0 Z " fill="#02BE4C" transform="translate(77,110)"/>
<path d="M0 0 C-1.65 0.33 -3.3 0.66 -5 1 C-5 1.66 -5 2.32 -5 3 C-10.625 4.125 -10.625 4.125 -14 3 C-12.42274653 2.29866401 -10.83788667 1.614417 -9.25 0.9375 C-7.92742187 0.36322266 -7.92742187 0.36322266 -6.578125 -0.22265625 C-3.84743691 -1.04600008 -2.63098653 -0.9773992 0 0 Z " fill="#240110" transform="translate(138,32)"/>
<path d="M0 0 C4.58826282 1.93726652 6.80528594 3.48864333 9 8 C7.35 8 5.7 8 4 8 C4.33 6.68 4.66 5.36 5 4 C3.35 4 1.7 4 0 4 C-0.33 3.34 -0.66 2.68 -1 2 C-0.67 1.34 -0.34 0.68 0 0 Z " fill="#05C2C3" transform="translate(84,129)"/>
<path d="M0 0 C1.9375 0.375 1.9375 0.375 4 1 C4.33 1.66 4.66 2.32 5 3 C7.01669827 4.13350534 7.01669827 4.13350534 9 5 C8.67 6.32 8.34 7.64 8 9 C1.42857143 3.85714286 1.42857143 3.85714286 0 0 Z " fill="#210212" transform="translate(108,119)"/>
<path d="M0 0 C1.31625194 2.63250388 0.74813658 3.80179056 0.0625 6.625 C-0.13214844 7.44226562 -0.32679687 8.25953125 -0.52734375 9.1015625 C-0.76130859 10.04128906 -0.76130859 10.04128906 -1 11 C-2.32 11 -3.64 11 -5 11 C-3.77472971 6.94718288 -2.30119506 3.55639236 0 0 Z " fill="#F96703" transform="translate(94,48)"/>
<path d="M0 0 C2.625 0.375 2.625 0.375 5 1 C4.02433888 2.16959987 3.044375 3.33561177 2.0625 4.5 C1.51722656 5.1496875 0.97195312 5.799375 0.41015625 6.46875 C-0.05519531 6.9740625 -0.52054687 7.479375 -1 8 C-1.33 8 -1.66 8 -2 8 C-2.125 5.125 -2.125 5.125 -2 2 C-1.34 1.34 -0.68 0.68 0 0 Z " fill="#DE338D" transform="translate(109,41)"/>
<path d="M0 0 C2.31 0 4.62 0 7 0 C7.33 0.66 7.66 1.32 8 2 C2.555 3.485 2.555 3.485 -3 5 C-3 4.34 -3 3.68 -3 3 C-2.01 3 -1.02 3 0 3 C0 2.01 0 1.02 0 0 Z " fill="#FBB604" transform="translate(125,17)"/>
<path d="M0 0 C1.1446875 0.495 1.1446875 0.495 2.3125 1 C4.99069135 2.17436686 4.99069135 2.17436686 8 2 C8.33 2.99 8.66 3.98 9 5 C9.99 5.33 10.98 5.66 12 6 C12 6.66 12 7.32 12 8 C7.44328408 6.48109469 3.68276708 4.04597738 0 1 C0 0.67 0 0.34 0 0 Z " fill="#CFC217" transform="translate(103,138)"/>
<path d="M0 0 C1.98 0.495 1.98 0.495 4 1 C4 3.66666667 4 6.33333333 4 9 C1.4375 6.75 1.4375 6.75 -1 4 C-0.8125 1.6875 -0.8125 1.6875 0 0 Z " fill="#16BBCC" transform="translate(85,132)"/>
<path d="M0 0 C0.66 0.99 1.32 1.98 2 3 C-0.31 5.31 -2.62 7.62 -5 10 C-5.33 9.34 -5.66 8.68 -6 8 C-4.02 5.36 -2.04 2.72 0 0 Z " fill="#20010D" transform="translate(108,48)"/>
<path d="M0 0 C0.66 0.33 1.32 0.66 2 1 C2 1.99 2 2.98 2 4 C-2.95 5.485 -2.95 5.485 -8 7 C-5.74441032 2.48882064 -4.54705717 1.79987679 0 0 Z " fill="#FA3198" transform="translate(122,31)"/>
<path d="M0 0 C0.99 1.32 1.98 2.64 3 4 C2.34 5.32 1.68 6.64 1 8 C-0.9375 7.25 -0.9375 7.25 -3 6 C-3.75 3.875 -3.75 3.875 -4 2 C-3.34 2 -2.68 2 -2 2 C-2 2.99 -2 3.98 -2 5 C-1.34 5 -0.68 5 0 5 C0 3.35 0 1.7 0 0 Z " fill="#E63286" transform="translate(99,106)"/>
<path d="M0 0 C0.33 0 0.66 0 1 0 C1.83861979 5.36716665 -1.07929595 8.79627239 -4 13 C-5.43088528 10.13822943 -4.59991697 8.06624227 -4 5 C-3.01 4.67 -2.02 4.34 -1 4 C-0.26676204 1.98491642 -0.26676204 1.98491642 0 0 Z " fill="#FE533C" transform="translate(99,46)"/>
<path d="M0 0 C0.99 0 1.98 0 3 0 C1.9024777 2.99324263 1.32317108 3.84610901 -1.625 5.25 C-2.40875 5.4975 -3.1925 5.745 -4 6 C-4 4.68 -4 3.36 -4 2 C-2.68 2 -1.36 2 0 2 C0 1.34 0 0.68 0 0 Z " fill="#F4AF1D" transform="translate(110,28)"/>
<path d="M0 0 C0 0.66 0 1.32 0 2 C-1.63604196 3.37073786 -3.30678061 4.70055256 -5 6 C-6.0173873 6.98230498 -7.02596117 7.97469597 -8 9 C-8.66 8.67 -9.32 8.34 -10 8 C-8.33333333 6.33333333 -6.66666667 4.66666667 -5 3 C-4.443125 2.401875 -3.88625 1.80375 -3.3125 1.1875 C-2 0 -2 0 0 0 Z " fill="#2A0213" transform="translate(119,39)"/>
<path d="M0 0 C1.33333333 0.66666667 2.66666667 1.33333333 4 2 C5.051875 2.474375 6.10375 2.94875 7.1875 3.4375 C10 5 10 5 11 8 C6.40378078 6.5129879 3.53027653 4.20187872 0 1 C0 0.67 0 0.34 0 0 Z " fill="#F66A03" transform="translate(105,132)"/>
<path d="M0 0 C1.65 1.65 3.3 3.3 5 5 C3.02 5.33 1.04 5.66 -1 6 C-1.33 4.68 -1.66 3.36 -2 2 C-1.34 2 -0.68 2 0 2 C0 1.34 0 0.68 0 0 Z " fill="#15B813" transform="translate(96,132)"/>
<path d="M0 0 C0.99 0.33 1.98 0.66 3 1 C3.33 2.98 3.66 4.96 4 7 C2.68 7 1.36 7 0 7 C0 4.69 0 2.38 0 0 Z " fill="#1BBB11" transform="translate(79,105)"/>
<path d="M0 0 C0 2.70254461 -0.03430669 4.50529228 -1 7 C-3.0625 8.25 -3.0625 8.25 -5 9 C-3.7508258 5.54074837 -2.32472205 2.85306797 0 0 Z M0 4 C2 5 2 5 2 5 Z " fill="#CDC215" transform="translate(92,41)"/>
<path d="M0 0 C8.19256018 -0.4726477 8.19256018 -0.4726477 11.5625 1.5 C12.036875 1.995 12.51125 2.49 13 3 C11.58249437 2.88490339 10.16598831 2.75746342 8.75 2.625 C7.96109375 2.55539063 7.1721875 2.48578125 6.359375 2.4140625 C3.914123 1.98492887 2.15163097 1.21399362 0 0 Z " fill="#17AABC" transform="translate(126,163)"/>
<path d="M0 0 C3.37462715 0.54723683 5.08235 1.0549 8 3 C8 3.66 8 4.32 8 5 C4.75791433 4.64950425 3.38472296 4.43778819 1.1875 1.9375 C0.795625 1.298125 0.40375 0.65875 0 0 Z " fill="#01C1D7" transform="translate(110,153)"/>
<path d="M0 0 C0.99 0 1.98 0 3 0 C3.33 1.65 3.66 3.3 4 5 C4.66 5 5.32 5 6 5 C6 5.66 6 6.32 6 7 C5.01 7 4.02 7 3 7 C2.67 5.68 2.34 4.36 2 3 C1.34 3 0.68 3 0 3 C0 2.01 0 1.02 0 0 Z " fill="#FC2F9D" transform="translate(101,116)"/>
<path d="M0 0 C0.5534764 2.07553648 1 3.84365964 1 6 C-0.98 6.66 -2.96 7.32 -5 8 C-3.8141763 4.62496331 -2.72426311 2.35277269 0 0 Z " fill="#FC3D6E" transform="translate(105,42)"/>
<path d="M0 0 C0.33 0 0.66 0 1 0 C1 1.65 1 3.3 1 5 C-0.98 5.99 -0.98 5.99 -3 7 C-3 7.99 -3 8.98 -3 10 C-3.66 9.67 -4.32 9.34 -5 9 C-3.35 6.03 -1.7 3.06 0 0 Z " fill="#19BBC6" transform="translate(80,38)"/>
<path d="M0 0 C3.125 -0.1875 3.125 -0.1875 6 0 C5.01 0.495 5.01 0.495 4 1 C4 1.99 4 2.98 4 4 C1.03 3.505 1.03 3.505 -2 3 C-1.34 2.01 -0.68 1.02 0 0 Z " fill="#03BFD2" transform="translate(120,7)"/>
<path d="M0 0 C0.66 0 1.32 0 2 0 C2.66 2.31 3.32 4.62 4 7 C2.68 7 1.36 7 0 7 C0 4.69 0 2.38 0 0 Z " fill="#00C4C9" transform="translate(75,110)"/>
<path d="M0 0 C1.36125 0.12375 1.36125 0.12375 2.75 0.25 C-2.65 3.85 -2.65 3.85 -5.25 5.25 C-5.91 4.92 -6.57 4.59 -7.25 4.25 C-4.83923194 1.28290085 -3.90322061 0.30024774 0 0 Z " fill="#05C3B3" transform="translate(116.25,12.75)"/>
<path d="M0 0 C0.99 0.33 1.98 0.66 3 1 C3.33 2.65 3.66 4.3 4 6 C2.68 5.67 1.36 5.34 0 5 C-0.5625 3.0625 -0.5625 3.0625 -1 1 C-0.67 0.67 -0.34 0.34 0 0 Z " fill="#02BE22" transform="translate(86,123)"/>
<path d="M0 0 C0.99 0.33 1.98 0.66 3 1 C3.33 2.98 3.66 4.96 4 7 C3.01 6.67 2.02 6.34 1 6 C1 5.01 1 4.02 1 3 C0.34 3 -0.32 3 -1 3 C-0.67 2.01 -0.34 1.02 0 0 Z " fill="#03C11C" transform="translate(80,111)"/>
<path d="M0 0 C0.33 0 0.66 0 1 0 C1.33 2.31 1.66 4.62 2 7 C1.01 7.33 0.02 7.66 -1 8 C-1.33 8.99 -1.66 9.98 -2 11 C-1.125 3.375 -1.125 3.375 0 0 Z " fill="#1FB5C8" transform="translate(70,59)"/>
<path d="M0 0 C1.98 0 3.96 0 6 0 C6 0.66 6 1.32 6 2 C5.34 2 4.68 2 4 2 C4 2.66 4 3.32 4 4 C2.68 3.67 1.36 3.34 0 3 C0 2.01 0 1.02 0 0 Z " fill="#03C3D8" transform="translate(97,19)"/>
<path d="M0 0 C4.95 0.99 4.95 0.99 10 2 C10 2.33 10 2.66 10 3 C8.72125 3.061875 7.4425 3.12375 6.125 3.1875 C5.40570313 3.22230469 4.68640625 3.25710937 3.9453125 3.29296875 C3.30335938 3.19628906 2.66140625 3.09960938 2 3 C1.34 2.01 0.68 1.02 0 0 Z " fill="#21A728" transform="translate(127,152)"/>
<path d="M0 0 C1.46726798 3.81489674 0.43336419 6.29011622 -1 10 C-1.33 10 -1.66 10 -2 10 C-2 7.03 -2 4.06 -2 1 C-1.34 0.67 -0.68 0.34 0 0 Z " fill="#25B509" transform="translate(81,58)"/>
<path d="" fill="#FFFFFF" transform="translate(0,0)"/>
<path d="" fill="#FFFFFF" transform="translate(0,0)"/>
<path d="" fill="#FFFFFF" transform="translate(0,0)"/>
<path d="" fill="#FFFFFF" transform="translate(0,0)"/>
<path d="" fill="#FFFFFF" transform="translate(0,0)"/>
<path d="" fill="#FFFFFF" transform="translate(0,0)"/>
<path d="" fill="#FFFFFF" transform="translate(0,0)"/>
<path d="" fill="#FFFFFF" transform="translate(0,0)"/>
<path d="" fill="#FFFFFF" transform="translate(0,0)"/>
<path d="" fill="#FFFFFF" transform="translate(0,0)"/>
<path d="" fill="#FFFFFF" transform="translate(0,0)"/>
<path d="" fill="#FFFFFF" transform="translate(0,0)"/>
<path d="" fill="#FFFFFF" transform="translate(0,0)"/>
<path d="" fill="#FFFFFF" transform="translate(0,0)"/>
<path d="" fill="#FFFFFF" transform="translate(0,0)"/>
<path d="" fill="#FFFFFF" transform="translate(0,0)"/>
<path d="" fill="#FFFFFF" transform="translate(0,0)"/>
<path d="" fill="#FFFFFF" transform="translate(0,0)"/>
<path d="" fill="#FFFFFF" transform="translate(0,0)"/>
<path d="" fill="#FFFFFF" transform="translate(0,0)"/>
<path d="" fill="#FFFFFF" transform="translate(0,0)"/>
<path d="" fill="#FFFFFF" transform="translate(0,0)"/>
<path d="" fill="#FFFFFF" transform="translate(0,0)"/>
<path d="" fill="#FFFFFF" transform="translate(0,0)"/>
<path d="" fill="#FFFFFF" transform="translate(0,0)"/>
<path d="" fill="#FFFFFF" transform="translate(0,0)"/>
<path d="" fill="#FFFFFF" transform="translate(0,0)"/>
<path d="" fill="#FFFFFF" transform="translate(0,0)"/>
<path d="" fill="#FFFFFF" transform="translate(0,0)"/>
<path d="" fill="#FFFFFF" transform="translate(0,0)"/>
<path d="" fill="#FFFFFF" transform="translate(0,0)"/>
<path d="" fill="#FFFFFF" transform="translate(0,0)"/>
<path d="" fill="#FFFFFF" transform="translate(0,0)"/>
<path d="" fill="#FFFFFF" transform="translate(0,0)"/>
<path d="" fill="#FFFFFF" transform="translate(0,0)"/>
<path d="" fill="#FFFFFF" transform="translate(0,0)"/>
<path d="" fill="#FFFFFF" transform="translate(0,0)"/>
<path d="" fill="#FFFFFF" transform="translate(0,0)"/>
<path d="" fill="#FFFFFF" transform="translate(0,0)"/>
<path d="" fill="#FFFFFF" transform="translate(0,0)"/>
<path d="" fill="#FFFFFF" transform="translate(0,0)"/>
<path d="" fill="#FFFFFF" transform="translate(0,0)"/>
<path d="" fill="#FFFFFF" transform="translate(0,0)"/>
<path d="" fill="#FFFFFF" transform="translate(0,0)"/>
<path d="" fill="#FFFFFF" transform="translate(0,0)"/>
<path d="" fill="#FFFFFF" transform="translate(0,0)"/>
<path d="" fill="#FFFFFF" transform="translate(0,0)"/>
<path d="" fill="#FFFFFF" transform="translate(0,0)"/>
<path d="" fill="#FFFFFF" transform="translate(0,0)"/>
<path d="" fill="#FFFFFF" transform="translate(0,0)"/>
</svg>
